<?xml version="1.0" encoding="UTF-8" standalone="no"?><!DOCTYPE svg PUBLIC "-//W3C//DTD SVG 1.1//EN" "http://www.w3.org/Graphics/SVG/1.1/DTD/svg11.dtd"><svg width="100%" height="100%" viewBox="0 0 300 200" version="1.1" xmlns="http://www.w3.org/2000/svg" xmlns:xlink="http://www.w3.org/1999/xlink" xml:space="preserve" style="fill-rule:evenodd;clip-rule:evenodd;stroke-linejoin:round;stroke-miterlimit:1.41421;"><g id="Layer1"><rect x="-0.191" y="0.113" width="300.234" height="200.26" style="fill:#fabf40;"/><g><g><path d="M167.82,49.856l-52.479,0c-1.342,0 -2.55,1.074 -2.55,2.55l0,95.965c0,1.342 1.074,2.55 2.55,2.55l68.987,0c1.342,0 2.551,-1.074 2.551,-2.55l0,-79.456c0,-0.671 -0.269,-1.342 -0.806,-1.745l-16.374,-16.643c-0.537,-0.402 -1.208,-0.671 -1.879,-0.671Z" style="fill:#f2f2f2;fill-rule:nonzero;"/><path d="M171.444,67.841l14.629,0c0.269,0 0.403,-0.403 0.269,-0.537l-16.912,-16.911c-0.268,-0.269 -0.536,0 -0.536,0.268l0,14.63c0,1.342 1.073,2.55 2.55,2.55Z" style="fill:#ccc;fill-rule:nonzero;"/><rect x="118.831" y="55.353" width="46.38" height="15.728" style="fill:#4cdbc4;"/><text x="122.577px" y="65.183px" style="font-family:'ArialMT', 'Arial', sans-serif;font-size:7px;fill:#f1e7e7;">CONTRACT</text><rect x="118.831" y="76.162" width="61.874" height="2.55" style="fill:#dbdbdb;"/><rect x="118.831" y="83.276" width="61.874" height="2.55" style="fill:#dbdbdb;"/><rect x="118.831" y="90.523" width="45.097" height="2.55" style="fill:#dbdbdb;"/><rect x="118.831" y="97.771" width="55.834" height="2.55" style="fill:#dbdbdb;"/><rect x="118.831" y="105.019" width="59.592" height="2.55" style="fill:#dbdbdb;"/><rect x="118.831" y="112.266" width="45.097" height="2.55" style="fill:#dbdbdb;"/><rect x="118.831" y="119.38" width="61.874" height="2.55" style="fill:#dbdbdb;"/><path d="M137.487,136.828l-1.745,-1.745l0.94,-2.55l-2.282,-0.805l0,-2.416l-2.55,0l-1.074,-2.282l-2.147,0.94l-1.745,-1.745l-1.745,1.879l-2.55,-0.94l-0.805,2.148l-2.282,0l0,2.684l-2.416,1.074l0.94,2.147l-1.745,1.611l1.879,1.879l-0.94,2.416l2.282,0.939l0,2.282l2.55,0l1.074,2.416l2.147,-0.939l1.611,1.61l1.879,-1.879l2.416,1.074l0.939,-2.282l2.282,0l0,-2.55l2.416,-1.074l-0.939,-2.147l1.61,-1.745Z" style="fill:#f1543f;fill-rule:nonzero;"/><circle cx="126.884" cy="136.828" r="7.785" style="fill:#ff7058;"/><path d="M155.07,144.21c-0.671,0 -1.074,-0.268 -1.342,-0.805c-0.403,-0.671 -0.135,-1.745 0.536,-2.282c0.135,-0.134 0.403,-0.268 0.537,-0.403c0.134,0 0.134,-0.134 0.269,-0.134c0.671,-0.537 0.939,-1.476 1.208,-2.416c0.536,-2.415 0.939,-4.831 1.208,-7.65c0,-0.268 0.268,-0.537 0.536,-0.537c0.269,0 0.537,0.135 0.671,0.537c0.537,2.282 0.94,4.564 1.342,6.845c0.269,-0.268 0.537,-0.403 0.94,-0.671c0.268,-0.268 0.671,-0.134 0.805,0l0,0.134l2.014,-1.208c0.134,-0.134 0.402,-0.134 0.671,0c0.134,0.135 0.268,0.269 0.268,0.537c0,0.269 0,0.403 0,0.671c0.134,0 0.269,0 0.269,0.134c0.134,0.135 0.268,0.403 0.268,0.537c0,0.134 0,0.269 -0.134,0.537c1.074,-0.806 2.013,-1.611 2.953,-2.416c2.147,-1.879 4.429,-3.758 7.113,-5.1c0.269,-0.135 0.671,0 0.806,0.268c0.134,0.269 0,0.671 -0.269,0.806c-2.416,1.342 -4.698,3.221 -6.845,4.965c-1.61,1.342 -3.221,2.685 -5.1,3.893c-0.403,0.403 -0.94,0.805 -1.476,1.208c-1.074,0.671 -2.416,1.074 -3.893,1.208c-0.268,0 -0.537,0 -0.671,0c-0.403,0 -0.671,-0.268 -0.671,-0.671c0,-0.403 0.269,-0.671 0.537,-0.671c0.268,0 0.403,0 0.671,0c0.671,-0.134 1.342,-0.403 2.281,-0.805c0.537,-0.269 0.94,-0.537 1.477,-0.806c-0.135,-0.134 -0.135,-0.268 0,-0.402c0.134,-0.806 0.536,-1.477 1.208,-2.014c0,-0.134 0,-0.134 0,-0.268l-1.074,0.671c-0.134,0.134 -0.537,0.268 -0.94,0.268c-0.134,0 -0.134,0 -0.268,-0.134c-0.671,0.537 -1.476,1.074 -2.282,1.611c-0.268,0.134 -0.671,0.134 -0.805,-0.135c-0.134,-0.134 -0.268,-0.402 -0.134,-0.671c0,-0.268 0.268,-0.671 0.537,-0.805c0.134,0 0.134,-0.134 0.268,-0.134l0.134,-0.134l0,-0.135c-0.134,-0.939 -0.268,-1.879 -0.536,-2.953c-0.135,1.342 -0.403,2.685 -0.806,3.893c-0.268,1.208 -0.671,2.416 -1.744,3.087c-0.135,0.134 -0.269,0.134 -0.403,0.268c-0.134,0.134 -0.269,0.134 -0.403,0.269c-0.269,0.268 -0.269,0.536 -0.269,0.805c0,0 0.135,0.134 0.269,0.134c0.134,-0.268 0.671,-0.403 0.94,-0.134c0.268,0.134 0.402,0.537 0.268,0.805c0,0.269 -0.403,0.403 -0.939,0.403Z" style="fill:#54c0eb;fill-rule:nonzero;"/></g></g></g></svg>