<?xml version="1.0" encoding="UTF-8" standalone="no"?><!DOCTYPE svg PUBLIC "-//W3C//DTD SVG 1.1//EN" "http://www.w3.org/Graphics/SVG/1.1/DTD/svg11.dtd"><svg width="100%" height="100%" viewBox="0 0 300 200" version="1.1" xmlns="http://www.w3.org/2000/svg" xmlns:xlink="http://www.w3.org/1999/xlink" xml:space="preserve" style="fill-rule:evenodd;clip-rule:evenodd;stroke-linejoin:round;stroke-miterlimit:1.41421;"><g id="Layer1"><rect x="-0.191" y="0.113" width="300.234" height="200.26" style="fill:#fabf40;"/><g><path d="M216.846,160.118l-132.88,0l0,-111.119c0,-4.943 4.008,-8.949 8.951,-8.949l114.981,0c4.943,0 8.95,4.004 8.95,8.949l0,111.119l-0.002,0Z" style="fill:#868787;fill-rule:nonzero;"/><g><g><path d="M190.968,139.02c-0.6,0 -1.088,-0.488 -1.088,-1.088l0,-6.716c0,-0.6 0.488,-1.089 1.088,-1.089l3.957,0c0.601,0 1.088,0.489 1.088,1.089l0,6.716c0,0.6 -0.487,1.088 -1.088,1.088l-3.957,0Z" style="fill:#e1e0e0;fill-rule:nonzero;"/><path d="M202.531,139.02c-0.601,0 -1.09,-0.488 -1.09,-1.088l0,-6.716c0,-0.6 0.489,-1.089 1.09,-1.089l3.954,0c0.601,0 1.089,0.489 1.089,1.089l0,6.716c0,0.6 -0.488,1.088 -1.089,1.088l-3.954,0Z" style="fill:#e1e0e0;fill-rule:nonzero;"/><path d="M190.968,115.899c-0.6,0 -1.088,-0.486 -1.088,-1.087l0,-6.713c0,-0.601 0.488,-1.09 1.088,-1.09l3.957,0c0.601,0 1.088,0.489 1.088,1.09l0,6.715c0,0.601 -0.487,1.087 -1.088,1.087l-3.957,0l0,-0.002Z" style="fill:#e1e0e0;fill-rule:nonzero;"/><path d="M202.531,115.899c-0.601,0 -1.09,-0.486 -1.09,-1.087l0,-6.713c0,-0.601 0.489,-1.09 1.09,-1.09l3.954,0c0.601,0 1.089,0.489 1.089,1.09l0,6.715c0,0.601 -0.488,1.087 -1.089,1.087l-3.954,0l0,-0.002Z" style="fill:#e1e0e0;fill-rule:nonzero;"/><path d="M190.968,92.78c-0.6,0 -1.088,-0.488 -1.088,-1.088l0,-6.714c0,-0.602 0.488,-1.09 1.088,-1.09l3.957,0c0.601,0 1.088,0.488 1.088,1.09l0,6.714c0,0.6 -0.487,1.088 -1.088,1.088l-3.957,0Z" style="fill:#e1e0e0;fill-rule:nonzero;"/><path d="M202.531,92.78c-0.601,0 -1.09,-0.488 -1.09,-1.088l0,-6.714c0,-0.602 0.489,-1.09 1.09,-1.09l3.954,0c0.601,0 1.089,0.488 1.089,1.09l0,6.714c0,0.6 -0.488,1.088 -1.089,1.088l-3.954,0Z" style="fill:#e1e0e0;fill-rule:nonzero;"/><path d="M190.968,69.661c-0.6,0 -1.088,-0.49 -1.088,-1.09l0,-6.714c0,-0.6 0.488,-1.086 1.088,-1.086l3.957,0c0.601,0 1.088,0.486 1.088,1.086l0,6.715c0,0.601 -0.487,1.09 -1.088,1.09l-3.957,0l0,-0.001Z" style="fill:#e1e0e0;fill-rule:nonzero;"/><path d="M202.531,69.661c-0.601,0 -1.09,-0.49 -1.09,-1.09l0,-6.714c0,-0.6 0.489,-1.086 1.09,-1.086l3.954,0c0.601,0 1.089,0.486 1.089,1.086l0,6.715c0,0.601 -0.488,1.09 -1.089,1.09l-3.954,0l0,-0.001Z" style="fill:#e1e0e0;fill-rule:nonzero;"/></g><g><path d="M158.583,69.661c-0.601,0 -1.088,-0.49 -1.088,-1.09l0,-6.714c0,-0.6 0.487,-1.086 1.088,-1.086l3.957,0c0.6,0 1.088,0.486 1.088,1.086l0,6.715c0,0.601 -0.488,1.09 -1.088,1.09l-3.957,0l0,-0.001Z" style="fill:#e1e0e0;fill-rule:nonzero;"/><path d="M170.145,69.661c-0.6,0 -1.09,-0.49 -1.09,-1.09l0,-6.714c0,-0.6 0.49,-1.086 1.09,-1.086l3.955,0c0.6,0 1.088,0.486 1.088,1.086l0,6.715c0,0.601 -0.488,1.09 -1.088,1.09l-3.955,0l0,-0.001Z" style="fill:#e1e0e0;fill-rule:nonzero;"/><path d="M158.583,139.02c-0.601,0 -1.088,-0.488 -1.088,-1.088l0,-6.716c0,-0.6 0.487,-1.089 1.088,-1.089l3.957,0c0.6,0 1.088,0.489 1.088,1.089l0,6.716c0,0.6 -0.488,1.088 -1.088,1.088l-3.957,0Z" style="fill:#e1e0e0;fill-rule:nonzero;"/><path d="M170.145,139.02c-0.6,0 -1.09,-0.488 -1.09,-1.088l0,-6.716c0,-0.6 0.49,-1.089 1.09,-1.089l3.955,0c0.6,0 1.088,0.489 1.088,1.089l0,6.716c0,0.6 -0.488,1.088 -1.088,1.088l-3.955,0Z" style="fill:#e1e0e0;fill-rule:nonzero;"/><path d="M158.583,115.899c-0.601,0 -1.088,-0.486 -1.088,-1.087l0,-6.713c0,-0.601 0.487,-1.09 1.088,-1.09l3.957,0c0.6,0 1.088,0.489 1.088,1.09l0,6.715c0,0.601 -0.488,1.087 -1.088,1.087l-3.957,0l0,-0.002Z" style="fill:#e1e0e0;fill-rule:nonzero;"/><path d="M170.145,115.899c-0.6,0 -1.09,-0.486 -1.09,-1.087l0,-6.713c0,-0.601 0.49,-1.09 1.09,-1.09l3.955,0c0.6,0 1.088,0.489 1.088,1.09l0,6.715c0,0.601 -0.488,1.087 -1.088,1.087l-3.955,0l0,-0.002Z" style="fill:#e1e0e0;fill-rule:nonzero;"/><path d="M158.583,92.78c-0.601,0 -1.088,-0.488 -1.088,-1.088l0,-6.714c0,-0.602 0.487,-1.09 1.088,-1.09l3.957,0c0.6,0 1.088,0.488 1.088,1.09l0,6.714c0,0.6 -0.488,1.088 -1.088,1.088l-3.957,0Z" style="fill:#e1e0e0;fill-rule:nonzero;"/><path d="M170.145,92.78c-0.6,0 -1.09,-0.488 -1.09,-1.088l0,-6.714c0,-0.602 0.49,-1.09 1.09,-1.09l3.955,0c0.6,0 1.088,0.488 1.088,1.09l0,6.714c0,0.6 -0.488,1.088 -1.088,1.088l-3.955,0Z" style="fill:#e1e0e0;fill-rule:nonzero;"/></g><g><g><path d="M126.764,139.02c-0.601,0 -1.089,-0.488 -1.089,-1.088l0,-6.716c0,-0.6 0.488,-1.089 1.089,-1.089l3.955,0c0.6,0 1.089,0.489 1.089,1.089l0,6.716c0,0.6 -0.489,1.088 -1.089,1.088l-3.955,0Z" style="fill:#e1e0e0;fill-rule:nonzero;"/><path d="M138.324,139.02c-0.6,0 -1.09,-0.488 -1.09,-1.088l0,-6.716c0,-0.6 0.49,-1.089 1.09,-1.089l3.953,0c0.601,0 1.09,0.489 1.09,1.089l0,6.716c0,0.6 -0.489,1.088 -1.09,1.088l-3.953,0Z" style="fill:#e1e0e0;fill-rule:nonzero;"/></g><g><path d="M126.764,115.899c-0.601,0 -1.089,-0.486 -1.089,-1.087l0,-6.713c0,-0.601 0.488,-1.09 1.089,-1.09l3.955,0c0.6,0 1.089,0.489 1.089,1.09l0,6.715c0,0.601 -0.489,1.087 -1.089,1.087l-3.955,0l0,-0.002Z" style="fill:#e1e0e0;fill-rule:nonzero;"/><path d="M138.324,115.899c-0.6,0 -1.09,-0.486 -1.09,-1.087l0,-6.713c0,-0.601 0.49,-1.09 1.09,-1.09l3.953,0c0.601,0 1.09,0.489 1.09,1.09l0,6.715c0,0.601 -0.489,1.087 -1.09,1.087l-3.953,0l0,-0.002Z" style="fill:#e1e0e0;fill-rule:nonzero;"/></g><g><path d="M126.764,92.78c-0.601,0 -1.089,-0.488 -1.089,-1.088l0,-6.714c0,-0.602 0.488,-1.09 1.089,-1.09l3.955,0c0.6,0 1.089,0.488 1.089,1.09l0,6.714c0,0.6 -0.489,1.088 -1.089,1.088l-3.955,0Z" style="fill:#e1e0e0;fill-rule:nonzero;"/><path d="M138.324,92.78c-0.6,0 -1.09,-0.488 -1.09,-1.088l0,-6.714c0,-0.602 0.49,-1.09 1.09,-1.09l3.953,0c0.601,0 1.09,0.488 1.09,1.09l0,6.714c0,0.6 -0.489,1.088 -1.09,1.088l-3.953,0Z" style="fill:#e1e0e0;fill-rule:nonzero;"/></g><g><path d="M126.764,69.661c-0.601,0 -1.089,-0.49 -1.089,-1.09l0,-6.714c0,-0.6 0.488,-1.086 1.089,-1.086l3.955,0c0.6,0 1.089,0.486 1.089,1.086l0,6.715c0,0.601 -0.489,1.09 -1.089,1.09l-3.955,0l0,-0.001Z" style="fill:#e1e0e0;fill-rule:nonzero;"/><path d="M138.324,69.661c-0.6,0 -1.09,-0.49 -1.09,-1.09l0,-6.714c0,-0.6 0.49,-1.086 1.09,-1.086l3.953,0c0.601,0 1.09,0.486 1.09,1.086l0,6.715c0,0.601 -0.489,1.09 -1.09,1.09l-3.953,0l0,-0.001Z" style="fill:#e1e0e0;fill-rule:nonzero;"/></g></g><g><g><path d="M94.972,139.02c-0.6,0 -1.088,-0.488 -1.088,-1.088l0,-6.716c0,-0.6 0.488,-1.089 1.088,-1.089l3.955,0c0.601,0 1.09,0.489 1.09,1.089l0,6.716c0,0.6 -0.489,1.088 -1.09,1.088l-3.955,0Z" style="fill:#e1e0e0;fill-rule:nonzero;"/><path d="M106.534,139.02c-0.6,0 -1.09,-0.488 -1.09,-1.088l0,-6.716c0,-0.6 0.49,-1.089 1.09,-1.089l3.953,0c0.601,0 1.09,0.489 1.09,1.089l0,6.716c0,0.6 -0.489,1.088 -1.09,1.088l-3.953,0Z" style="fill:#e1e0e0;fill-rule:nonzero;"/></g><g><path d="M94.972,115.899c-0.6,0 -1.088,-0.486 -1.088,-1.087l0,-6.713c0,-0.601 0.488,-1.09 1.088,-1.09l3.955,0c0.601,0 1.09,0.489 1.09,1.09l0,6.715c0,0.601 -0.489,1.087 -1.09,1.087l-3.955,0l0,-0.002Z" style="fill:#e1e0e0;fill-rule:nonzero;"/><path d="M106.534,115.899c-0.6,0 -1.09,-0.486 -1.09,-1.087l0,-6.713c0,-0.601 0.49,-1.09 1.09,-1.09l3.953,0c0.601,0 1.09,0.489 1.09,1.09l0,6.715c0,0.601 -0.489,1.087 -1.09,1.087l-3.953,0l0,-0.002Z" style="fill:#e1e0e0;fill-rule:nonzero;"/></g><g><path d="M94.972,92.78c-0.6,0 -1.088,-0.488 -1.088,-1.088l0,-6.714c0,-0.602 0.488,-1.09 1.088,-1.09l3.955,0c0.601,0 1.09,0.488 1.09,1.09l0,6.714c0,0.6 -0.489,1.088 -1.09,1.088l-3.955,0Z" style="fill:#e1e0e0;fill-rule:nonzero;"/><path d="M106.534,92.78c-0.6,0 -1.09,-0.488 -1.09,-1.088l0,-6.714c0,-0.602 0.49,-1.09 1.09,-1.09l3.953,0c0.601,0 1.09,0.488 1.09,1.09l0,6.714c0,0.6 -0.489,1.088 -1.09,1.088l-3.953,0Z" style="fill:#e1e0e0;fill-rule:nonzero;"/></g><g><path d="M94.972,69.661c-0.6,0 -1.088,-0.49 -1.088,-1.09l0,-6.714c0,-0.6 0.488,-1.086 1.088,-1.086l3.955,0c0.601,0 1.09,0.486 1.09,1.086l0,6.715c0,0.601 -0.489,1.09 -1.09,1.09l-3.955,0l0,-0.001Z" style="fill:#e1e0e0;fill-rule:nonzero;"/><path d="M106.534,69.661c-0.6,0 -1.09,-0.49 -1.09,-1.09l0,-6.714c0,-0.6 0.49,-1.086 1.09,-1.086l3.953,0c0.601,0 1.09,0.486 1.09,1.086l0,6.715c0,0.601 -0.489,1.09 -1.09,1.09l-3.953,0l0,-0.001Z" style="fill:#e1e0e0;fill-rule:nonzero;"/></g></g></g><path d="M83.966,48.999c0,-4.943 4.008,-8.949 8.951,-8.949l114.981,0c4.943,0 8.95,4.004 8.95,8.949l-132.882,0Z" style="fill:#787878;fill-rule:nonzero;"/><path d="M126.78,156.918c-0.601,0 -1.088,-0.486 -1.088,-1.087l0,-6.715c0,-0.601 0.487,-1.09 1.088,-1.09l15.514,0c0.6,0 1.089,0.489 1.089,1.09l0,6.715c0,0.601 -0.489,1.087 -1.089,1.087l-15.514,0Z" style="fill:#e1e0e0;fill-rule:nonzero;"/><path d="M158.583,156.918c-0.601,0 -1.088,-0.486 -1.088,-1.087l0,-6.715c0,-0.601 0.487,-1.09 1.088,-1.09l15.515,0c0.601,0 1.088,0.489 1.088,1.09l0,6.715c0,0.601 -0.487,1.087 -1.088,1.087l-15.515,0Z" style="fill:#e1e0e0;fill-rule:nonzero;"/><g><path d="M146.916,148.859c0,-0.473 0.385,-0.859 0.861,-0.859l5.305,0c0.476,0 0.86,0.386 0.86,0.859l0,11.259l-7.027,0l0,-11.259l0.001,0Z" style="fill:#4d4c4c;fill-rule:nonzero;"/><circle cx="148.016" cy="154.09" r="0.435" style="fill:#cdcccb;"/></g></g></g></svg>