<?xml version="1.0" encoding="UTF-8" standalone="no"?><!DOCTYPE svg PUBLIC "-//W3C//DTD SVG 1.1//EN" "http://www.w3.org/Graphics/SVG/1.1/DTD/svg11.dtd"><svg width="100%" height="100%" viewBox="0 0 300 300" version="1.1" xmlns="http://www.w3.org/2000/svg" xmlns:xlink="http://www.w3.org/1999/xlink" xml:space="preserve" style="fill-rule:evenodd;clip-rule:evenodd;stroke-linejoin:round;stroke-miterlimit:1.41421;"><g id="Layer2"><rect x="0.239" y="0.058" width="299.596" height="299.87" style="fill:#f98b25;fill-opacity:0.9;"/></g><g id="Layer1"><g><path d="M170.516,185.081c-0.955,6.048 -2.069,12.731 -3.819,19.734c-1.751,7.161 -3.82,14.641 -6.525,22.439c-3.501,0.318 -6.843,0.477 -10.503,0.477c-3.502,0 -7.003,-0.159 -10.504,-0.477c-5.411,-15.596 -8.593,-30.078 -10.344,-42.173c4.774,-15.118 20.688,-16.232 20.688,-16.232c0,0 16.392,1.273 21.007,16.232Z" style="fill:#e6e9ee;fill-rule:nonzero;"/><g><path d="M248.177,150.388c-2.228,9.39 -5.729,18.302 -10.503,26.418c-4.615,8.116 -10.504,15.596 -17.188,22.12l-0.318,-0.795l-0.159,0c0,0 0,-0.159 0.159,-0.319l-8.753,-27.054l-35.329,-16.869l24.349,-11.776c-1.91,8.275 1.75,21.643 1.75,21.325c3.183,-9.867 13.686,-10.663 13.686,-10.663c0,0 10.504,0.796 13.687,10.663c0.159,0.318 3.66,-13.209 1.75,-21.325l16.869,8.275Z" style="fill:#2b3b4e;fill-rule:nonzero;"/><path d="M215.871,152.775c-14.163,-6.843 -12.572,-15.755 -12.572,-15.755c0,-0.159 0,-0.318 0.159,-0.477c3.501,4.297 7.798,7.002 12.573,7.002c4.774,0 9.071,-2.705 12.572,-7.002c0,0.159 0,0.318 0,0.318c-0.159,0.319 1.432,9.071 -12.732,15.914Z" style="fill:#f9b54c;fill-rule:nonzero;"/><path d="M228.444,137.18c0,0 1.591,8.912 -12.573,15.755c0,0 10.504,0.795 13.687,10.662c0,0.318 5.729,-21.166 -1.114,-26.417Z" style="fill:#fff;fill-rule:nonzero;"/><path d="M203.299,137.18c0,0 -1.591,8.912 12.572,15.755c0,0 -10.503,0.795 -13.686,10.662c0,0.318 -5.888,-21.166 1.114,-26.417Z" style="fill:#fff;fill-rule:nonzero;"/><path d="M51.478,150.388c2.228,9.39 5.729,18.302 10.504,26.418c4.615,8.116 10.503,15.596 17.187,22.12l0.318,-0.795l0.159,0c0,0 0,-0.159 -0.159,-0.319l8.753,-27.054l35.17,-16.869l-24.348,-11.776c1.909,8.275 -1.751,21.643 -1.751,21.325c-3.183,-9.867 -13.686,-10.663 -13.686,-10.663c0,0 -10.503,0.796 -13.686,10.663c-0.159,0.318 -3.661,-13.209 -1.751,-21.325l-16.71,8.275Z" style="fill:#2b3b4e;fill-rule:nonzero;"/><path d="M83.784,152.775c14.164,-6.843 12.572,-15.755 12.572,-15.755c0,-0.159 0,-0.318 -0.159,-0.477c-3.501,4.297 -7.798,7.002 -12.572,7.002c-4.615,0 -9.071,-2.705 -12.572,-7.002c0,0.159 0,0.318 0,0.318c0.159,0.319 -1.433,9.071 12.731,15.914Z" style="fill:#f9b54c;fill-rule:nonzero;"/><path d="M71.212,137.18c0,0 -1.592,8.912 12.572,15.755c0,0 -10.503,0.795 -13.686,10.662c0,0.318 -5.888,-21.166 1.114,-26.417Z" style="fill:#fff;fill-rule:nonzero;"/><path d="M96.356,137.18c0,0 1.592,8.912 -12.572,15.755c0,0 10.503,0.795 13.686,10.662c0,0.318 5.729,-21.166 -1.114,-26.417Z" style="fill:#fff;fill-rule:nonzero;"/><path d="M231.786,127.154c-1.592,5.092 -2.228,7.798 -2.388,8.275c-3.66,4.933 -8.434,8.435 -13.686,8.435c-4.933,0 -9.389,-3.024 -12.89,-7.639l0.159,0c-7.639,-9.39 -2.387,-26.895 -2.387,-26.895c3.819,4.297 16.232,4.615 16.232,4.615c-5.092,-0.796 -6.206,-4.774 -6.365,-5.252c0.954,2.547 12.89,4.138 12.89,4.138c12.572,2.069 8.435,14.323 8.435,14.323Z" style="fill:#ffd05b;fill-rule:nonzero;"/><path d="M208.551,91.188c0,0 16.869,-6.684 25.622,8.593c9.23,16.392 -2.387,34.216 -4.775,35.648c0,0 0.637,-2.865 2.388,-8.275c0,0 4.137,-12.095 -8.276,-14.005c0,0 -12.095,-1.591 -12.89,-4.297c0,0 0.955,4.456 6.365,5.252c0,0 -12.413,-0.318 -16.232,-4.615c0,0 -5.252,17.506 2.387,26.895c0,0 -13.368,-10.663 -11.776,-27.054c0,-0.159 -0.796,-22.757 17.187,-18.142Z" style="fill:#2b3b4e;fill-rule:nonzero;"/><path d="M104.791,113.149c0,13.686 -9.39,30.715 -21.007,30.715c-11.617,0 -20.847,-17.029 -20.847,-30.715c0,-13.686 9.389,-19.097 21.006,-19.097c11.618,0 20.848,5.252 20.848,19.097Z" style="fill:#ffd05b;fill-rule:nonzero;"/><path d="M76.623,91.188c0,0 16.869,-6.684 25.621,8.593c9.231,16.392 -2.387,34.216 -4.774,35.648c0,0 0.637,-2.865 2.387,-8.275c0,0 4.138,-12.095 -8.275,-14.005c0,0 -12.095,-1.591 -12.89,-4.297c0,0 0.795,4.456 6.365,5.252c0,0 -12.413,-0.318 -16.232,-4.615c0,0 -5.252,17.506 2.387,26.895c0,0 -13.368,-10.663 -11.777,-27.054c-0.159,-0.159 -0.954,-22.757 17.188,-18.142Z" style="fill:#2b3b4e;fill-rule:nonzero;"/><path d="M149.987,168.69l-0.159,0c-21.484,-10.345 -19.097,-23.872 -19.097,-23.872c0,-0.159 0,-0.477 0.159,-0.636c5.252,6.365 11.935,10.662 19.097,10.662c7.161,0 13.686,-4.297 19.097,-10.662c0,0.159 0.159,0.477 0.159,0.636c-0.318,0 2.069,13.527 -19.256,23.872Z" style="fill:#f9b54c;fill-rule:nonzero;"/><path d="M149.987,168.69c-0.159,0.159 -0.159,0.159 0,0l-0.159,0l0.159,0Z" style="fill:#f1543f;fill-rule:nonzero;"/><path d="M157.467,170.918l-2.547,7.32l-10.185,0l-2.546,-7.32c4.138,-1.751 7.639,-2.069 7.639,-2.069c0,0 3.501,0.159 7.639,2.069Z" style="fill:#f1543f;fill-rule:nonzero;"/><path d="M220.327,198.29l-0.159,0c0,0 0,-0.159 0.159,-0.318l0,0.318Z" style="fill:#324a5e;fill-rule:nonzero;"/><path d="M168.925,144.818c0,0 2.387,13.527 -19.097,24.031c0,0 16.073,1.273 20.688,16.232c0.318,0.637 9.071,-32.306 -1.591,-40.263Z" style="fill:#fff;fill-rule:nonzero;"/><path d="M172.108,179.034c0.159,-0.796 0.318,-1.592 0.477,-2.546c-0.159,0.954 -0.318,1.75 -0.477,2.546Z" style="fill:#fff;fill-rule:nonzero;"/><path d="M130.731,144.818c0,0 -2.387,13.527 19.097,24.031c0,0 -16.074,1.273 -20.689,16.232c-0.318,0.637 -9.071,-32.306 1.592,-40.263Z" style="fill:#fff;fill-rule:nonzero;"/><path d="M127.071,176.647c0.159,0.955 0.318,1.75 0.477,2.546c-0.159,-0.955 -0.318,-1.751 -0.477,-2.546Z" style="fill:#fff;fill-rule:nonzero;"/><path d="M174.176,129.541c-2.546,7.798 -3.501,12.095 -3.66,12.572c-5.57,7.639 -12.731,12.731 -20.688,12.731c-7.48,0 -14.323,-4.615 -19.734,-11.617l0.159,0.159c-11.617,-14.482 -3.66,-40.899 -3.66,-40.899c5.888,6.684 24.826,7.161 24.826,7.161c-8.275,-1.273 -9.548,-7.957 -9.548,-7.957c1.273,3.979 19.733,6.525 19.733,6.525c18.779,2.705 12.572,21.325 12.572,21.325Z" style="fill:#ffd05b;fill-rule:nonzero;"/><path d="M177.677,87.846c-13.208,-23.394 -38.989,-13.05 -38.989,-13.05c-27.532,-7.002 -26.418,27.532 -26.418,27.532c-2.387,25.144 17.824,41.376 17.824,41.376c-11.776,-14.322 -3.66,-40.899 -3.66,-40.899c5.888,6.684 24.826,7.161 24.826,7.161c-8.275,-1.273 -9.548,-7.957 -9.548,-7.957c1.273,3.979 19.733,6.525 19.733,6.525c18.938,2.865 12.731,21.325 12.731,21.325c-2.705,8.275 -3.66,12.572 -3.66,12.572c3.66,-2.546 21.325,-29.6 7.161,-54.585Z" style="fill:#324a5e;fill-rule:nonzero;"/></g><path d="M137.892,227.094c3.979,0.478 7.957,0.796 11.936,0.796c3.978,0 8.116,-0.318 11.935,-0.796l-6.843,-48.856l-10.185,0l-6.843,48.856Z" style="fill:#ff7058;fill-rule:nonzero;"/><path d="M220.486,199.086c-15.914,15.595 -36.92,25.94 -60.314,28.327c5.411,-15.596 8.594,-30.078 10.344,-42.173c0.159,0.478 5.57,-20.052 2.706,-32.624l38.193,18.461l9.071,28.009Z" style="fill:#324a5e;fill-rule:nonzero;"/><path d="M139.324,227.413c-23.393,-2.387 -44.4,-12.732 -60.314,-28.327l9.071,-28.009l38.194,-18.461c-2.865,12.572 2.546,32.943 2.705,32.624c1.91,12.095 4.934,26.418 10.344,42.173Z" style="fill:#324a5e;fill-rule:nonzero;"/></g></g></svg>