<?xml version="1.0" encoding="UTF-8" standalone="no"?><!DOCTYPE svg PUBLIC "-//W3C//DTD SVG 1.1//EN" "http://www.w3.org/Graphics/SVG/1.1/DTD/svg11.dtd"><svg width="100%" height="100%" viewBox="0 0 300 300" version="1.1" xmlns="http://www.w3.org/2000/svg" xmlns:xlink="http://www.w3.org/1999/xlink" xml:space="preserve" style="fill-rule:evenodd;clip-rule:evenodd;stroke-linejoin:round;stroke-miterlimit:1.41421;"><g id="Layer2"><rect x="0.239" y="0.058" width="299.596" height="300.072" style="fill:#288ae2;fill-opacity:0.9;"/><g><g><path d="M182.303,59.004l-93.792,0c-2.398,0 -4.557,1.919 -4.557,4.557l0,171.511c0,2.398 1.919,4.557 4.557,4.557l123.296,0c2.399,0 4.558,-1.919 4.558,-4.557l0,-142.006c0,-1.199 -0.48,-2.399 -1.44,-3.119l-29.264,-29.744c-0.96,-0.719 -2.159,-1.199 -3.358,-1.199Z" style="fill:#f2f2f2;fill-rule:nonzero;"/><path d="M188.779,91.147l26.146,0c0.48,0 0.72,-0.72 0.48,-0.96l-30.224,-30.224c-0.48,-0.48 -0.959,0 -0.959,0.48l0,26.146c0,2.399 1.918,4.558 4.557,4.558Z" style="fill:#ccc;fill-rule:nonzero;"/><rect x="94.748" y="66.692" width="81.385" height="30.012" style="fill:#4cdbc4;"/><rect x="94.748" y="106.019" width="110.582" height="4.558" style="fill:#dbdbdb;"/><rect x="94.748" y="118.733" width="110.582" height="4.558" style="fill:#dbdbdb;"/><rect x="94.748" y="131.686" width="80.598" height="4.558" style="fill:#dbdbdb;"/><rect x="94.748" y="144.639" width="99.788" height="4.558" style="fill:#dbdbdb;"/><rect x="94.748" y="157.592" width="106.505" height="4.558" style="fill:#dbdbdb;"/><rect x="94.748" y="170.545" width="80.598" height="4.558" style="fill:#dbdbdb;"/><rect x="94.748" y="183.259" width="110.582" height="4.558" style="fill:#dbdbdb;"/><path d="M128.091,214.442l-3.118,-3.118l1.679,-4.557l-4.079,-1.44l0,-4.317l-4.557,0l-1.919,-4.079l-3.838,1.68l-3.118,-3.119l-3.119,3.359l-4.557,-1.68l-1.439,3.839l-4.079,0l0,4.797l-4.317,1.919l1.679,3.838l-3.119,2.878l3.359,3.359l-1.679,4.317l4.077,1.68l0,4.078l4.558,0l1.919,4.317l3.838,-1.679l2.879,2.879l3.358,-3.359l4.318,1.919l1.679,-4.077l4.077,0l0,-4.558l4.318,-1.919l-1.678,-3.838l2.878,-3.119Z" style="fill:#f1543f;fill-rule:nonzero;"/><circle cx="109.141" cy="214.442" r="13.913" style="fill:#ff7058;"/><path d="M159.515,227.636c-1.2,0 -1.92,-0.48 -2.399,-1.439c-0.72,-1.2 -0.24,-3.119 0.959,-4.078c0.24,-0.24 0.72,-0.48 0.96,-0.72c0.24,0 0.24,-0.24 0.48,-0.24c1.199,-0.959 1.679,-2.638 2.159,-4.317c0.959,-4.318 1.679,-8.636 2.159,-13.673c0,-0.48 0.48,-0.959 0.959,-0.959c0.479,0 0.959,0.24 1.199,0.959c0.96,4.077 1.68,8.156 2.399,12.233c0.48,-0.48 0.959,-0.72 1.679,-1.199c0.48,-0.48 1.199,-0.24 1.439,0l0,0.24l3.598,-2.159c0.24,-0.24 0.72,-0.24 1.2,0c0.24,0.24 0.48,0.48 0.48,0.959c0,0.48 0,0.72 0,1.199c0.24,0 0.48,0 0.48,0.24c0.24,0.24 0.48,0.72 0.48,0.96c0,0.24 0,0.48 -0.24,0.959c1.919,-1.439 3.598,-2.878 5.277,-4.318c3.838,-3.358 7.916,-6.716 12.714,-9.115c0.479,-0.24 1.199,0 1.439,0.48c0.24,0.48 0,1.199 -0.48,1.439c-4.318,2.399 -8.396,5.757 -12.234,8.876c-2.878,2.398 -5.757,4.797 -9.115,6.956c-0.72,0.72 -1.679,1.439 -2.638,2.159c-1.919,1.2 -4.318,1.919 -6.957,2.159c-0.48,0 -0.959,0 -1.199,0c-0.72,0 -1.199,-0.48 -1.199,-1.199c0,-0.72 0.479,-1.199 0.959,-1.199c0.48,0 0.72,0 1.199,0c1.199,-0.24 2.399,-0.72 4.078,-1.439c0.959,-0.48 1.679,-0.96 2.638,-1.439c-0.24,-0.24 -0.24,-0.48 0,-0.72c0.24,-1.44 0.959,-2.639 2.159,-3.599c0,-0.24 0,-0.24 0,-0.48l-1.919,1.2c-0.24,0.24 -0.959,0.48 -1.679,0.48c-0.24,0 -0.24,0 -0.48,-0.24c-1.199,0.959 -2.638,1.919 -4.078,2.878c-0.48,0.24 -1.199,0.24 -1.439,-0.24c-0.24,-0.24 -0.48,-0.72 -0.24,-1.199c0,-0.48 0.48,-1.199 0.959,-1.439c0.24,0 0.24,-0.24 0.48,-0.24l0.24,-0.24l0,-0.24c-0.24,-1.68 -0.48,-3.359 -0.959,-5.278c-0.24,2.399 -0.72,4.798 -1.439,6.957c-0.48,2.159 -1.199,4.317 -3.118,5.517c-0.24,0.24 -0.48,0.24 -0.72,0.48c-0.24,0.24 -0.48,0.24 -0.72,0.48c-0.48,0.479 -0.48,0.959 -0.48,1.439c0,0 0.24,0.24 0.48,0.24c0.24,-0.48 1.199,-0.72 1.679,-0.24c0.48,0.24 0.72,0.959 0.48,1.439c-0.001,0.48 -0.72,0.72 -1.679,0.72Z" style="fill:#54c0eb;fill-rule:nonzero;"/></g><text x="99.671px" y="86.131px" style="font-family:'ArialMT', 'Arial', sans-serif;font-size:12px;fill:#fbf0f0;">CONTRACT</text></g></g></svg>