<?xml version="1.0" encoding="UTF-8" standalone="no"?><!DOCTYPE svg PUBLIC "-//W3C//DTD SVG 1.1//EN" "http://www.w3.org/Graphics/SVG/1.1/DTD/svg11.dtd"><svg width="100%" height="100%" viewBox="0 0 300 200" version="1.1" xmlns="http://www.w3.org/2000/svg" xmlns:xlink="http://www.w3.org/1999/xlink" xml:space="preserve" style="fill-rule:evenodd;clip-rule:evenodd;stroke-linejoin:round;stroke-miterlimit:1.41421;"><g id="Layer1"><rect x="-0.191" y="0.113" width="300.234" height="200.605" style="fill:#8c2da8;"/><g><path d="M217.337,100.069c0.23,-1.607 0.505,-3.169 0.505,-4.823c0,-17.728 -14.376,-32.104 -32.104,-32.104c-6.384,0 -12.355,1.929 -17.362,5.144c-7.991,-16.718 -24.893,-28.339 -44.643,-28.339c-27.374,0 -49.604,22.184 -49.604,49.604c0,4.134 0.643,8.13 1.608,11.988c-10.886,4.133 -18.785,15.202 -18.785,28.384c0,16.673 12.538,30.222 27.971,30.222l129.061,0c15.479,0 27.971,-13.504 27.971,-30.222c0,-15.432 -10.793,-28.017 -24.618,-29.854Z" style="fill:#fff;fill-rule:nonzero;"/><text x="89.136px" y="122.244px" style="font-family:'Arial-BoldMT', 'Arial', sans-serif;font-weight:700;font-size:35.325px;fill:#ffd05b;">T<tspan x="112.767px 140.703px 164.333px 187.964px " y="122.244px 122.244px 122.244px 122.244px ">Code</tspan></text></g></g></svg>