<?xml version="1.0" encoding="UTF-8" standalone="no"?><!DOCTYPE svg PUBLIC "-//W3C//DTD SVG 1.1//EN" "http://www.w3.org/Graphics/SVG/1.1/DTD/svg11.dtd"><svg width="100%" height="100%" viewBox="0 0 300 200" version="1.1" xmlns="http://www.w3.org/2000/svg" xmlns:xlink="http://www.w3.org/1999/xlink" xml:space="preserve" style="fill-rule:evenodd;clip-rule:evenodd;stroke-linejoin:round;stroke-miterlimit:1.41421;"><g id="Layer1"><rect x="-0.191" y="0.113" width="300.234" height="200.07" style="fill:#50ae54;"/><g><path d="M209.484,108.327l-56.362,-56.362c-1.837,-1.836 -4.855,-1.836 -6.692,0l-3.485,3.485c-7.438,-6.286 -18.58,-5.944 -25.614,1.09c-7.033,7.033 -7.376,18.175 -1.089,25.613l-3.486,3.486c-1.836,1.836 -1.836,4.855 0,6.691l56.362,56.362c1.837,1.837 4.856,1.837 6.692,0l33.643,-33.643c1.867,-1.867 1.867,-4.855 0.031,-6.722l0,0Zm-87.64,-40.521c-1.867,-1.867 -1.867,-4.886 0,-6.754c1.867,-1.867 4.886,-1.867 6.753,0c1.868,1.868 1.868,4.887 0,6.754c-1.867,1.867 -4.886,1.867 -6.753,0Z" style="fill:#ff7058;fill-rule:nonzero;"/><path d="M112.252,73.997c-0.26,-1.04 -0.301,-2.22 -0.402,-3.259c-8.831,8.933 -14.478,11.105 -15.911,10.964c-0.72,-0.055 -1.23,-0.352 -1.592,-0.905c-0.771,-1.179 -0.867,-3.456 -0.257,-6.222c0.706,-3.223 4.796,-8.186 10.998,-11.086c1.796,-0.833 4.514,-1.823 7.721,-2.106c2.395,-0.199 5.061,-0.023 7.817,0.935c0.804,0.263 1.625,0.594 2.427,1.016c-0.037,0.024 -0.074,0.048 -0.08,0.078c-0.799,0.628 -1.605,0.969 -2.537,1.474c0.105,0.562 0.26,1.357 0.628,1.879c0.144,0.221 0.372,0.656 0.553,0.853c1.073,-0.571 2.046,-1.422 3.005,-2.207c0.454,-0.35 0.891,-0.768 1.141,-1.352c0.298,-0.668 0.219,-1.353 -0.191,-1.979c-0.192,-0.295 -0.428,-0.535 -0.616,-0.701l-0.109,-0.087l-0.146,-0.062c-0.748,-0.379 -1.532,-0.733 -2.292,-1.051c-2.5,-0.968 -5.103,-1.449 -7.77,-1.466c-3.521,-0.037 -7.123,0.768 -10.647,2.416c-6.307,2.942 -11.419,8.232 -12.424,12.887c-0.776,3.558 -0.568,6.367 0.606,8.203c0.795,1.215 2.01,1.946 3.541,2.075c3.592,0.306 10.116,-4.072 16.537,-10.297l0,0Z" style="fill:#fff;fill-rule:nonzero;"/></g><g><g opacity="0.8"><path d="M166.083,143.649c-2.088,-2.089 -4.568,-2.995 -5.539,-2.026l-10.699,10.701c2.125,2.893 4.692,5.432 7.622,7.508l10.64,-10.641c0.973,-0.974 0.072,-3.457 -2.024,-5.542Z" style="fill:#a07238;fill-rule:nonzero;"/><circle cx="177.493" cy="132.246" r="20.447" style="fill:#60c3b6;"/><path d="M159.522,142.549l-2.911,2.908c0,0 2.655,5.865 8.365,6.764l2.115,-2.109l0,-2.729l-7.569,-4.834Z" style="fill:#a07238;fill-rule:nonzero;"/><path d="M161.64,116.397c-8.751,8.753 -8.751,22.947 0,31.695c8.761,8.758 22.944,8.758 31.695,0.003c8.753,-8.751 8.753,-22.945 0,-31.698c-8.751,-8.753 -22.934,-8.753 -31.695,0Zm27.702,27.704c-6.541,6.542 -17.155,6.546 -23.705,0c-6.547,-6.548 -6.547,-17.163 0,-23.709c6.55,-6.547 17.164,-6.547 23.705,-0.002c6.55,6.548 6.548,17.166 0,23.711Z" style="fill:#ebedef;fill-rule:nonzero;"/><path d="M166.393,130.054c-0.413,0.915 -0.015,2.004 0.899,2.423c0.913,0.428 2.005,0.02 2.426,-0.888c0,0 0.015,-0.044 0.103,-0.206c0.635,-1.159 3.692,-6.089 10.154,-6.687c0.782,-0.077 1.4,-0.633 1.59,-1.354c0.05,-0.201 0.076,-0.419 0.05,-0.642c-0.096,-1.004 -0.989,-1.742 -1.991,-1.642c-9.524,0.976 -13.135,8.808 -13.231,8.996Z" style="fill:#f4f5f5;fill-opacity:0.694118;fill-rule:nonzero;"/></g></g></g></svg>