<?xml version="1.0" encoding="UTF-8" standalone="no"?><!DOCTYPE svg PUBLIC "-//W3C//DTD SVG 1.1//EN" "http://www.w3.org/Graphics/SVG/1.1/DTD/svg11.dtd"><svg width="100%" height="100%" viewBox="0 0 300 200" version="1.1" xmlns="http://www.w3.org/2000/svg" xmlns:xlink="http://www.w3.org/1999/xlink" xml:space="preserve" style="fill-rule:evenodd;clip-rule:evenodd;stroke-linejoin:round;stroke-miterlimit:1.41421;"><g id="Layer1"><rect x="-0.191" y="0.113" width="300.234" height="200.297" style="fill:#4054b2;"/><g><path d="M209.484,108.327l-56.362,-56.362c-1.837,-1.836 -4.855,-1.836 -6.692,0l-3.485,3.485c-7.438,-6.286 -18.58,-5.944 -25.614,1.09c-7.033,7.033 -7.376,18.175 -1.089,25.613l-3.486,3.486c-1.836,1.836 -1.836,4.855 0,6.691l56.362,56.362c1.837,1.837 4.856,1.837 6.692,0l33.643,-33.643c1.867,-1.867 1.867,-4.855 0.031,-6.722l0,0Zm-87.64,-40.521c-1.867,-1.867 -1.867,-4.886 0,-6.754c1.867,-1.867 4.886,-1.867 6.753,0c1.868,1.868 1.868,4.887 0,6.754c-1.867,1.867 -4.886,1.867 -6.753,0Z" style="fill:#ff7058;fill-rule:nonzero;"/><path d="M112.252,73.997c-0.26,-1.04 -0.301,-2.22 -0.402,-3.259c-8.831,8.933 -14.478,11.105 -15.911,10.964c-0.72,-0.055 -1.23,-0.352 -1.592,-0.905c-0.771,-1.179 -0.867,-3.456 -0.257,-6.222c0.706,-3.223 4.796,-8.186 10.998,-11.086c1.796,-0.833 4.514,-1.823 7.721,-2.106c2.395,-0.199 5.061,-0.023 7.817,0.935c0.804,0.263 1.625,0.594 2.427,1.016c-0.037,0.024 -0.074,0.048 -0.08,0.078c-0.799,0.628 -1.605,0.969 -2.537,1.474c0.105,0.562 0.26,1.357 0.628,1.879c0.144,0.221 0.372,0.656 0.553,0.853c1.073,-0.571 2.046,-1.422 3.005,-2.207c0.454,-0.35 0.891,-0.768 1.141,-1.352c0.298,-0.668 0.219,-1.353 -0.191,-1.979c-0.192,-0.295 -0.428,-0.535 -0.616,-0.701l-0.109,-0.087l-0.146,-0.062c-0.748,-0.379 -1.532,-0.733 -2.292,-1.051c-2.5,-0.968 -5.103,-1.449 -7.77,-1.466c-3.521,-0.037 -7.123,0.768 -10.647,2.416c-6.307,2.942 -11.419,8.232 -12.424,12.887c-0.776,3.558 -0.568,6.367 0.606,8.203c0.795,1.215 2.01,1.946 3.541,2.075c3.592,0.306 10.116,-4.072 16.537,-10.297l0,0Z" style="fill:#fff;fill-rule:nonzero;"/></g><g><g opacity="0.8"><path d="M200.041,110.147l-31.889,17.678l-1.633,1.527l15.729,14.974l1.125,-1.274l16.668,-32.905Z" style="fill:#f7d98b;fill-rule:nonzero;stroke:#000;stroke-width:0.5px;"/><path d="M200.138,109.962l-13.916,7.737l6.66,6.66l7.256,-14.397Z" style="fill:#626463;fill-rule:nonzero;stroke:#000;stroke-width:0.5px;"/><g><path d="M183.662,140.726l-4.745,0.274l-16.591,16.575c1.357,0.899 2.789,1.68 4.272,2.387l15.65,-15.636l1.414,-3.6Z" style="fill:#e84849;fill-rule:nonzero;stroke:#000;stroke-width:0.5px;"/><path d="M156.723,152.919l17.068,-17.052l0.21,-4.804l-4.618,0.398l-16.619,16.607c1.165,1.737 2.5,3.356 3.959,4.851Z" style="fill:#e84849;fill-rule:nonzero;stroke:#000;stroke-width:0.5px;"/><path d="M169.383,131.461l0.65,-4.368l-3.152,1.861l-15.98,15.966c0.569,1.082 1.183,2.134 1.863,3.146l16.619,-16.605Z" style="fill:#f06668;fill-rule:nonzero;stroke:#000;stroke-width:0.5px;"/><path d="M162.328,157.575l16.591,-16.575l-0.058,-5.077l-5.068,-0.056l-17.068,17.052c1.696,1.736 3.573,3.304 5.603,4.656Z" style="fill:#f06668;fill-rule:nonzero;stroke:#000;stroke-width:0.5px;"/></g></g></g></g></svg>