<?xml version="1.0" encoding="UTF-8" standalone="no"?><!DOCTYPE svg PUBLIC "-//W3C//DTD SVG 1.1//EN" "http://www.w3.org/Graphics/SVG/1.1/DTD/svg11.dtd"><svg width="100%" height="100%" viewBox="0 0 300 200" version="1.1" xmlns="http://www.w3.org/2000/svg" xmlns:xlink="http://www.w3.org/1999/xlink" xml:space="preserve" style="fill-rule:evenodd;clip-rule:evenodd;stroke-linejoin:round;stroke-miterlimit:1.41421;"><g id="Layer1"><rect x="-0.191" y="0.113" width="300.234" height="200.218" style="fill:#8c2da8;"/><g><path d="M209.484,108.327l-56.362,-56.362c-1.837,-1.836 -4.855,-1.836 -6.692,0l-3.485,3.485c-7.438,-6.286 -18.58,-5.944 -25.614,1.09c-7.033,7.033 -7.376,18.175 -1.089,25.613l-3.486,3.486c-1.836,1.836 -1.836,4.855 0,6.691l56.362,56.362c1.837,1.837 4.856,1.837 6.692,0l33.643,-33.643c1.867,-1.867 1.867,-4.855 0.031,-6.722l0,0Zm-87.64,-40.521c-1.867,-1.867 -1.867,-4.886 0,-6.754c1.867,-1.867 4.886,-1.867 6.753,0c1.868,1.868 1.868,4.887 0,6.754c-1.867,1.867 -4.886,1.867 -6.753,0Z" style="fill:#ff7058;fill-rule:nonzero;"/><path d="M112.252,73.997c-0.26,-1.04 -0.301,-2.22 -0.402,-3.259c-8.831,8.933 -14.478,11.105 -15.911,10.964c-0.72,-0.055 -1.23,-0.352 -1.592,-0.905c-0.771,-1.179 -0.867,-3.456 -0.257,-6.222c0.706,-3.223 4.796,-8.186 10.998,-11.086c1.796,-0.833 4.514,-1.823 7.721,-2.106c2.395,-0.199 5.061,-0.023 7.817,0.935c0.804,0.263 1.625,0.594 2.427,1.016c-0.037,0.024 -0.074,0.048 -0.08,0.078c-0.799,0.628 -1.605,0.969 -2.537,1.474c0.105,0.562 0.26,1.357 0.628,1.879c0.144,0.221 0.372,0.656 0.553,0.853c1.073,-0.571 2.046,-1.422 3.005,-2.207c0.454,-0.35 0.891,-0.768 1.141,-1.352c0.298,-0.668 0.219,-1.353 -0.191,-1.979c-0.192,-0.295 -0.428,-0.535 -0.616,-0.701l-0.109,-0.087l-0.146,-0.062c-0.748,-0.379 -1.532,-0.733 -2.292,-1.051c-2.5,-0.968 -5.103,-1.449 -7.77,-1.466c-3.521,-0.037 -7.123,0.768 -10.647,2.416c-6.307,2.942 -11.419,8.232 -12.424,12.887c-0.776,3.558 -0.568,6.367 0.606,8.203c0.795,1.215 2.01,1.946 3.541,2.075c3.592,0.306 10.116,-4.072 16.537,-10.297l0,0Z" style="fill:#fff;fill-rule:nonzero;"/></g><g><g opacity="0.8"><g><path d="M168.467,122.115l1.889,-2.168l-0.611,-2.816l2.834,0.998c3.765,-2.577 8.491,-3.553 12.803,-1.951c7.465,2.768 10.844,12.194 8.019,19.809l4.714,1.748c3.814,-10.271 -0.883,-22.637 -10.944,-26.372c-8.673,-3.218 -18.492,1.031 -23.483,8.838c0,0 -0.483,1.852 1.465,2.715c1.951,0.86 3.314,-0.801 3.314,-0.801Z" style="fill:#f4e028;fill-rule:nonzero;"/><path d="M200.053,156.122c0,2.294 -1.901,4.156 -4.249,4.156l-30.441,0c-2.339,0 -4.244,-1.862 -4.244,-4.156l0,-24.594c0,-2.296 38.936,-2.296 38.936,0l0,24.594l-0.002,0Z" style="fill:#f4e028;fill-rule:nonzero;"/><path d="M185.086,141.491c0,-2.396 -1.947,-4.338 -4.338,-4.338c-2.396,0 -4.34,1.942 -4.34,4.338c0,1.83 1.132,3.388 2.729,4.027l0,4.003c0,0.849 0.689,1.538 1.538,1.538c0.849,0 1.538,-0.689 1.538,-1.538l0,-3.948c1.67,-0.6 2.873,-2.2 2.873,-4.082Z" style="fill:#dac425;fill-rule:nonzero;"/><path d="M176.243,141.491c0,-2.396 1.947,-4.338 4.341,-4.338c0,0 -3.024,2.015 -3.024,4.413c0,2.442 2.282,3.891 2.282,3.891l0,4.109c0,0.849 0.812,1.493 0.812,1.493c-0.846,0 -1.535,-0.689 -1.535,-1.538l0,-3.948c-1.673,-0.6 -2.876,-2.2 -2.876,-4.082Z" style="fill:#d0b82b;fill-rule:nonzero;"/></g><path d="M192.97,160.28l-5.422,0l0,-30.374l5.422,0.271l0,30.103Z" style="fill:#f8e349;fill-rule:nonzero;"/><path d="M187.548,111.488l0,5.758c2.236,1.419 4.11,3.858 5.422,6.259l0,-8.617c-1.609,-1.465 -3.439,-2.546 -5.422,-3.4Z" style="fill:#f8e349;fill-rule:nonzero;"/></g></g></g></svg>