<?xml version="1.0" encoding="UTF-8" standalone="no"?><!DOCTYPE svg PUBLIC "-//W3C//DTD SVG 1.1//EN" "http://www.w3.org/Graphics/SVG/1.1/DTD/svg11.dtd"><svg width="100%" height="100%" viewBox="0 0 300 200" version="1.1" xmlns="http://www.w3.org/2000/svg" xmlns:xlink="http://www.w3.org/1999/xlink" xml:space="preserve" style="fill-rule:evenodd;clip-rule:evenodd;stroke-linejoin:round;stroke-miterlimit:1.41421;"><g id="Layer1"><rect x="-0.191" y="0.113" width="300.234" height="200.112" style="fill:#e72564;"/><g><path d="M209.484,108.327l-56.362,-56.362c-1.837,-1.836 -4.855,-1.836 -6.692,0l-3.485,3.485c-7.438,-6.286 -18.58,-5.944 -25.614,1.09c-7.033,7.033 -7.376,18.175 -1.089,25.613l-3.486,3.486c-1.836,1.836 -1.836,4.855 0,6.691l56.362,56.362c1.837,1.837 4.856,1.837 6.692,0l33.643,-33.643c1.867,-1.867 1.867,-4.855 0.031,-6.722l0,0Zm-87.64,-40.521c-1.867,-1.867 -1.867,-4.886 0,-6.754c1.867,-1.867 4.886,-1.867 6.753,0c1.868,1.868 1.868,4.887 0,6.754c-1.867,1.867 -4.886,1.867 -6.753,0Z" style="fill:#ff7058;fill-rule:nonzero;"/><path d="M112.252,73.997c-0.26,-1.04 -0.301,-2.22 -0.402,-3.259c-8.831,8.933 -14.478,11.105 -15.911,10.964c-0.72,-0.055 -1.23,-0.352 -1.592,-0.905c-0.771,-1.179 -0.867,-3.456 -0.257,-6.222c0.706,-3.223 4.796,-8.186 10.998,-11.086c1.796,-0.833 4.514,-1.823 7.721,-2.106c2.395,-0.199 5.061,-0.023 7.817,0.935c0.804,0.263 1.625,0.594 2.427,1.016c-0.037,0.024 -0.074,0.048 -0.08,0.078c-0.799,0.628 -1.605,0.969 -2.537,1.474c0.105,0.562 0.26,1.357 0.628,1.879c0.144,0.221 0.372,0.656 0.553,0.853c1.073,-0.571 2.046,-1.422 3.005,-2.207c0.454,-0.35 0.891,-0.768 1.141,-1.352c0.298,-0.668 0.219,-1.353 -0.191,-1.979c-0.192,-0.295 -0.428,-0.535 -0.616,-0.701l-0.109,-0.087l-0.146,-0.062c-0.748,-0.379 -1.532,-0.733 -2.292,-1.051c-2.5,-0.968 -5.103,-1.449 -7.77,-1.466c-3.521,-0.037 -7.123,0.768 -10.647,2.416c-6.307,2.942 -11.419,8.232 -12.424,12.887c-0.776,3.558 -0.568,6.367 0.606,8.203c0.795,1.215 2.01,1.946 3.541,2.075c3.592,0.306 10.116,-4.072 16.537,-10.297l0,0Z" style="fill:#fff;fill-rule:nonzero;"/></g><g><g opacity="0.8"><circle cx="174.717" cy="135.766" r="22.806" style="fill:#da1f26;"/><path d="M156.665,117.907c-9.76,9.762 -9.76,25.594 0,35.352c9.773,9.767 25.592,9.767 35.352,0.002c9.763,-9.76 9.763,-25.592 0,-35.354c-9.76,-9.763 -25.579,-9.763 -35.352,0Zm30.898,30.9c-7.296,7.296 -19.133,7.301 -26.439,0c-7.303,-7.303 -7.303,-19.143 0,-26.444c7.306,-7.303 19.143,-7.303 26.439,-0.002c7.306,7.303 7.304,19.145 0,26.446Z" style="fill:#ebedef;fill-rule:nonzero;"/><path d="M162.336,133.322c-0.46,1.02 -0.017,2.235 1.004,2.703c1.018,0.477 2.235,0.021 2.705,-0.992c0,0 0.017,-0.048 0.115,-0.228c0.708,-1.294 4.118,-6.792 11.326,-7.46c0.872,-0.085 1.561,-0.706 1.773,-1.509c0.056,-0.224 0.085,-0.468 0.056,-0.716c-0.108,-1.12 -1.104,-1.944 -2.221,-1.832c-10.623,1.089 -14.65,9.824 -14.758,10.034Z" style="fill:#f4f5f5;fill-opacity:0.694118;fill-rule:nonzero;"/></g></g></g></svg>