<?xml version="1.0" encoding="UTF-8" standalone="no"?><!DOCTYPE svg PUBLIC "-//W3C//DTD SVG 1.1//EN" "http://www.w3.org/Graphics/SVG/1.1/DTD/svg11.dtd"><svg width="100%" height="100%" viewBox="0 0 300 200" version="1.1" xmlns="http://www.w3.org/2000/svg" xmlns:xlink="http://www.w3.org/1999/xlink" xml:space="preserve" style="fill-rule:evenodd;clip-rule:evenodd;stroke-linejoin:round;stroke-miterlimit:1.41421;"><g id="Layer1"><rect x="-0.191" y="0.113" width="300.234" height="200.297" style="fill:#4054b2;"/><g><path d="M206.008,103.595l-48.391,-48.391c-1.577,-1.577 -4.169,-1.577 -5.745,0l-2.993,2.993c-6.386,-5.398 -15.953,-5.104 -21.991,0.935c-6.039,6.039 -6.333,15.605 -0.936,21.991l-2.992,2.993c-1.577,1.576 -1.577,4.168 0,5.745l48.391,48.391c1.577,1.577 4.168,1.577 5.745,0l28.885,-28.885c1.603,-1.603 1.603,-4.169 0.027,-5.772Zm-75.246,-34.79c-1.603,-1.604 -1.603,-4.195 0,-5.799c1.603,-1.603 4.195,-1.603 5.798,0c1.604,1.604 1.604,4.195 0,5.799c-1.603,1.603 -4.195,1.603 -5.798,0Z" style="fill:#ff7058;fill-rule:nonzero;"/><path d="M184.476,129.695l-24.613,-63.857c-0.801,-2.081 -3.171,-3.132 -5.251,-2.33l-3.949,1.522c-3.649,-7.523 -12.513,-11.133 -20.482,-8.062c-7.968,3.071 -12.116,11.696 -9.772,19.723l-3.949,1.522c-2.08,0.802 -3.131,3.171 -2.33,5.251l24.613,63.857c0.801,2.081 3.171,3.132 5.251,2.33l38.117,-14.691c2.115,-0.816 3.156,-3.161 2.365,-5.265Zm-54.675,-62.314c-0.816,-2.116 0.235,-4.485 2.351,-5.3c2.116,-0.816 4.485,0.235 5.3,2.351c0.816,2.116 -0.235,4.485 -2.351,5.3c-2.116,0.816 -4.485,-0.235 -5.3,-2.351Z" style="fill:#ffd658;fill-rule:nonzero;"/><path d="M120.142,75.906c-0.223,-0.893 -0.3,-1.397 -0.387,-2.288c-7.581,7.669 -10.004,7.238 -11.235,7.118c-0.618,-0.048 -1.056,-0.303 -1.366,-0.777c-0.662,-1.012 -0.745,-2.968 -0.221,-5.343c0.606,-2.767 4.118,-7.028 9.443,-9.518c1.541,-0.715 3.876,-1.565 6.629,-1.808c2.056,-0.171 4.345,-0.02 6.712,0.803c0.689,0.226 1.394,0.51 2.083,0.872c-0.032,0.021 -0.063,0.041 -0.069,0.068c-0.686,0.539 -1.358,0.942 -2.159,1.375c0.09,0.483 0.204,1.055 0.52,1.503c0.124,0.19 0.258,0.418 0.414,0.587c0.921,-0.49 1.818,-1.076 2.641,-1.75c0.39,-0.301 0.766,-0.659 0.98,-1.16c0.256,-0.574 0.188,-1.162 -0.164,-1.699c-0.165,-0.253 -0.368,-0.46 -0.529,-0.602l-0.094,-0.075l-0.125,-0.053c-0.642,-0.325 -1.315,-0.63 -1.968,-0.903c-2.147,-0.831 -4.381,-1.243 -6.671,-1.258c-3.023,-0.032 -6.116,0.659 -9.142,2.074c-5.414,2.526 -9.803,7.068 -10.666,11.064c-0.666,3.055 -0.488,5.467 0.52,7.043c0.683,1.044 1.725,1.671 3.04,1.782c3.084,0.263 6.302,-1.711 11.814,-7.055Z" style="fill:#fff;fill-rule:nonzero;"/></g><g><g opacity="0.8"><path d="M200.041,110.147l-31.889,17.678l-1.633,1.527l15.729,14.974l1.125,-1.274l16.668,-32.905Z" style="fill:#f7d98b;fill-rule:nonzero;stroke:#000;stroke-width:0.5px;"/><path d="M200.138,109.962l-13.916,7.737l6.66,6.66l7.256,-14.397Z" style="fill:#626463;fill-rule:nonzero;stroke:#000;stroke-width:0.5px;"/><g><path d="M183.662,140.726l-4.745,0.274l-16.591,16.575c1.357,0.899 2.789,1.68 4.272,2.387l15.65,-15.636l1.414,-3.6Z" style="fill:#e84849;fill-rule:nonzero;stroke:#000;stroke-width:0.5px;"/><path d="M156.723,152.919l17.068,-17.052l0.21,-4.804l-4.618,0.398l-16.619,16.607c1.165,1.737 2.5,3.356 3.959,4.851Z" style="fill:#e84849;fill-rule:nonzero;stroke:#000;stroke-width:0.5px;"/><path d="M169.383,131.461l0.65,-4.368l-3.152,1.861l-15.98,15.966c0.569,1.082 1.183,2.134 1.863,3.146l16.619,-16.605Z" style="fill:#f06668;fill-rule:nonzero;stroke:#000;stroke-width:0.5px;"/><path d="M162.328,157.575l16.591,-16.575l-0.058,-5.077l-5.068,-0.056l-17.068,17.052c1.696,1.736 3.573,3.304 5.603,4.656Z" style="fill:#f06668;fill-rule:nonzero;stroke:#000;stroke-width:0.5px;"/></g></g></g></g></svg>