<?xml version="1.0" encoding="UTF-8" standalone="no"?><!DOCTYPE svg PUBLIC "-//W3C//DTD SVG 1.1//EN" "http://www.w3.org/Graphics/SVG/1.1/DTD/svg11.dtd"><svg width="100%" height="100%" viewBox="0 0 300 200" version="1.1" xmlns="http://www.w3.org/2000/svg" xmlns:xlink="http://www.w3.org/1999/xlink" xml:space="preserve" style="fill-rule:evenodd;clip-rule:evenodd;stroke-linejoin:round;stroke-miterlimit:1.41421;"><g id="Layer1"><rect x="-0.191" y="0.113" width="300.234" height="200.218" style="fill:#1fbcd3;"/><g><path d="M206.008,103.595l-48.391,-48.391c-1.577,-1.577 -4.169,-1.577 -5.745,0l-2.993,2.993c-6.386,-5.398 -15.953,-5.104 -21.991,0.935c-6.039,6.039 -6.333,15.605 -0.936,21.991l-2.992,2.993c-1.577,1.576 -1.577,4.168 0,5.745l48.391,48.391c1.577,1.577 4.168,1.577 5.745,0l28.885,-28.885c1.603,-1.603 1.603,-4.169 0.027,-5.772Zm-75.246,-34.79c-1.603,-1.604 -1.603,-4.195 0,-5.799c1.603,-1.603 4.195,-1.603 5.798,0c1.604,1.604 1.604,4.195 0,5.799c-1.603,1.603 -4.195,1.603 -5.798,0Z" style="fill:#ff7058;fill-rule:nonzero;"/><path d="M184.476,129.695l-24.613,-63.857c-0.801,-2.081 -3.171,-3.132 -5.251,-2.33l-3.949,1.522c-3.649,-7.523 -12.513,-11.133 -20.482,-8.062c-7.968,3.071 -12.116,11.696 -9.772,19.723l-3.949,1.522c-2.08,0.802 -3.131,3.171 -2.33,5.251l24.613,63.857c0.801,2.081 3.171,3.132 5.251,2.33l38.117,-14.691c2.115,-0.816 3.156,-3.161 2.365,-5.265Zm-54.675,-62.314c-0.816,-2.116 0.235,-4.485 2.351,-5.3c2.116,-0.816 4.485,0.235 5.3,2.351c0.816,2.116 -0.235,4.485 -2.351,5.3c-2.116,0.816 -4.485,-0.235 -5.3,-2.351Z" style="fill:#ffd658;fill-rule:nonzero;"/><path d="M120.142,75.906c-0.223,-0.893 -0.3,-1.397 -0.387,-2.288c-7.581,7.669 -10.004,7.238 -11.235,7.118c-0.618,-0.048 -1.056,-0.303 -1.366,-0.777c-0.662,-1.012 -0.745,-2.968 -0.221,-5.343c0.606,-2.767 4.118,-7.028 9.443,-9.518c1.541,-0.715 3.876,-1.565 6.629,-1.808c2.056,-0.171 4.345,-0.02 6.712,0.803c0.689,0.226 1.394,0.51 2.083,0.872c-0.032,0.021 -0.063,0.041 -0.069,0.068c-0.686,0.539 -1.358,0.942 -2.159,1.375c0.09,0.483 0.204,1.055 0.52,1.503c0.124,0.19 0.258,0.418 0.414,0.587c0.921,-0.49 1.818,-1.076 2.641,-1.75c0.39,-0.301 0.766,-0.659 0.98,-1.16c0.256,-0.574 0.188,-1.162 -0.164,-1.699c-0.165,-0.253 -0.368,-0.46 -0.529,-0.602l-0.094,-0.075l-0.125,-0.053c-0.642,-0.325 -1.315,-0.63 -1.968,-0.903c-2.147,-0.831 -4.381,-1.243 -6.671,-1.258c-3.023,-0.032 -6.116,0.659 -9.142,2.074c-5.414,2.526 -9.803,7.068 -10.666,11.064c-0.666,3.055 -0.488,5.467 0.52,7.043c0.683,1.044 1.725,1.671 3.04,1.782c3.084,0.263 6.302,-1.711 11.814,-7.055Z" style="fill:#fff;fill-rule:nonzero;"/></g><g><g opacity="0.8"><g><path d="M199.956,130.534c0,-11.044 -8.774,-21.089 -19.598,-21.089c-10.825,0 -19.599,10.042 -19.599,21.089l5.073,0c0,-8.189 6.499,-15.91 14.523,-15.91c8.022,0 14.524,7.721 14.524,15.91l5.077,0Z" style="fill:#f4e028;fill-rule:nonzero;stroke:#ff8200;stroke-width:0.5px;"/><path d="M199.97,155.256c0,2.312 -1.917,4.189 -4.284,4.189l-30.689,0c-2.358,0 -4.279,-1.877 -4.279,-4.189l0,-24.795c0,-2.315 39.254,-2.315 39.254,0l0,24.795l-0.002,0Z" style="fill:#f4e028;fill-rule:nonzero;stroke:#ff8200;stroke-width:0.5px;"/><path d="M184.88,140.505c0,-2.416 -1.962,-4.373 -4.373,-4.373c-2.415,0 -4.376,1.957 -4.376,4.373c0,1.845 1.142,3.416 2.752,4.06l0,4.036c0,0.855 0.695,1.55 1.55,1.55c0.856,0 1.551,-0.695 1.551,-1.55l0,-3.98c1.684,-0.608 2.896,-2.218 2.896,-4.116Z" style="fill:#dac425;fill-rule:nonzero;stroke:#ff8200;stroke-width:0.5px;"/><path d="M175.966,140.505c0,-2.416 1.962,-4.373 4.375,-4.373c0,0 -3.048,2.031 -3.048,4.449c0,2.462 2.301,3.922 2.301,3.922l0,4.144c0,0.855 0.819,1.504 0.819,1.504c-0.854,0 -1.549,-0.695 -1.549,-1.55l0,-3.98c-1.688,-0.608 -2.898,-2.218 -2.898,-4.116Z" style="fill:#d0b82b;fill-rule:nonzero;stroke:#ff8200;stroke-width:0.5px;"/></g><path d="M192.826,159.445l-5.466,0l0,-30.62l5.466,0.272l0,30.348Z" style="fill:#f8e349;fill-rule:nonzero;stroke:#ff8200;stroke-width:0.5px;"/><path d="M187.36,110.911l0,5.804c2.255,1.431 4.144,3.504 5.466,5.924l0,-8.178c-1.619,-1.48 -3.466,-2.69 -5.466,-3.55Z" style="fill:#f8e349;fill-rule:nonzero;stroke:#ff8200;stroke-width:0.5px;"/></g></g></g></svg>