<?xml version="1.0" encoding="UTF-8" standalone="no"?><!DOCTYPE svg PUBLIC "-//W3C//DTD SVG 1.1//EN" "http://www.w3.org/Graphics/SVG/1.1/DTD/svg11.dtd"><svg width="100%" height="100%" viewBox="0 0 300 200" version="1.1" xmlns="http://www.w3.org/2000/svg" xmlns:xlink="http://www.w3.org/1999/xlink" xml:space="preserve" style="fill-rule:evenodd;clip-rule:evenodd;stroke-linejoin:round;stroke-miterlimit:1.41421;"><g id="Layer1"><rect x="-0.191" y="0.113" width="300.234" height="200.218" style="fill:#8c2da8;"/><g><path d="M206.008,103.595l-48.391,-48.391c-1.577,-1.577 -4.169,-1.577 -5.745,0l-2.993,2.993c-6.386,-5.398 -15.953,-5.104 -21.991,0.935c-6.039,6.039 -6.333,15.605 -0.936,21.991l-2.992,2.993c-1.577,1.576 -1.577,4.168 0,5.745l48.391,48.391c1.577,1.577 4.168,1.577 5.745,0l28.885,-28.885c1.603,-1.603 1.603,-4.169 0.027,-5.772Zm-75.246,-34.79c-1.603,-1.604 -1.603,-4.195 0,-5.799c1.603,-1.603 4.195,-1.603 5.798,0c1.604,1.604 1.604,4.195 0,5.799c-1.603,1.603 -4.195,1.603 -5.798,0Z" style="fill:#ff7058;fill-rule:nonzero;"/><path d="M184.476,129.695l-24.613,-63.857c-0.801,-2.081 -3.171,-3.132 -5.251,-2.33l-3.949,1.522c-3.649,-7.523 -12.513,-11.133 -20.482,-8.062c-7.968,3.071 -12.116,11.696 -9.772,19.723l-3.949,1.522c-2.08,0.802 -3.131,3.171 -2.33,5.251l24.613,63.857c0.801,2.081 3.171,3.132 5.251,2.33l38.117,-14.691c2.115,-0.816 3.156,-3.161 2.365,-5.265Zm-54.675,-62.314c-0.816,-2.116 0.235,-4.485 2.351,-5.3c2.116,-0.816 4.485,0.235 5.3,2.351c0.816,2.116 -0.235,4.485 -2.351,5.3c-2.116,0.816 -4.485,-0.235 -5.3,-2.351Z" style="fill:#ffd658;fill-rule:nonzero;"/><path d="M120.142,75.906c-0.223,-0.893 -0.3,-1.397 -0.387,-2.288c-7.581,7.669 -10.004,7.238 -11.235,7.118c-0.618,-0.048 -1.056,-0.303 -1.366,-0.777c-0.662,-1.012 -0.745,-2.968 -0.221,-5.343c0.606,-2.767 4.118,-7.028 9.443,-9.518c1.541,-0.715 3.876,-1.565 6.629,-1.808c2.056,-0.171 4.345,-0.02 6.712,0.803c0.689,0.226 1.394,0.51 2.083,0.872c-0.032,0.021 -0.063,0.041 -0.069,0.068c-0.686,0.539 -1.358,0.942 -2.159,1.375c0.09,0.483 0.204,1.055 0.52,1.503c0.124,0.19 0.258,0.418 0.414,0.587c0.921,-0.49 1.818,-1.076 2.641,-1.75c0.39,-0.301 0.766,-0.659 0.98,-1.16c0.256,-0.574 0.188,-1.162 -0.164,-1.699c-0.165,-0.253 -0.368,-0.46 -0.529,-0.602l-0.094,-0.075l-0.125,-0.053c-0.642,-0.325 -1.315,-0.63 -1.968,-0.903c-2.147,-0.831 -4.381,-1.243 -6.671,-1.258c-3.023,-0.032 -6.116,0.659 -9.142,2.074c-5.414,2.526 -9.803,7.068 -10.666,11.064c-0.666,3.055 -0.488,5.467 0.52,7.043c0.683,1.044 1.725,1.671 3.04,1.782c3.084,0.263 6.302,-1.711 11.814,-7.055Z" style="fill:#fff;fill-rule:nonzero;"/></g><g><g opacity="0.8"><g><path d="M168.467,122.115l1.889,-2.168l-0.611,-2.816l2.834,0.998c3.765,-2.577 8.491,-3.553 12.803,-1.951c7.465,2.768 10.844,12.194 8.019,19.809l4.714,1.748c3.814,-10.271 -0.883,-22.637 -10.944,-26.372c-8.673,-3.218 -18.492,1.031 -23.483,8.838c0,0 -0.483,1.852 1.465,2.715c1.951,0.86 3.314,-0.801 3.314,-0.801Z" style="fill:#f4e028;fill-rule:nonzero;stroke:#f70;stroke-width:0.5px;"/><path d="M200.053,156.122c0,2.294 -1.901,4.156 -4.249,4.156l-30.441,0c-2.339,0 -4.244,-1.862 -4.244,-4.156l0,-24.594c0,-2.296 38.936,-2.296 38.936,0l0,24.594l-0.002,0Z" style="fill:#f4e028;fill-rule:nonzero;stroke:#f70;stroke-width:0.5px;"/><path d="M185.086,141.491c0,-2.396 -1.947,-4.338 -4.338,-4.338c-2.396,0 -4.34,1.942 -4.34,4.338c0,1.83 1.132,3.388 2.729,4.027l0,4.003c0,0.849 0.689,1.538 1.538,1.538c0.849,0 1.538,-0.689 1.538,-1.538l0,-3.948c1.67,-0.6 2.873,-2.2 2.873,-4.082Z" style="fill:#dac425;fill-rule:nonzero;stroke:#f70;stroke-width:0.5px;"/><path d="M176.243,141.491c0,-2.396 1.947,-4.338 4.341,-4.338c0,0 -3.024,2.015 -3.024,4.413c0,2.442 2.282,3.891 2.282,3.891l0,4.109c0,0.849 0.812,1.493 0.812,1.493c-0.846,0 -1.535,-0.689 -1.535,-1.538l0,-3.948c-1.673,-0.6 -2.876,-2.2 -2.876,-4.082Z" style="fill:#d0b82b;fill-rule:nonzero;stroke:#f70;stroke-width:0.5px;"/></g><path d="M192.97,160.28l-5.422,0l0,-30.374l5.422,0.271l0,30.103Z" style="fill:#f8e349;fill-rule:nonzero;stroke:#f70;stroke-width:0.5px;"/><path d="M187.548,111.488l0,5.758c2.236,1.419 4.11,3.858 5.422,6.259l0,-8.617c-1.609,-1.465 -3.439,-2.546 -5.422,-3.4Z" style="fill:#f8e349;fill-rule:nonzero;stroke:#f70;stroke-width:0.5px;"/></g></g></g></svg>