<?xml version="1.0" encoding="UTF-8" standalone="no"?><!DOCTYPE svg PUBLIC "-//W3C//DTD SVG 1.1//EN" "http://www.w3.org/Graphics/SVG/1.1/DTD/svg11.dtd"><svg width="100%" height="100%" viewBox="0 0 300 200" version="1.1" xmlns="http://www.w3.org/2000/svg" xmlns:xlink="http://www.w3.org/1999/xlink" xml:space="preserve" style="fill-rule:evenodd;clip-rule:evenodd;stroke-linejoin:round;stroke-miterlimit:1.41421;"><g id="Layer1"><rect x="-0.191" y="0.113" width="300.234" height="200.112" style="fill:#e72564;"/><g><path d="M206.008,103.595l-48.391,-48.391c-1.577,-1.577 -4.169,-1.577 -5.745,0l-2.993,2.993c-6.386,-5.398 -15.953,-5.104 -21.991,0.935c-6.039,6.039 -6.333,15.605 -0.936,21.991l-2.992,2.993c-1.577,1.576 -1.577,4.168 0,5.745l48.391,48.391c1.577,1.577 4.168,1.577 5.745,0l28.885,-28.885c1.603,-1.603 1.603,-4.169 0.027,-5.772Zm-75.246,-34.79c-1.603,-1.604 -1.603,-4.195 0,-5.799c1.603,-1.603 4.195,-1.603 5.798,0c1.604,1.604 1.604,4.195 0,5.799c-1.603,1.603 -4.195,1.603 -5.798,0Z" style="fill:#ff7058;fill-rule:nonzero;"/><path d="M184.476,129.695l-24.613,-63.857c-0.801,-2.081 -3.171,-3.132 -5.251,-2.33l-3.949,1.522c-3.649,-7.523 -12.513,-11.133 -20.482,-8.062c-7.968,3.071 -12.116,11.696 -9.772,19.723l-3.949,1.522c-2.08,0.802 -3.131,3.171 -2.33,5.251l24.613,63.857c0.801,2.081 3.171,3.132 5.251,2.33l38.117,-14.691c2.115,-0.816 3.156,-3.161 2.365,-5.265Zm-54.675,-62.314c-0.816,-2.116 0.235,-4.485 2.351,-5.3c2.116,-0.816 4.485,0.235 5.3,2.351c0.816,2.116 -0.235,4.485 -2.351,5.3c-2.116,0.816 -4.485,-0.235 -5.3,-2.351Z" style="fill:#ffd658;fill-rule:nonzero;"/><path d="M120.142,75.906c-0.223,-0.893 -0.3,-1.397 -0.387,-2.288c-7.581,7.669 -10.004,7.238 -11.235,7.118c-0.618,-0.048 -1.056,-0.303 -1.366,-0.777c-0.662,-1.012 -0.745,-2.968 -0.221,-5.343c0.606,-2.767 4.118,-7.028 9.443,-9.518c1.541,-0.715 3.876,-1.565 6.629,-1.808c2.056,-0.171 4.345,-0.02 6.712,0.803c0.689,0.226 1.394,0.51 2.083,0.872c-0.032,0.021 -0.063,0.041 -0.069,0.068c-0.686,0.539 -1.358,0.942 -2.159,1.375c0.09,0.483 0.204,1.055 0.52,1.503c0.124,0.19 0.258,0.418 0.414,0.587c0.921,-0.49 1.818,-1.076 2.641,-1.75c0.39,-0.301 0.766,-0.659 0.98,-1.16c0.256,-0.574 0.188,-1.162 -0.164,-1.699c-0.165,-0.253 -0.368,-0.46 -0.529,-0.602l-0.094,-0.075l-0.125,-0.053c-0.642,-0.325 -1.315,-0.63 -1.968,-0.903c-2.147,-0.831 -4.381,-1.243 -6.671,-1.258c-3.023,-0.032 -6.116,0.659 -9.142,2.074c-5.414,2.526 -9.803,7.068 -10.666,11.064c-0.666,3.055 -0.488,5.467 0.52,7.043c0.683,1.044 1.725,1.671 3.04,1.782c3.084,0.263 6.302,-1.711 11.814,-7.055Z" style="fill:#fff;fill-rule:nonzero;"/></g><g><g opacity="0.8"><circle cx="174.717" cy="135.766" r="22.806" style="fill:#da1f26;"/><path d="M156.665,117.907c-9.76,9.762 -9.76,25.594 0,35.352c9.773,9.767 25.592,9.767 35.352,0.002c9.763,-9.76 9.763,-25.592 0,-35.354c-9.76,-9.763 -25.579,-9.763 -35.352,0Zm30.898,30.9c-7.296,7.296 -19.133,7.301 -26.439,0c-7.303,-7.303 -7.303,-19.143 0,-26.444c7.306,-7.303 19.143,-7.303 26.439,-0.002c7.306,7.303 7.304,19.145 0,26.446Z" style="fill:#ebedef;fill-rule:nonzero;"/><path d="M162.336,133.322c-0.46,1.02 -0.017,2.235 1.004,2.703c1.018,0.477 2.235,0.021 2.705,-0.992c0,0 0.017,-0.048 0.115,-0.228c0.708,-1.294 4.118,-6.792 11.326,-7.46c0.872,-0.085 1.561,-0.706 1.773,-1.509c0.056,-0.224 0.085,-0.468 0.056,-0.716c-0.108,-1.12 -1.104,-1.944 -2.221,-1.832c-10.623,1.089 -14.65,9.824 -14.758,10.034Z" style="fill:#f4f5f5;fill-opacity:0.694118;fill-rule:nonzero;"/></g></g></g></svg>