<?xml version="1.0" encoding="UTF-8" standalone="no"?><!DOCTYPE svg PUBLIC "-//W3C//DTD SVG 1.1//EN" "http://www.w3.org/Graphics/SVG/1.1/DTD/svg11.dtd"><svg width="100%" height="100%" viewBox="0 0 300 200" version="1.1" xmlns="http://www.w3.org/2000/svg" xmlns:xlink="http://www.w3.org/1999/xlink" xml:space="preserve" style="fill-rule:evenodd;clip-rule:evenodd;stroke-linejoin:round;stroke-miterlimit:1.41421;"><g id="Layer1"><rect x="-0.191" y="0.113" width="300.234" height="199.701" style="fill:#4054b2;"/><g><path d="M184.767,149.726l-68.403,0c-0.698,0 -1.262,-0.564 -1.262,-1.262l0,-86.712c0,-0.698 0.564,-1.262 1.262,-1.262l68.43,0c0.698,0 1.262,0.564 1.262,1.262l0,86.712c-0.027,0.698 -0.591,1.262 -1.289,1.262Z" style="fill:#ff7058;fill-rule:nonzero;"/><path d="M122.082,65.618l0,70.551l47.034,0l0,-9.933l9.933,0l0,-60.618l-56.967,0Z" style="fill:#fff;fill-rule:nonzero;"/><path d="M156.149,57.644l0,-1.959c0,-3.088 -2.496,-5.584 -5.584,-5.584c-3.087,0 -5.584,2.496 -5.584,5.584l0,1.959l-9.852,0l0,11.437l30.9,0l0,-11.437l-9.88,0Z" style="fill:#ced5e0;fill-rule:nonzero;"/><circle cx="150.565" cy="55.711" r="2.792" style="fill:#324a5e;"/><path d="M160.257,85.94c0,5.906 -4.779,10.685 -10.685,10.685c-5.906,0 -10.685,-4.779 -10.685,-10.685c0,-5.906 4.779,-10.685 10.685,-10.685l0,10.685l10.685,0Z" style="fill:#4cdbc4;fill-rule:nonzero;"/><path d="M162.216,83.98l-10.684,0l0,-10.685c5.906,0.027 10.684,4.806 10.684,10.685Z" style="fill:#84dbff;fill-rule:nonzero;"/><path d="M169.116,136.169l9.933,-9.933l-9.933,0l0,9.933Z" style="fill:#e6e9ee;fill-rule:nonzero;"/><rect x="127.907" y="109.349" width="45.316" height="2.711" style="fill:#e6e9ee;"/><rect x="127.907" y="101.806" width="45.316" height="2.711" style="fill:#e6e9ee;"/><rect x="127.907" y="116.92" width="45.316" height="2.711" style="fill:#e6e9ee;"/></g></g></svg>