<?xml version="1.0" encoding="UTF-8" standalone="no"?><!DOCTYPE svg PUBLIC "-//W3C//DTD SVG 1.1//EN" "http://www.w3.org/Graphics/SVG/1.1/DTD/svg11.dtd"><svg width="100%" height="100%" viewBox="0 0 300 200" version="1.1" xmlns="http://www.w3.org/2000/svg" xmlns:xlink="http://www.w3.org/1999/xlink" xml:space="preserve" style="fill-rule:evenodd;clip-rule:evenodd;stroke-linejoin:round;stroke-miterlimit:1.41421;"><g id="Layer1"><rect x="-0.191" y="0.113" width="300.234" height="199.701" style="fill:#1fbcd3;"/><g><path d="M221.963,138.159l-143.556,0c-1.155,0 -1.901,1.252 -1.342,2.277l2.274,4.327c1.789,3.416 5.254,5.504 9.056,5.504l123.58,0c3.802,0 7.268,-2.126 9.057,-5.504l2.273,-4.327c0.522,-1.025 -0.186,-2.277 -1.342,-2.277Z" style="fill:#324a5e;fill-rule:nonzero;"/><path d="M211.566,138.159l-121.792,0c-0.522,0 -0.969,-0.418 -0.969,-0.987l0,-86.275c0,-0.532 0.41,-0.987 0.969,-0.987l121.792,0c0.521,0 0.968,0.417 0.968,0.987l0,86.275c-0.037,0.531 -0.447,0.987 -0.968,0.987Z" style="fill:#2b3b4e;fill-rule:nonzero;"/><rect x="94.544" y="59.361" width="112.251" height="71.017" style="fill:#fff;"/><ellipse cx="150.67" cy="54.54" rx="2.124" ry="2.164" style="fill:#324a5e;"/><rect x="107.625" y="65.586" width="9.466" height="9.641" style="fill:#ffd05b;"/><rect x="122.756" y="65.586" width="22.435" height="3.264" style="fill:#e6e9ee;"/><rect x="122.756" y="71.962" width="12.336" height="3.264" style="fill:#e6e9ee;"/><rect x="156.148" y="65.586" width="9.466" height="9.641" style="fill:#54c0eb;"/><rect x="171.242" y="65.586" width="22.435" height="3.264" style="fill:#e6e9ee;"/><rect x="171.242" y="71.962" width="12.336" height="3.264" style="fill:#e6e9ee;"/><rect x="110.42" y="90.068" width="9.764" height="30.251" style="fill:#e6e9ee;"/><rect x="128.085" y="90.068" width="9.764" height="30.251" style="fill:#e6e9ee;"/><rect x="145.787" y="90.068" width="9.764" height="30.251" style="fill:#e6e9ee;"/><rect x="163.453" y="90.068" width="9.764" height="30.251" style="fill:#e6e9ee;"/><rect x="181.155" y="90.068" width="9.764" height="30.251" style="fill:#e6e9ee;"/><rect x="110.42" y="102.593" width="9.764" height="17.726" style="fill:#4cdbc4;"/><rect x="128.085" y="109.236" width="9.764" height="11.083" style="fill:#4cdbc4;"/><rect x="145.787" y="95.837" width="9.764" height="24.482" style="fill:#4cdbc4;"/><rect x="163.453" y="104.188" width="9.764" height="16.17" style="fill:#4cdbc4;"/><rect x="181.155" y="98.38" width="9.764" height="21.939" style="fill:#4cdbc4;"/><path d="M166.285,140.892l-32.2,0l-2.72,-2.733l37.64,0l-2.72,2.733Z" style="fill:#acb3ba;fill-rule:nonzero;"/></g></g></svg>