<?xml version="1.0" encoding="UTF-8" standalone="no"?><!DOCTYPE svg PUBLIC "-//W3C//DTD SVG 1.1//EN" "http://www.w3.org/Graphics/SVG/1.1/DTD/svg11.dtd"><svg width="100%" height="100%" viewBox="0 0 300 200" version="1.1" xmlns="http://www.w3.org/2000/svg" xmlns:xlink="http://www.w3.org/1999/xlink" xml:space="preserve" style="fill-rule:evenodd;clip-rule:evenodd;stroke-linejoin:round;stroke-miterlimit:1.41421;"><g id="Layer1"><rect x="-0.191" y="0.113" width="300.234" height="200.07" style="fill:#50ae54;"/><rect x="102.485" y="57.928" width="6.222" height="3.556" style="fill:#fff;"/><rect x="102.485" y="69.064" width="6.222" height="3.556" style="fill:#fff;"/><rect x="102.485" y="80.175" width="6.222" height="3.556" style="fill:#fff;"/><rect x="102.485" y="91.311" width="6.222" height="3.53" style="fill:#fff;"/><rect x="102.485" y="102.447" width="6.222" height="3.556" style="fill:#fff;"/><rect x="102.485" y="113.584" width="6.222" height="3.556" style="fill:#fff;"/><path d="M98.916,130.769l0,-80.681l5.501,0l0,76.32l96.271,0l0,4.361l-101.772,0Z" style="fill:#fff;fill-rule:nonzero;"/><rect x="117.679" y="70.829" width="13.622" height="48.829" style="fill:#fff;"/><rect x="117.679" y="85.418" width="13.622" height="24.22" style="fill:#2c9984;"/><rect x="139.422" y="83.731" width="13.622" height="35.927" style="fill:#fff;"/><rect x="139.422" y="94.893" width="13.622" height="13.836" style="fill:#324a5e;"/><rect x="161.165" y="62.237" width="13.622" height="57.395" style="fill:#fff;"/><rect x="161.165" y="74.853" width="13.622" height="30.969" style="fill:#ffd05b;"/><rect x="182.907" y="53.982" width="13.622" height="65.676" style="fill:#fff;"/><rect x="182.907" y="72.673" width="13.622" height="23.856" style="fill:#ff7058;"/><g><g opacity="0.8"><path d="M166.083,143.649c-2.088,-2.089 -4.568,-2.995 -5.539,-2.026l-10.699,10.701c2.125,2.893 4.692,5.432 7.622,7.508l10.64,-10.641c0.973,-0.974 0.072,-3.457 -2.024,-5.542Z" style="fill:#a07238;fill-rule:nonzero;"/><circle cx="177.493" cy="132.246" r="20.447" style="fill:#60c3b6;"/><path d="M159.522,142.549l-2.911,2.908c0,0 2.655,5.865 8.365,6.764l2.115,-2.109l0,-2.729l-7.569,-4.834Z" style="fill:#a07238;fill-rule:nonzero;"/><path d="M161.64,116.397c-8.751,8.753 -8.751,22.947 0,31.695c8.761,8.758 22.944,8.758 31.695,0.003c8.753,-8.751 8.753,-22.945 0,-31.698c-8.751,-8.753 -22.934,-8.753 -31.695,0Zm27.702,27.704c-6.541,6.542 -17.155,6.546 -23.705,0c-6.547,-6.548 -6.547,-17.163 0,-23.709c6.55,-6.547 17.164,-6.547 23.705,-0.002c6.55,6.548 6.548,17.166 0,23.711Z" style="fill:#ebedef;fill-rule:nonzero;"/><path d="M166.393,130.054c-0.413,0.915 -0.015,2.004 0.899,2.423c0.913,0.428 2.005,0.02 2.426,-0.888c0,0 0.015,-0.044 0.103,-0.206c0.635,-1.159 3.692,-6.089 10.154,-6.687c0.782,-0.077 1.4,-0.633 1.59,-1.354c0.05,-0.201 0.076,-0.419 0.05,-0.642c-0.096,-1.004 -0.989,-1.742 -1.991,-1.642c-9.524,0.976 -13.135,8.808 -13.231,8.996Z" style="fill:#f4f5f5;fill-opacity:0.694118;fill-rule:nonzero;"/></g></g></g></svg>