<?xml version="1.0" encoding="UTF-8" standalone="no"?><!DOCTYPE svg PUBLIC "-//W3C//DTD SVG 1.1//EN" "http://www.w3.org/Graphics/SVG/1.1/DTD/svg11.dtd"><svg width="100%" height="100%" viewBox="0 0 300 200" version="1.1" xmlns="http://www.w3.org/2000/svg" xmlns:xlink="http://www.w3.org/1999/xlink" xml:space="preserve" style="fill-rule:evenodd;clip-rule:evenodd;stroke-linejoin:round;stroke-miterlimit:1.41421;"><g id="Layer1"><rect x="-0.191" y="0.113" width="300.234" height="200.297" style="fill:#4054b2;"/><rect x="102.485" y="57.928" width="6.222" height="3.556" style="fill:#fff;"/><rect x="102.485" y="69.064" width="6.222" height="3.556" style="fill:#fff;"/><rect x="102.485" y="80.175" width="6.222" height="3.556" style="fill:#fff;"/><rect x="102.485" y="91.311" width="6.222" height="3.53" style="fill:#fff;"/><rect x="102.485" y="102.447" width="6.222" height="3.556" style="fill:#fff;"/><rect x="102.485" y="113.584" width="6.222" height="3.556" style="fill:#fff;"/><path d="M98.916,130.769l0,-80.681l5.501,0l0,76.32l96.271,0l0,4.361l-101.772,0Z" style="fill:#fff;fill-rule:nonzero;"/><rect x="117.679" y="70.829" width="13.622" height="48.829" style="fill:#fff;"/><rect x="117.679" y="85.418" width="13.622" height="24.22" style="fill:#2c9984;"/><rect x="139.422" y="83.731" width="13.622" height="35.927" style="fill:#fff;"/><rect x="139.422" y="94.893" width="13.622" height="13.836" style="fill:#324a5e;"/><rect x="161.165" y="62.237" width="13.622" height="57.395" style="fill:#fff;"/><rect x="161.165" y="74.853" width="13.622" height="30.969" style="fill:#ffd05b;"/><rect x="182.907" y="53.982" width="13.622" height="65.676" style="fill:#fff;"/><rect x="182.907" y="72.673" width="13.622" height="23.856" style="fill:#ff7058;"/><g><g opacity="0.8"><path d="M200.041,110.147l-31.889,17.678l-1.633,1.527l15.729,14.974l1.125,-1.274l16.668,-32.905Z" style="fill:#f7d98b;fill-rule:nonzero;"/><path d="M200.138,109.962l-13.916,7.737l6.66,6.66l7.256,-14.397Z" style="fill:#626463;fill-rule:nonzero;"/><g><path d="M183.662,140.726l-4.745,0.274l-16.591,16.575c1.357,0.899 2.789,1.68 4.272,2.387l15.65,-15.636l1.414,-3.6Z" style="fill:#e84849;fill-rule:nonzero;"/><path d="M156.723,152.919l17.068,-17.052l0.21,-4.804l-4.618,0.398l-16.619,16.607c1.165,1.737 2.5,3.356 3.959,4.851Z" style="fill:#e84849;fill-rule:nonzero;"/><path d="M169.383,131.461l0.65,-4.368l-3.152,1.861l-15.98,15.966c0.569,1.082 1.183,2.134 1.863,3.146l16.619,-16.605Z" style="fill:#f06668;fill-rule:nonzero;"/><path d="M162.328,157.575l16.591,-16.575l-0.058,-5.077l-5.068,-0.056l-17.068,17.052c1.696,1.736 3.573,3.304 5.603,4.656Z" style="fill:#f06668;fill-rule:nonzero;"/></g></g></g></g></svg>