<?xml version="1.0" encoding="UTF-8" standalone="no"?><!DOCTYPE svg PUBLIC "-//W3C//DTD SVG 1.1//EN" "http://www.w3.org/Graphics/SVG/1.1/DTD/svg11.dtd"><svg width="100%" height="100%" viewBox="0 0 300 200" version="1.1" xmlns="http://www.w3.org/2000/svg" xmlns:xlink="http://www.w3.org/1999/xlink" xml:space="preserve" style="fill-rule:evenodd;clip-rule:evenodd;stroke-linejoin:round;stroke-miterlimit:1.41421;"><g id="Layer1"><rect x="-0.191" y="0.113" width="300.234" height="200.218" style="fill:#1fbcd3;"/><rect x="102.485" y="57.928" width="6.222" height="3.556" style="fill:#fff;"/><rect x="102.485" y="69.064" width="6.222" height="3.556" style="fill:#fff;"/><rect x="102.485" y="80.175" width="6.222" height="3.556" style="fill:#fff;"/><rect x="102.485" y="91.311" width="6.222" height="3.53" style="fill:#fff;"/><rect x="102.485" y="102.447" width="6.222" height="3.556" style="fill:#fff;"/><rect x="102.485" y="113.584" width="6.222" height="3.556" style="fill:#fff;"/><path d="M98.916,130.769l0,-80.681l5.501,0l0,76.32l96.271,0l0,4.361l-101.772,0Z" style="fill:#fff;fill-rule:nonzero;"/><rect x="117.679" y="70.829" width="13.622" height="48.829" style="fill:#fff;"/><rect x="117.679" y="85.418" width="13.622" height="24.22" style="fill:#2c9984;"/><rect x="139.422" y="83.731" width="13.622" height="35.927" style="fill:#fff;"/><rect x="139.422" y="94.893" width="13.622" height="13.836" style="fill:#324a5e;"/><rect x="161.165" y="62.237" width="13.622" height="57.395" style="fill:#fff;"/><rect x="161.165" y="74.853" width="13.622" height="30.969" style="fill:#ffd05b;"/><rect x="182.907" y="53.982" width="13.622" height="65.676" style="fill:#fff;"/><rect x="182.907" y="72.673" width="13.622" height="23.856" style="fill:#ff7058;"/><g><g opacity="0.8"><g><path d="M199.956,130.534c0,-11.044 -8.774,-21.089 -19.598,-21.089c-10.825,0 -19.599,10.042 -19.599,21.089l5.073,0c0,-8.189 6.499,-15.91 14.523,-15.91c8.022,0 14.524,7.721 14.524,15.91l5.077,0Z" style="fill:#f4e028;fill-rule:nonzero;"/><path d="M199.97,155.256c0,2.312 -1.917,4.189 -4.284,4.189l-30.689,0c-2.358,0 -4.279,-1.877 -4.279,-4.189l0,-24.795c0,-2.315 39.254,-2.315 39.254,0l0,24.795l-0.002,0Z" style="fill:#f4e028;fill-rule:nonzero;"/><path d="M184.88,140.505c0,-2.416 -1.962,-4.373 -4.373,-4.373c-2.415,0 -4.376,1.957 -4.376,4.373c0,1.845 1.142,3.416 2.752,4.06l0,4.036c0,0.855 0.695,1.55 1.55,1.55c0.856,0 1.551,-0.695 1.551,-1.55l0,-3.98c1.684,-0.608 2.896,-2.218 2.896,-4.116Z" style="fill:#dac425;fill-rule:nonzero;"/><path d="M175.966,140.505c0,-2.416 1.962,-4.373 4.375,-4.373c0,0 -3.048,2.031 -3.048,4.449c0,2.462 2.301,3.922 2.301,3.922l0,4.144c0,0.855 0.819,1.504 0.819,1.504c-0.854,0 -1.549,-0.695 -1.549,-1.55l0,-3.98c-1.688,-0.608 -2.898,-2.218 -2.898,-4.116Z" style="fill:#d0b82b;fill-rule:nonzero;"/></g><path d="M192.826,159.445l-5.466,0l0,-30.62l5.466,0.272l0,30.348Z" style="fill:#f8e349;fill-rule:nonzero;"/><path d="M187.36,110.911l0,5.804c2.255,1.431 4.144,3.504 5.466,5.924l0,-8.178c-1.619,-1.48 -3.466,-2.69 -5.466,-3.55Z" style="fill:#f8e349;fill-rule:nonzero;"/></g></g></g></svg>