<?xml version="1.0" encoding="UTF-8" standalone="no"?><!DOCTYPE svg PUBLIC "-//W3C//DTD SVG 1.1//EN" "http://www.w3.org/Graphics/SVG/1.1/DTD/svg11.dtd"><svg width="100%" height="100%" viewBox="0 0 300 200" version="1.1" xmlns="http://www.w3.org/2000/svg" xmlns:xlink="http://www.w3.org/1999/xlink" xml:space="preserve" style="fill-rule:evenodd;clip-rule:evenodd;stroke-linejoin:round;stroke-miterlimit:1.41421;"><g id="Layer1"><rect x="-0.191" y="0.113" width="300.234" height="200.218" style="fill:#8c2da8;"/><rect x="102.485" y="57.928" width="6.222" height="3.556" style="fill:#fff;"/><rect x="102.485" y="69.064" width="6.222" height="3.556" style="fill:#fff;"/><rect x="102.485" y="80.175" width="6.222" height="3.556" style="fill:#fff;"/><rect x="102.485" y="91.311" width="6.222" height="3.53" style="fill:#fff;"/><rect x="102.485" y="102.447" width="6.222" height="3.556" style="fill:#fff;"/><rect x="102.485" y="113.584" width="6.222" height="3.556" style="fill:#fff;"/><path d="M98.916,130.769l0,-80.681l5.501,0l0,76.32l96.271,0l0,4.361l-101.772,0Z" style="fill:#fff;fill-rule:nonzero;"/><rect x="117.679" y="70.829" width="13.622" height="48.829" style="fill:#fff;"/><rect x="117.679" y="85.418" width="13.622" height="24.22" style="fill:#2c9984;"/><rect x="139.422" y="83.731" width="13.622" height="35.927" style="fill:#fff;"/><rect x="139.422" y="94.893" width="13.622" height="13.836" style="fill:#324a5e;"/><rect x="161.165" y="62.237" width="13.622" height="57.395" style="fill:#fff;"/><rect x="161.165" y="74.853" width="13.622" height="30.969" style="fill:#ffd05b;"/><rect x="182.907" y="53.982" width="13.622" height="65.676" style="fill:#fff;"/><rect x="182.907" y="72.673" width="13.622" height="23.856" style="fill:#ff7058;"/><g><g opacity="0.8"><g><path d="M168.467,122.115l1.889,-2.168l-0.611,-2.816l2.834,0.998c3.765,-2.577 8.491,-3.553 12.803,-1.951c7.465,2.768 10.844,12.194 8.019,19.809l4.714,1.748c3.814,-10.271 -0.883,-22.637 -10.944,-26.372c-8.673,-3.218 -18.492,1.031 -23.483,8.838c0,0 -0.483,1.852 1.465,2.715c1.951,0.86 3.314,-0.801 3.314,-0.801Z" style="fill:#f4e028;fill-rule:nonzero;"/><path d="M200.053,156.122c0,2.294 -1.901,4.156 -4.249,4.156l-30.441,0c-2.339,0 -4.244,-1.862 -4.244,-4.156l0,-24.594c0,-2.296 38.936,-2.296 38.936,0l0,24.594l-0.002,0Z" style="fill:#f4e028;fill-rule:nonzero;"/><path d="M185.086,141.491c0,-2.396 -1.947,-4.338 -4.338,-4.338c-2.396,0 -4.34,1.942 -4.34,4.338c0,1.83 1.132,3.388 2.729,4.027l0,4.003c0,0.849 0.689,1.538 1.538,1.538c0.849,0 1.538,-0.689 1.538,-1.538l0,-3.948c1.67,-0.6 2.873,-2.2 2.873,-4.082Z" style="fill:#dac425;fill-rule:nonzero;"/><path d="M176.243,141.491c0,-2.396 1.947,-4.338 4.341,-4.338c0,0 -3.024,2.015 -3.024,4.413c0,2.442 2.282,3.891 2.282,3.891l0,4.109c0,0.849 0.812,1.493 0.812,1.493c-0.846,0 -1.535,-0.689 -1.535,-1.538l0,-3.948c-1.673,-0.6 -2.876,-2.2 -2.876,-4.082Z" style="fill:#d0b82b;fill-rule:nonzero;"/></g><path d="M192.97,160.28l-5.422,0l0,-30.374l5.422,0.271l0,30.103Z" style="fill:#f8e349;fill-rule:nonzero;"/><path d="M187.548,111.488l0,5.758c2.236,1.419 4.11,3.858 5.422,6.259l0,-8.617c-1.609,-1.465 -3.439,-2.546 -5.422,-3.4Z" style="fill:#f8e349;fill-rule:nonzero;"/></g></g></g></svg>