<?xml version="1.0" encoding="UTF-8" standalone="no"?><!DOCTYPE svg PUBLIC "-//W3C//DTD SVG 1.1//EN" "http://www.w3.org/Graphics/SVG/1.1/DTD/svg11.dtd"><svg width="100%" height="100%" viewBox="0 0 300 200" version="1.1" xmlns="http://www.w3.org/2000/svg" xmlns:xlink="http://www.w3.org/1999/xlink" xml:space="preserve" style="fill-rule:evenodd;clip-rule:evenodd;stroke-linejoin:round;stroke-miterlimit:1.41421;"><g id="Layer1"><rect x="-0.191" y="0.113" width="300.234" height="200.112" style="fill:#e72564;"/><rect x="102.485" y="57.928" width="6.222" height="3.556" style="fill:#fff;"/><rect x="102.485" y="69.064" width="6.222" height="3.556" style="fill:#fff;"/><rect x="102.485" y="80.175" width="6.222" height="3.556" style="fill:#fff;"/><rect x="102.485" y="91.311" width="6.222" height="3.53" style="fill:#fff;"/><rect x="102.485" y="102.447" width="6.222" height="3.556" style="fill:#fff;"/><rect x="102.485" y="113.584" width="6.222" height="3.556" style="fill:#fff;"/><path d="M98.916,130.769l0,-80.681l5.501,0l0,76.32l96.271,0l0,4.361l-101.772,0Z" style="fill:#fff;fill-rule:nonzero;"/><rect x="117.679" y="70.829" width="13.622" height="48.829" style="fill:#fff;"/><rect x="117.679" y="85.418" width="13.622" height="24.22" style="fill:#2c9984;"/><rect x="139.422" y="83.731" width="13.622" height="35.927" style="fill:#fff;"/><rect x="139.422" y="94.893" width="13.622" height="13.836" style="fill:#324a5e;"/><rect x="161.165" y="62.237" width="13.622" height="57.395" style="fill:#fff;"/><rect x="161.165" y="74.853" width="13.622" height="30.969" style="fill:#ffd05b;"/><rect x="182.907" y="53.982" width="13.622" height="65.676" style="fill:#fff;"/><rect x="182.907" y="72.673" width="13.622" height="23.856" style="fill:#ff7058;"/><g><g opacity="0.8"><circle cx="174.717" cy="135.766" r="22.806" style="fill:#da1f26;"/><path d="M156.665,117.907c-9.76,9.762 -9.76,25.594 0,35.352c9.773,9.767 25.592,9.767 35.352,0.002c9.763,-9.76 9.763,-25.592 0,-35.354c-9.76,-9.763 -25.579,-9.763 -35.352,0Zm30.898,30.9c-7.296,7.296 -19.133,7.301 -26.439,0c-7.303,-7.303 -7.303,-19.143 0,-26.444c7.306,-7.303 19.143,-7.303 26.439,-0.002c7.306,7.303 7.304,19.145 0,26.446Z" style="fill:#ebedef;fill-rule:nonzero;"/><path d="M162.336,133.322c-0.46,1.02 -0.017,2.235 1.004,2.703c1.018,0.477 2.235,0.021 2.705,-0.992c0,0 0.017,-0.048 0.115,-0.228c0.708,-1.294 4.118,-6.792 11.326,-7.46c0.872,-0.085 1.561,-0.706 1.773,-1.509c0.056,-0.224 0.085,-0.468 0.056,-0.716c-0.108,-1.12 -1.104,-1.944 -2.221,-1.832c-10.623,1.089 -14.65,9.824 -14.758,10.034Z" style="fill:#f4f5f5;fill-opacity:0.694118;fill-rule:nonzero;"/></g></g></g></svg>