<?xml version="1.0" encoding="UTF-8" standalone="no"?><!DOCTYPE svg PUBLIC "-//W3C//DTD SVG 1.1//EN" "http://www.w3.org/Graphics/SVG/1.1/DTD/svg11.dtd"><svg width="100%" height="100%" viewBox="0 0 300 200" version="1.1" xmlns="http://www.w3.org/2000/svg" xmlns:xlink="http://www.w3.org/1999/xlink" xml:space="preserve" style="fill-rule:evenodd;clip-rule:evenodd;stroke-linejoin:round;stroke-miterlimit:1.41421;"><g id="Layer1"><rect x="-0.191" y="0.113" width="300.234" height="199.928" style="fill:#f98b25;"/><rect x="102.485" y="57.928" width="6.222" height="3.556" style="fill:#fff;"/><rect x="102.485" y="69.064" width="6.222" height="3.556" style="fill:#fff;"/><rect x="102.485" y="80.175" width="6.222" height="3.556" style="fill:#fff;"/><rect x="102.485" y="91.311" width="6.222" height="3.53" style="fill:#fff;"/><rect x="102.485" y="102.447" width="6.222" height="3.556" style="fill:#fff;"/><rect x="102.485" y="113.584" width="6.222" height="3.556" style="fill:#fff;"/><path d="M98.916,130.769l0,-80.681l5.501,0l0,76.32l96.271,0l0,4.361l-101.772,0Z" style="fill:#fff;fill-rule:nonzero;"/><rect x="117.679" y="70.829" width="13.622" height="48.829" style="fill:#fff;"/><rect x="117.679" y="85.418" width="13.622" height="24.22" style="fill:#2c9984;"/><rect x="139.422" y="83.731" width="13.622" height="35.927" style="fill:#fff;"/><rect x="139.422" y="94.893" width="13.622" height="13.836" style="fill:#324a5e;"/><rect x="161.165" y="62.237" width="13.622" height="57.395" style="fill:#fff;"/><rect x="161.165" y="74.853" width="13.622" height="30.969" style="fill:#ffd05b;"/><rect x="182.907" y="53.982" width="13.622" height="65.676" style="fill:#fff;"/><rect x="182.907" y="72.673" width="13.622" height="23.856" style="fill:#ff7058;"/><g><g opacity="0.8"><g><path d="M197.582,112.007c2.958,2.957 2.958,7.751 -0.003,10.711l-34.853,34.853c-2.954,2.955 -7.751,2.958 -10.708,0c-2.958,-2.957 -2.955,-7.751 0,-10.708l34.853,-34.853c2.96,-2.961 7.754,-2.961 10.711,-0.003Z" style="fill:#fff;fill-rule:nonzero;"/><path d="M192.321,109.54l0.094,0.001l0.094,0.003l0.094,0.004l0.093,0.005l0.094,0.006l0.094,0.007l0.093,0.009l0.094,0.009l0.093,0.011l0.093,0.012l0.093,0.012l0.093,0.014l0.093,0.016l0.093,0.016l0.092,0.017l0.093,0.019l0.092,0.019l0.092,0.021l0.092,0.022l0.091,0.022l0.092,0.025l0.091,0.025l0.091,0.026l0.09,0.027l0.09,0.029l0.09,0.03l0.09,0.03l0.09,0.032l0.089,0.033l0.089,0.034l0.088,0.036l0.088,0.036l0.088,0.037l0.087,0.039l0.087,0.04l0.087,0.041l0.086,0.042l0.086,0.043l0.085,0.044l0.085,0.045l0.085,0.047l0.084,0.047l0.084,0.049l0.083,0.05l0.082,0.051l0.082,0.052l0.082,0.053l0.081,0.054l0.081,0.055l0.08,0.057l0.079,0.058l0.079,0.058l0.078,0.06l0.078,0.061l0.077,0.062l0.077,0.063l0.075,0.065l0.076,0.065l0.074,0.067l0.074,0.067l0.073,0.069l0.073,0.07l0.072,0.071l0.071,0.072l0.07,0.073l0.069,0.073l0.067,0.074l0.067,0.074l0.065,0.076l0.065,0.075l0.063,0.077l0.062,0.077l0.061,0.078l0.06,0.078l0.058,0.079l0.058,0.079l0.057,0.08l0.055,0.081l0.054,0.081l0.053,0.082l0.052,0.082l0.051,0.082l0.05,0.083l0.049,0.084l0.047,0.084l0.047,0.085l0.045,0.085l0.044,0.085l0.043,0.086l0.042,0.086l0.041,0.087l0.04,0.087l0.038,0.087l0.038,0.088l0.036,0.088l0.036,0.088l0.034,0.089l0.033,0.089l0.032,0.09l0.03,0.089l0.03,0.091l0.029,0.09l0.027,0.09l0.026,0.091l0.025,0.091l0.024,0.092l0.023,0.091l0.022,0.092l0.021,0.092l0.019,0.092l0.019,0.093l0.017,0.092l0.016,0.093l0.016,0.093l0.013,0.093l0.013,0.093l0.012,0.093l0.011,0.093l0.009,0.094l0.009,0.093l0.007,0.094l0.006,0.094l0.005,0.093l0.004,0.094l0.003,0.094l0.001,0.094l0.001,0.093l-0.001,0.094l-0.001,0.094l-0.003,0.094l-0.004,0.094l-0.005,0.093l-0.006,0.094l-0.008,0.094l-0.008,0.093l-0.01,0.094l-0.01,0.093l-0.012,0.093l-0.013,0.093l-0.014,0.093l-0.015,0.093l-0.016,0.093l-0.018,0.093l-0.018,0.092l-0.02,0.092l-0.021,0.092l-0.021,0.092l-0.023,0.091l-0.024,0.092l-0.026,0.091l-0.026,0.091l-0.027,0.09l-0.029,0.091l-0.03,0.09l-0.031,0.09l-0.031,0.089l-0.034,0.089l-0.034,0.089l-0.035,0.089l-0.036,0.088l-0.038,0.088l-0.039,0.087l-0.039,0.087l-0.041,0.087l-0.042,0.086l-0.043,0.086l-0.045,0.085l-0.045,0.085l-0.046,0.085l-0.048,0.084l-0.049,0.084l-0.05,0.083l-0.051,0.082l-0.052,0.083l-0.053,0.081l-0.054,0.081l-0.056,0.081l-0.056,0.08l-0.058,0.08l-0.059,0.078l-0.06,0.079l-0.061,0.078l-0.062,0.077l-0.063,0.076l-0.065,0.076l-0.065,0.076l-0.067,0.074l-0.067,0.074l-0.069,0.074l-0.07,0.072l-0.071,0.072l-34.854,34.854l-0.071,0.07l-0.073,0.07l-0.073,0.069l-0.074,0.067l-0.074,0.067l-0.075,0.065l-0.076,0.064l-0.077,0.064l-0.077,0.062l-0.077,0.06l-0.079,0.06l-0.078,0.059l-0.08,0.058l-0.08,0.056l-0.08,0.055l-0.081,0.055l-0.082,0.053l-0.082,0.052l-0.083,0.051l-0.083,0.049l-0.083,0.049l-0.084,0.048l-0.085,0.046l-0.085,0.045l-0.085,0.044l-0.086,0.043l-0.086,0.042l-0.086,0.041l-0.087,0.04l-0.088,0.039l-0.088,0.037l-0.088,0.036l-0.088,0.036l-0.089,0.034l-0.089,0.033l-0.089,0.032l-0.09,0.03l-0.09,0.03l-0.091,0.029l-0.09,0.027l-0.091,0.026l-0.091,0.025l-0.091,0.024l-0.092,0.023l-0.092,0.022l-0.092,0.021l-0.092,0.019l-0.092,0.019l-0.093,0.017l-0.092,0.016l-0.093,0.016l-0.093,0.014l-0.093,0.012l-0.094,0.012l-0.093,0.011l-0.093,0.009l-0.094,0.009l-0.093,0.007l-0.094,0.006l-0.094,0.005l-0.094,0.004l-0.093,0.003l-0.094,0.002l-0.094,0l-0.094,0l-0.094,-0.002l-0.093,-0.003l-0.094,-0.004l-0.094,-0.005l-0.094,-0.006l-0.093,-0.007l-0.094,-0.008l-0.093,-0.01l-0.094,-0.01l-0.093,-0.012l-0.093,-0.013l-0.093,-0.014l-0.093,-0.015l-0.092,-0.016l-0.093,-0.017l-0.092,-0.019l-0.093,-0.019l-0.092,-0.021l-0.091,-0.022l-0.092,-0.023l-0.091,-0.024l-0.091,-0.025l-0.091,-0.026l-0.091,-0.028l-0.09,-0.028l-0.09,-0.03l-0.09,-0.031l-0.089,-0.031l-0.09,-0.033l-0.088,-0.035l-0.089,-0.035l-0.088,-0.036l-0.088,-0.038l-0.087,-0.038l-0.087,-0.04l-0.087,-0.041l-0.086,-0.042l-0.086,-0.043l-0.085,-0.044l-0.085,-0.045l-0.085,-0.047l-0.084,-0.047l-0.084,-0.049l-0.083,-0.05l-0.082,-0.05l-0.083,-0.052l-0.081,-0.054l-0.081,-0.054l-0.081,-0.055l-0.08,-0.057l-0.079,-0.057l-0.079,-0.059l-0.078,-0.06l-0.078,-0.061l-0.077,-0.062l-0.077,-0.063l-0.076,-0.065l-0.075,-0.065l-0.075,-0.066l-0.073,-0.068l-0.074,-0.069l-0.072,-0.07l-0.072,-0.071l-0.071,-0.072l-0.07,-0.072l-0.069,-0.074l-0.068,-0.073l-0.066,-0.075l-0.066,-0.075l-0.064,-0.076l-0.063,-0.077l-0.062,-0.077l-0.061,-0.078l-0.06,-0.078l-0.059,-0.079l-0.057,-0.079l-0.057,-0.08l-0.055,-0.081l-0.054,-0.081l-0.054,-0.081l-0.052,-0.082l-0.05,-0.083l-0.05,-0.083l-0.049,-0.084l-0.047,-0.084l-0.047,-0.084l-0.045,-0.085l-0.044,-0.086l-0.043,-0.086l-0.042,-0.086l-0.041,-0.086l-0.04,-0.087l-0.038,-0.088l-0.038,-0.088l-0.036,-0.088l-0.036,-0.088l-0.034,-0.089l-0.033,-0.089l-0.031,-0.089l-0.031,-0.09l-0.03,-0.09l-0.028,-0.091l-0.028,-0.09l-0.026,-0.091l-0.025,-0.091l-0.024,-0.091l-0.023,-0.092l-0.022,-0.092l-0.021,-0.092l-0.019,-0.092l-0.019,-0.092l-0.017,-0.093l-0.016,-0.092l-0.015,-0.093l-0.014,-0.093l-0.013,-0.093l-0.012,-0.094l-0.01,-0.093l-0.01,-0.093l-0.008,-0.094l-0.007,-0.093l-0.007,-0.094l-0.005,-0.094l-0.003,-0.093l-0.003,-0.094l-0.002,-0.094l0,-0.094l0,-0.094l0.002,-0.093l0.003,-0.094l0.004,-0.094l0.005,-0.094l0.006,-0.093l0.007,-0.094l0.009,-0.093l0.009,-0.094l0.011,-0.093l0.011,-0.093l0.013,-0.094l0.014,-0.092l0.015,-0.093l0.017,-0.093l0.017,-0.093l0.018,-0.092l0.02,-0.092l0.021,-0.092l0.022,-0.092l0.023,-0.091l0.024,-0.092l0.025,-0.091l0.026,-0.091l0.027,-0.09l0.029,-0.09l0.03,-0.09l0.03,-0.09l0.032,-0.09l0.033,-0.089l0.034,-0.089l0.036,-0.088l0.036,-0.088l0.037,-0.088l0.039,-0.087l0.04,-0.087l0.041,-0.087l0.041,-0.086l0.044,-0.086l0.044,-0.085l0.045,-0.085l0.046,-0.085l0.048,-0.084l0.049,-0.083l0.049,-0.083l0.051,-0.083l0.052,-0.082l0.053,-0.082l0.055,-0.081l0.055,-0.08l0.056,-0.08l0.058,-0.08l0.059,-0.079l0.059,-0.078l0.061,-0.078l0.062,-0.077l0.064,-0.076l0.064,-0.076l0.065,-0.075l0.067,-0.075l0.067,-0.074l0.069,-0.073l0.07,-0.073l0.07,-0.071l34.854,-34.854l0.072,-0.071l0.072,-0.07l0.074,-0.069l0.074,-0.067l0.074,-0.067l0.076,-0.066l0.076,-0.064l0.076,-0.063l0.077,-0.062l0.078,-0.061l0.078,-0.06l0.079,-0.059l0.08,-0.058l0.08,-0.056l0.081,-0.056l0.081,-0.054l0.081,-0.053l0.083,-0.052l0.082,-0.051l0.083,-0.05l0.084,-0.049l0.084,-0.048l0.085,-0.046l0.085,-0.045l0.085,-0.045l0.086,-0.043l0.086,-0.042l0.087,-0.041l0.087,-0.039l0.087,-0.039l0.088,-0.038l0.088,-0.036l0.089,-0.035l0.089,-0.035l0.089,-0.033l0.089,-0.032l0.09,-0.03l0.09,-0.03l0.09,-0.029l0.091,-0.027l0.091,-0.026l0.091,-0.026l0.091,-0.024l0.092,-0.023l0.092,-0.021l0.092,-0.021l0.092,-0.02l0.092,-0.018l0.093,-0.018l0.093,-0.016l0.093,-0.015l0.093,-0.014l0.093,-0.013l0.093,-0.012l0.093,-0.01l0.094,-0.01l0.093,-0.008l0.094,-0.008l0.094,-0.006l0.093,-0.005l0.094,-0.004l0.094,-0.003l0.094,-0.001l0.093,-0.001l0.094,0.001Zm-0.181,0.5l-0.088,0.001l-0.088,0.003l-0.088,0.004l-0.088,0.004l-0.087,0.006l-0.088,0.007l-0.088,0.008l-0.087,0.009l-0.087,0.01l-0.088,0.011l-0.087,0.012l-0.087,0.013l-0.087,0.014l-0.087,0.015l-0.086,0.017l-0.087,0.017l-0.086,0.018l-0.086,0.02l-0.086,0.02l-0.086,0.022l-0.086,0.022l-0.085,0.024l-0.085,0.024l-0.085,0.026l-0.084,0.027l-0.085,0.028l-0.084,0.028l-0.083,0.03l-0.084,0.031l-0.083,0.032l-0.083,0.033l-0.082,0.034l-0.082,0.035l-0.082,0.037l-0.082,0.037l-0.081,0.038l-0.08,0.039l-0.081,0.041l-0.08,0.041l-0.079,0.043l-0.079,0.043l-0.079,0.045l-0.078,0.045l-0.078,0.047l-0.077,0.048l-0.077,0.048l-0.077,0.05l-0.076,0.051l-0.075,0.052l-0.075,0.053l-0.074,0.054l-0.074,0.055l-0.074,0.056l-0.072,0.057l-0.073,0.058l-0.071,0.059l-0.072,0.061l-0.07,0.061l-0.07,0.063l-0.069,0.063l-0.069,0.065l-0.068,0.065l-0.068,0.067l-34.852,34.852l-0.067,0.068l-0.066,0.068l-0.064,0.069l-0.063,0.069l-0.062,0.07l-0.062,0.07l-0.06,0.071l-0.059,0.072l-0.058,0.072l-0.057,0.073l-0.056,0.073l-0.055,0.074l-0.054,0.074l-0.053,0.075l-0.052,0.076l-0.05,0.076l-0.05,0.076l-0.049,0.077l-0.047,0.077l-0.047,0.078l-0.045,0.078l-0.045,0.079l-0.043,0.079l-0.043,0.079l-0.041,0.08l-0.04,0.08l-0.039,0.081l-0.039,0.081l-0.037,0.082l-0.036,0.081l-0.035,0.082l-0.034,0.083l-0.033,0.083l-0.032,0.083l-0.031,0.083l-0.03,0.084l-0.028,0.084l-0.028,0.084l-0.027,0.085l-0.026,0.084l-0.024,0.085l-0.024,0.086l-0.022,0.085l-0.022,0.086l-0.02,0.086l-0.019,0.086l-0.019,0.086l-0.017,0.087l-0.016,0.086l-0.016,0.087l-0.014,0.087l-0.013,0.087l-0.012,0.087l-0.011,0.087l-0.01,0.088l-0.009,0.087l-0.008,0.088l-0.006,0.087l-0.006,0.088l-0.005,0.088l-0.004,0.088l-0.002,0.088l-0.002,0.087l0,0.088l0,0.088l0.002,0.088l0.002,0.088l0.004,0.088l0.005,0.087l0.005,0.088l0.007,0.088l0.008,0.087l0.009,0.088l0.01,0.087l0.011,0.087l0.012,0.088l0.013,0.087l0.014,0.086l0.015,0.087l0.016,0.087l0.018,0.086l0.018,0.087l0.019,0.086l0.021,0.086l0.021,0.085l0.023,0.086l0.023,0.085l0.025,0.085l0.025,0.085l0.027,0.084l0.028,0.085l0.029,0.084l0.029,0.083l0.031,0.084l0.032,0.083l0.033,0.083l0.034,0.082l0.035,0.082l0.036,0.082l0.037,0.081l0.039,0.081l0.039,0.081l0.04,0.08l0.041,0.08l0.043,0.08l0.043,0.079l0.045,0.078l0.045,0.079l0.047,0.077l0.047,0.078l0.049,0.076l0.05,0.077l0.051,0.076l0.051,0.075l0.053,0.075l0.054,0.074l0.055,0.074l0.056,0.073l0.057,0.073l0.058,0.072l0.06,0.072l0.06,0.071l0.061,0.07l0.062,0.07l0.064,0.07l0.064,0.068l0.066,0.068l0.066,0.068l0.068,0.066l0.068,0.066l0.068,0.064l0.07,0.064l0.07,0.062l0.07,0.061l0.071,0.06l0.072,0.06l0.072,0.058l0.073,0.057l0.073,0.056l0.074,0.055l0.074,0.054l0.075,0.052l0.075,0.052l0.076,0.051l0.077,0.05l0.077,0.048l0.077,0.048l0.078,0.047l0.078,0.045l0.078,0.045l0.08,0.043l0.079,0.042l0.08,0.042l0.08,0.04l0.081,0.039l0.081,0.039l0.081,0.037l0.082,0.036l0.082,0.035l0.083,0.034l0.083,0.033l0.083,0.032l0.083,0.031l0.084,0.029l0.084,0.029l0.084,0.028l0.085,0.027l0.085,0.025l0.085,0.025l0.085,0.023l0.085,0.023l0.086,0.021l0.086,0.021l0.086,0.019l0.086,0.018l0.087,0.018l0.087,0.016l0.086,0.015l0.087,0.014l0.087,0.013l0.088,0.012l0.087,0.011l0.087,0.01l0.088,0.009l0.087,0.008l0.088,0.007l0.088,0.005l0.088,0.005l0.087,0.004l0.088,0.002l0.088,0.002l0.088,0l0.088,0l0.088,-0.002l0.087,-0.002l0.088,-0.004l0.088,-0.005l0.088,-0.006l0.087,-0.006l0.088,-0.008l0.087,-0.009l0.088,-0.01l0.087,-0.011l0.087,-0.012l0.087,-0.013l0.087,-0.015l0.087,-0.015l0.087,-0.016l0.086,-0.017l0.087,-0.019l0.086,-0.019l0.086,-0.02l0.085,-0.022l0.086,-0.022l0.085,-0.024l0.085,-0.025l0.085,-0.025l0.084,-0.027l0.085,-0.028l0.083,-0.028l0.084,-0.03l0.084,-0.031l0.083,-0.032l0.082,-0.033l0.083,-0.034l0.082,-0.035l0.082,-0.036l0.081,-0.037l0.081,-0.039l0.081,-0.039l0.08,-0.04l0.08,-0.041l0.079,-0.043l0.079,-0.043l0.079,-0.045l0.078,-0.045l0.078,-0.047l0.077,-0.047l0.077,-0.049l0.076,-0.05l0.076,-0.05l0.075,-0.052l0.075,-0.053l0.075,-0.054l0.073,-0.055l0.074,-0.056l0.072,-0.057l0.072,-0.058l0.072,-0.059l0.071,-0.06l0.07,-0.061l0.07,-0.063l0.069,-0.063l0.069,-0.064l0.068,-0.066l0.068,-0.067l34.852,-34.852l0.067,-0.068l0.065,-0.068l0.065,-0.069l0.063,-0.069l0.063,-0.07l0.061,-0.07l0.06,-0.072l0.06,-0.071l0.058,-0.073l0.057,-0.072l0.056,-0.074l0.055,-0.074l0.054,-0.074l0.053,-0.075l0.052,-0.075l0.051,-0.076l0.05,-0.077l0.048,-0.077l0.048,-0.077l0.047,-0.078l0.045,-0.078l0.045,-0.079l0.043,-0.079l0.043,-0.079l0.041,-0.08l0.041,-0.081l0.039,-0.08l0.038,-0.081l0.037,-0.082l0.037,-0.082l0.035,-0.082l0.034,-0.082l0.033,-0.083l0.032,-0.083l0.031,-0.084l0.03,-0.084l0.028,-0.084l0.028,-0.084l0.027,-0.084l0.026,-0.085l0.024,-0.085l0.024,-0.086l0.022,-0.085l0.022,-0.086l0.02,-0.086l0.02,-0.086l0.018,-0.086l0.017,-0.087l0.017,-0.086l0.015,-0.087l0.014,-0.087l0.013,-0.087l0.012,-0.087l0.011,-0.088l0.01,-0.087l0.009,-0.088l0.008,-0.087l0.007,-0.088l0.006,-0.087l0.004,-0.088l0.004,-0.088l0.003,-0.088l0.001,-0.088l0.001,-0.088l-0.001,-0.087l-0.001,-0.088l-0.003,-0.088l-0.003,-0.088l-0.005,-0.088l-0.006,-0.087l-0.007,-0.088l-0.008,-0.088l-0.008,-0.087l-0.01,-0.088l-0.011,-0.087l-0.012,-0.087l-0.013,-0.087l-0.015,-0.087l-0.015,-0.087l-0.016,-0.086l-0.017,-0.087l-0.019,-0.086l-0.019,-0.086l-0.02,-0.086l-0.022,-0.086l-0.022,-0.085l-0.024,-0.086l-0.025,-0.085l-0.025,-0.084l-0.027,-0.085l-0.028,-0.084l-0.028,-0.084l-0.03,-0.084l-0.031,-0.083l-0.032,-0.083l-0.033,-0.083l-0.034,-0.083l-0.035,-0.082l-0.036,-0.082l-0.037,-0.081l-0.039,-0.081l-0.039,-0.081l-0.04,-0.08l-0.042,-0.08l-0.042,-0.079l-0.043,-0.079l-0.045,-0.079l-0.045,-0.078l-0.047,-0.078l-0.048,-0.077l-0.048,-0.077l-0.05,-0.077l-0.051,-0.075l-0.052,-0.076l-0.053,-0.075l-0.054,-0.074l-0.054,-0.074l-0.057,-0.073l-0.057,-0.073l-0.058,-0.072l-0.059,-0.072l-0.06,-0.071l-0.061,-0.07l-0.063,-0.07l-0.063,-0.069l-0.065,-0.069l-0.065,-0.068l-0.067,-0.067l-0.067,-0.067l-0.068,-0.065l-0.069,-0.065l-0.069,-0.063l-0.07,-0.063l-0.07,-0.061l-0.071,-0.06l-0.072,-0.059l-0.072,-0.058l-0.073,-0.058l-0.073,-0.056l-0.074,-0.055l-0.074,-0.053l-0.075,-0.053l-0.076,-0.052l-0.076,-0.051l-0.076,-0.05l-0.077,-0.048l-0.077,-0.048l-0.078,-0.047l-0.078,-0.045l-0.079,-0.045l-0.079,-0.043l-0.079,-0.043l-0.08,-0.041l-0.08,-0.04l-0.081,-0.039l-0.081,-0.039l-0.081,-0.037l-0.082,-0.036l-0.082,-0.035l-0.083,-0.034l-0.083,-0.033l-0.083,-0.032l-0.083,-0.031l-0.084,-0.03l-0.084,-0.028l-0.084,-0.028l-0.085,-0.027l-0.084,-0.026l-0.085,-0.024l-0.086,-0.024l-0.085,-0.022l-0.086,-0.022l-0.086,-0.02l-0.086,-0.019l-0.086,-0.019l-0.087,-0.017l-0.086,-0.016l-0.087,-0.015l-0.087,-0.015l-0.087,-0.013l-0.087,-0.012l-0.087,-0.011l-0.088,-0.01l-0.087,-0.008l-0.088,-0.008l-0.088,-0.007l-0.087,-0.006l-0.088,-0.005l-0.088,-0.003l-0.088,-0.003l-0.088,-0.001l-0.087,-0.001l-0.088,0.001Z" style="fill:#db2929;"/></g><g><path d="M197.582,157.571c-2.954,2.958 -7.748,2.958 -10.708,-0.003l-34.856,-34.853c-2.955,-2.954 -2.958,-7.751 0,-10.708c2.957,-2.958 7.754,-2.954 10.708,0l34.853,34.853c2.961,2.96 2.961,7.754 0.003,10.711Z" style="fill:#fff;fill-rule:nonzero;"/><path d="M157.467,109.54l0.094,0.002l0.093,0.003l0.094,0.004l0.094,0.005l0.094,0.006l0.093,0.007l0.094,0.009l0.093,0.009l0.093,0.011l0.094,0.012l0.093,0.013l0.093,0.014l0.093,0.015l0.092,0.016l0.093,0.017l0.092,0.019l0.092,0.019l0.092,0.021l0.092,0.022l0.092,0.023l0.091,0.024l0.091,0.025l0.091,0.026l0.09,0.028l0.091,0.028l0.09,0.03l0.09,0.031l0.089,0.032l0.089,0.033l0.089,0.034l0.088,0.035l0.088,0.036l0.088,0.038l0.088,0.038l0.087,0.04l0.086,0.041l0.086,0.042l0.086,0.043l0.085,0.044l0.085,0.045l0.085,0.047l0.084,0.047l0.083,0.049l0.083,0.05l0.083,0.051l0.082,0.052l0.082,0.053l0.081,0.054l0.08,0.055l0.08,0.057l0.08,0.057l0.078,0.059l0.079,0.06l0.077,0.061l0.077,0.062l0.077,0.063l0.076,0.064l0.075,0.065l0.074,0.067l0.074,0.068l0.073,0.068l0.073,0.07l0.071,0.07l34.854,34.855l0.071,0.071l0.07,0.073l0.069,0.073l0.067,0.074l0.067,0.075l0.065,0.075l0.065,0.076l0.063,0.076l0.062,0.078l0.061,0.077l0.06,0.079l0.059,0.079l0.058,0.079l0.056,0.08l0.056,0.081l0.054,0.081l0.053,0.082l0.052,0.082l0.051,0.082l0.05,0.084l0.049,0.083l0.048,0.084l0.046,0.085l0.045,0.085l0.045,0.085l0.043,0.086l0.042,0.086l0.041,0.087l0.039,0.087l0.039,0.088l0.038,0.087l0.036,0.089l0.035,0.088l0.034,0.089l0.034,0.089l0.031,0.09l0.031,0.089l0.03,0.09l0.029,0.091l0.027,0.09l0.026,0.091l0.026,0.091l0.024,0.092l0.023,0.091l0.021,0.092l0.021,0.092l0.02,0.092l0.018,0.093l0.018,0.092l0.016,0.093l0.015,0.093l0.014,0.093l0.013,0.093l0.012,0.093l0.01,0.094l0.01,0.093l0.008,0.093l0.008,0.094l0.006,0.094l0.005,0.094l0.004,0.093l0.003,0.094l0.001,0.094l0.001,0.094l-0.001,0.094l-0.001,0.093l-0.003,0.094l-0.004,0.094l-0.005,0.094l-0.006,0.093l-0.007,0.094l-0.009,0.093l-0.009,0.094l-0.011,0.093l-0.012,0.093l-0.013,0.094l-0.013,0.093l-0.016,0.092l-0.016,0.093l-0.017,0.093l-0.019,0.092l-0.019,0.092l-0.021,0.092l-0.022,0.092l-0.023,0.092l-0.024,0.091l-0.025,0.091l-0.026,0.091l-0.027,0.09l-0.029,0.091l-0.03,0.09l-0.03,0.09l-0.032,0.089l-0.033,0.089l-0.034,0.089l-0.036,0.088l-0.036,0.088l-0.038,0.088l-0.038,0.088l-0.04,0.087l-0.041,0.086l-0.042,0.086l-0.043,0.086l-0.044,0.086l-0.045,0.085l-0.047,0.084l-0.047,0.084l-0.049,0.084l-0.05,0.083l-0.051,0.083l-0.052,0.082l-0.053,0.081l-0.054,0.081l-0.055,0.081l-0.057,0.08l-0.058,0.079l-0.058,0.079l-0.06,0.078l-0.061,0.078l-0.062,0.077l-0.063,0.077l-0.065,0.076l-0.065,0.075l-0.067,0.075l-0.067,0.073l-0.069,0.074l-0.07,0.072l-0.071,0.072l-0.072,0.071l-0.072,0.07l-0.074,0.069l-0.073,0.067l-0.075,0.067l-0.075,0.065l-0.076,0.065l-0.076,0.063l-0.077,0.062l-0.078,0.061l-0.078,0.06l-0.079,0.059l-0.079,0.057l-0.08,0.057l-0.081,0.055l-0.081,0.054l-0.081,0.054l-0.083,0.052l-0.082,0.051l-0.083,0.049l-0.084,0.049l-0.084,0.048l-0.084,0.046l-0.085,0.045l-0.085,0.045l-0.086,0.043l-0.086,0.042l-0.087,0.04l-0.087,0.04l-0.087,0.039l-0.088,0.037l-0.088,0.037l-0.089,0.035l-0.088,0.034l-0.089,0.033l-0.09,0.032l-0.089,0.031l-0.09,0.029l-0.091,0.029l-0.09,0.027l-0.091,0.026l-0.091,0.026l-0.092,0.024l-0.091,0.023l-0.092,0.021l-0.092,0.021l-0.092,0.02l-0.092,0.018l-0.093,0.017l-0.092,0.017l-0.093,0.015l-0.093,0.014l-0.093,0.013l-0.093,0.011l-0.094,0.011l-0.093,0.009l-0.094,0.009l-0.093,0.007l-0.094,0.006l-0.094,0.005l-0.093,0.004l-0.094,0.003l-0.094,0.002l-0.094,0l-0.094,0l-0.093,-0.002l-0.094,-0.003l-0.094,-0.004l-0.094,-0.005l-0.093,-0.006l-0.094,-0.007l-0.093,-0.009l-0.094,-0.009l-0.093,-0.011l-0.093,-0.012l-0.094,-0.013l-0.093,-0.014l-0.092,-0.015l-0.093,-0.016l-0.093,-0.017l-0.092,-0.019l-0.092,-0.02l-0.092,-0.02l-0.092,-0.022l-0.092,-0.023l-0.091,-0.024l-0.091,-0.025l-0.091,-0.027l-0.09,-0.027l-0.091,-0.029l-0.09,-0.029l-0.09,-0.031l-0.089,-0.032l-0.089,-0.033l-0.089,-0.034l-0.089,-0.036l-0.088,-0.036l-0.088,-0.038l-0.087,-0.038l-0.087,-0.04l-0.087,-0.041l-0.086,-0.042l-0.086,-0.043l-0.085,-0.044l-0.085,-0.046l-0.085,-0.046l-0.084,-0.048l-0.084,-0.049l-0.083,-0.049l-0.082,-0.051l-0.083,-0.052l-0.081,-0.054l-0.081,-0.054l-0.081,-0.055l-0.08,-0.057l-0.079,-0.058l-0.079,-0.058l-0.079,-0.06l-0.078,-0.061l-0.077,-0.063l-0.076,-0.063l-0.076,-0.064l-0.075,-0.066l-0.075,-0.066l-0.074,-0.068l-0.074,-0.069l-0.072,-0.07l-0.072,-0.07l-34.857,-34.854l-0.07,-0.072l-0.07,-0.072l-0.069,-0.073l-0.067,-0.074l-0.067,-0.075l-0.065,-0.075l-0.064,-0.076l-0.064,-0.076l-0.062,-0.077l-0.061,-0.078l-0.059,-0.078l-0.059,-0.079l-0.058,-0.08l-0.056,-0.079l-0.055,-0.081l-0.055,-0.081l-0.053,-0.082l-0.052,-0.082l-0.051,-0.082l-0.049,-0.083l-0.049,-0.084l-0.048,-0.084l-0.046,-0.084l-0.045,-0.085l-0.044,-0.086l-0.044,-0.085l-0.041,-0.087l-0.041,-0.086l-0.04,-0.087l-0.039,-0.088l-0.037,-0.087l-0.036,-0.088l-0.036,-0.089l-0.034,-0.089l-0.033,-0.089l-0.032,-0.089l-0.03,-0.09l-0.03,-0.09l-0.029,-0.09l-0.027,-0.091l-0.026,-0.091l-0.025,-0.091l-0.024,-0.091l-0.023,-0.092l-0.022,-0.091l-0.021,-0.092l-0.02,-0.093l-0.018,-0.092l-0.017,-0.092l-0.017,-0.093l-0.015,-0.093l-0.014,-0.093l-0.013,-0.093l-0.011,-0.093l-0.011,-0.094l-0.009,-0.093l-0.009,-0.094l-0.007,-0.093l-0.006,-0.094l-0.005,-0.094l-0.004,-0.093l-0.003,-0.094l-0.002,-0.094l0,-0.094l0,-0.094l0.002,-0.093l0.003,-0.094l0.003,-0.094l0.005,-0.094l0.007,-0.093l0.007,-0.094l0.008,-0.093l0.01,-0.094l0.01,-0.093l0.012,-0.094l0.013,-0.093l0.014,-0.093l0.015,-0.092l0.016,-0.093l0.017,-0.093l0.019,-0.092l0.019,-0.092l0.021,-0.092l0.022,-0.092l0.023,-0.092l0.024,-0.091l0.025,-0.091l0.026,-0.091l0.028,-0.091l0.028,-0.09l0.03,-0.09l0.031,-0.09l0.031,-0.089l0.033,-0.089l0.034,-0.089l0.036,-0.089l0.036,-0.088l0.038,-0.088l0.038,-0.087l0.04,-0.087l0.041,-0.087l0.042,-0.086l0.043,-0.086l0.044,-0.085l0.045,-0.085l0.047,-0.085l0.047,-0.084l0.049,-0.083l0.05,-0.083l0.05,-0.083l0.052,-0.082l0.054,-0.082l0.054,-0.081l0.055,-0.081l0.057,-0.08l0.057,-0.079l0.059,-0.079l0.06,-0.078l0.061,-0.078l0.062,-0.077l0.063,-0.077l0.064,-0.075l0.066,-0.076l0.066,-0.074l0.068,-0.074l0.069,-0.073l0.07,-0.073l0.071,-0.072l0.072,-0.071l0.072,-0.07l0.074,-0.069l0.073,-0.067l0.075,-0.067l0.075,-0.065l0.076,-0.065l0.077,-0.063l0.077,-0.062l0.078,-0.061l0.078,-0.06l0.079,-0.058l0.079,-0.058l0.08,-0.057l0.081,-0.055l0.081,-0.054l0.081,-0.053l0.083,-0.052l0.082,-0.051l0.083,-0.05l0.084,-0.049l0.084,-0.047l0.085,-0.047l0.085,-0.045l0.085,-0.044l0.086,-0.043l0.086,-0.042l0.087,-0.041l0.087,-0.04l0.087,-0.038l0.088,-0.038l0.088,-0.036l0.089,-0.035l0.088,-0.034l0.09,-0.033l0.089,-0.032l0.09,-0.031l0.09,-0.03l0.09,-0.028l0.091,-0.027l0.091,-0.027l0.091,-0.025l0.091,-0.024l0.092,-0.023l0.091,-0.022l0.092,-0.02l0.093,-0.02l0.092,-0.018l0.093,-0.018l0.092,-0.016l0.093,-0.015l0.093,-0.014l0.093,-0.013l0.093,-0.011l0.094,-0.011l0.093,-0.009l0.094,-0.009l0.093,-0.007l0.094,-0.006l0.094,-0.005l0.094,-0.004l0.093,-0.003l0.094,-0.002l0.094,0l0.094,0Zm-0.182,0.5l-0.088,0.002l-0.088,0.003l-0.087,0.003l-0.088,0.005l-0.088,0.006l-0.088,0.006l-0.087,0.008l-0.088,0.009l-0.087,0.01l-0.087,0.011l-0.088,0.012l-0.087,0.013l-0.087,0.014l-0.086,0.015l-0.087,0.017l-0.087,0.017l-0.086,0.018l-0.086,0.02l-0.086,0.02l-0.086,0.021l-0.085,0.023l-0.085,0.023l-0.085,0.025l-0.085,0.026l-0.085,0.026l-0.084,0.028l-0.084,0.029l-0.084,0.03l-0.083,0.031l-0.083,0.031l-0.083,0.033l-0.083,0.034l-0.082,0.035l-0.082,0.037l-0.081,0.037l-0.081,0.038l-0.081,0.039l-0.08,0.04l-0.08,0.042l-0.079,0.042l-0.08,0.044l-0.078,0.044l-0.078,0.046l-0.078,0.046l-0.077,0.048l-0.077,0.048l-0.077,0.05l-0.076,0.051l-0.075,0.052l-0.075,0.053l-0.074,0.054l-0.074,0.055l-0.073,0.056l-0.073,0.057l-0.072,0.058l-0.072,0.059l-0.071,0.06l-0.07,0.061l-0.07,0.063l-0.07,0.063l-0.068,0.065l-0.068,0.065l-0.068,0.067l-0.066,0.067l-0.066,0.068l-0.064,0.069l-0.064,0.069l-0.062,0.07l-0.061,0.07l-0.06,0.071l-0.06,0.072l-0.058,0.072l-0.057,0.073l-0.056,0.073l-0.055,0.074l-0.054,0.074l-0.053,0.075l-0.051,0.076l-0.051,0.076l-0.05,0.076l-0.049,0.077l-0.047,0.077l-0.047,0.078l-0.045,0.078l-0.045,0.079l-0.043,0.079l-0.043,0.079l-0.041,0.08l-0.04,0.081l-0.039,0.08l-0.039,0.081l-0.037,0.082l-0.036,0.081l-0.035,0.083l-0.034,0.082l-0.033,0.083l-0.032,0.083l-0.031,0.083l-0.029,0.084l-0.029,0.084l-0.028,0.084l-0.027,0.085l-0.025,0.085l-0.025,0.085l-0.023,0.085l-0.023,0.086l-0.021,0.085l-0.021,0.086l-0.019,0.086l-0.018,0.087l-0.018,0.086l-0.016,0.087l-0.015,0.087l-0.014,0.087l-0.013,0.087l-0.012,0.087l-0.011,0.087l-0.01,0.088l-0.009,0.087l-0.008,0.088l-0.007,0.087l-0.005,0.088l-0.005,0.088l-0.004,0.088l-0.002,0.087l-0.002,0.088l0,0.088l0,0.088l0.002,0.088l0.002,0.088l0.004,0.088l0.005,0.087l0.006,0.088l0.006,0.088l0.008,0.087l0.009,0.088l0.01,0.087l0.011,0.087l0.012,0.088l0.013,0.087l0.014,0.087l0.016,0.086l0.016,0.087l0.017,0.086l0.019,0.087l0.019,0.086l0.02,0.086l0.022,0.085l0.022,0.086l0.024,0.085l0.024,0.085l0.026,0.085l0.027,0.085l0.028,0.084l0.028,0.084l0.03,0.083l0.031,0.084l0.032,0.083l0.033,0.083l0.034,0.082l0.035,0.082l0.036,0.082l0.037,0.081l0.039,0.081l0.039,0.081l0.04,0.08l0.041,0.08l0.043,0.08l0.043,0.079l0.045,0.078l0.045,0.078l0.047,0.078l0.047,0.077l0.049,0.077l0.05,0.077l0.05,0.075l0.052,0.076l0.053,0.074l0.054,0.075l0.055,0.074l0.056,0.073l0.057,0.073l0.058,0.072l0.059,0.071l0.06,0.071l0.061,0.071l0.063,0.069l0.063,0.07l0.064,0.068l0.066,0.068l0.067,0.068l34.855,34.852l0.068,0.067l0.068,0.066l0.069,0.064l0.069,0.064l0.07,0.062l0.071,0.061l0.071,0.061l0.071,0.059l0.073,0.058l0.072,0.057l0.074,0.056l0.074,0.055l0.074,0.054l0.075,0.053l0.075,0.052l0.076,0.051l0.077,0.05l0.077,0.049l0.077,0.047l0.078,0.047l0.078,0.046l0.079,0.044l0.079,0.044l0.079,0.042l0.08,0.042l0.081,0.04l0.08,0.039l0.082,0.038l0.081,0.038l0.082,0.036l0.082,0.035l0.082,0.034l0.083,0.033l0.083,0.032l0.084,0.031l0.084,0.03l0.084,0.029l0.084,0.027l0.084,0.027l0.085,0.026l0.085,0.025l0.085,0.023l0.086,0.023l0.086,0.021l0.086,0.021l0.086,0.019l0.086,0.018l0.087,0.018l0.086,0.016l0.087,0.015l0.087,0.014l0.087,0.013l0.087,0.013l0.087,0.011l0.088,0.009l0.087,0.009l0.088,0.008l0.088,0.007l0.087,0.006l0.088,0.005l0.088,0.003l0.088,0.003l0.087,0.002l0.088,0l0.088,0l0.088,-0.002l0.088,-0.003l0.088,-0.003l0.087,-0.005l0.088,-0.006l0.088,-0.006l0.087,-0.008l0.088,-0.009l0.087,-0.01l0.087,-0.011l0.087,-0.012l0.088,-0.013l0.086,-0.014l0.087,-0.016l0.087,-0.016l0.086,-0.017l0.086,-0.018l0.087,-0.02l0.085,-0.02l0.086,-0.022l0.086,-0.022l0.085,-0.024l0.085,-0.024l0.084,-0.026l0.085,-0.027l0.084,-0.027l0.084,-0.029l0.084,-0.03l0.083,-0.031l0.083,-0.032l0.083,-0.033l0.082,-0.034l0.082,-0.035l0.082,-0.036l0.082,-0.037l0.081,-0.038l0.08,-0.04l0.08,-0.04l0.08,-0.041l0.08,-0.043l0.079,-0.043l0.078,-0.045l0.078,-0.045l0.078,-0.047l0.077,-0.047l0.077,-0.049l0.076,-0.05l0.076,-0.051l0.076,-0.051l0.074,-0.053l0.075,-0.054l0.073,-0.055l0.074,-0.056l0.072,-0.057l0.072,-0.058l0.072,-0.06l0.071,-0.06l0.07,-0.061l0.07,-0.062l0.069,-0.064l0.069,-0.064l0.068,-0.066l0.067,-0.066l0.067,-0.068l0.065,-0.068l0.065,-0.068l0.063,-0.07l0.063,-0.07l0.061,-0.07l0.06,-0.071l0.059,-0.072l0.058,-0.072l0.057,-0.073l0.057,-0.073l0.054,-0.074l0.054,-0.074l0.053,-0.075l0.052,-0.075l0.051,-0.076l0.05,-0.077l0.048,-0.076l0.048,-0.078l0.047,-0.078l0.045,-0.078l0.045,-0.078l0.043,-0.079l0.042,-0.08l0.042,-0.08l0.04,-0.08l0.039,-0.081l0.039,-0.081l0.037,-0.081l0.036,-0.082l0.035,-0.082l0.034,-0.083l0.033,-0.082l0.032,-0.083l0.031,-0.084l0.03,-0.084l0.028,-0.084l0.028,-0.084l0.027,-0.084l0.025,-0.085l0.025,-0.085l0.024,-0.085l0.022,-0.086l0.022,-0.086l0.02,-0.085l0.019,-0.087l0.019,-0.086l0.017,-0.086l0.016,-0.087l0.015,-0.087l0.015,-0.087l0.013,-0.087l0.012,-0.087l0.011,-0.087l0.01,-0.088l0.008,-0.087l0.008,-0.088l0.007,-0.087l0.006,-0.088l0.005,-0.088l0.003,-0.088l0.003,-0.087l0.001,-0.088l0.001,-0.088l-0.001,-0.088l-0.001,-0.088l-0.003,-0.088l-0.004,-0.088l-0.004,-0.087l-0.006,-0.088l-0.007,-0.088l-0.008,-0.087l-0.009,-0.088l-0.01,-0.087l-0.011,-0.087l-0.012,-0.088l-0.013,-0.087l-0.014,-0.087l-0.015,-0.086l-0.017,-0.087l-0.017,-0.087l-0.018,-0.086l-0.02,-0.086l-0.02,-0.086l-0.022,-0.086l-0.022,-0.085l-0.024,-0.086l-0.024,-0.085l-0.026,-0.084l-0.027,-0.085l-0.028,-0.084l-0.028,-0.084l-0.03,-0.084l-0.031,-0.083l-0.032,-0.084l-0.033,-0.082l-0.034,-0.083l-0.035,-0.082l-0.037,-0.082l-0.037,-0.081l-0.038,-0.081l-0.039,-0.081l-0.041,-0.08l-0.041,-0.08l-0.043,-0.08l-0.043,-0.079l-0.045,-0.079l-0.045,-0.078l-0.047,-0.078l-0.048,-0.077l-0.048,-0.077l-0.05,-0.076l-0.051,-0.076l-0.052,-0.076l-0.053,-0.075l-0.054,-0.074l-0.055,-0.074l-0.056,-0.073l-0.057,-0.073l-0.058,-0.072l-0.06,-0.072l-0.06,-0.071l-0.061,-0.071l-0.063,-0.07l-0.063,-0.069l-0.065,-0.069l-0.065,-0.068l-0.067,-0.068l-34.852,-34.852l-0.068,-0.067l-0.068,-0.065l-0.069,-0.065l-0.069,-0.063l-0.07,-0.062l-0.07,-0.062l-0.071,-0.06l-0.072,-0.059l-0.072,-0.058l-0.072,-0.057l-0.074,-0.056l-0.073,-0.055l-0.075,-0.054l-0.075,-0.053l-0.075,-0.051l-0.076,-0.051l-0.076,-0.05l-0.077,-0.048l-0.077,-0.048l-0.078,-0.047l-0.078,-0.045l-0.079,-0.045l-0.079,-0.043l-0.079,-0.042l-0.08,-0.042l-0.08,-0.04l-0.081,-0.039l-0.081,-0.038l-0.081,-0.038l-0.082,-0.036l-0.082,-0.035l-0.083,-0.034l-0.082,-0.033l-0.083,-0.032l-0.084,-0.031l-0.084,-0.029l-0.083,-0.029l-0.085,-0.028l-0.084,-0.027l-0.085,-0.025l-0.085,-0.025l-0.085,-0.023l-0.086,-0.023l-0.085,-0.021l-0.086,-0.021l-0.087,-0.019l-0.086,-0.019l-0.086,-0.017l-0.087,-0.016l-0.087,-0.015l-0.087,-0.014l-0.087,-0.014l-0.087,-0.012l-0.087,-0.011l-0.088,-0.01l-0.087,-0.008l-0.088,-0.008l-0.087,-0.007l-0.088,-0.006l-0.088,-0.005l-0.088,-0.003l-0.087,-0.003l-0.088,-0.002l-0.088,0l-0.088,0Z" style="fill:#db2929;"/></g></g></g></g></svg>