<?xml version="1.0" encoding="UTF-8" standalone="no"?><!DOCTYPE svg PUBLIC "-//W3C//DTD SVG 1.1//EN" "http://www.w3.org/Graphics/SVG/1.1/DTD/svg11.dtd"><svg width="100%" height="100%" viewBox="0 0 300 200" version="1.1" xmlns="http://www.w3.org/2000/svg" xmlns:xlink="http://www.w3.org/1999/xlink" xml:space="preserve" style="fill-rule:evenodd;clip-rule:evenodd;stroke-linejoin:round;stroke-miterlimit:1.41421;"><g id="Layer1"><rect x="-0.191" y="0.113" width="300.234" height="199.929" style="fill:#fabf40;"/><rect x="102.485" y="57.928" width="6.222" height="3.556" style="fill:#fff;"/><rect x="102.485" y="69.064" width="6.222" height="3.556" style="fill:#fff;"/><rect x="102.485" y="80.175" width="6.222" height="3.556" style="fill:#fff;"/><rect x="102.485" y="91.311" width="6.222" height="3.53" style="fill:#fff;"/><rect x="102.485" y="102.447" width="6.222" height="3.556" style="fill:#fff;"/><rect x="102.485" y="113.584" width="6.222" height="3.556" style="fill:#fff;"/><path d="M98.916,130.769l0,-80.681l5.501,0l0,76.32l96.271,0l0,4.361l-101.772,0Z" style="fill:#fff;fill-rule:nonzero;"/><rect x="117.679" y="70.829" width="13.622" height="48.829" style="fill:#fff;"/><rect x="117.679" y="85.418" width="13.622" height="24.22" style="fill:#2c9984;"/><rect x="139.422" y="83.731" width="13.622" height="35.927" style="fill:#fff;"/><rect x="139.422" y="94.893" width="13.622" height="13.836" style="fill:#324a5e;"/><rect x="161.165" y="62.237" width="13.622" height="57.395" style="fill:#fff;"/><rect x="161.165" y="74.853" width="13.622" height="30.969" style="fill:#ffd05b;"/><rect x="182.907" y="53.982" width="13.622" height="65.676" style="fill:#fff;"/><rect x="182.907" y="72.673" width="13.622" height="23.856" style="fill:#ff7058;"/><g><g opacity="0.8"><circle cx="175.178" cy="135.512" r="25" style="fill:#fff;stroke:#00c1ff;stroke-width:0.5px;"/><rect x="174.237" y="113.872" width="1.747" height="3.629" style="fill:#e6e9ee;"/><rect x="174.237" y="153.523" width="1.747" height="3.629" style="fill:#e6e9ee;"/><rect x="193.188" y="134.706" width="3.629" height="1.747" style="fill:#e6e9ee;"/><rect x="153.403" y="134.706" width="3.629" height="1.747" style="fill:#e6e9ee;"/><path d="M191.124,120.855l-1.235,-1.236l-2.566,2.566l1.235,1.236l2.566,-2.566Z" style="fill:#e6e9ee;"/><path d="M162.999,148.916l-1.236,-1.235l-2.566,2.566l1.235,1.235l2.567,-2.566Z" style="fill:#e6e9ee;"/><path d="M189.741,151.458l1.236,-1.236l-2.567,-2.566l-1.235,1.236l2.566,2.566Z" style="fill:#e6e9ee;"/><path d="M161.72,123.393l1.236,-1.236l-2.566,-2.566l-1.236,1.236l2.566,2.566Z" style="fill:#e6e9ee;"/><path d="M175.178,136.352c-0.471,0 -0.841,-0.369 -0.841,-0.84l0,-13.037c0,-0.471 0.37,-0.84 0.841,-0.84c0.47,0 0.84,0.369 0.84,0.84l0,13.037c0,0.471 -0.37,0.84 -0.84,0.84Z" style="fill:#324a5e;fill-rule:nonzero;"/><path d="M181.629,142.804c-0.201,0 -0.437,-0.067 -0.605,-0.235l-6.451,-6.452c-0.336,-0.336 -0.336,-0.874 0,-1.176c0.336,-0.336 0.873,-0.336 1.176,0l6.451,6.452c0.336,0.336 0.336,0.873 0,1.176c-0.134,0.168 -0.369,0.235 -0.571,0.235Z" style="fill:#324a5e;fill-rule:nonzero;"/><circle cx="175.178" cy="135.512" r="2.823" style="fill:#ff7058;"/></g></g></g></svg>