<?xml version="1.0" encoding="UTF-8" standalone="no"?><!DOCTYPE svg PUBLIC "-//W3C//DTD SVG 1.1//EN" "http://www.w3.org/Graphics/SVG/1.1/DTD/svg11.dtd"><svg width="100%" height="100%" viewBox="0 0 300 200" version="1.1" xmlns="http://www.w3.org/2000/svg" xmlns:xlink="http://www.w3.org/1999/xlink" xml:space="preserve" style="fill-rule:evenodd;clip-rule:evenodd;stroke-linejoin:round;stroke-miterlimit:1.41421;"><g id="Layer1"><rect x="-0.191" y="0.113" width="300.234" height="200.07" style="fill:#50ae54;"/><g><path d="M131.366,57.257l0,17.333l-17.334,0l0,75.247l78.404,0l0,-92.58l-61.07,0Z" style="fill:#acb3ba;fill-rule:nonzero;"/><path d="M124.897,142.687l0,-17.333l-17.334,0l0,-75.247l78.404,0l0,92.58l-61.07,0Z" style="fill:#fff;fill-rule:nonzero;"/><path d="M124.897,142.687l-17.334,-17.333l17.334,0l0,17.333Z" style="fill:#ced5e0;fill-rule:nonzero;"/><rect x="119.078" y="86.693" width="55.344" height="3.312" style="fill:#ced5e0;"/><rect x="119.078" y="95.453" width="55.344" height="3.312" style="fill:#ced5e0;"/><rect x="119.078" y="104.244" width="55.344" height="3.312" style="fill:#ced5e0;"/><rect x="119.078" y="113.034" width="32.996" height="3.312" style="fill:#ced5e0;"/><path d="M126.413,65.955c0,1.547 -0.619,2.538 -1.826,3.002l2.445,3.436l-2.631,0l-2.135,-3.065l-1.486,0l0,3.065l-2.136,0l0,-9.627l3.653,0c1.485,0 2.569,0.248 3.188,0.743c0.588,0.495 0.928,1.331 0.928,2.446Zm-2.6,1.145c0.279,-0.248 0.403,-0.619 0.403,-1.145c0,-0.527 -0.124,-0.867 -0.403,-1.053c-0.278,-0.186 -0.743,-0.278 -1.454,-0.278l-1.61,0l0,2.847l1.579,0c0.712,-0.031 1.238,-0.155 1.485,-0.371Z" style="fill:#54c0eb;fill-rule:nonzero;"/><path d="M135.545,62.766l0,1.919l-4.798,0l0,1.981l4.302,0l0,1.827l-4.302,0l0,1.981l4.952,0l0,1.888l-7.088,0l0,-9.627l6.934,0l0,0.031Z" style="fill:#54c0eb;fill-rule:nonzero;"/><path d="M144.242,63.602c0.681,0.588 1.022,1.455 1.022,2.631c0,1.176 -0.341,2.043 -1.053,2.6c-0.68,0.557 -1.764,0.836 -3.188,0.836l-1.269,0l0,2.693l-2.136,0l0,-9.627l3.405,0c1.455,0.031 2.538,0.31 3.219,0.867Zm-1.578,3.807c0.247,-0.278 0.371,-0.712 0.371,-1.269c0,-0.557 -0.155,-0.959 -0.495,-1.176c-0.34,-0.248 -0.867,-0.34 -1.548,-0.34l-1.238,0l0,3.25l1.455,0c0.712,-0.031 1.207,-0.186 1.455,-0.465Z" style="fill:#54c0eb;fill-rule:nonzero;"/><path d="M155.014,71.062c-0.959,0.959 -2.167,1.424 -3.59,1.424c-1.424,0 -2.631,-0.465 -3.591,-1.424c-0.96,-0.96 -1.455,-2.136 -1.455,-3.56c0,-1.424 0.495,-2.6 1.455,-3.559c0.96,-0.96 2.167,-1.424 3.591,-1.424c1.423,0 2.631,0.464 3.59,1.424c0.96,0.959 1.455,2.135 1.455,3.559c0,1.424 -0.464,2.6 -1.455,3.56Zm-0.712,-3.56c0,-0.866 -0.278,-1.578 -0.836,-2.197c-0.557,-0.62 -1.238,-0.898 -2.042,-0.898c-0.805,0 -1.486,0.309 -2.043,0.898c-0.558,0.619 -0.836,1.331 -0.836,2.197c0,0.867 0.278,1.579 0.836,2.198c0.557,0.588 1.238,0.898 2.043,0.898c0.804,0 1.485,-0.31 2.042,-0.898c0.558,-0.588 0.836,-1.331 0.836,-2.198Z" style="fill:#54c0eb;fill-rule:nonzero;"/><path d="M166.095,65.955c0,1.547 -0.619,2.538 -1.826,3.002l2.445,3.436l-2.631,0l-2.135,-3.065l-1.486,0l0,3.065l-2.136,0l0,-9.627l3.653,0c1.485,0 2.569,0.248 3.188,0.743c0.619,0.495 0.928,1.331 0.928,2.446Zm-2.569,1.145c0.279,-0.248 0.403,-0.619 0.403,-1.145c0,-0.527 -0.124,-0.867 -0.403,-1.053c-0.278,-0.186 -0.743,-0.278 -1.455,-0.278l-1.609,0l0,2.847l1.578,0c0.712,-0.031 1.208,-0.155 1.486,-0.371Z" style="fill:#54c0eb;fill-rule:nonzero;"/><path d="M172.193,64.624l0,7.769l-2.136,0l0,-7.769l-2.724,0l0,-1.858l7.584,0l0,1.858l-2.724,0Z" style="fill:#54c0eb;fill-rule:nonzero;"/></g><g><g opacity="0.8"><path d="M166.083,143.649c-2.088,-2.089 -4.568,-2.995 -5.539,-2.026l-10.699,10.701c2.125,2.893 4.692,5.432 7.622,7.508l10.64,-10.641c0.973,-0.974 0.072,-3.457 -2.024,-5.542Z" style="fill:#a07238;fill-rule:nonzero;"/><circle cx="177.493" cy="132.246" r="20.447" style="fill:#60c3b6;"/><path d="M159.522,142.549l-2.911,2.908c0,0 2.655,5.865 8.365,6.764l2.115,-2.109l0,-2.729l-7.569,-4.834Z" style="fill:#a07238;fill-rule:nonzero;"/><path d="M161.64,116.397c-8.751,8.753 -8.751,22.947 0,31.695c8.761,8.758 22.944,8.758 31.695,0.003c8.753,-8.751 8.753,-22.945 0,-31.698c-8.751,-8.753 -22.934,-8.753 -31.695,0Zm27.702,27.704c-6.541,6.542 -17.155,6.546 -23.705,0c-6.547,-6.548 -6.547,-17.163 0,-23.709c6.55,-6.547 17.164,-6.547 23.705,-0.002c6.55,6.548 6.548,17.166 0,23.711Z" style="fill:#ebedef;fill-rule:nonzero;"/><path d="M166.393,130.054c-0.413,0.915 -0.015,2.004 0.899,2.423c0.913,0.428 2.005,0.02 2.426,-0.888c0,0 0.015,-0.044 0.103,-0.206c0.635,-1.159 3.692,-6.089 10.154,-6.687c0.782,-0.077 1.4,-0.633 1.59,-1.354c0.05,-0.201 0.076,-0.419 0.05,-0.642c-0.096,-1.004 -0.989,-1.742 -1.991,-1.642c-9.524,0.976 -13.135,8.808 -13.231,8.996Z" style="fill:#f4f5f5;fill-opacity:0.694118;fill-rule:nonzero;"/></g></g></g></svg>