<?xml version="1.0" encoding="UTF-8" standalone="no"?><!DOCTYPE svg PUBLIC "-//W3C//DTD SVG 1.1//EN" "http://www.w3.org/Graphics/SVG/1.1/DTD/svg11.dtd"><svg width="100%" height="100%" viewBox="0 0 300 200" version="1.1" xmlns="http://www.w3.org/2000/svg" xmlns:xlink="http://www.w3.org/1999/xlink" xml:space="preserve" style="fill-rule:evenodd;clip-rule:evenodd;stroke-linejoin:round;stroke-miterlimit:1.41421;"><g id="Layer1"><rect x="-0.191" y="0.113" width="300.234" height="200.218" style="fill:#1fbcd3;"/><g><path d="M131.366,57.257l0,17.333l-17.334,0l0,75.247l78.404,0l0,-92.58l-61.07,0Z" style="fill:#acb3ba;fill-rule:nonzero;"/><path d="M124.897,142.687l0,-17.333l-17.334,0l0,-75.247l78.404,0l0,92.58l-61.07,0Z" style="fill:#fff;fill-rule:nonzero;"/><path d="M124.897,142.687l-17.334,-17.333l17.334,0l0,17.333Z" style="fill:#ced5e0;fill-rule:nonzero;"/><rect x="119.078" y="86.693" width="55.344" height="3.312" style="fill:#ced5e0;"/><rect x="119.078" y="95.453" width="55.344" height="3.312" style="fill:#ced5e0;"/><rect x="119.078" y="104.244" width="55.344" height="3.312" style="fill:#ced5e0;"/><rect x="119.078" y="113.034" width="32.996" height="3.312" style="fill:#ced5e0;"/><path d="M126.413,65.955c0,1.547 -0.619,2.538 -1.826,3.002l2.445,3.436l-2.631,0l-2.135,-3.065l-1.486,0l0,3.065l-2.136,0l0,-9.627l3.653,0c1.485,0 2.569,0.248 3.188,0.743c0.588,0.495 0.928,1.331 0.928,2.446Zm-2.6,1.145c0.279,-0.248 0.403,-0.619 0.403,-1.145c0,-0.527 -0.124,-0.867 -0.403,-1.053c-0.278,-0.186 -0.743,-0.278 -1.454,-0.278l-1.61,0l0,2.847l1.579,0c0.712,-0.031 1.238,-0.155 1.485,-0.371Z" style="fill:#54c0eb;fill-rule:nonzero;"/><path d="M135.545,62.766l0,1.919l-4.798,0l0,1.981l4.302,0l0,1.827l-4.302,0l0,1.981l4.952,0l0,1.888l-7.088,0l0,-9.627l6.934,0l0,0.031Z" style="fill:#54c0eb;fill-rule:nonzero;"/><path d="M144.242,63.602c0.681,0.588 1.022,1.455 1.022,2.631c0,1.176 -0.341,2.043 -1.053,2.6c-0.68,0.557 -1.764,0.836 -3.188,0.836l-1.269,0l0,2.693l-2.136,0l0,-9.627l3.405,0c1.455,0.031 2.538,0.31 3.219,0.867Zm-1.578,3.807c0.247,-0.278 0.371,-0.712 0.371,-1.269c0,-0.557 -0.155,-0.959 -0.495,-1.176c-0.34,-0.248 -0.867,-0.34 -1.548,-0.34l-1.238,0l0,3.25l1.455,0c0.712,-0.031 1.207,-0.186 1.455,-0.465Z" style="fill:#54c0eb;fill-rule:nonzero;"/><path d="M155.014,71.062c-0.959,0.959 -2.167,1.424 -3.59,1.424c-1.424,0 -2.631,-0.465 -3.591,-1.424c-0.96,-0.96 -1.455,-2.136 -1.455,-3.56c0,-1.424 0.495,-2.6 1.455,-3.559c0.96,-0.96 2.167,-1.424 3.591,-1.424c1.423,0 2.631,0.464 3.59,1.424c0.96,0.959 1.455,2.135 1.455,3.559c0,1.424 -0.464,2.6 -1.455,3.56Zm-0.712,-3.56c0,-0.866 -0.278,-1.578 -0.836,-2.197c-0.557,-0.62 -1.238,-0.898 -2.042,-0.898c-0.805,0 -1.486,0.309 -2.043,0.898c-0.558,0.619 -0.836,1.331 -0.836,2.197c0,0.867 0.278,1.579 0.836,2.198c0.557,0.588 1.238,0.898 2.043,0.898c0.804,0 1.485,-0.31 2.042,-0.898c0.558,-0.588 0.836,-1.331 0.836,-2.198Z" style="fill:#54c0eb;fill-rule:nonzero;"/><path d="M166.095,65.955c0,1.547 -0.619,2.538 -1.826,3.002l2.445,3.436l-2.631,0l-2.135,-3.065l-1.486,0l0,3.065l-2.136,0l0,-9.627l3.653,0c1.485,0 2.569,0.248 3.188,0.743c0.619,0.495 0.928,1.331 0.928,2.446Zm-2.569,1.145c0.279,-0.248 0.403,-0.619 0.403,-1.145c0,-0.527 -0.124,-0.867 -0.403,-1.053c-0.278,-0.186 -0.743,-0.278 -1.455,-0.278l-1.609,0l0,2.847l1.578,0c0.712,-0.031 1.208,-0.155 1.486,-0.371Z" style="fill:#54c0eb;fill-rule:nonzero;"/><path d="M172.193,64.624l0,7.769l-2.136,0l0,-7.769l-2.724,0l0,-1.858l7.584,0l0,1.858l-2.724,0Z" style="fill:#54c0eb;fill-rule:nonzero;"/></g><g><g opacity="0.8"><g><path d="M199.956,130.534c0,-11.044 -8.774,-21.089 -19.598,-21.089c-10.825,0 -19.599,10.042 -19.599,21.089l5.073,0c0,-8.189 6.499,-15.91 14.523,-15.91c8.022,0 14.524,7.721 14.524,15.91l5.077,0Z" style="fill:#f4e028;fill-rule:nonzero;"/><path d="M199.97,155.256c0,2.312 -1.917,4.189 -4.284,4.189l-30.689,0c-2.358,0 -4.279,-1.877 -4.279,-4.189l0,-24.795c0,-2.315 39.254,-2.315 39.254,0l0,24.795l-0.002,0Z" style="fill:#f4e028;fill-rule:nonzero;"/><path d="M184.88,140.505c0,-2.416 -1.962,-4.373 -4.373,-4.373c-2.415,0 -4.376,1.957 -4.376,4.373c0,1.845 1.142,3.416 2.752,4.06l0,4.036c0,0.855 0.695,1.55 1.55,1.55c0.856,0 1.551,-0.695 1.551,-1.55l0,-3.98c1.684,-0.608 2.896,-2.218 2.896,-4.116Z" style="fill:#dac425;fill-rule:nonzero;"/><path d="M175.966,140.505c0,-2.416 1.962,-4.373 4.375,-4.373c0,0 -3.048,2.031 -3.048,4.449c0,2.462 2.301,3.922 2.301,3.922l0,4.144c0,0.855 0.819,1.504 0.819,1.504c-0.854,0 -1.549,-0.695 -1.549,-1.55l0,-3.98c-1.688,-0.608 -2.898,-2.218 -2.898,-4.116Z" style="fill:#d0b82b;fill-rule:nonzero;"/></g><path d="M192.826,159.445l-5.466,0l0,-30.62l5.466,0.272l0,30.348Z" style="fill:#f8e349;fill-rule:nonzero;"/><path d="M187.36,110.911l0,5.804c2.255,1.431 4.144,3.504 5.466,5.924l0,-8.178c-1.619,-1.48 -3.466,-2.69 -5.466,-3.55Z" style="fill:#f8e349;fill-rule:nonzero;"/></g></g></g></svg>