<?xml version="1.0" encoding="UTF-8" standalone="no"?><!DOCTYPE svg PUBLIC "-//W3C//DTD SVG 1.1//EN" "http://www.w3.org/Graphics/SVG/1.1/DTD/svg11.dtd"><svg width="100%" height="100%" viewBox="0 0 300 200" version="1.1" xmlns="http://www.w3.org/2000/svg" xmlns:xlink="http://www.w3.org/1999/xlink" xml:space="preserve" style="fill-rule:evenodd;clip-rule:evenodd;stroke-linejoin:round;stroke-miterlimit:1.41421;"><g id="Layer1"><rect x="-0.191" y="0.113" width="300.234" height="200.218" style="fill:#8c2da8;"/><g><path d="M131.366,57.257l0,17.333l-17.334,0l0,75.247l78.404,0l0,-92.58l-61.07,0Z" style="fill:#acb3ba;fill-rule:nonzero;"/><path d="M124.897,142.687l0,-17.333l-17.334,0l0,-75.247l78.404,0l0,92.58l-61.07,0Z" style="fill:#fff;fill-rule:nonzero;"/><path d="M124.897,142.687l-17.334,-17.333l17.334,0l0,17.333Z" style="fill:#ced5e0;fill-rule:nonzero;"/><rect x="119.078" y="86.693" width="55.344" height="3.312" style="fill:#ced5e0;"/><rect x="119.078" y="95.453" width="55.344" height="3.312" style="fill:#ced5e0;"/><rect x="119.078" y="104.244" width="55.344" height="3.312" style="fill:#ced5e0;"/><rect x="119.078" y="113.034" width="32.996" height="3.312" style="fill:#ced5e0;"/><path d="M126.413,65.955c0,1.547 -0.619,2.538 -1.826,3.002l2.445,3.436l-2.631,0l-2.135,-3.065l-1.486,0l0,3.065l-2.136,0l0,-9.627l3.653,0c1.485,0 2.569,0.248 3.188,0.743c0.588,0.495 0.928,1.331 0.928,2.446Zm-2.6,1.145c0.279,-0.248 0.403,-0.619 0.403,-1.145c0,-0.527 -0.124,-0.867 -0.403,-1.053c-0.278,-0.186 -0.743,-0.278 -1.454,-0.278l-1.61,0l0,2.847l1.579,0c0.712,-0.031 1.238,-0.155 1.485,-0.371Z" style="fill:#54c0eb;fill-rule:nonzero;"/><path d="M135.545,62.766l0,1.919l-4.798,0l0,1.981l4.302,0l0,1.827l-4.302,0l0,1.981l4.952,0l0,1.888l-7.088,0l0,-9.627l6.934,0l0,0.031Z" style="fill:#54c0eb;fill-rule:nonzero;"/><path d="M144.242,63.602c0.681,0.588 1.022,1.455 1.022,2.631c0,1.176 -0.341,2.043 -1.053,2.6c-0.68,0.557 -1.764,0.836 -3.188,0.836l-1.269,0l0,2.693l-2.136,0l0,-9.627l3.405,0c1.455,0.031 2.538,0.31 3.219,0.867Zm-1.578,3.807c0.247,-0.278 0.371,-0.712 0.371,-1.269c0,-0.557 -0.155,-0.959 -0.495,-1.176c-0.34,-0.248 -0.867,-0.34 -1.548,-0.34l-1.238,0l0,3.25l1.455,0c0.712,-0.031 1.207,-0.186 1.455,-0.465Z" style="fill:#54c0eb;fill-rule:nonzero;"/><path d="M155.014,71.062c-0.959,0.959 -2.167,1.424 -3.59,1.424c-1.424,0 -2.631,-0.465 -3.591,-1.424c-0.96,-0.96 -1.455,-2.136 -1.455,-3.56c0,-1.424 0.495,-2.6 1.455,-3.559c0.96,-0.96 2.167,-1.424 3.591,-1.424c1.423,0 2.631,0.464 3.59,1.424c0.96,0.959 1.455,2.135 1.455,3.559c0,1.424 -0.464,2.6 -1.455,3.56Zm-0.712,-3.56c0,-0.866 -0.278,-1.578 -0.836,-2.197c-0.557,-0.62 -1.238,-0.898 -2.042,-0.898c-0.805,0 -1.486,0.309 -2.043,0.898c-0.558,0.619 -0.836,1.331 -0.836,2.197c0,0.867 0.278,1.579 0.836,2.198c0.557,0.588 1.238,0.898 2.043,0.898c0.804,0 1.485,-0.31 2.042,-0.898c0.558,-0.588 0.836,-1.331 0.836,-2.198Z" style="fill:#54c0eb;fill-rule:nonzero;"/><path d="M166.095,65.955c0,1.547 -0.619,2.538 -1.826,3.002l2.445,3.436l-2.631,0l-2.135,-3.065l-1.486,0l0,3.065l-2.136,0l0,-9.627l3.653,0c1.485,0 2.569,0.248 3.188,0.743c0.619,0.495 0.928,1.331 0.928,2.446Zm-2.569,1.145c0.279,-0.248 0.403,-0.619 0.403,-1.145c0,-0.527 -0.124,-0.867 -0.403,-1.053c-0.278,-0.186 -0.743,-0.278 -1.455,-0.278l-1.609,0l0,2.847l1.578,0c0.712,-0.031 1.208,-0.155 1.486,-0.371Z" style="fill:#54c0eb;fill-rule:nonzero;"/><path d="M172.193,64.624l0,7.769l-2.136,0l0,-7.769l-2.724,0l0,-1.858l7.584,0l0,1.858l-2.724,0Z" style="fill:#54c0eb;fill-rule:nonzero;"/></g><g><g opacity="0.8"><g><path d="M168.467,122.115l1.889,-2.168l-0.611,-2.816l2.834,0.998c3.765,-2.577 8.491,-3.553 12.803,-1.951c7.465,2.768 10.844,12.194 8.019,19.809l4.714,1.748c3.814,-10.271 -0.883,-22.637 -10.944,-26.372c-8.673,-3.218 -18.492,1.031 -23.483,8.838c0,0 -0.483,1.852 1.465,2.715c1.951,0.86 3.314,-0.801 3.314,-0.801Z" style="fill:#f4e028;fill-rule:nonzero;"/><path d="M200.053,156.122c0,2.294 -1.901,4.156 -4.249,4.156l-30.441,0c-2.339,0 -4.244,-1.862 -4.244,-4.156l0,-24.594c0,-2.296 38.936,-2.296 38.936,0l0,24.594l-0.002,0Z" style="fill:#f4e028;fill-rule:nonzero;"/><path d="M185.086,141.491c0,-2.396 -1.947,-4.338 -4.338,-4.338c-2.396,0 -4.34,1.942 -4.34,4.338c0,1.83 1.132,3.388 2.729,4.027l0,4.003c0,0.849 0.689,1.538 1.538,1.538c0.849,0 1.538,-0.689 1.538,-1.538l0,-3.948c1.67,-0.6 2.873,-2.2 2.873,-4.082Z" style="fill:#dac425;fill-rule:nonzero;"/><path d="M176.243,141.491c0,-2.396 1.947,-4.338 4.341,-4.338c0,0 -3.024,2.015 -3.024,4.413c0,2.442 2.282,3.891 2.282,3.891l0,4.109c0,0.849 0.812,1.493 0.812,1.493c-0.846,0 -1.535,-0.689 -1.535,-1.538l0,-3.948c-1.673,-0.6 -2.876,-2.2 -2.876,-4.082Z" style="fill:#d0b82b;fill-rule:nonzero;"/></g><path d="M192.97,160.28l-5.422,0l0,-30.374l5.422,0.271l0,30.103Z" style="fill:#f8e349;fill-rule:nonzero;"/><path d="M187.548,111.488l0,5.758c2.236,1.419 4.11,3.858 5.422,6.259l0,-8.617c-1.609,-1.465 -3.439,-2.546 -5.422,-3.4Z" style="fill:#f8e349;fill-rule:nonzero;"/></g></g></g></svg>