<?xml version="1.0" encoding="UTF-8" standalone="no"?><!DOCTYPE svg PUBLIC "-//W3C//DTD SVG 1.1//EN" "http://www.w3.org/Graphics/SVG/1.1/DTD/svg11.dtd"><svg width="100%" height="100%" viewBox="0 0 300 200" version="1.1" xmlns="http://www.w3.org/2000/svg" xmlns:xlink="http://www.w3.org/1999/xlink" xml:space="preserve" style="fill-rule:evenodd;clip-rule:evenodd;stroke-linejoin:round;stroke-miterlimit:1.41421;"><g id="Layer1"><rect x="-0.191" y="0.113" width="300.234" height="200.297" style="fill:#afb339;"/><g><path d="M131.669,57.425l0,17.493l-17.493,0l0,75.94l79.126,0l0,-93.433l-61.633,0Z" style="fill:#acb3ba;fill-rule:nonzero;"/><path d="M125.141,143.642l0,-17.493l-17.493,0l0,-75.94l79.125,0l0,93.433l-61.632,0Z" style="fill:#fff;fill-rule:nonzero;"/><path d="M125.141,143.642l-17.493,-17.493l17.493,0l0,17.493Z" style="fill:#ced5e0;fill-rule:nonzero;"/><rect x="119.268" y="90.361" width="55.853" height="3.342" style="fill:#ced5e0;"/><rect x="119.268" y="99.202" width="55.853" height="3.342" style="fill:#ced5e0;"/><rect x="119.268" y="108.073" width="55.853" height="3.342" style="fill:#ced5e0;"/><rect x="119.268" y="116.945" width="33.3" height="3.342" style="fill:#ced5e0;"/><g><path d="M127.317,78.473c0,1.562 -0.625,2.561 -1.843,3.03l2.468,3.467l-2.655,0l-2.156,-3.092l-1.499,0l0,3.092l-2.156,0l0,-9.715l3.687,0c1.499,0 2.592,0.25 3.217,0.75c0.594,0.5 0.937,1.343 0.937,2.468Zm-2.624,1.155c0.281,-0.249 0.406,-0.624 0.406,-1.155c0,-0.531 -0.125,-0.875 -0.406,-1.062c-0.281,-0.188 -0.749,-0.282 -1.468,-0.282l-1.624,0l0,2.874l1.593,0c0.718,-0.031 1.249,-0.156 1.499,-0.375Z" style="fill:#e654eb;fill-rule:nonzero;"/><path d="M136.532,75.255l0,1.937l-4.841,0l0,1.999l4.342,0l0,1.843l-4.342,0l0,1.999l4.998,0l0,1.906l-7.154,0l0,-9.715l6.997,0l0,0.031Z" style="fill:#e654eb;fill-rule:nonzero;"/><path d="M145.31,76.099c0.687,0.593 1.031,1.468 1.031,2.655c0,1.187 -0.344,2.062 -1.062,2.624c-0.687,0.562 -1.781,0.843 -3.218,0.843l-1.28,0l0,2.718l-2.156,0l0,-9.715l3.436,0c1.469,0.031 2.562,0.312 3.249,0.875Zm-1.593,3.842c0.25,-0.281 0.375,-0.719 0.375,-1.281c0,-0.562 -0.156,-0.968 -0.5,-1.187c-0.343,-0.25 -0.875,-0.344 -1.562,-0.344l-1.249,0l0,3.28l1.468,0c0.718,-0.031 1.218,-0.187 1.468,-0.468Z" style="fill:#e654eb;fill-rule:nonzero;"/><path d="M156.181,83.627c-0.968,0.968 -2.187,1.437 -3.624,1.437c-1.437,0 -2.655,-0.469 -3.623,-1.437c-0.969,-0.968 -1.468,-2.155 -1.468,-3.592c0,-1.437 0.499,-2.624 1.468,-3.593c0.968,-0.968 2.186,-1.437 3.623,-1.437c1.437,0 2.656,0.469 3.624,1.437c0.968,0.969 1.468,2.156 1.468,3.593c0,1.437 -0.468,2.624 -1.468,3.592Zm-0.718,-3.592c0,-0.875 -0.282,-1.594 -0.844,-2.218c-0.562,-0.625 -1.249,-0.906 -2.062,-0.906c-0.812,0 -1.499,0.312 -2.061,0.906c-0.563,0.624 -0.844,1.343 -0.844,2.218c0,0.874 0.281,1.593 0.844,2.217c0.562,0.594 1.249,0.906 2.061,0.906c0.813,0 1.5,-0.312 2.062,-0.906c0.562,-0.593 0.844,-1.343 0.844,-2.217Z" style="fill:#e654eb;fill-rule:nonzero;"/><path d="M167.364,78.473c0,1.562 -0.625,2.561 -1.843,3.03l2.468,3.467l-2.655,0l-2.156,-3.092l-1.499,0l0,3.092l-2.156,0l0,-9.715l3.687,0c1.499,0 2.592,0.25 3.217,0.75c0.625,0.5 0.937,1.343 0.937,2.468Zm-2.593,1.155c0.282,-0.249 0.407,-0.624 0.407,-1.155c0,-0.531 -0.125,-0.875 -0.407,-1.062c-0.281,-0.188 -0.749,-0.282 -1.468,-0.282l-1.624,0l0,2.874l1.593,0c0.719,-0.031 1.218,-0.156 1.499,-0.375Z" style="fill:#e654eb;fill-rule:nonzero;"/><path d="M173.518,77.129l0,7.841l-2.155,0l0,-7.841l-2.749,0l0,-1.874l7.653,0l0,1.874l-2.749,0Z" style="fill:#e654eb;fill-rule:nonzero;"/></g><text x="125.132px" y="69.394px" style="font-family:'Arial-BoldMT', 'Arial', sans-serif;font-weight:700;font-size:12.72px;fill:#e654eb;">D<tspan x="134.46px 143.074px 150.005px 159.332px " y="69.394px 69.394px 69.394px 69.394px ">ETAI</tspan>L</text></g></g></svg>