<?xml version="1.0" encoding="UTF-8" standalone="no"?><!DOCTYPE svg PUBLIC "-//W3C//DTD SVG 1.1//EN" "http://www.w3.org/Graphics/SVG/1.1/DTD/svg11.dtd"><svg width="100%" height="100%" viewBox="0 0 300 200" version="1.1" xmlns="http://www.w3.org/2000/svg" xmlns:xlink="http://www.w3.org/1999/xlink" xml:space="preserve" style="fill-rule:evenodd;clip-rule:evenodd;stroke-linejoin:round;stroke-miterlimit:1.41421;"><g id="Layer1"><rect x="-0.191" y="0.113" width="300.234" height="199.701" style="fill:#f98b25;"/><g><path d="M113.161,120.68l11.873,11.948l49.818,-50.132l-11.873,-11.947l-49.818,50.131Z" style="fill:#e6e9ee;"/><path d="M177.026,86.331c-9.871,0 -17.926,-8.105 -17.926,-18.038c0,-9.932 8.055,-18.038 17.926,-18.038c6.126,0 11.459,3.082 14.749,7.763l-12.821,0l-4.878,10.389l4.878,10.389l12.934,0c-3.29,4.453 -8.736,7.535 -14.862,7.535Z" style="fill:#fff;fill-rule:nonzero;"/><path d="M110.541,113.96c9.871,0 17.926,8.106 17.926,18.038c0,9.932 -8.055,18.038 -17.926,18.038c-6.126,0 -11.458,-3.082 -14.749,-7.763l12.934,0l4.879,-10.389l-4.879,-10.389l-12.934,0c3.177,-4.453 8.623,-7.535 14.749,-7.535Z" style="fill:#fff;fill-rule:nonzero;"/><path d="M133.119,117.385c-0.567,-0.571 -0.567,-1.599 0,-2.169l26.435,-26.601c0.567,-0.571 1.588,-0.571 2.155,0c0.568,0.571 0.568,1.598 0,2.169l-26.434,26.601c-0.681,0.571 -1.589,0.571 -2.156,0Z" style="fill:#ced5e0;fill-rule:nonzero;"/><path d="M128.24,112.59c-0.567,-0.571 -0.567,-1.599 0,-2.169l26.435,-26.601c0.567,-0.571 1.589,-0.571 2.156,0c0.567,0.571 0.567,1.598 0,2.169l-26.435,26.601c-0.567,0.571 -1.588,0.571 -2.156,0Z" style="fill:#ced5e0;fill-rule:nonzero;"/><path d="M203.007,109.736l-9.644,-9.705c-0.113,-0.114 -0.34,-0.228 -0.454,-0.228l-13.501,0c-0.227,0 -0.34,0.114 -0.454,0.228l-9.643,9.705c-0.114,0.114 -0.227,0.342 -0.227,0.456l0,13.7c0,0.229 0.113,0.343 0.227,0.457l9.643,9.704c0.114,0.114 0.341,0.228 0.454,0.228l13.615,0c0.227,0 0.34,-0.114 0.454,-0.228l9.643,-9.704c0.114,-0.114 0.227,-0.343 0.227,-0.457l0,-13.7c-0.113,-0.114 -0.227,-0.342 -0.34,-0.456Z" style="fill:#fff;fill-rule:nonzero;"/><ellipse cx="186.102" cy="117.042" rx="8.963" ry="9.019" style="fill:#f98b25;"/><path d="M132.438,73.659l-9.643,-9.704c-0.114,-0.114 -0.341,-0.229 -0.454,-0.229l-13.615,0c-0.227,0 -0.34,0.115 -0.454,0.229l-9.643,9.704c-0.114,0.114 -0.227,0.342 -0.227,0.457l0,13.7c0,0.228 0.113,0.342 0.227,0.456l9.643,9.704c0.114,0.115 0.341,0.229 0.454,0.229l13.615,0c0.227,0 0.34,-0.114 0.454,-0.229l9.643,-9.704c0.114,-0.114 0.227,-0.342 0.227,-0.456l0,-13.7c0,-0.115 -0.113,-0.343 -0.227,-0.457Z" style="fill:#fff;fill-rule:nonzero;"/><ellipse cx="115.533" cy="80.966" rx="8.963" ry="9.019" style="fill:#f98b25;"/></g></g></svg>