<?xml version="1.0" encoding="UTF-8" standalone="no"?><!DOCTYPE svg PUBLIC "-//W3C//DTD SVG 1.1//EN" "http://www.w3.org/Graphics/SVG/1.1/DTD/svg11.dtd"><svg width="100%" height="100%" viewBox="0 0 300 200" version="1.1" xmlns="http://www.w3.org/2000/svg" xmlns:xlink="http://www.w3.org/1999/xlink" xml:space="preserve" style="fill-rule:evenodd;clip-rule:evenodd;stroke-linejoin:round;stroke-miterlimit:1.41421;"><g id="Layer1"><rect x="-0.191" y="0.113" width="300.234" height="200.07" style="fill:#50ae54;"/><g><path d="M184.584,150.889l-68.633,0c-2.935,0 -5.192,-2.37 -5.192,-5.192l0,-90.307c0,-2.935 2.37,-5.193 5.192,-5.193l68.521,0c2.935,0 5.192,2.371 5.192,5.193l0,90.307c0.113,2.822 -2.257,5.192 -5.08,5.192Z" style="fill:#84dbff;fill-rule:nonzero;"/><path d="M115.5,59.228l0,79.357l56.667,0l0,-12.869l12.869,0l0,-66.488l-69.536,0Z" style="fill:#fff;fill-rule:nonzero;"/><path d="M172.167,138.585l12.869,-12.869l-12.869,0l0,12.869Z" style="fill:#e6e9ee;fill-rule:nonzero;"/><rect x="132.094" y="50.197" width="36.349" height="9.031" style="fill:#e6e9ee;"/><path d="M170.7,53.471l-20.319,0l-20.432,0c-1.129,0 -2.032,0.903 -2.032,2.032l0,6.773c0,1.129 0.903,2.032 2.032,2.032l9.369,0c3.274,0 4.628,0.451 5.983,0.79c1.242,0.339 2.483,0.79 4.967,0.79c2.483,0 3.725,-0.339 4.967,-0.79c1.354,-0.452 2.709,-0.79 5.983,-0.79l9.369,0c1.129,0 2.032,-0.903 2.032,-2.032l0,-6.773c0.226,-1.129 -0.79,-2.032 -1.919,-2.032Zm1.016,8.805c0,0.564 -0.452,0.903 -0.903,0.903l-9.37,0c-3.499,0 -4.967,0.451 -6.321,0.903c-1.129,0.339 -2.258,0.677 -4.628,0.677c-2.371,0 -3.5,-0.338 -4.629,-0.677c-1.467,-0.452 -2.935,-0.903 -6.321,-0.903l-9.595,0c-0.565,0 -0.903,-0.452 -0.903,-0.903l0,-6.773c0,-0.565 0.451,-0.903 0.903,-0.903l40.864,0c0.564,0 0.903,0.451 0.903,0.903l0,6.773Z" style="fill:#324a5e;fill-rule:nonzero;"/><rect x="135.367" y="52.116" width="29.688" height="3.725" style="fill:#fff;"/><path d="M168.894,87.562l-16.594,0l0,-8.015l-17.384,0l0,2.258l15.126,0l0,18.738l-16.255,0l0,23.706l2.258,0l0,-12.417l32.849,0l0,-24.27Zm-2.258,22.012l-30.591,0l0,-6.886l16.255,0l0,-12.981l14.336,0l0,19.867Z" style="fill:#e6e9ee;fill-rule:nonzero;"/><circle cx="134.916" cy="80.563" r="4.064" style="fill:#ff7058;"/><circle cx="151.284" cy="88.578" r="4.064" style="fill:#ff7058;"/><circle cx="167.765" cy="100.205" r="4.064" style="fill:#ff7058;"/><circle cx="151.284" cy="101.559" r="4.064" style="fill:#ff7058;"/><circle cx="134.916" cy="110.703" r="4.064" style="fill:#ff7058;"/><circle cx="134.916" cy="124.136" r="4.064" style="fill:#ff7058;"/></g><g><g opacity="0.8"><path d="M166.083,143.649c-2.088,-2.089 -4.568,-2.995 -5.539,-2.026l-10.699,10.701c2.125,2.893 4.692,5.432 7.622,7.508l10.64,-10.641c0.973,-0.974 0.072,-3.457 -2.024,-5.542Z" style="fill:#a07238;fill-rule:nonzero;"/><circle cx="177.493" cy="132.246" r="20.447" style="fill:#60c3b6;"/><path d="M159.522,142.549l-2.911,2.908c0,0 2.655,5.865 8.365,6.764l2.115,-2.109l0,-2.729l-7.569,-4.834Z" style="fill:#a07238;fill-rule:nonzero;"/><path d="M161.64,116.397c-8.751,8.753 -8.751,22.947 0,31.695c8.761,8.758 22.944,8.758 31.695,0.003c8.753,-8.751 8.753,-22.945 0,-31.698c-8.751,-8.753 -22.934,-8.753 -31.695,0Zm27.702,27.704c-6.541,6.542 -17.155,6.546 -23.705,0c-6.547,-6.548 -6.547,-17.163 0,-23.709c6.55,-6.547 17.164,-6.547 23.705,-0.002c6.55,6.548 6.548,17.166 0,23.711Z" style="fill:#ebedef;fill-rule:nonzero;"/><path d="M166.393,130.054c-0.413,0.915 -0.015,2.004 0.899,2.423c0.913,0.428 2.005,0.02 2.426,-0.888c0,0 0.015,-0.044 0.103,-0.206c0.635,-1.159 3.692,-6.089 10.154,-6.687c0.782,-0.077 1.4,-0.633 1.59,-1.354c0.05,-0.201 0.076,-0.419 0.05,-0.642c-0.096,-1.004 -0.989,-1.742 -1.991,-1.642c-9.524,0.976 -13.135,8.808 -13.231,8.996Z" style="fill:#f4f5f5;fill-opacity:0.694118;fill-rule:nonzero;"/></g></g></g></svg>