<?xml version="1.0" encoding="UTF-8" standalone="no"?><!DOCTYPE svg PUBLIC "-//W3C//DTD SVG 1.1//EN" "http://www.w3.org/Graphics/SVG/1.1/DTD/svg11.dtd"><svg width="100%" height="100%" viewBox="0 0 300 200" version="1.1" xmlns="http://www.w3.org/2000/svg" xmlns:xlink="http://www.w3.org/1999/xlink" xml:space="preserve" style="fill-rule:evenodd;clip-rule:evenodd;stroke-linejoin:round;stroke-miterlimit:1.41421;"><g id="Layer1"><rect x="-0.191" y="0.113" width="300.234" height="200.218" style="fill:#1fbcd3;"/><g><path d="M184.584,150.889l-68.633,0c-2.935,0 -5.192,-2.37 -5.192,-5.192l0,-90.307c0,-2.935 2.37,-5.193 5.192,-5.193l68.521,0c2.935,0 5.192,2.371 5.192,5.193l0,90.307c0.113,2.822 -2.257,5.192 -5.08,5.192Z" style="fill:#84dbff;fill-rule:nonzero;"/><path d="M115.5,59.228l0,79.357l56.667,0l0,-12.869l12.869,0l0,-66.488l-69.536,0Z" style="fill:#fff;fill-rule:nonzero;"/><path d="M172.167,138.585l12.869,-12.869l-12.869,0l0,12.869Z" style="fill:#e6e9ee;fill-rule:nonzero;"/><rect x="132.094" y="50.197" width="36.349" height="9.031" style="fill:#e6e9ee;"/><path d="M170.7,53.471l-20.319,0l-20.432,0c-1.129,0 -2.032,0.903 -2.032,2.032l0,6.773c0,1.129 0.903,2.032 2.032,2.032l9.369,0c3.274,0 4.628,0.451 5.983,0.79c1.242,0.339 2.483,0.79 4.967,0.79c2.483,0 3.725,-0.339 4.967,-0.79c1.354,-0.452 2.709,-0.79 5.983,-0.79l9.369,0c1.129,0 2.032,-0.903 2.032,-2.032l0,-6.773c0.226,-1.129 -0.79,-2.032 -1.919,-2.032Zm1.016,8.805c0,0.564 -0.452,0.903 -0.903,0.903l-9.37,0c-3.499,0 -4.967,0.451 -6.321,0.903c-1.129,0.339 -2.258,0.677 -4.628,0.677c-2.371,0 -3.5,-0.338 -4.629,-0.677c-1.467,-0.452 -2.935,-0.903 -6.321,-0.903l-9.595,0c-0.565,0 -0.903,-0.452 -0.903,-0.903l0,-6.773c0,-0.565 0.451,-0.903 0.903,-0.903l40.864,0c0.564,0 0.903,0.451 0.903,0.903l0,6.773Z" style="fill:#324a5e;fill-rule:nonzero;"/><rect x="135.367" y="52.116" width="29.688" height="3.725" style="fill:#fff;"/><path d="M168.894,87.562l-16.594,0l0,-8.015l-17.384,0l0,2.258l15.126,0l0,18.738l-16.255,0l0,23.706l2.258,0l0,-12.417l32.849,0l0,-24.27Zm-2.258,22.012l-30.591,0l0,-6.886l16.255,0l0,-12.981l14.336,0l0,19.867Z" style="fill:#e6e9ee;fill-rule:nonzero;"/><circle cx="134.916" cy="80.563" r="4.064" style="fill:#ff7058;"/><circle cx="151.284" cy="88.578" r="4.064" style="fill:#ff7058;"/><circle cx="167.765" cy="100.205" r="4.064" style="fill:#ff7058;"/><circle cx="151.284" cy="101.559" r="4.064" style="fill:#ff7058;"/><circle cx="134.916" cy="110.703" r="4.064" style="fill:#ff7058;"/><circle cx="134.916" cy="124.136" r="4.064" style="fill:#ff7058;"/></g><g><g opacity="0.8"><g><path d="M199.956,130.534c0,-11.044 -8.774,-21.089 -19.598,-21.089c-10.825,0 -19.599,10.042 -19.599,21.089l5.073,0c0,-8.189 6.499,-15.91 14.523,-15.91c8.022,0 14.524,7.721 14.524,15.91l5.077,0Z" style="fill:#f4e028;fill-rule:nonzero;"/><path d="M199.97,155.256c0,2.312 -1.917,4.189 -4.284,4.189l-30.689,0c-2.358,0 -4.279,-1.877 -4.279,-4.189l0,-24.795c0,-2.315 39.254,-2.315 39.254,0l0,24.795l-0.002,0Z" style="fill:#f4e028;fill-rule:nonzero;"/><path d="M184.88,140.505c0,-2.416 -1.962,-4.373 -4.373,-4.373c-2.415,0 -4.376,1.957 -4.376,4.373c0,1.845 1.142,3.416 2.752,4.06l0,4.036c0,0.855 0.695,1.55 1.55,1.55c0.856,0 1.551,-0.695 1.551,-1.55l0,-3.98c1.684,-0.608 2.896,-2.218 2.896,-4.116Z" style="fill:#dac425;fill-rule:nonzero;"/><path d="M175.966,140.505c0,-2.416 1.962,-4.373 4.375,-4.373c0,0 -3.048,2.031 -3.048,4.449c0,2.462 2.301,3.922 2.301,3.922l0,4.144c0,0.855 0.819,1.504 0.819,1.504c-0.854,0 -1.549,-0.695 -1.549,-1.55l0,-3.98c-1.688,-0.608 -2.898,-2.218 -2.898,-4.116Z" style="fill:#d0b82b;fill-rule:nonzero;"/></g><path d="M192.826,159.445l-5.466,0l0,-30.62l5.466,0.272l0,30.348Z" style="fill:#f8e349;fill-rule:nonzero;"/><path d="M187.36,110.911l0,5.804c2.255,1.431 4.144,3.504 5.466,5.924l0,-8.178c-1.619,-1.48 -3.466,-2.69 -5.466,-3.55Z" style="fill:#f8e349;fill-rule:nonzero;"/></g></g></g></svg>