<?xml version="1.0" encoding="UTF-8" standalone="no"?><!DOCTYPE svg PUBLIC "-//W3C//DTD SVG 1.1//EN" "http://www.w3.org/Graphics/SVG/1.1/DTD/svg11.dtd"><svg width="100%" height="100%" viewBox="0 0 300 200" version="1.1" xmlns="http://www.w3.org/2000/svg" xmlns:xlink="http://www.w3.org/1999/xlink" xml:space="preserve" style="fill-rule:evenodd;clip-rule:evenodd;stroke-linejoin:round;stroke-miterlimit:1.41421;"><g id="Layer1"><rect x="-0.191" y="0.113" width="300.234" height="200.218" style="fill:#8c2da8;"/><g><path d="M184.584,150.889l-68.633,0c-2.935,0 -5.192,-2.37 -5.192,-5.192l0,-90.307c0,-2.935 2.37,-5.193 5.192,-5.193l68.521,0c2.935,0 5.192,2.371 5.192,5.193l0,90.307c0.113,2.822 -2.257,5.192 -5.08,5.192Z" style="fill:#84dbff;fill-rule:nonzero;"/><path d="M115.5,59.228l0,79.357l56.667,0l0,-12.869l12.869,0l0,-66.488l-69.536,0Z" style="fill:#fff;fill-rule:nonzero;"/><path d="M172.167,138.585l12.869,-12.869l-12.869,0l0,12.869Z" style="fill:#e6e9ee;fill-rule:nonzero;"/><rect x="132.094" y="50.197" width="36.349" height="9.031" style="fill:#e6e9ee;"/><path d="M170.7,53.471l-20.319,0l-20.432,0c-1.129,0 -2.032,0.903 -2.032,2.032l0,6.773c0,1.129 0.903,2.032 2.032,2.032l9.369,0c3.274,0 4.628,0.451 5.983,0.79c1.242,0.339 2.483,0.79 4.967,0.79c2.483,0 3.725,-0.339 4.967,-0.79c1.354,-0.452 2.709,-0.79 5.983,-0.79l9.369,0c1.129,0 2.032,-0.903 2.032,-2.032l0,-6.773c0.226,-1.129 -0.79,-2.032 -1.919,-2.032Zm1.016,8.805c0,0.564 -0.452,0.903 -0.903,0.903l-9.37,0c-3.499,0 -4.967,0.451 -6.321,0.903c-1.129,0.339 -2.258,0.677 -4.628,0.677c-2.371,0 -3.5,-0.338 -4.629,-0.677c-1.467,-0.452 -2.935,-0.903 -6.321,-0.903l-9.595,0c-0.565,0 -0.903,-0.452 -0.903,-0.903l0,-6.773c0,-0.565 0.451,-0.903 0.903,-0.903l40.864,0c0.564,0 0.903,0.451 0.903,0.903l0,6.773Z" style="fill:#324a5e;fill-rule:nonzero;"/><rect x="135.367" y="52.116" width="29.688" height="3.725" style="fill:#fff;"/><path d="M168.894,87.562l-16.594,0l0,-8.015l-17.384,0l0,2.258l15.126,0l0,18.738l-16.255,0l0,23.706l2.258,0l0,-12.417l32.849,0l0,-24.27Zm-2.258,22.012l-30.591,0l0,-6.886l16.255,0l0,-12.981l14.336,0l0,19.867Z" style="fill:#e6e9ee;fill-rule:nonzero;"/><circle cx="134.916" cy="80.563" r="4.064" style="fill:#ff7058;"/><circle cx="151.284" cy="88.578" r="4.064" style="fill:#ff7058;"/><circle cx="167.765" cy="100.205" r="4.064" style="fill:#ff7058;"/><circle cx="151.284" cy="101.559" r="4.064" style="fill:#ff7058;"/><circle cx="134.916" cy="110.703" r="4.064" style="fill:#ff7058;"/><circle cx="134.916" cy="124.136" r="4.064" style="fill:#ff7058;"/></g><g><g opacity="0.8"><g><path d="M168.467,122.115l1.889,-2.168l-0.611,-2.816l2.834,0.998c3.765,-2.577 8.491,-3.553 12.803,-1.951c7.465,2.768 10.844,12.194 8.019,19.809l4.714,1.748c3.814,-10.271 -0.883,-22.637 -10.944,-26.372c-8.673,-3.218 -18.492,1.031 -23.483,8.838c0,0 -0.483,1.852 1.465,2.715c1.951,0.86 3.314,-0.801 3.314,-0.801Z" style="fill:#f4e028;fill-rule:nonzero;"/><path d="M200.053,156.122c0,2.294 -1.901,4.156 -4.249,4.156l-30.441,0c-2.339,0 -4.244,-1.862 -4.244,-4.156l0,-24.594c0,-2.296 38.936,-2.296 38.936,0l0,24.594l-0.002,0Z" style="fill:#f4e028;fill-rule:nonzero;"/><path d="M185.086,141.491c0,-2.396 -1.947,-4.338 -4.338,-4.338c-2.396,0 -4.34,1.942 -4.34,4.338c0,1.83 1.132,3.388 2.729,4.027l0,4.003c0,0.849 0.689,1.538 1.538,1.538c0.849,0 1.538,-0.689 1.538,-1.538l0,-3.948c1.67,-0.6 2.873,-2.2 2.873,-4.082Z" style="fill:#dac425;fill-rule:nonzero;"/><path d="M176.243,141.491c0,-2.396 1.947,-4.338 4.341,-4.338c0,0 -3.024,2.015 -3.024,4.413c0,2.442 2.282,3.891 2.282,3.891l0,4.109c0,0.849 0.812,1.493 0.812,1.493c-0.846,0 -1.535,-0.689 -1.535,-1.538l0,-3.948c-1.673,-0.6 -2.876,-2.2 -2.876,-4.082Z" style="fill:#d0b82b;fill-rule:nonzero;"/></g><path d="M192.97,160.28l-5.422,0l0,-30.374l5.422,0.271l0,30.103Z" style="fill:#f8e349;fill-rule:nonzero;"/><path d="M187.548,111.488l0,5.758c2.236,1.419 4.11,3.858 5.422,6.259l0,-8.617c-1.609,-1.465 -3.439,-2.546 -5.422,-3.4Z" style="fill:#f8e349;fill-rule:nonzero;"/></g></g></g></svg>