<?xml version="1.0" encoding="UTF-8" standalone="no"?><!DOCTYPE svg PUBLIC "-//W3C//DTD SVG 1.1//EN" "http://www.w3.org/Graphics/SVG/1.1/DTD/svg11.dtd"><svg width="100%" height="100%" viewBox="0 0 300 200" version="1.1" xmlns="http://www.w3.org/2000/svg" xmlns:xlink="http://www.w3.org/1999/xlink" xml:space="preserve" style="fill-rule:evenodd;clip-rule:evenodd;stroke-linejoin:round;stroke-miterlimit:1.41421;"><g id="Layer1"><rect x="-0.191" y="0.113" width="300.234" height="200.112" style="fill:#e72564;"/><g><path d="M184.584,150.889l-68.633,0c-2.935,0 -5.192,-2.37 -5.192,-5.192l0,-90.307c0,-2.935 2.37,-5.193 5.192,-5.193l68.521,0c2.935,0 5.192,2.371 5.192,5.193l0,90.307c0.113,2.822 -2.257,5.192 -5.08,5.192Z" style="fill:#84dbff;fill-rule:nonzero;"/><path d="M115.5,59.228l0,79.357l56.667,0l0,-12.869l12.869,0l0,-66.488l-69.536,0Z" style="fill:#fff;fill-rule:nonzero;"/><path d="M172.167,138.585l12.869,-12.869l-12.869,0l0,12.869Z" style="fill:#e6e9ee;fill-rule:nonzero;"/><rect x="132.094" y="50.197" width="36.349" height="9.031" style="fill:#e6e9ee;"/><path d="M170.7,53.471l-20.319,0l-20.432,0c-1.129,0 -2.032,0.903 -2.032,2.032l0,6.773c0,1.129 0.903,2.032 2.032,2.032l9.369,0c3.274,0 4.628,0.451 5.983,0.79c1.242,0.339 2.483,0.79 4.967,0.79c2.483,0 3.725,-0.339 4.967,-0.79c1.354,-0.452 2.709,-0.79 5.983,-0.79l9.369,0c1.129,0 2.032,-0.903 2.032,-2.032l0,-6.773c0.226,-1.129 -0.79,-2.032 -1.919,-2.032Zm1.016,8.805c0,0.564 -0.452,0.903 -0.903,0.903l-9.37,0c-3.499,0 -4.967,0.451 -6.321,0.903c-1.129,0.339 -2.258,0.677 -4.628,0.677c-2.371,0 -3.5,-0.338 -4.629,-0.677c-1.467,-0.452 -2.935,-0.903 -6.321,-0.903l-9.595,0c-0.565,0 -0.903,-0.452 -0.903,-0.903l0,-6.773c0,-0.565 0.451,-0.903 0.903,-0.903l40.864,0c0.564,0 0.903,0.451 0.903,0.903l0,6.773Z" style="fill:#324a5e;fill-rule:nonzero;"/><rect x="135.367" y="52.116" width="29.688" height="3.725" style="fill:#fff;"/><path d="M168.894,87.562l-16.594,0l0,-8.015l-17.384,0l0,2.258l15.126,0l0,18.738l-16.255,0l0,23.706l2.258,0l0,-12.417l32.849,0l0,-24.27Zm-2.258,22.012l-30.591,0l0,-6.886l16.255,0l0,-12.981l14.336,0l0,19.867Z" style="fill:#e6e9ee;fill-rule:nonzero;"/><circle cx="134.916" cy="80.563" r="4.064" style="fill:#ff7058;"/><circle cx="151.284" cy="88.578" r="4.064" style="fill:#ff7058;"/><circle cx="167.765" cy="100.205" r="4.064" style="fill:#ff7058;"/><circle cx="151.284" cy="101.559" r="4.064" style="fill:#ff7058;"/><circle cx="134.916" cy="110.703" r="4.064" style="fill:#ff7058;"/><circle cx="134.916" cy="124.136" r="4.064" style="fill:#ff7058;"/></g><g><g opacity="0.8"><circle cx="174.717" cy="135.766" r="22.806" style="fill:#da1f26;"/><path d="M156.665,117.907c-9.76,9.762 -9.76,25.594 0,35.352c9.773,9.767 25.592,9.767 35.352,0.002c9.763,-9.76 9.763,-25.592 0,-35.354c-9.76,-9.763 -25.579,-9.763 -35.352,0Zm30.898,30.9c-7.296,7.296 -19.133,7.301 -26.439,0c-7.303,-7.303 -7.303,-19.143 0,-26.444c7.306,-7.303 19.143,-7.303 26.439,-0.002c7.306,7.303 7.304,19.145 0,26.446Z" style="fill:#ebedef;fill-rule:nonzero;"/><path d="M162.336,133.322c-0.46,1.02 -0.017,2.235 1.004,2.703c1.018,0.477 2.235,0.021 2.705,-0.992c0,0 0.017,-0.048 0.115,-0.228c0.708,-1.294 4.118,-6.792 11.326,-7.46c0.872,-0.085 1.561,-0.706 1.773,-1.509c0.056,-0.224 0.085,-0.468 0.056,-0.716c-0.108,-1.12 -1.104,-1.944 -2.221,-1.832c-10.623,1.089 -14.65,9.824 -14.758,10.034Z" style="fill:#f4f5f5;fill-opacity:0.694118;fill-rule:nonzero;"/></g></g></g></svg>