<?xml version="1.0" encoding="UTF-8" standalone="no"?><!DOCTYPE svg PUBLIC "-//W3C//DTD SVG 1.1//EN" "http://www.w3.org/Graphics/SVG/1.1/DTD/svg11.dtd"><svg width="100%" height="100%" viewBox="0 0 300 200" version="1.1" xmlns="http://www.w3.org/2000/svg" xmlns:xlink="http://www.w3.org/1999/xlink" xml:space="preserve" style="fill-rule:evenodd;clip-rule:evenodd;stroke-linejoin:round;stroke-miterlimit:1.41421;"><g id="Layer1"><rect x="-0.191" y="0.113" width="300.234" height="199.701" style="fill:#fabf40;"/><g><path d="M219.674,66.585c0,-8.905 -7.22,-16.125 -16.127,-16.125l-108.184,0c-8.906,0 -16.126,7.22 -16.126,16.125l0,67.084c0,8.904 7.22,16.126 16.126,16.126l108.184,0c8.907,0 16.127,-7.222 16.127,-16.126l0,-67.084Z" style="fill:#e0e4e3;fill-rule:nonzero;"/><g><path d="M219.567,64.788c-0.895,-8.059 -7.722,-14.328 -16.021,-14.328l-108.183,0c-8.906,0 -16.126,7.22 -16.126,16.125l0,3.261l140.332,0l0,-5.058l-0.002,0Z" style="fill:#d1d3d3;fill-rule:nonzero;"/><circle cx="92.105" cy="59.858" r="3.527" style="fill:#e84849;"/><circle cx="105.47" cy="59.858" r="3.527" style="fill:#efc849;"/><circle cx="118.835" cy="59.858" r="3.527" style="fill:#37b34c;"/></g><path d="M189.1,136.452l-0.283,0c-0.669,-2.043 -1.492,-4.015 -2.451,-5.908l0.202,-0.201c3.573,-3.571 8.663,-13.874 3.509,-19.027l-3.141,-3.141c-5.154,-5.153 -15.172,-0.349 -19.027,3.508l-0.202,0.202c-1.892,-0.96 -3.867,-1.781 -5.909,-2.45l0,-0.281c0,-5.052 -3.686,-15.934 -10.975,-15.934l-4.44,0c-7.286,0 -10.976,10.479 -10.976,15.934l0,0.282c-2.042,0.668 -4.014,1.491 -5.906,2.449l-0.202,-0.204c-3.001,-3.001 -13.875,-8.66 -19.027,-3.506l-3.141,3.14c-5.154,5.152 0.22,15.74 3.506,19.027l0.204,0.203c-0.959,1.892 -1.781,3.864 -2.45,5.907l-0.281,0c-4.246,0 -15.934,3.688 -15.934,10.976l0,2.051c1.031,0.206 2.095,0.317 3.187,0.317l28.746,0c0,-0.049 -0.007,-0.096 -0.007,-0.148c0,-13.533 10.969,-24.502 24.502,-24.502c13.533,0 24.502,10.969 24.502,24.502c0,0.05 -0.007,0.098 -0.007,0.148l30.447,0c0.501,0 0.997,-0.031 1.488,-0.075l0,-2.293c0,-7.288 -10.479,-10.976 -15.934,-10.976Z" style="fill:#f90;fill-rule:nonzero;"/></g></g></svg>