<?xml version="1.0" encoding="UTF-8" standalone="no"?><!DOCTYPE svg PUBLIC "-//W3C//DTD SVG 1.1//EN" "http://www.w3.org/Graphics/SVG/1.1/DTD/svg11.dtd"><svg width="100%" height="100%" viewBox="0 0 300 200" version="1.1" xmlns="http://www.w3.org/2000/svg" xmlns:xlink="http://www.w3.org/1999/xlink" xml:space="preserve" style="fill-rule:evenodd;clip-rule:evenodd;stroke-linejoin:round;stroke-miterlimit:1.41421;"><g id="Layer1"><rect x="-0.191" y="0.113" width="300.234" height="199.701" style="fill:#288ae2;"/></g><g><path d="M200.265,95.684l0,9.111l-8.244,2.387c-1.084,6.291 -3.471,12.366 -7.376,17.681l4.122,7.484l-6.4,6.4l-7.484,-4.122c-5.424,3.905 -11.39,6.292 -17.681,7.377l-2.387,8.243l-9.112,0l-2.386,-8.243c-6.291,-1.085 -12.257,-3.472 -17.681,-7.377l-7.485,4.122l-6.4,-6.4l4.122,-7.484c-3.796,-5.424 -6.291,-11.39 -7.376,-17.681l-8.244,-2.387l0,-9.111l8.244,-2.387c1.085,-6.291 3.471,-12.257 7.376,-17.681l-4.122,-7.485l6.4,-6.4l7.485,4.122c5.424,-3.796 11.39,-6.291 17.681,-7.376l2.386,-8.244l9.112,0l2.387,8.244c6.291,1.085 12.366,3.471 17.681,7.376l7.484,-4.122l6.4,6.4l-4.122,7.485c3.905,5.424 6.292,11.39 7.376,17.681l8.244,2.387Z" style="fill:#fff;fill-rule:nonzero;"/><circle cx="150.259" cy="100.239" r="26.901" style="fill:#324a5e;"/><path d="M177.161,100.239c0,-8.894 -4.339,-16.813 -10.956,-21.694c0,0.325 0.108,0.651 0.217,0.976c-0.759,0.325 -1.627,0.542 -2.495,0.434c-0.542,1.085 0.325,2.495 -0.434,3.471c-0.325,0.434 -0.868,0.542 -1.193,0.868c-0.651,0.651 -0.543,1.952 0.217,2.495c0.759,0.542 2.061,0.108 2.386,-0.76c0.217,-0.65 0,-1.41 0.217,-2.061c0.434,-1.084 2.061,-1.735 1.844,-2.928c0.651,0.759 0,1.952 0.326,2.82c0.217,0.542 0.759,0.868 1.084,1.302c0.326,0.434 0.434,1.193 0,1.518c-0.65,-0.108 -1.193,0.434 -1.41,0.977c-0.217,0.542 -0.108,1.193 0,1.844c-1.518,0 -3.037,-0.109 -4.556,-0.109c-0.325,0 -0.759,0 -1.084,0.217c-0.977,0.542 -0.434,2.386 -1.411,2.82c-0.65,0.217 -1.518,-0.217 -1.952,0.217c-0.109,0.217 -0.217,0.434 -0.217,0.651c-0.108,0.651 -0.108,1.302 0,1.844c0.217,0.651 0.651,1.193 1.193,1.302c0.868,0.108 1.627,-0.651 2.061,-1.519c0.434,-0.868 0.759,-1.735 1.519,-2.169c0.542,-0.326 1.301,-0.326 1.952,-0.217c2.387,0.434 4.556,1.952 5.858,4.013c0.325,0.543 0.651,1.302 0.325,1.844c-0.325,0.543 -1.084,0.651 -1.844,0.651c-1.193,0 -2.386,0.109 -3.579,-0.325c-1.085,-0.434 -2.061,-1.41 -2.061,-2.712c-1.411,0.217 -2.712,0.868 -3.797,1.844c-0.651,0.542 -1.085,1.302 -1.844,1.736c-0.542,0.325 -1.085,0.65 -1.627,0.976c-1.41,1.193 -1.41,3.254 -1.302,4.99c0,1.301 0.217,2.928 1.302,3.688c0.759,0.542 1.844,0.542 2.82,0.542c1.193,0 2.387,-0.108 3.58,-0.108c0,3.145 0.108,6.183 0.108,9.328c0,1.519 0.326,3.363 1.736,3.797c0.108,0 0.108,0 0.217,0c7.81,-4.665 12.8,-13.017 12.8,-22.563Z" style="fill:#2b9cd4;fill-rule:nonzero;"/><path d="M148.632,112.714c-0.651,-0.434 -1.735,-0.326 -2.169,-1.085c-0.217,-0.325 -0.217,-0.651 -0.326,-0.976c-0.325,-0.651 -0.976,-0.976 -1.627,-1.193c-1.844,-0.977 -3.362,-2.278 -5.315,-2.821c-1.952,-0.542 -4.447,-0.108 -5.315,1.736c-0.325,0.651 -0.325,1.519 -0.325,2.278c0,1.301 0.216,2.603 1.084,3.579c0.651,0.76 1.736,1.302 2.061,2.278c0.217,0.543 0.217,1.194 0.217,1.736c-0.108,1.736 -0.108,3.471 -0.217,5.207c1.193,0.65 2.495,1.301 3.797,1.844c0.108,0 0.325,-0.109 0.434,-0.109c0.434,-0.108 0.976,-0.217 1.301,-0.542c0.326,-0.434 0.434,-0.976 0.651,-1.41c0.651,-1.41 2.604,-1.844 3.254,-3.254c0.543,-1.302 0,-3.038 0.977,-4.014c0.434,-0.434 1.193,-0.542 1.627,-0.976c0.651,-0.651 0.651,-1.736 -0.109,-2.278Z" style="fill:#2b9cd4;fill-rule:nonzero;"/><path d="M141.148,74.965c0.108,0.326 0.217,0.651 0.434,0.976c0.216,0.326 0.65,0.543 0.976,0.76c1.084,0.759 2.278,1.735 2.603,3.037c0.217,0.759 0.109,1.519 0,2.278c0,0.759 0,1.519 0.434,2.169c0.434,0.651 1.302,0.977 1.953,0.434c0.325,-0.217 0.433,-0.651 0.65,-0.867c0.868,-1.085 2.821,-1.302 3.038,-2.712c0.108,-0.651 -0.326,-1.41 0.108,-2.061c0.326,-0.434 0.868,-0.543 1.41,-0.868c1.41,-0.651 1.736,-2.495 1.519,-4.014c0,-0.108 0,-0.325 -0.109,-0.433c-1.301,-0.217 -2.603,-0.326 -4.013,-0.326c-3.037,0 -6.183,0.542 -9.003,1.627Z" style="fill:#2b9cd4;fill-rule:nonzero;"/><path d="M138.978,75.833c-9.112,4.23 -15.511,13.451 -15.511,24.189c1.193,1.302 2.277,2.604 3.362,4.014c0.759,1.085 1.519,2.278 2.604,3.037c1.084,0.76 2.603,1.193 3.796,0.543c0.651,-0.326 0.759,-1.085 0.651,-1.736c-0.217,-0.651 -0.651,-1.193 -1.085,-1.627c-0.542,-0.651 -1.193,-1.302 -1.952,-1.736c-0.434,-0.217 -0.977,-0.434 -1.194,-0.867c-0.325,-0.651 0.326,-1.519 0.977,-1.736c0.759,-0.217 1.518,-0.108 2.278,-0.108c0.759,0 1.627,-0.109 2.061,-0.651c0.217,-0.326 0.325,-0.76 0.542,-1.085c0.868,-1.627 3.363,-1.736 4.447,-3.254c0.434,-0.651 0.543,-1.519 0.76,-2.278c0.217,-0.759 0.759,-1.519 1.627,-1.627c0.542,-0.109 1.301,0.217 1.735,-0.217c0.109,-0.217 0.109,-0.434 0.109,-0.651c0,-1.519 -0.759,-3.037 -2.061,-3.905c-0.326,-0.217 -0.651,-0.434 -0.976,-0.651c-0.217,-0.325 -0.326,-0.759 0,-1.085c0.217,-0.108 0.434,-0.217 0.65,-0.325c0.868,-0.434 0.76,-1.519 0.651,-2.386c-0.108,-0.977 -0.434,-2.061 -1.301,-2.387c-0.76,-0.325 -1.844,0.109 -2.387,-0.542c-0.434,-0.434 -0.217,-1.193 0,-1.736c-0.108,-0.325 0,-0.759 0.217,-1.193Z" style="fill:#2b9cd4;fill-rule:nonzero;"/></g></svg>