<?xml version="1.0" encoding="UTF-8" standalone="no"?><!DOCTYPE svg PUBLIC "-//W3C//DTD SVG 1.1//EN" "http://www.w3.org/Graphics/SVG/1.1/DTD/svg11.dtd"><svg width="100%" height="100%" viewBox="0 0 300 200" version="1.1" xmlns="http://www.w3.org/2000/svg" xmlns:xlink="http://www.w3.org/1999/xlink" xml:space="preserve" style="fill-rule:evenodd;clip-rule:evenodd;stroke-linejoin:round;stroke-miterlimit:1.41421;"><g id="Layer1"><rect x="-0.191" y="0.113" width="300.234" height="199.701" style="fill:#50ae54;"/></g><g><ellipse cx="150.306" cy="118.351" rx="17.306" ry="17.305" style="fill:#324a5e;"/><path d="M100.31,93.905l0,11.811l9.615,2.472c1.099,5.219 3.159,10.025 5.906,14.283l-5.082,8.515l8.378,8.378l8.516,-5.082c4.258,2.884 9.065,4.807 14.284,5.906l2.473,9.613l11.812,0l2.472,-9.613c5.219,-1.099 10.027,-3.159 14.285,-5.906l8.515,5.082l8.379,-8.378l-5.22,-8.515c2.885,-4.258 4.808,-9.064 5.906,-14.283l9.615,-2.472l0,-11.811l-9.615,-2.473c-1.098,-5.218 -3.159,-10.025 -5.906,-14.283l5.082,-8.515l-8.378,-8.377l-8.378,5.218c-4.258,-2.884 -9.066,-4.806 -14.285,-5.905l-2.472,-9.614l-11.812,0l-2.473,9.614c-5.219,1.099 -10.026,3.159 -14.284,5.905l-8.516,-5.081l-8.378,8.378l5.082,8.515c-2.885,4.257 -4.807,9.064 -5.906,14.283l-9.615,2.335Zm49.996,-17.443c12.911,0 23.349,10.438 23.349,23.348c0,12.91 -10.438,23.348 -23.349,23.348c-12.911,0 -23.35,-10.438 -23.35,-23.348c0,-12.91 10.439,-23.348 23.35,-23.348Z" style="fill:#fff;fill-rule:nonzero;"/><ellipse cx="150.306" cy="91.432" rx="7.417" ry="7.416" style="fill:#324a5e;"/></g></svg>