<?xml version="1.0" encoding="UTF-8" standalone="no"?><!DOCTYPE svg PUBLIC "-//W3C//DTD SVG 1.1//EN" "http://www.w3.org/Graphics/SVG/1.1/DTD/svg11.dtd"><svg width="100%" height="100%" viewBox="0 0 300 300" version="1.1" xmlns="http://www.w3.org/2000/svg" xmlns:xlink="http://www.w3.org/1999/xlink" xml:space="preserve" style="fill-rule:evenodd;clip-rule:evenodd;stroke-linejoin:round;stroke-miterlimit:1.41421;"><g id="Layer2"><rect x="0.239" y="0.058" width="299.596" height="299.87" style="fill:#fabf40;fill-opacity:0.9;"/></g><g id="Layer1"><g><path d="M189.04,59.763l0,28.92l28.865,0l0,150.586l-136.612,0l0,-179.506l107.747,0Z" style="fill:#fff;fill-rule:nonzero;"/><path d="M189.04,59.763l28.865,28.92l-28.865,0l0,-28.92Z" style="fill:#e6e9ee;fill-rule:nonzero;"/><path d="M147.009,217.148l0,-8.633c-10.845,-1.079 -20.556,-5.395 -29.189,-12.895l8.633,-10.305c6.636,5.773 13.488,9.226 20.502,10.305l0,-22.985c-8.956,-2.158 -15.485,-4.963 -19.639,-8.416c-4.154,-3.453 -6.205,-8.633 -6.205,-15.485c0,-6.852 2.374,-12.41 7.176,-16.78c4.802,-4.37 11.007,-6.69 18.668,-7.122l0,-5.935l7.608,0l0,6.043c8.687,0.647 16.888,3.615 24.657,8.902l-7.662,10.845c-5.233,-3.723 -10.844,-5.989 -16.941,-6.852l0,22.283l0.378,0c9.064,2.158 15.754,5.018 20.017,8.633c4.262,3.615 6.42,8.902 6.42,15.808c0,6.906 -2.428,12.572 -7.338,16.888c-4.91,4.37 -11.384,6.744 -19.423,7.122l0,8.525l-7.662,0l0,0.054Zm-8.363,-76.507c-1.996,1.78 -3.021,3.992 -3.021,6.636c0,2.644 0.809,4.748 2.374,6.259c1.565,1.564 4.586,3.021 9.01,4.424l0,-20.503c-3.561,0.324 -6.366,1.403 -8.363,3.184Zm24.927,51.958c2.212,-1.835 3.291,-4.101 3.291,-6.853c0,-2.751 -0.863,-4.963 -2.589,-6.582c-1.727,-1.619 -4.964,-3.129 -9.712,-4.586l0,21.366c3.831,-0.432 6.798,-1.511 9.01,-3.345Z" style="fill:#f7981d;fill-rule:nonzero;"/><text x="96.202px" y="107.304px" style="font-family:'Arial-BoldMT', 'Arial', sans-serif;font-weight:700;font-size:17.817px;fill:#f7981d;">DEBIT NOTE</text></g></g></svg>