<?xml version="1.0" encoding="UTF-8" standalone="no"?><!DOCTYPE svg PUBLIC "-//W3C//DTD SVG 1.1//EN" "http://www.w3.org/Graphics/SVG/1.1/DTD/svg11.dtd"><svg width="100%" height="100%" viewBox="0 0 300 200" version="1.1" xmlns="http://www.w3.org/2000/svg" xmlns:xlink="http://www.w3.org/1999/xlink" xml:space="preserve" style="fill-rule:evenodd;clip-rule:evenodd;stroke-linejoin:round;stroke-miterlimit:1.41421;"><g id="Layer1"><rect x="-0.191" y="0.113" width="300.234" height="200.26" style="fill:#fabf40;"/><g><path d="M152.106,51.021c-1.486,-1.08 -3.513,-1.08 -4.864,0l-49.046,38.508l51.478,30.536l51.479,-30.536l-49.047,-38.508Z" style="fill:#fff;fill-rule:nonzero;"/><rect x="114.139" y="69.938" width="71.07" height="37.697" style="fill:#4cdbc4;"/><path d="M176.157,104.392l-52.965,0c0,-2.973 -2.432,-5.405 -5.405,-5.405l0,-20.402c2.973,0 5.405,-2.432 5.405,-5.405l53.1,0c0,2.973 2.432,5.405 5.405,5.405l0,20.402c-3.108,0 -5.54,2.432 -5.54,5.405Z" style="fill:#e6e9ee;fill-rule:nonzero;"/><ellipse cx="150.35" cy="88.718" rx="7.702" ry="10.539" style="fill:#2c9984;"/><ellipse cx="128.056" cy="88.718" rx="3.513" ry="4.594" style="fill:#2c9984;"/><ellipse cx="171.293" cy="88.718" rx="3.513" ry="4.594" style="fill:#2c9984;"/><path d="M149.674,120.065l51.479,30.671l0,-61.207l-51.479,30.536Z" style="fill:#ffd05b;fill-rule:nonzero;"/><path d="M98.196,89.529l0,61.207l51.478,-30.671l-51.478,-30.536Z" style="fill:#ffd05b;fill-rule:nonzero;"/><path d="M152.377,115.201c-1.622,-1.216 -3.784,-1.216 -5.405,0l-48.776,35.535l102.957,0l-48.776,-35.535Z" style="fill:#f9b54c;fill-rule:nonzero;"/></g></g></svg>