<?xml version="1.0" encoding="UTF-8" standalone="no"?>
<!DOCTYPE svg PUBLIC "-//W3C//DTD SVG 1.1//EN" "http://www.w3.org/Graphics/SVG/1.1/DTD/svg11.dtd">
<svg width="100%" height="100%" viewBox="0 0 137 136" version="1.1" xmlns="http://www.w3.org/2000/svg" xmlns:xlink="http://www.w3.org/1999/xlink" xml:space="preserve" style="fill-rule:evenodd;clip-rule:evenodd;stroke-linejoin:round;stroke-miterlimit:1.41421;">
    <circle cx="68.301" cy="67.849" r="63.333" style="fill:rgb(44,157,216);"/>
    <g transform="matrix(0.259323,0,0,0.265327,3.04441,-0.108915)">
        <path d="M327,86.1L327,139.7L380.5,139.7L380.5,418.9L127.3,418.9L127.3,86.1L327,86.1Z" style="fill:white;fill-rule:nonzero;"/>
        <path d="M327,86.1L380.5,139.7L327,139.7L327,86.1Z" style="fill:rgb(230,233,238);fill-rule:nonzero;"/>
        <rect x="270" y="109" width="24.8" height="27.9" style="fill:rgb(255,112,88);"/>
        <rect x="231.4" y="109" width="24.8" height="27.9" style="fill:rgb(50,74,94);"/>
        <rect x="192.8" y="109" width="24.8" height="27.9" style="fill:rgb(172,179,186);"/>
        <rect x="154.1" y="109" width="24.8" height="27.9" style="fill:rgb(132,219,255);"/>
        <rect x="150.3" y="369.3" width="207.2" height="16.3" style="fill:rgb(230,233,238);"/>
        <rect x="150.3" y="336" width="207.2" height="16.3" style="fill:rgb(230,233,238);"/>
        <rect x="150.3" y="302.7" width="207.2" height="16.3" style="fill:rgb(230,233,238);"/>
        <rect x="150.3" y="269.3" width="207.2" height="16.3" style="fill:rgb(230,233,238);"/>
        <rect x="150.3" y="236" width="207.2" height="16.3" style="fill:rgb(230,233,238);"/>
        <rect x="150.3" y="202.7" width="122.1" height="16.3" style="fill:rgb(230,233,238);"/>
    </g>
</svg>
