<?xml version="1.0" encoding="UTF-8" standalone="no"?>
<!DOCTYPE svg PUBLIC "-//W3C//DTD SVG 1.1//EN" "http://www.w3.org/Graphics/SVG/1.1/DTD/svg11.dtd">
<svg width="100%" height="100%" viewBox="0 0 137 136" version="1.1" xmlns="http://www.w3.org/2000/svg" xmlns:xlink="http://www.w3.org/1999/xlink" xml:space="preserve" style="fill-rule:evenodd;clip-rule:evenodd;stroke-linejoin:round;stroke-miterlimit:1.41421;">
    <g>
        <circle cx="68.416" cy="68.417" r="63.333" style="fill:rgb(110,64,149);"/>
        <g transform="matrix(0.254732,0,0,0.254732,3.702,3.73295)">
            <path d="M265.3,90.9L339.3,435.7L355.5,435.7L281.5,90.9L265.3,90.9Z" style="fill:rgb(230,233,238);fill-rule:nonzero;"/>
        </g>
        <g transform="matrix(0.254732,0,0,0.254732,3.702,3.73295)">
            <path d="M223.5,90.9L149.5,435.7L165.7,435.7L239.7,90.9L223.5,90.9Z" style="fill:rgb(230,233,238);fill-rule:nonzero;"/>
        </g>
        <g transform="matrix(0.254732,0,0,0.254732,3.702,3.73295)">
            <path d="M416.3,351.1L88.7,351.1C86.1,351.1 83.9,349 83.9,346.3L83.9,114.2C83.9,111.6 86,109.4 88.7,109.4L416.4,109.4C419,109.4 421.2,111.5 421.2,114.2L421.2,346.3C421.1,349 419,351.1 416.3,351.1Z" style="fill:white;fill-rule:nonzero;"/>
        </g>
        <g transform="matrix(0.254732,0,0,0.254732,3.702,3.73295)">
            <rect x="107.5" y="136.1" width="289.9" height="188.3" style="fill:rgb(76,219,196);"/>
        </g>
        <g transform="matrix(0.254732,0,0,0.254732,3.702,3.73295)">
            <rect x="238.1" y="177.5" width="17.4" height="105.5" style="fill:white;"/>
        </g>
        <g transform="matrix(0.254732,0,0,0.254732,3.702,3.73295)">
            <rect x="208.8" y="207.6" width="17.4" height="75.5" style="fill:white;"/>
        </g>
        <g transform="matrix(0.254732,0,0,0.254732,3.702,3.73295)">
            <rect x="179.6" y="229" width="17.4" height="54" style="fill:white;"/>
        </g>
        <g transform="matrix(0.254732,0,0,0.254732,3.702,3.73295)">
            <rect x="150.4" y="244.4" width="17.4" height="38.6" style="fill:white;"/>
        </g>
        <g transform="matrix(0.254732,0,0,0.254732,3.702,3.73295)">
            <path d="M317.1,284L317.1,274.5C305.3,273.3 294.6,268.6 285.2,260.4L294.7,249.1C302,255.4 309.4,259.2 317.1,260.4L317.1,235.3C307.3,233 300.2,229.9 295.7,226.1C291.2,222.3 288.9,216.7 288.9,209.2C288.9,201.7 291.5,195.6 296.7,190.9C301.9,186.2 308.7,183.6 317.1,183.1L317.1,176.6L325.4,176.6L325.4,183.2C334.9,183.9 343.9,187.1 352.3,192.9L343.9,204.8C338.2,200.7 332,198.2 325.4,197.3L325.4,221.6L325.8,221.6C335.7,223.9 343,227.1 347.7,231.1C352.4,235.1 354.7,240.8 354.7,248.4C354.7,256 352,262.1 346.7,266.9C341.3,271.7 334.3,274.2 325.5,274.7L325.5,284L317.1,284ZM307.9,200.4C305.7,202.3 304.6,204.8 304.6,207.7C304.6,210.6 305.5,212.9 307.2,214.6C308.9,216.3 312.2,217.9 317,219.5L317,197.1C313.2,197.3 310.1,198.4 307.9,200.4ZM335.2,257.2C337.6,255.2 338.8,252.7 338.8,249.7C338.8,246.7 337.9,244.3 336,242.5C334.1,240.7 330.6,239.1 325.4,237.5L325.4,260.8C329.5,260.4 332.8,259.1 335.2,257.2Z" style="fill:white;fill-rule:nonzero;"/>
        </g>
    </g>
</svg>
