<?xml version="1.0" encoding="UTF-8" standalone="no"?>
<!DOCTYPE svg PUBLIC "-//W3C//DTD SVG 1.1//EN" "http://www.w3.org/Graphics/SVG/1.1/DTD/svg11.dtd">
<svg width="100%" height="100%" viewBox="0 0 137 136" version="1.1" xmlns="http://www.w3.org/2000/svg" xmlns:xlink="http://www.w3.org/1999/xlink" xml:space="preserve" style="fill-rule:evenodd;clip-rule:evenodd;stroke-linejoin:round;stroke-miterlimit:1.41421;">
    <circle cx="68.301" cy="67.849" r="63.333" style="fill:rgb(44,157,216);"/>
    <g transform="matrix(0.27499,0,0,0.218,-1.23113,6.69435)">
        <rect x="108" y="127.3" width="19" height="13.7" style="fill:white;"/>
        <rect x="108" y="170.2" width="19" height="13.7" style="fill:white;"/>
        <rect x="108" y="213" width="19" height="13.7" style="fill:white;"/>
        <rect x="108" y="255.9" width="19" height="13.6" style="fill:white;"/>
        <rect x="108" y="298.8" width="19" height="13.7" style="fill:white;"/>
        <rect x="108" y="341.7" width="19" height="13.7" style="fill:white;"/>
        <path d="M97.1,407.9L97.1,97.1L113.9,97.1L113.9,391.1L407.9,391.1L407.9,407.9L97.1,407.9Z" style="fill:white;fill-rule:nonzero;"/>
        <rect x="154.4" y="177" width="41.6" height="188.1" style="fill:white;"/>
        <rect x="154.4" y="233.2" width="41.6" height="93.3" style="fill:rgb(44,153,132);"/>
        <rect x="220.8" y="226.7" width="41.6" height="138.4" style="fill:white;"/>
        <rect x="220.8" y="269.7" width="41.6" height="53.3" style="fill:rgb(50,74,94);"/>
        <rect x="287.2" y="143.9" width="41.6" height="221.1" style="fill:white;"/>
        <rect x="287.2" y="192.5" width="41.6" height="119.3" style="fill:rgb(255,208,91);"/>
        <rect x="353.6" y="112.1" width="41.6" height="253" style="fill:white;"/>
        <rect x="353.6" y="184.1" width="41.6" height="91.9" style="fill:rgb(255,112,88);"/>
    </g>
    <g transform="matrix(1,0,0,1,10.8246,83.0639)">
        <text x="42.626px" y="28.947px" style="font-family:'Arial-BoldMT', 'Arial', sans-serif;font-weight:700;font-size:17.033px;fill:white;">KPIs</text>
    </g>
</svg>
