<?xml version="1.0" encoding="UTF-8" standalone="no"?>
<!DOCTYPE svg PUBLIC "-//W3C//DTD SVG 1.1//EN" "http://www.w3.org/Graphics/SVG/1.1/DTD/svg11.dtd">
<svg width="100%" height="100%" viewBox="0 0 137 136" version="1.1" xmlns="http://www.w3.org/2000/svg" xmlns:xlink="http://www.w3.org/1999/xlink" xml:space="preserve" style="fill-rule:evenodd;clip-rule:evenodd;stroke-linejoin:round;stroke-miterlimit:1.41421;">
    <g>
        <circle cx="68.301" cy="67.849" r="63.333" style="fill:rgb(247,206,40);"/>
        <g transform="matrix(0.260697,0,0,0.260697,5.96989,5.29258)">
            <path d="M180.9,103.1L180.9,159.1L124.9,159.1L124.9,402.2L378.2,402.2L378.2,103.1L180.9,103.1Z" style="fill:rgb(172,179,186);fill-rule:nonzero;"/>
        </g>
        <g transform="matrix(0.260697,0,0,0.260697,5.96989,5.29258)">
            <path d="M160,379.1L160,323.1L104,323.1L104,80L357.3,80L357.3,379.1L160,379.1Z" style="fill:white;fill-rule:nonzero;"/>
        </g>
        <g transform="matrix(0.260697,0,0,0.260697,5.96989,5.29258)">
            <path d="M160,379.1L104,323.1L160,323.1L160,379.1Z" style="fill:rgb(206,213,224);fill-rule:nonzero;"/>
        </g>
        <g transform="matrix(0.260697,0,0,0.260697,5.96989,5.29258)">
            <rect x="141.2" y="198.2" width="178.8" height="10.7" style="fill:rgb(206,213,224);"/>
        </g>
        <g transform="matrix(0.260697,0,0,0.260697,5.96989,5.29258)">
            <rect x="141.2" y="226.5" width="178.8" height="10.7" style="fill:rgb(206,213,224);"/>
        </g>
        <g transform="matrix(0.260697,0,0,0.260697,5.96989,5.29258)">
            <rect x="141.2" y="254.9" width="178.8" height="10.7" style="fill:rgb(206,213,224);"/>
        </g>
        <g transform="matrix(0.260697,0,0,0.260697,5.96989,5.29258)">
            <rect x="141.2" y="283.3" width="106.6" height="10.7" style="fill:rgb(206,213,224);"/>
        </g>
        <g transform="matrix(0.260697,0,0,0.260697,5.96989,5.29258)">
            <path d="M164.9,131.2C164.9,136.2 162.9,139.4 159,140.9L166.9,152L158.4,152L151.5,142.1L146.7,142.1L146.7,152L139.8,152L139.8,120.9L151.6,120.9C156.4,120.9 159.9,121.7 161.9,123.3C163.8,124.9 164.9,127.6 164.9,131.2ZM156.5,134.9C157.4,134.1 157.8,132.9 157.8,131.2C157.8,129.5 157.4,128.4 156.5,127.8C155.6,127.2 154.1,126.9 151.8,126.9L146.6,126.9L146.6,136.1L151.7,136.1C154,136 155.7,135.6 156.5,134.9Z" style="fill:rgb(84,192,235);fill-rule:nonzero;"/>
        </g>
        <g transform="matrix(0.260697,0,0,0.260697,5.96989,5.29258)">
            <path d="M194.4,120.9L194.4,127.1L178.9,127.1L178.9,133.5L192.8,133.5L192.8,139.4L178.9,139.4L178.9,145.8L194.9,145.8L194.9,151.9L172,151.9L172,120.8L194.4,120.8L194.4,120.9Z" style="fill:rgb(84,192,235);fill-rule:nonzero;"/>
        </g>
        <g transform="matrix(0.260697,0,0,0.260697,5.96989,5.29258)">
            <path d="M222.5,123.6C224.7,125.5 225.8,128.3 225.8,132.1C225.8,135.9 224.7,138.7 222.4,140.5C220.2,142.3 216.7,143.2 212.1,143.2L208,143.2L208,151.9L201.1,151.9L201.1,120.8L212.1,120.8C216.8,120.9 220.3,121.8 222.5,123.6ZM217.4,135.9C218.2,135 218.6,133.6 218.6,131.8C218.6,130 218.1,128.7 217,128C215.9,127.2 214.2,126.9 212,126.9L208,126.9L208,137.4L212.7,137.4C215,137.3 216.6,136.8 217.4,135.9Z" style="fill:rgb(84,192,235);fill-rule:nonzero;"/>
        </g>
        <g transform="matrix(0.260697,0,0,0.260697,5.96989,5.29258)">
            <path d="M257.3,147.7C254.2,150.8 250.3,152.3 245.7,152.3C241.1,152.3 237.2,150.8 234.1,147.7C231,144.6 229.4,140.8 229.4,136.2C229.4,131.6 231,127.8 234.1,124.7C237.2,121.6 241.1,120.1 245.7,120.1C250.3,120.1 254.2,121.6 257.3,124.7C260.4,127.8 262,131.6 262,136.2C262,140.8 260.5,144.6 257.3,147.7ZM255,136.2C255,133.4 254.1,131.1 252.3,129.1C250.5,127.1 248.3,126.2 245.7,126.2C243.1,126.2 240.9,127.2 239.1,129.1C237.3,131.1 236.4,133.4 236.4,136.2C236.4,139 237.3,141.3 239.1,143.3C240.9,145.2 243.1,146.2 245.7,146.2C248.3,146.2 250.5,145.2 252.3,143.3C254.1,141.4 255,139 255,136.2Z" style="fill:rgb(84,192,235);fill-rule:nonzero;"/>
        </g>
        <g transform="matrix(0.260697,0,0,0.260697,5.96989,5.29258)">
            <path d="M293.1,131.2C293.1,136.2 291.1,139.4 287.2,140.9L295.1,152L286.6,152L279.7,142.1L274.9,142.1L274.9,152L268,152L268,120.9L279.8,120.9C284.6,120.9 288.1,121.7 290.1,123.3C292.1,124.9 293.1,127.6 293.1,131.2ZM284.8,134.9C285.7,134.1 286.1,132.9 286.1,131.2C286.1,129.5 285.7,128.4 284.8,127.8C283.9,127.2 282.4,126.9 280.1,126.9L274.9,126.9L274.9,136.1L280,136.1C282.3,136 283.9,135.6 284.8,134.9Z" style="fill:rgb(84,192,235);fill-rule:nonzero;"/>
        </g>
        <g transform="matrix(0.260697,0,0,0.260697,5.96989,5.29258)">
            <path d="M312.8,126.9L312.8,152L305.9,152L305.9,126.9L297.1,126.9L297.1,120.9L321.6,120.9L321.6,126.9L312.8,126.9Z" style="fill:rgb(84,192,235);fill-rule:nonzero;"/>
        </g>
    </g>
</svg>
