<?xml version="1.0" encoding="UTF-8" standalone="no"?>
<!DOCTYPE svg PUBLIC "-//W3C//DTD SVG 1.1//EN" "http://www.w3.org/Graphics/SVG/1.1/DTD/svg11.dtd">
<svg width="100%" height="100%" viewBox="0 0 137 136" version="1.1" xmlns="http://www.w3.org/2000/svg" xmlns:xlink="http://www.w3.org/1999/xlink" xml:space="preserve" style="fill-rule:evenodd;clip-rule:evenodd;stroke-linejoin:round;stroke-miterlimit:1.41421;">
    <g>
        <circle cx="68.457" cy="68.457" r="63.333" style="fill:rgb(52,78,93);"/>
        <g transform="matrix(-0.176721,-0.177831,0.176721,-0.177831,60.414,157.397)">
            <rect x="207.586" y="134.853" width="59.199" height="248.398" style="fill:rgb(230,233,238);"/>
        </g>
        <g transform="matrix(0.249924,0,0,0.251493,5,4)">
            <path d="M353.6,205.6C318.8,205.6 290.4,177.2 290.4,142.4C290.4,107.6 318.8,79.2 353.6,79.2C375.2,79.2 394,90 405.6,106.4L360.4,106.4L343.2,142.8L360.4,179.2L406,179.2C394.4,194.8 375.2,205.6 353.6,205.6Z" style="fill:white;fill-rule:nonzero;"/>
        </g>
        <g transform="matrix(0.249924,0,0,0.251493,5,4)">
            <path d="M119.2,302.4C154,302.4 182.4,330.8 182.4,365.6C182.4,400.4 154,428.8 119.2,428.8C97.6,428.8 78.8,418 67.2,401.6L112.8,401.6L130,365.2L112.8,328.8L67.2,328.8C78.4,313.2 97.6,302.4 119.2,302.4Z" style="fill:white;fill-rule:nonzero;"/>
        </g>
        <g transform="matrix(0.249924,0,0,0.251493,5,4)">
            <path d="M198.8,314.4C196.8,312.4 196.8,308.8 198.8,306.8L292,213.6C294,211.6 297.6,211.6 299.6,213.6C301.6,215.6 301.6,219.2 299.6,221.2L206.4,314.4C204,316.4 200.8,316.4 198.8,314.4Z" style="fill:rgb(206,213,224);fill-rule:nonzero;"/>
        </g>
        <g transform="matrix(0.249924,0,0,0.251493,5,4)">
            <path d="M181.6,297.6C179.6,295.6 179.6,292 181.6,290L274.8,196.8C276.8,194.8 280.4,194.8 282.4,196.8C284.4,198.8 284.4,202.4 282.4,204.4L189.2,297.6C187.2,299.6 183.6,299.6 181.6,297.6Z" style="fill:rgb(206,213,224);fill-rule:nonzero;"/>
        </g>
        <g transform="matrix(0.249924,0,0,0.251493,5,4)">
            <path d="M445.2,287.6L411.2,253.6C410.8,253.2 410,252.8 409.6,252.8L362,252.8C361.2,252.8 360.8,253.2 360.4,253.6L326.4,287.6C326,288 325.6,288.8 325.6,289.2L325.6,337.2C325.6,338 326,338.4 326.4,338.8L360.4,372.8C360.8,373.2 361.6,373.6 362,373.6L410,373.6C410.8,373.6 411.2,373.2 411.6,372.8L445.6,338.8C446,338.4 446.4,337.6 446.4,337.2L446.4,289.2C446,288.8 445.6,288 445.2,287.6Z" style="fill:white;fill-rule:nonzero;"/>
        </g>
        <g transform="matrix(0.249924,0,0,0.251493,5,4)">
            <circle cx="385.6" cy="313.2" r="31.6" style="fill:rgb(52,78,93);"/>
        </g>
        <g transform="matrix(0.249924,0,0,0.251493,5,4)">
            <path d="M196.4,161.2L162.4,127.2C162,126.8 161.2,126.4 160.8,126.4L112.8,126.4C112,126.4 111.6,126.8 111.2,127.2L77.2,161.2C76.8,161.6 76.4,162.4 76.4,162.8L76.4,210.8C76.4,211.6 76.8,212 77.2,212.4L111.2,246.4C111.6,246.8 112.4,247.2 112.8,247.2L160.8,247.2C161.6,247.2 162,246.8 162.4,246.4L196.4,212.4C196.8,212 197.2,211.2 197.2,210.8L197.2,162.8C197.2,162.4 196.8,161.6 196.4,161.2Z" style="fill:white;fill-rule:nonzero;"/>
        </g>
        <g transform="matrix(0.249924,0,0,0.251493,5,4)">
            <circle cx="136.8" cy="186.8" r="31.6" style="fill:rgb(52,78,93);"/>
        </g>
    </g>
</svg>
