<?xml version="1.0" encoding="UTF-8" standalone="no"?>
<!DOCTYPE svg PUBLIC "-//W3C//DTD SVG 1.1//EN" "http://www.w3.org/Graphics/SVG/1.1/DTD/svg11.dtd">
<svg width="100%" height="100%" viewBox="0 0 137 136" version="1.1" xmlns="http://www.w3.org/2000/svg" xmlns:xlink="http://www.w3.org/1999/xlink" xml:space="preserve" style="fill-rule:evenodd;clip-rule:evenodd;stroke-linejoin:round;stroke-miterlimit:1.41421;">
    <circle cx="68.301" cy="67.849" r="63.333" style="fill:rgb(44,157,216);"/>
    <g transform="matrix(0.257108,0,0,0.257108,2.97268,2.32293)">
        <path d="M375.6,432.4L132.4,432.4C122,432.4 114,424 114,414L114,94C114,83.6 122.4,75.6 132.4,75.6L375.2,75.6C385.6,75.6 393.6,84 393.6,94L393.6,414C394,424 385.6,432.4 375.6,432.4Z" style="fill:rgb(132,219,255);fill-rule:nonzero;"/>
        <path d="M130.8,107.6L130.8,388.8L331.6,388.8L331.6,343.2L377.2,343.2L377.2,107.6L130.8,107.6Z" style="fill:white;fill-rule:nonzero;"/>
        <path d="M331.6,388.8L377.2,343.2L331.6,343.2L331.6,388.8Z" style="fill:rgb(230,233,238);fill-rule:nonzero;"/>
        <rect x="189.6" y="75.6" width="128.8" height="32" style="fill:rgb(230,233,238);"/>
        <path d="M326.4,87.2L254.4,87.2L182,87.2C178,87.2 174.8,90.4 174.8,94.4L174.8,118.4C174.8,122.4 178,125.6 182,125.6L215.2,125.6C226.8,125.6 231.6,127.2 236.4,128.4C240.8,129.6 245.2,131.2 254,131.2C262.8,131.2 267.2,130 271.6,128.4C276.4,126.8 281.2,125.6 292.8,125.6L326,125.6C330,125.6 333.2,122.4 333.2,118.4L333.2,94.4C334,90.4 330.4,87.2 326.4,87.2ZM330,118.4C330,120.4 328.4,121.6 326.8,121.6L293.6,121.6C281.2,121.6 276,123.2 271.2,124.8C267.2,126 263.2,127.2 254.8,127.2C246.4,127.2 242.4,126 238.4,124.8C233.2,123.2 228,121.6 216,121.6L182,121.6C180,121.6 178.8,120 178.8,118.4L178.8,94.4C178.8,92.4 180.4,91.2 182,91.2L326.8,91.2C328.8,91.2 330,92.8 330,94.4L330,118.4Z" style="fill:rgb(50,74,94);fill-rule:nonzero;"/>
        <rect x="201.2" y="82.4" width="105.2" height="13.2" style="fill:white;"/>
        <path d="M320,208L261.2,208L261.2,179.6L199.6,179.6L199.6,187.6L253.2,187.6L253.2,254L195.6,254L195.6,338L203.6,338L203.6,294L320,294L320,208ZM312,286L203.6,286L203.6,261.6L261.2,261.6L261.2,215.6L312,215.6L312,286Z" style="fill:rgb(230,233,238);fill-rule:nonzero;"/>
        <circle cx="199.6" cy="183.2" r="14.4" style="fill:rgb(255,112,88);"/>
        <circle cx="257.6" cy="211.6" r="14.4" style="fill:rgb(255,112,88);"/>
        <circle cx="316" cy="252.8" r="14.4" style="fill:rgb(255,112,88);"/>
        <circle cx="257.6" cy="257.6" r="14.4" style="fill:rgb(255,112,88);"/>
        <circle cx="199.6" cy="290" r="14.4" style="fill:rgb(255,112,88);"/>
        <circle cx="199.6" cy="337.6" r="14.4" style="fill:rgb(255,112,88);"/>
    </g>
</svg>
