<?xml version="1.0" encoding="UTF-8" standalone="no"?>
<!DOCTYPE svg PUBLIC "-//W3C//DTD SVG 1.1//EN" "http://www.w3.org/Graphics/SVG/1.1/DTD/svg11.dtd">
<svg width="100%" height="100%" viewBox="0 0 137 136" version="1.1" xmlns="http://www.w3.org/2000/svg" xmlns:xlink="http://www.w3.org/1999/xlink" xml:space="preserve" style="fill-rule:evenodd;clip-rule:evenodd;stroke-linejoin:round;stroke-miterlimit:1.41421;">
    <g>
        <circle cx="68.417" cy="68.417" r="63.333" style="fill:rgb(218,31,38);"/>
        <path d="M117.659,47.202C117.659,41.205 112.797,36.343 106.799,36.343L33.947,36.343C27.95,36.343 23.088,41.205 23.088,47.202L23.088,92.377C23.088,98.373 27.95,103.236 33.947,103.236L106.799,103.236C112.797,103.236 117.659,98.373 117.659,92.377L117.659,47.202Z" style="fill:rgb(224,228,227);fill-rule:nonzero;"/>
        <g>
            <path d="M117.587,45.992C116.984,40.565 112.387,36.343 106.798,36.343L33.947,36.343C27.95,36.343 23.088,41.205 23.088,47.202L23.088,49.398L117.588,49.398L117.588,45.992L117.587,45.992Z" style="fill:rgb(209,211,211);fill-rule:nonzero;"/>
            <circle cx="31.753" cy="42.672" r="2.375" style="fill:rgb(232,72,73);"/>
            <circle cx="40.753" cy="42.672" r="2.375" style="fill:rgb(239,200,73);"/>
            <circle cx="49.753" cy="42.672" r="2.375" style="fill:rgb(55,179,76);"/>
        </g>
        <path d="M97.07,94.251L96.88,94.251C96.429,92.875 95.875,91.547 95.229,90.272L95.365,90.137C97.771,87.732 101.199,80.794 97.728,77.324L95.613,75.209C92.142,71.739 85.396,74.974 82.8,77.571L82.664,77.707C81.39,77.061 80.06,76.508 78.685,76.057L78.685,75.868C78.685,72.466 76.203,65.138 71.294,65.138L68.304,65.138C63.398,65.138 60.913,72.195 60.913,75.868L60.913,76.058C59.538,76.508 58.21,77.062 56.936,77.707L56.8,77.57C54.779,75.549 47.456,71.738 43.987,75.209L41.872,77.323C38.401,80.793 42.02,87.923 44.233,90.136L44.37,90.273C43.724,91.547 43.171,92.875 42.72,94.251L42.531,94.251C39.672,94.251 31.801,96.734 31.801,101.642L31.801,103.023C32.495,103.162 33.212,103.237 33.947,103.237L53.305,103.237C53.305,103.204 53.3,103.172 53.3,103.137C53.3,94.024 60.687,86.637 69.8,86.637C78.913,86.637 86.3,94.024 86.3,103.137C86.3,103.171 86.295,103.203 86.295,103.237L106.798,103.237C107.136,103.237 107.47,103.216 107.8,103.186L107.8,101.642C107.8,96.734 100.744,94.251 97.07,94.251Z" style="fill:rgb(255,153,0);fill-rule:nonzero;"/>
    </g>
</svg>
