<?xml version="1.0" encoding="UTF-8" standalone="no"?>
<!DOCTYPE svg PUBLIC "-//W3C//DTD SVG 1.1//EN" "http://www.w3.org/Graphics/SVG/1.1/DTD/svg11.dtd">
<svg width="100%" height="100%" viewBox="0 0 137 136" version="1.1" xmlns="http://www.w3.org/2000/svg" xmlns:xlink="http://www.w3.org/1999/xlink" xml:space="preserve" style="fill-rule:evenodd;clip-rule:evenodd;stroke-linejoin:round;stroke-miterlimit:1.41421;">
    <circle cx="68.301" cy="67.849" r="63.333" style="fill:rgb(44,157,216);"/>
    <g transform="matrix(0.244035,0,0,0.244035,6.78263,5.73657)">
        <path d="M438.4,237.2L438.4,270.8L408,279.6C404,302.8 395.2,325.2 380.8,344.8L396,372.4L372.4,396L344.8,380.8C324.8,395.2 302.8,404 279.6,408L270.8,438.4L237.2,438.4L228.4,408C205.2,404 183.2,395.2 163.2,380.8L135.6,396L112,372.4L127.2,344.8C113.2,324.8 104,302.8 100,279.6L69.6,270.8L69.6,237.2L100,228.4C104,205.2 112.8,183.2 127.2,163.2L112,135.6L135.6,112L163.2,127.2C183.2,113.2 205.2,104 228.4,100L237.2,69.6L270.8,69.6L279.6,100C302.8,104 325.2,112.8 344.8,127.2L372.4,112L396,135.6L380.8,163.2C395.2,183.2 404,205.2 408,228.4L438.4,237.2Z" style="fill:white;fill-rule:nonzero;"/>
        <circle cx="254" cy="254" r="99.2" style="fill:rgb(50,74,94);"/>
        <path d="M353.2,254C353.2,221.2 337.2,192 312.8,174C312.8,175.2 313.2,176.4 313.6,177.6C310.8,178.8 307.6,179.6 304.4,179.2C302.4,183.2 305.6,188.4 302.8,192C301.6,193.6 299.6,194 298.4,195.2C296,197.6 296.4,202.4 299.2,204.4C302,206.4 306.8,204.8 308,201.6C308.8,199.2 308,196.4 308.8,194C310.4,190 316.4,187.6 315.6,183.2C318,186 315.6,190.4 316.8,193.6C317.6,195.6 319.6,196.8 320.8,198.4C322,200 322.4,202.8 320.8,204C318.4,203.6 316.4,205.6 315.6,207.6C314.8,209.6 315.2,212 315.6,214.4C310,214.4 304.4,214 298.8,214C297.6,214 296,214 294.8,214.8C291.2,216.8 293.2,223.6 289.6,225.2C287.2,226 284,224.4 282.4,226C282,226.8 281.6,227.6 281.6,228.4C281.2,230.8 281.2,233.2 281.6,235.2C282.4,237.6 284,239.6 286,240C289.2,240.4 292,237.6 293.6,234.4C295.2,231.2 296.4,228 299.2,226.4C301.2,225.2 304,225.2 306.4,225.6C315.2,227.2 323.2,232.8 328,240.4C329.2,242.4 330.4,245.2 329.2,247.2C328,249.2 325.2,249.6 322.4,249.6C318,249.6 313.6,250 309.2,248.4C305.2,246.8 301.6,243.2 301.6,238.4C296.4,239.2 291.6,241.6 287.6,245.2C285.2,247.2 283.6,250 280.8,251.6C278.8,252.8 276.8,254 274.8,255.2C269.6,259.6 269.6,267.2 270,273.6C270,278.4 270.8,284.4 274.8,287.2C277.6,289.2 281.6,289.2 285.2,289.2C289.6,289.2 294,288.8 298.4,288.8C298.4,300.4 298.8,311.6 298.8,323.2C298.8,328.8 300,335.6 305.2,337.2C305.6,337.2 305.6,337.2 306,337.2C334.8,320 353.2,289.2 353.2,254Z" style="fill:rgb(132,219,255);fill-rule:nonzero;"/>
        <path d="M248,300C245.6,298.4 241.6,298.8 240,296C239.2,294.8 239.2,293.6 238.8,292.4C237.6,290 235.2,288.8 232.8,288C226,284.4 220.4,279.6 213.2,277.6C206,275.6 196.8,277.2 193.6,284C192.4,286.4 192.4,289.6 192.4,292.4C192.4,297.2 193.2,302 196.4,305.6C198.8,308.4 202.8,310.4 204,314C204.8,316 204.8,318.4 204.8,320.4C204.4,326.8 204.4,333.2 204,339.6C208.4,342 213.2,344.4 218,346.4C218.4,346.4 219.2,346 219.6,346C221.2,345.6 223.2,345.2 224.4,344C225.6,342.4 226,340.4 226.8,338.8C229.2,333.6 236.4,332 238.8,326.8C240.8,322 238.8,315.6 242.4,312C244,310.4 246.8,310 248.4,308.4C250.8,306 250.8,302 248,300Z" style="fill:rgb(132,219,255);fill-rule:nonzero;"/>
        <path d="M220.4,160.8C220.8,162 221.2,163.2 222,164.4C222.8,165.6 224.4,166.4 225.6,167.2C229.6,170 234,173.6 235.2,178.4C236,181.2 235.6,184 235.2,186.8C235.2,189.6 235.2,192.4 236.8,194.8C238.4,197.2 241.6,198.4 244,196.4C245.2,195.6 245.6,194 246.4,193.2C249.6,189.2 256.8,188.4 257.6,183.2C258,180.8 256.4,178 258,175.6C259.2,174 261.2,173.6 263.2,172.4C268.4,170 269.6,163.2 268.8,157.6C268.8,157.2 268.8,156.4 268.4,156C263.6,155.2 258.8,154.8 253.6,154.8C242.4,154.8 230.8,156.8 220.4,160.8Z" style="fill:rgb(132,219,255);fill-rule:nonzero;"/>
        <path d="M212.4,164C178.8,179.6 155.2,213.6 155.2,253.2C159.6,258 163.6,262.8 167.6,268C170.4,272 173.2,276.4 177.2,279.2C181.2,282 186.8,283.6 191.2,281.2C193.6,280 194,277.2 193.6,274.8C192.8,272.4 191.2,270.4 189.6,268.8C187.6,266.4 185.2,264 182.4,262.4C180.8,261.6 178.8,260.8 178,259.2C176.8,256.8 179.2,253.6 181.6,252.8C184.4,252 187.2,252.4 190,252.4C192.8,252.4 196,252 197.6,250C198.4,248.8 198.8,247.2 199.6,246C202.8,240 212,239.6 216,234C217.6,231.6 218,228.4 218.8,225.6C219.6,222.8 221.6,220 224.8,219.6C226.8,219.2 229.6,220.4 231.2,218.8C231.6,218 231.6,217.2 231.6,216.4C231.6,210.8 228.8,205.2 224,202C222.8,201.2 221.6,200.4 220.4,199.6C219.6,198.4 219.2,196.8 220.4,195.6C221.2,195.2 222,194.8 222.8,194.4C226,192.8 225.6,188.8 225.2,185.6C224.8,182 223.6,178 220.4,176.8C217.6,175.6 213.6,177.2 211.6,174.8C210,173.2 210.8,170.4 211.6,168.4C211.2,167.2 211.6,165.6 212.4,164Z" style="fill:rgb(132,219,255);fill-rule:nonzero;"/>
    </g>
</svg>
