<?xml version="1.0" encoding="UTF-8" standalone="no"?>
<!DOCTYPE svg PUBLIC "-//W3C//DTD SVG 1.1//EN" "http://www.w3.org/Graphics/SVG/1.1/DTD/svg11.dtd">
<svg width="100%" height="100%" viewBox="0 0 137 136" version="1.1" xmlns="http://www.w3.org/2000/svg" xmlns:xlink="http://www.w3.org/1999/xlink" xml:space="preserve" style="fill-rule:evenodd;clip-rule:evenodd;stroke-linejoin:round;stroke-miterlimit:1.41421;">
    <circle cx="68.417" cy="68.417" r="63.333" style="fill:rgb(172,195,55);"/>
    <g transform="matrix(0.246792,0,0,0.246771,5.48843,6.15026)">
        <circle cx="254" cy="308" r="50.4" style="fill:rgb(50,74,94);"/>
        <path d="M108.4,236.8L108.4,271.2L136.4,278.4C139.6,293.6 145.6,307.6 153.6,320L138.8,344.8L163.2,369.2L188,354.4C200.4,362.8 214.4,368.4 229.6,371.6L236.8,399.6L271.2,399.6L278.4,371.6C293.6,368.4 307.6,362.4 320,354.4L344.8,369.2L369.2,344.8L354,320C362.4,307.6 368,293.6 371.2,278.4L399.2,271.2L399.2,236.8L371.2,229.6C368,214.4 362,200.4 354,188L368.8,163.2L344.4,138.8L320,154C307.6,145.6 293.6,140 278.4,136.8L271.2,108.8L236.8,108.8L229.6,136.8C214.4,140 200.4,146 188,154L163.2,139.2L138.8,163.6L153.6,188.4C145.2,200.8 139.6,214.8 136.4,230L108.4,236.8ZM254,186C291.6,186 322,216.4 322,254C322,291.6 291.6,322 254,322C216.4,322 186,291.6 186,254C186,216.4 216.4,186 254,186Z" style="fill:white;fill-rule:nonzero;"/>
        <path d="M425.6,318.4C423.2,313.6 416.4,314 414.4,318.8C388.8,382.4 326.4,427.2 254,427.2C166.4,427.2 94,362 82.4,277.6L70,277.6C81.6,368.8 159.6,440 254,440C331.6,440 398.4,392 426,324C426.8,322 426.4,320 425.6,318.4Z" style="fill:rgb(230,233,238);fill-rule:nonzero;"/>
        <path d="M438,230.8C426.4,139.6 348.4,68.4 254,68.4C176.4,68.4 109.6,116.4 82,184.4C81.2,186 81.6,188 82.4,189.6C84.8,194.4 91.6,194 93.6,189.2C119.2,126 181.6,81.2 254,81.2C341.6,81.2 414,146.4 425.6,230.8L410.4,230.8L433.6,277.2L456.8,230.8L438,230.8Z" style="fill:rgb(230,233,238);fill-rule:nonzero;"/>
        <path d="M74.8,230.8L51.6,277.2L98,277.2L74.8,230.8Z" style="fill:rgb(230,233,238);fill-rule:nonzero;"/>
        <circle cx="254" cy="229.6" r="21.6" style="fill:rgb(50,74,94);"/>
    </g>
</svg>
