<?xml version="1.0" encoding="UTF-8" standalone="no"?><!DOCTYPE svg PUBLIC "-//W3C//DTD SVG 1.1//EN" "http://www.w3.org/Graphics/SVG/1.1/DTD/svg11.dtd"><svg width="100%" height="100%" viewBox="0 0 300 300" version="1.1" xmlns="http://www.w3.org/2000/svg" xmlns:xlink="http://www.w3.org/1999/xlink" xml:space="preserve" style="fill-rule:evenodd;clip-rule:evenodd;stroke-linejoin:round;stroke-miterlimit:1.41421;"><g id="Layer2"><rect x="0.239" y="0.058" width="299.596" height="300.45" style="fill:#1fbcd3;fill-opacity:0.9;"/></g><g id="Layer1"><g><path d="M257.326,165.524l-101.692,-101.692c-3.314,-3.312 -8.759,-3.312 -12.074,0l-6.287,6.288c-13.421,-11.342 -33.524,-10.725 -46.215,1.967c-12.689,12.689 -13.308,32.792 -1.965,46.212l-6.289,6.29c-3.313,3.313 -3.313,8.76 0,12.072l101.691,101.692c3.315,3.315 8.762,3.315 12.075,0l60.7,-60.701c3.369,-3.368 3.369,-8.759 0.056,-12.128l0,0Zm-158.125,-73.111c-3.369,-3.368 -3.369,-8.815 0,-12.185c3.368,-3.369 8.815,-3.369 12.184,0c3.37,3.37 3.37,8.817 0,12.185c-3.369,3.369 -8.816,3.369 -12.184,0Z" style="fill:#ff7058;fill-rule:nonzero;"/><path d="M81.894,103.584c-0.469,-1.877 -0.543,-4.006 -0.725,-5.88c-15.934,16.117 -26.122,20.036 -28.708,19.782c-1.299,-0.1 -2.219,-0.636 -2.872,-1.633c-1.391,-2.128 -1.564,-6.236 -0.464,-11.226c1.274,-5.816 8.653,-14.77 19.844,-20.003c3.24,-1.502 8.144,-3.289 13.93,-3.799c4.321,-0.359 9.132,-0.042 14.104,1.687c1.451,0.474 2.932,1.071 4.379,1.833c-0.067,0.043 -0.133,0.086 -0.144,0.141c-1.442,1.133 -2.896,1.748 -4.578,2.659c0.19,1.014 0.469,2.448 1.133,3.39c0.26,0.399 0.672,1.184 0.998,1.539c1.936,-1.03 3.692,-2.565 5.422,-3.982c0.819,-0.631 1.608,-1.385 2.059,-2.439c0.537,-1.205 0.395,-2.441 -0.345,-3.571c-0.346,-0.532 -0.772,-0.965 -1.111,-1.264l-0.197,-0.157l-0.263,-0.112c-1.35,-0.684 -2.765,-1.323 -4.136,-1.897c-4.51,-1.746 -9.207,-2.614 -14.019,-2.645c-6.353,-0.066 -12.852,1.386 -19.21,4.359c-11.379,5.309 -20.603,14.853 -22.416,23.252c-1.4,6.42 -1.025,11.488 1.093,14.8c1.435,2.193 3.627,3.511 6.389,3.744c6.481,0.552 18.252,-7.347 29.837,-18.578l0,0Z" style="fill:#fff;fill-rule:nonzero;"/></g><g><g opacity="0.8"><g><path d="M246.353,197.344c0,-19.881 -15.794,-37.96 -35.277,-37.96c-19.484,0 -35.277,18.075 -35.277,37.96l9.13,0c0,-14.742 11.699,-28.639 26.142,-28.639c14.44,0 26.142,13.897 26.142,28.639l9.14,0Z" style="fill:#f4e028;fill-rule:nonzero;"/><path d="M246.377,241.843c0,4.162 -3.449,7.541 -7.71,7.541l-55.241,0c-4.244,0 -7.702,-3.379 -7.702,-7.541l0,-44.631c0,-4.166 70.658,-4.166 70.658,0l0,44.631l-0.005,0Z" style="fill:#f4e028;fill-rule:nonzero;"/><path d="M219.217,215.291c0,-4.348 -3.532,-7.872 -7.872,-7.872c-4.348,0 -7.876,3.524 -7.876,7.872c0,3.321 2.054,6.149 4.952,7.309l0,7.263c0,1.541 1.251,2.791 2.791,2.791c1.541,0 2.791,-1.25 2.791,-2.791l0,-7.164c3.031,-1.093 5.214,-3.992 5.214,-7.408Z" style="fill:#dac425;fill-rule:nonzero;"/><path d="M203.171,215.291c0,-4.348 3.532,-7.872 7.876,-7.872c0,0 -5.487,3.657 -5.487,8.009c0,4.431 4.141,7.06 4.141,7.06l0,7.458c0,1.54 1.474,2.708 1.474,2.708c-1.536,0 -2.787,-1.25 -2.787,-2.791l0,-7.164c-3.039,-1.093 -5.217,-3.992 -5.217,-7.408Z" style="fill:#d0b82b;fill-rule:nonzero;"/></g><path d="M233.52,249.384l-9.839,0l0,-55.117l9.839,0.489l0,54.628Z" style="fill:#f8e349;fill-rule:nonzero;"/><path d="M223.681,162.022l0,10.447c4.058,2.576 7.458,6.307 9.839,10.663l0,-14.721c-2.916,-2.663 -6.241,-4.841 -9.839,-6.389Z" style="fill:#f8e349;fill-rule:nonzero;"/></g></g></g></svg>