<?xml version="1.0" encoding="UTF-8" standalone="no"?><!DOCTYPE svg PUBLIC "-//W3C//DTD SVG 1.1//EN" "http://www.w3.org/Graphics/SVG/1.1/DTD/svg11.dtd"><svg width="100%" height="100%" viewBox="0 0 300 300" version="1.1" xmlns="http://www.w3.org/2000/svg" xmlns:xlink="http://www.w3.org/1999/xlink" xml:space="preserve" style="fill-rule:evenodd;clip-rule:evenodd;stroke-linejoin:round;stroke-miterlimit:1.41421;"><g id="Layer2"><rect x="0.239" y="0.058" width="299.596" height="299.87" style="fill:#8c2da8;fill-opacity:0.9;"/></g><g id="Layer1"><g><path d="M257.326,165.524l-101.692,-101.692c-3.314,-3.312 -8.759,-3.312 -12.074,0l-6.287,6.288c-13.421,-11.342 -33.524,-10.725 -46.215,1.967c-12.689,12.689 -13.308,32.792 -1.965,46.212l-6.289,6.29c-3.313,3.313 -3.313,8.76 0,12.072l101.691,101.692c3.315,3.315 8.762,3.315 12.075,0l60.7,-60.701c3.369,-3.368 3.369,-8.759 0.056,-12.128l0,0Zm-158.125,-73.111c-3.369,-3.368 -3.369,-8.815 0,-12.185c3.368,-3.369 8.815,-3.369 12.184,0c3.37,3.37 3.37,8.817 0,12.185c-3.369,3.369 -8.816,3.369 -12.184,0Z" style="fill:#ff7058;fill-rule:nonzero;"/><path d="M81.894,103.584c-0.469,-1.877 -0.543,-4.006 -0.725,-5.88c-15.934,16.117 -26.122,20.036 -28.708,19.782c-1.299,-0.1 -2.219,-0.636 -2.872,-1.633c-1.391,-2.128 -1.564,-6.236 -0.464,-11.226c1.274,-5.816 8.653,-14.77 19.844,-20.003c3.24,-1.502 8.144,-3.289 13.93,-3.799c4.321,-0.359 9.132,-0.042 14.104,1.687c1.451,0.474 2.932,1.071 4.379,1.833c-0.067,0.043 -0.133,0.086 -0.144,0.141c-1.442,1.133 -2.896,1.748 -4.578,2.659c0.19,1.014 0.469,2.448 1.133,3.39c0.26,0.399 0.672,1.184 0.998,1.539c1.936,-1.03 3.692,-2.565 5.422,-3.982c0.819,-0.631 1.608,-1.385 2.059,-2.439c0.537,-1.205 0.395,-2.441 -0.345,-3.571c-0.346,-0.532 -0.772,-0.965 -1.111,-1.264l-0.197,-0.157l-0.263,-0.112c-1.35,-0.684 -2.765,-1.323 -4.136,-1.897c-4.51,-1.746 -9.207,-2.614 -14.019,-2.645c-6.353,-0.066 -12.852,1.386 -19.21,4.359c-11.379,5.309 -20.603,14.853 -22.416,23.252c-1.4,6.42 -1.025,11.488 1.093,14.8c1.435,2.193 3.627,3.511 6.389,3.744c6.481,0.552 18.252,-7.347 29.837,-18.578l0,0Z" style="fill:#fff;fill-rule:nonzero;"/></g><g><g opacity="0.8"><g><path d="M189.841,180.494l3.401,-3.902l-1.101,-5.069l5.101,1.795c6.777,-4.637 15.284,-6.395 23.047,-3.512c13.435,4.983 19.519,21.951 14.434,35.657l8.485,3.146c6.864,-18.487 -1.589,-40.745 -19.699,-47.469c-15.612,-5.792 -33.286,1.856 -42.269,15.908c0,0 -0.871,3.335 2.637,4.888c3.511,1.548 5.964,-1.442 5.964,-1.442Z" style="fill:#f4e028;fill-rule:nonzero;"/><path d="M246.696,241.707c0,4.128 -3.422,7.48 -7.648,7.48l-54.794,0c-4.21,0 -7.639,-3.352 -7.639,-7.48l0,-44.27c0,-4.132 70.085,-4.132 70.085,0l0,44.27l-0.004,0Z" style="fill:#f4e028;fill-rule:nonzero;"/><path d="M219.755,215.37c0,-4.313 -3.504,-7.808 -7.808,-7.808c-4.313,0 -7.813,3.495 -7.813,7.808c0,3.294 2.038,6.1 4.913,7.25l0,7.204c0,1.528 1.24,2.769 2.768,2.769c1.528,0 2.769,-1.241 2.769,-2.769l0,-7.106c3.006,-1.08 5.171,-3.959 5.171,-7.348Z" style="fill:#dac425;fill-rule:nonzero;"/><path d="M203.839,215.37c0,-4.313 3.503,-7.808 7.812,-7.808c0,0 -5.442,3.627 -5.442,7.944c0,4.395 4.107,7.003 4.107,7.003l0,7.397c0,1.528 1.462,2.687 1.462,2.687c-1.523,0 -2.764,-1.241 -2.764,-2.769l0,-7.106c-3.011,-1.08 -5.175,-3.959 -5.175,-7.348Z" style="fill:#d0b82b;fill-rule:nonzero;"/></g><path d="M233.946,249.191l-9.759,0l0,-54.674l9.759,0.489l0,54.185Z" style="fill:#f8e349;fill-rule:nonzero;"/><path d="M224.187,161.366l0,10.363c4.025,2.555 7.397,6.945 9.759,11.266l0,-15.509c-2.896,-2.637 -6.19,-4.584 -9.759,-6.12Z" style="fill:#f8e349;fill-rule:nonzero;"/></g></g></g></svg>