<?xml version="1.0" encoding="UTF-8" standalone="no"?><!DOCTYPE svg PUBLIC "-//W3C//DTD SVG 1.1//EN" "http://www.w3.org/Graphics/SVG/1.1/DTD/svg11.dtd"><svg width="100%" height="100%" viewBox="0 0 300 300" version="1.1" xmlns="http://www.w3.org/2000/svg" xmlns:xlink="http://www.w3.org/1999/xlink" xml:space="preserve" style="fill-rule:evenodd;clip-rule:evenodd;stroke-linejoin:round;stroke-miterlimit:1.41421;"><g id="Layer2"><rect x="0.239" y="0.058" width="299.596" height="299.87" style="fill:#afb339;fill-opacity:0.9;"/></g><g id="Layer1"><g><path d="M257.326,165.524l-101.692,-101.692c-3.314,-3.312 -8.759,-3.312 -12.074,0l-6.287,6.288c-13.421,-11.342 -33.524,-10.725 -46.215,1.967c-12.689,12.689 -13.308,32.792 -1.965,46.212l-6.289,6.29c-3.313,3.313 -3.313,8.76 0,12.072l101.691,101.692c3.315,3.315 8.762,3.315 12.075,0l60.7,-60.701c3.369,-3.368 3.369,-8.759 0.056,-12.128l0,0Zm-158.125,-73.111c-3.369,-3.368 -3.369,-8.815 0,-12.185c3.368,-3.369 8.815,-3.369 12.184,0c3.37,3.37 3.37,8.817 0,12.185c-3.369,3.369 -8.816,3.369 -12.184,0Z" style="fill:#ff7058;fill-rule:nonzero;"/><path d="M81.894,103.584c-0.469,-1.877 -0.543,-4.006 -0.725,-5.88c-15.934,16.117 -26.122,20.036 -28.708,19.782c-1.299,-0.1 -2.219,-0.636 -2.872,-1.633c-1.391,-2.128 -1.564,-6.236 -0.464,-11.226c1.274,-5.816 8.653,-14.77 19.844,-20.003c3.24,-1.502 8.144,-3.289 13.93,-3.799c4.321,-0.359 9.132,-0.042 14.104,1.687c1.451,0.474 2.932,1.071 4.379,1.833c-0.067,0.043 -0.133,0.086 -0.144,0.141c-1.442,1.133 -2.896,1.748 -4.578,2.659c0.19,1.014 0.469,2.448 1.133,3.39c0.26,0.399 0.672,1.184 0.998,1.539c1.936,-1.03 3.692,-2.565 5.422,-3.982c0.819,-0.631 1.608,-1.385 2.059,-2.439c0.537,-1.205 0.395,-2.441 -0.345,-3.571c-0.346,-0.532 -0.772,-0.965 -1.111,-1.264l-0.197,-0.157l-0.263,-0.112c-1.35,-0.684 -2.765,-1.323 -4.136,-1.897c-4.51,-1.746 -9.207,-2.614 -14.019,-2.645c-6.353,-0.066 -12.852,1.386 -19.21,4.359c-11.379,5.309 -20.603,14.853 -22.416,23.252c-1.4,6.42 -1.025,11.488 1.093,14.8c1.435,2.193 3.627,3.511 6.389,3.744c6.481,0.552 18.252,-7.347 29.837,-18.578l0,0Z" style="fill:#fff;fill-rule:nonzero;"/></g><g><g opacity="0.8"><circle cx="204.596" cy="210.444" r="36.489" style="fill:#acc337;"/><path d="M175.152,182.069c-15.616,15.62 -15.616,40.95 0,56.563c15.636,15.628 40.947,15.628 56.563,0.004c15.621,-15.617 15.621,-40.947 0,-56.567c-15.616,-15.621 -40.927,-15.621 -56.563,0Zm49.437,49.44c-11.673,11.674 -30.614,11.681 -42.303,0c-11.685,-11.685 -11.685,-30.629 0,-42.31c11.689,-11.685 30.63,-11.685 42.303,-0.004c11.689,11.685 11.685,30.633 0,42.314Z" style="fill:#ebedef;fill-rule:nonzero;"/><path d="M184.787,206.533c-0.736,1.632 -0.027,3.576 1.606,4.324c1.628,0.764 3.576,0.035 4.328,-1.585c0,0 0.028,-0.078 0.183,-0.367c1.134,-2.069 6.589,-10.867 18.122,-11.934c1.395,-0.136 2.498,-1.13 2.837,-2.416c0.089,-0.358 0.136,-0.748 0.089,-1.145c-0.171,-1.793 -1.765,-3.11 -3.553,-2.93c-16.996,1.741 -23.44,15.717 -23.612,16.053Z" style="fill:#f4f5f5;fill-opacity:0.694118;fill-rule:nonzero;"/></g></g></g></svg>