<?xml version="1.0" encoding="UTF-8" standalone="no"?><!DOCTYPE svg PUBLIC "-//W3C//DTD SVG 1.1//EN" "http://www.w3.org/Graphics/SVG/1.1/DTD/svg11.dtd"><svg width="100%" height="100%" viewBox="0 0 300 300" version="1.1" xmlns="http://www.w3.org/2000/svg" xmlns:xlink="http://www.w3.org/1999/xlink" xml:space="preserve" style="fill-rule:evenodd;clip-rule:evenodd;stroke-linejoin:round;stroke-miterlimit:1.41421;"><g id="Layer2"><rect x="0.239" y="0.058" width="299.596" height="300.425" style="fill:#50ae54;fill-opacity:0.9;"/></g><g id="Layer1"><g><path d="M255.279,162.045l-98.419,-98.419c-3.206,-3.207 -8.478,-3.207 -11.684,0l-6.087,6.086c-12.988,-10.977 -32.444,-10.38 -44.726,1.902c-12.282,12.282 -12.879,31.738 -1.902,44.726l-6.086,6.087c-3.207,3.207 -3.207,8.478 0,11.684l98.419,98.419c3.206,3.207 8.478,3.207 11.684,0l58.747,-58.747c3.261,-3.26 3.261,-8.478 0.054,-11.738Zm-153.036,-70.758c-3.26,-3.26 -3.26,-8.532 0,-11.793c3.261,-3.26 8.533,-3.26 11.793,0c3.261,3.261 3.261,8.533 0,11.793c-3.26,3.261 -8.532,3.261 -11.793,0Z" style="fill:#ff7058;fill-rule:nonzero;"/><path d="M211.487,215.126l-50.057,-129.873c-1.631,-4.231 -6.449,-6.368 -10.68,-4.738l-8.032,3.096c-7.422,-15.301 -25.448,-22.644 -41.656,-16.397c-16.207,6.246 -24.642,23.788 -19.874,40.112l-8.032,3.096c-4.231,1.631 -6.369,6.449 -4.738,10.681l50.056,129.873c1.631,4.231 6.45,6.368 10.681,4.737l77.522,-29.879c4.303,-1.658 6.418,-6.427 4.81,-10.708Zm-111.199,-126.734c-1.658,-4.303 0.48,-9.122 4.782,-10.78c4.303,-1.658 9.122,0.479 10.78,4.782c1.659,4.303 -0.479,9.121 -4.782,10.78c-4.303,1.658 -9.121,-0.479 -10.78,-4.782Z" style="fill:#ffd658;fill-rule:nonzero;"/><path d="M80.645,105.73c-0.453,-1.816 -0.611,-2.841 -0.787,-4.654c-15.42,15.597 -20.348,14.722 -22.85,14.477c-1.257,-0.097 -2.148,-0.616 -2.779,-1.581c-1.346,-2.058 -1.514,-6.035 -0.449,-10.865c1.232,-5.627 8.374,-14.294 19.204,-19.358c3.136,-1.455 7.883,-3.183 13.483,-3.677c4.181,-0.348 8.836,-0.041 13.65,1.632c1.403,0.46 2.837,1.037 4.237,1.774c-0.064,0.042 -0.128,0.084 -0.139,0.137c-1.396,1.097 -2.764,1.918 -4.391,2.799c0.183,0.982 0.415,2.144 1.057,3.056c0.252,0.386 0.524,0.85 0.841,1.194c1.874,-0.996 3.697,-2.188 5.372,-3.559c0.794,-0.612 1.557,-1.341 1.992,-2.36c0.522,-1.168 0.383,-2.363 -0.332,-3.456c-0.337,-0.515 -0.749,-0.934 -1.077,-1.225l-0.19,-0.15l-0.255,-0.109c-1.305,-0.662 -2.675,-1.281 -4.002,-1.836c-4.366,-1.69 -8.91,-2.529 -13.567,-2.559c-6.15,-0.064 -12.44,1.341 -18.593,4.218c-11.012,5.138 -19.939,14.375 -21.694,22.503c-1.355,6.213 -0.992,11.119 1.058,14.324c1.389,2.122 3.509,3.398 6.182,3.624c6.274,0.534 12.817,-3.48 24.029,-14.349Z" style="fill:#fff;fill-rule:nonzero;"/></g><g><g opacity="0.8"><path d="M166.061,218.273c11.417,11.418 22.831,22.831 34.249,34.253c3.441,3.441 9.168,3.347 12.585,-0.07c11.417,-11.413 22.847,-22.835 34.253,-34.253c8.112,-8.111 -4.523,-20.644 -12.643,-12.519c-11.414,11.417 -22.839,22.839 -34.261,34.257c4.189,-0.021 8.391,-0.045 12.593,-0.07c-11.418,-11.414 -22.839,-22.835 -34.257,-34.257c-8.108,-8.1 -20.644,4.526 -12.519,12.659l0,0Z" style="fill:#fff;fill-rule:nonzero;"/><g><path d="M206.576,244.365l0,-70.694" style="fill:#fff;fill-rule:nonzero;"/><path d="M215.473,244.426c0,-27.02 0,-43.668 0,-70.689c0,-11.492 -17.799,-11.594 -17.799,-0.131c0,27.029 0,43.668 0,70.693c0,11.496 17.799,11.595 17.799,0.127l0,0Z" style="fill:#fff;fill-rule:nonzero;"/></g></g></g></g></svg>