<?xml version="1.0" encoding="UTF-8" standalone="no"?><!DOCTYPE svg PUBLIC "-//W3C//DTD SVG 1.1//EN" "http://www.w3.org/Graphics/SVG/1.1/DTD/svg11.dtd"><svg width="100%" height="100%" viewBox="0 0 300 300" version="1.1" xmlns="http://www.w3.org/2000/svg" xmlns:xlink="http://www.w3.org/1999/xlink" xml:space="preserve" style="fill-rule:evenodd;clip-rule:evenodd;stroke-linejoin:round;stroke-miterlimit:1.41421;"><g id="Layer2"><rect x="0.239" y="0.058" width="299.596" height="299.87" style="fill:#8c2da8;fill-opacity:0.9;"/></g><g id="Layer1"><g><path d="M255.279,162.045l-98.419,-98.419c-3.206,-3.207 -8.478,-3.207 -11.684,0l-6.087,6.086c-12.988,-10.977 -32.444,-10.38 -44.726,1.902c-12.282,12.282 -12.879,31.738 -1.902,44.726l-6.086,6.087c-3.207,3.207 -3.207,8.478 0,11.684l98.419,98.419c3.206,3.207 8.478,3.207 11.684,0l58.747,-58.747c3.261,-3.26 3.261,-8.478 0.054,-11.738Zm-153.036,-70.758c-3.26,-3.26 -3.26,-8.532 0,-11.793c3.261,-3.26 8.533,-3.26 11.793,0c3.261,3.261 3.261,8.533 0,11.793c-3.26,3.261 -8.532,3.261 -11.793,0Z" style="fill:#ff7058;fill-rule:nonzero;"/><path d="M211.487,215.126l-50.057,-129.873c-1.631,-4.231 -6.449,-6.368 -10.68,-4.738l-8.032,3.096c-7.422,-15.301 -25.448,-22.644 -41.656,-16.397c-16.207,6.246 -24.642,23.788 -19.874,40.112l-8.032,3.096c-4.231,1.631 -6.369,6.449 -4.738,10.681l50.056,129.873c1.631,4.231 6.45,6.368 10.681,4.737l77.522,-29.879c4.303,-1.658 6.418,-6.427 4.81,-10.708Zm-111.199,-126.734c-1.658,-4.303 0.48,-9.122 4.782,-10.78c4.303,-1.658 9.122,0.479 10.78,4.782c1.659,4.303 -0.479,9.121 -4.782,10.78c-4.303,1.658 -9.121,-0.479 -10.78,-4.782Z" style="fill:#ffd658;fill-rule:nonzero;"/><path d="M80.645,105.73c-0.453,-1.816 -0.611,-2.841 -0.787,-4.654c-15.42,15.597 -20.348,14.722 -22.85,14.477c-1.257,-0.097 -2.148,-0.616 -2.779,-1.581c-1.346,-2.058 -1.514,-6.035 -0.449,-10.865c1.232,-5.627 8.374,-14.294 19.204,-19.358c3.136,-1.455 7.883,-3.183 13.483,-3.677c4.181,-0.348 8.836,-0.041 13.65,1.632c1.403,0.46 2.837,1.037 4.237,1.774c-0.064,0.042 -0.128,0.084 -0.139,0.137c-1.396,1.097 -2.764,1.918 -4.391,2.799c0.183,0.982 0.415,2.144 1.057,3.056c0.252,0.386 0.524,0.85 0.841,1.194c1.874,-0.996 3.697,-2.188 5.372,-3.559c0.794,-0.612 1.557,-1.341 1.992,-2.36c0.522,-1.168 0.383,-2.363 -0.332,-3.456c-0.337,-0.515 -0.749,-0.934 -1.077,-1.225l-0.19,-0.15l-0.255,-0.109c-1.305,-0.662 -2.675,-1.281 -4.002,-1.836c-4.366,-1.69 -8.91,-2.529 -13.567,-2.559c-6.15,-0.064 -12.44,1.341 -18.593,4.218c-11.012,5.138 -19.939,14.375 -21.694,22.503c-1.355,6.213 -0.992,11.119 1.058,14.324c1.389,2.122 3.509,3.398 6.182,3.624c6.274,0.534 12.817,-3.48 24.029,-14.349Z" style="fill:#fff;fill-rule:nonzero;"/></g><g><g opacity="0.8"><g><path d="M189.841,180.494l3.401,-3.902l-1.101,-5.069l5.101,1.795c6.777,-4.637 15.284,-6.395 23.047,-3.512c13.435,4.983 19.519,21.951 14.434,35.657l8.485,3.146c6.864,-18.487 -1.589,-40.745 -19.699,-47.469c-15.612,-5.792 -33.286,1.856 -42.269,15.908c0,0 -0.871,3.335 2.637,4.888c3.511,1.548 5.964,-1.442 5.964,-1.442Z" style="fill:#f4e028;fill-rule:nonzero;stroke:#ff2800;stroke-width:0.5px;"/><path d="M246.696,241.707c0,4.128 -3.422,7.48 -7.648,7.48l-54.794,0c-4.21,0 -7.639,-3.352 -7.639,-7.48l0,-44.27c0,-4.132 70.085,-4.132 70.085,0l0,44.27l-0.004,0Z" style="fill:#f4e028;fill-rule:nonzero;stroke:#ff2800;stroke-width:0.5px;"/><path d="M219.755,215.37c0,-4.313 -3.504,-7.808 -7.808,-7.808c-4.313,0 -7.813,3.495 -7.813,7.808c0,3.294 2.038,6.1 4.913,7.25l0,7.204c0,1.528 1.24,2.769 2.768,2.769c1.528,0 2.769,-1.241 2.769,-2.769l0,-7.106c3.006,-1.08 5.171,-3.959 5.171,-7.348Z" style="fill:#dac425;fill-rule:nonzero;stroke:#ff2800;stroke-width:0.5px;"/><path d="M203.839,215.37c0,-4.313 3.503,-7.808 7.812,-7.808c0,0 -5.442,3.627 -5.442,7.944c0,4.395 4.107,7.003 4.107,7.003l0,7.397c0,1.528 1.462,2.687 1.462,2.687c-1.523,0 -2.764,-1.241 -2.764,-2.769l0,-7.106c-3.011,-1.08 -5.175,-3.959 -5.175,-7.348Z" style="fill:#d0b82b;fill-rule:nonzero;stroke:#ff2800;stroke-width:0.5px;"/></g><path d="M233.946,249.191l-9.759,0l0,-54.674l9.759,0.489l0,54.185Z" style="fill:#f8e349;fill-rule:nonzero;stroke:#ff2800;stroke-width:0.5px;"/><path d="M224.187,161.366l0,10.363c4.025,2.555 7.397,6.945 9.759,11.266l0,-15.509c-2.896,-2.637 -6.19,-4.584 -9.759,-6.12Z" style="fill:#f8e349;fill-rule:nonzero;stroke:#ff2800;stroke-width:0.5px;"/></g></g></g></svg>