<?xml version="1.0" encoding="UTF-8" standalone="no"?><!DOCTYPE svg PUBLIC "-//W3C//DTD SVG 1.1//EN" "http://www.w3.org/Graphics/SVG/1.1/DTD/svg11.dtd"><svg width="100%" height="100%" viewBox="0 0 300 300" version="1.1" xmlns="http://www.w3.org/2000/svg" xmlns:xlink="http://www.w3.org/1999/xlink" xml:space="preserve" style="fill-rule:evenodd;clip-rule:evenodd;stroke-linejoin:round;stroke-miterlimit:1.41421;"><g id="Layer2"><rect x="0.239" y="0.058" width="299.596" height="299.532" style="fill:#4054b2;fill-opacity:0.9;"/></g><g id="Layer1"><g><path d="M211.005,238.087l-121.005,0c-1.235,0 -2.232,-0.997 -2.232,-2.232l0,-153.393c0,-1.234 0.997,-2.232 2.232,-2.232l121.052,0c1.235,0 2.232,0.998 2.232,2.232l0,153.393c-0.047,1.235 -1.045,2.232 -2.279,2.232Z" style="fill:#ff7058;fill-rule:nonzero;"/><path d="M100.115,89.301l0,124.804l83.203,0l0,-17.572l17.571,0l0,-107.232l-100.774,0Z" style="fill:#fff;fill-rule:nonzero;"/><path d="M160.38,75.196l0,-3.466c0,-5.462 -4.416,-9.878 -9.878,-9.878c-5.461,0 -9.878,4.416 -9.878,9.878l0,3.466l-17.428,0l0,20.231l54.661,0l0,-20.231l-17.477,0Z" style="fill:#ced5e0;fill-rule:nonzero;"/><circle cx="150.502" cy="71.777" r="4.939" style="fill:#324a5e;"/><path d="M167.646,125.251c0,10.448 -8.453,18.901 -18.901,18.901c-10.448,0 -18.901,-8.453 -18.901,-18.901c0,-10.448 8.453,-18.901 18.901,-18.901l0,18.901l18.901,0Z" style="fill:#4cdbc4;fill-rule:nonzero;"/><path d="M171.113,121.784l-18.901,0l0,-18.901c10.448,0.048 18.901,8.501 18.901,18.901Z" style="fill:#84dbff;fill-rule:nonzero;"/><path d="M183.318,214.105l17.571,-17.572l-17.571,0l0,17.572Z" style="fill:#e6e9ee;fill-rule:nonzero;"/><rect x="110.421" y="166.662" width="80.163" height="4.796" style="fill:#e6e9ee;"/><rect x="110.421" y="153.317" width="80.163" height="4.796" style="fill:#e6e9ee;"/><rect x="110.421" y="180.054" width="80.163" height="4.796" style="fill:#e6e9ee;"/></g></g></svg>