<?xml version="1.0" encoding="UTF-8" standalone="no"?><!DOCTYPE svg PUBLIC "-//W3C//DTD SVG 1.1//EN" "http://www.w3.org/Graphics/SVG/1.1/DTD/svg11.dtd"><svg width="100%" height="100%" viewBox="0 0 300 300" version="1.1" xmlns="http://www.w3.org/2000/svg" xmlns:xlink="http://www.w3.org/1999/xlink" xml:space="preserve" style="fill-rule:evenodd;clip-rule:evenodd;stroke-linejoin:round;stroke-miterlimit:1.41421;"><g id="Layer2"><rect x="0.239" y="0.058" width="299.596" height="299.532" style="fill:#1fbcd3;fill-opacity:0.9;"/></g><g id="Layer1"><g><path d="M236.333,194.915l-171.748,0c-1.382,0 -2.274,1.498 -1.605,2.724l2.72,5.177c2.14,4.087 6.286,6.585 10.834,6.585l147.85,0c4.547,0 8.694,-2.543 10.834,-6.585l2.72,-5.177c0.624,-1.226 -0.223,-2.724 -1.605,-2.724Z" style="fill:#324a5e;fill-rule:nonzero;"/><path d="M223.893,194.915l-145.709,0c-0.624,0 -1.159,-0.5 -1.159,-1.181l0,-103.218c0,-0.636 0.49,-1.181 1.159,-1.181l145.709,0c0.624,0 1.159,0.5 1.159,1.181l0,103.218c-0.044,0.636 -0.535,1.181 -1.159,1.181Z" style="fill:#2b3b4e;fill-rule:nonzero;"/><rect x="83.891" y="100.642" width="134.295" height="84.963" style="fill:#fff;"/><ellipse cx="151.038" cy="94.875" rx="2.541" ry="2.588" style="fill:#324a5e;"/><rect x="99.541" y="108.09" width="11.325" height="11.534" style="fill:#ffd05b;"/><rect x="117.643" y="108.09" width="26.841" height="3.905" style="fill:#e6e9ee;"/><rect x="117.643" y="115.719" width="14.758" height="3.905" style="fill:#e6e9ee;"/><rect x="157.593" y="108.09" width="11.325" height="11.534" style="fill:#54c0eb;"/><rect x="175.65" y="108.09" width="26.841" height="3.905" style="fill:#e6e9ee;"/><rect x="175.65" y="115.719" width="14.758" height="3.905" style="fill:#e6e9ee;"/><rect x="102.885" y="137.379" width="11.682" height="36.192" style="fill:#e6e9ee;"/><rect x="124.019" y="137.379" width="11.682" height="36.192" style="fill:#e6e9ee;"/><rect x="145.198" y="137.379" width="11.682" height="36.192" style="fill:#e6e9ee;"/><rect x="166.332" y="137.379" width="11.682" height="36.192" style="fill:#e6e9ee;"/><rect x="187.51" y="137.379" width="11.682" height="36.192" style="fill:#e6e9ee;"/><rect x="102.885" y="152.365" width="11.682" height="21.207" style="fill:#4cdbc4;"/><rect x="124.019" y="160.312" width="11.682" height="13.26" style="fill:#4cdbc4;"/><rect x="145.198" y="144.282" width="11.682" height="29.29" style="fill:#4cdbc4;"/><rect x="166.332" y="154.272" width="11.682" height="19.345" style="fill:#4cdbc4;"/><rect x="187.51" y="147.324" width="11.682" height="26.247" style="fill:#4cdbc4;"/><path d="M169.72,198.184l-38.523,0l-3.254,-3.269l45.032,0l-3.255,3.269Z" style="fill:#acb3ba;fill-rule:nonzero;"/></g></g></svg>