<?xml version="1.0" encoding="UTF-8" standalone="no"?><!DOCTYPE svg PUBLIC "-//W3C//DTD SVG 1.1//EN" "http://www.w3.org/Graphics/SVG/1.1/DTD/svg11.dtd"><svg width="100%" height="100%" viewBox="0 0 300 300" version="1.1" xmlns="http://www.w3.org/2000/svg" xmlns:xlink="http://www.w3.org/1999/xlink" xml:space="preserve" style="fill-rule:evenodd;clip-rule:evenodd;stroke-linejoin:round;stroke-miterlimit:1.41421;"><g id="Layer2"><rect x="0.239" y="0.058" width="299.596" height="300.822" style="fill:#4054b2;fill-opacity:0.9;"/></g><g id="Layer1"><rect x="76.166" y="84.289" width="9.825" height="5.616" style="fill:#fff;"/><rect x="76.166" y="101.875" width="9.825" height="5.616" style="fill:#fff;"/><rect x="76.166" y="119.421" width="9.825" height="5.616" style="fill:#fff;"/><rect x="76.166" y="137.007" width="9.825" height="5.575" style="fill:#fff;"/><rect x="76.166" y="154.593" width="9.825" height="5.616" style="fill:#fff;"/><rect x="76.166" y="172.179" width="9.825" height="5.616" style="fill:#fff;"/><path d="M70.53,199.317l0,-127.408l8.687,0l0,120.521l152.028,0l0,6.887l-160.715,0Z" style="fill:#fff;fill-rule:nonzero;"/><rect x="100.16" y="104.663" width="21.511" height="77.109" style="fill:#fff;"/><rect x="100.16" y="127.701" width="21.511" height="38.247" style="fill:#2c9984;"/><rect x="134.495" y="125.037" width="21.511" height="56.735" style="fill:#fff;"/><rect x="134.495" y="142.664" width="21.511" height="21.85" style="fill:#324a5e;"/><rect x="168.831" y="91.094" width="21.511" height="90.637" style="fill:#fff;"/><rect x="168.831" y="111.017" width="21.511" height="48.905" style="fill:#ffd05b;"/><rect x="203.167" y="78.058" width="21.511" height="103.714" style="fill:#fff;"/><rect x="203.167" y="107.573" width="21.511" height="37.673" style="fill:#ff7058;"/><g><g opacity="0.8"><path d="M234.457,162.902l-57.4,31.82l-2.939,2.748l28.312,26.954l2.024,-2.293l30.003,-59.229Z" style="fill:#f7d98b;fill-rule:nonzero;"/><path d="M234.632,162.569l-25.048,13.926l11.987,11.987l13.061,-25.913Z" style="fill:#f5f8f6;fill-rule:nonzero;"/><g><path d="M204.974,217.944l-8.54,0.492l-29.864,29.836c2.443,1.618 5.02,3.024 7.69,4.297l28.17,-28.145l2.544,-6.48Z" style="fill:#e84849;fill-rule:nonzero;"/><path d="M156.485,239.89l30.722,-30.693l0.378,-8.646l-8.313,0.715l-29.913,29.893c2.098,3.126 4.5,6.04 7.126,8.731Z" style="fill:#e84849;fill-rule:nonzero;"/><path d="M179.272,201.266l1.171,-7.861l-5.674,3.349l-28.763,28.739c1.024,1.947 2.13,3.841 3.353,5.662l29.913,-29.889Z" style="fill:#f06668;fill-rule:nonzero;"/><path d="M166.574,248.272l29.864,-29.836l-0.105,-9.138l-9.122,-0.101l-30.722,30.693c3.053,3.126 6.43,5.947 10.085,8.382Z" style="fill:#f06668;fill-rule:nonzero;"/></g></g></g></g></svg>