<?xml version="1.0" encoding="UTF-8" standalone="no"?><!DOCTYPE svg PUBLIC "-//W3C//DTD SVG 1.1//EN" "http://www.w3.org/Graphics/SVG/1.1/DTD/svg11.dtd"><svg width="100%" height="100%" viewBox="0 0 300 300" version="1.1" xmlns="http://www.w3.org/2000/svg" xmlns:xlink="http://www.w3.org/1999/xlink" xml:space="preserve" style="fill-rule:evenodd;clip-rule:evenodd;stroke-linejoin:round;stroke-miterlimit:1.41421;"><g id="Layer2"><rect x="0.239" y="0.058" width="299.596" height="300.45" style="fill:#1fbcd3;fill-opacity:0.9;"/></g><g id="Layer1"><rect x="76.166" y="84.289" width="9.825" height="5.616" style="fill:#fff;"/><rect x="76.166" y="101.875" width="9.825" height="5.616" style="fill:#fff;"/><rect x="76.166" y="119.421" width="9.825" height="5.616" style="fill:#fff;"/><rect x="76.166" y="137.007" width="9.825" height="5.575" style="fill:#fff;"/><rect x="76.166" y="154.593" width="9.825" height="5.616" style="fill:#fff;"/><rect x="76.166" y="172.179" width="9.825" height="5.616" style="fill:#fff;"/><path d="M70.53,199.317l0,-127.408l8.687,0l0,120.521l152.028,0l0,6.887l-160.715,0Z" style="fill:#fff;fill-rule:nonzero;"/><rect x="100.16" y="104.663" width="21.511" height="77.109" style="fill:#fff;"/><rect x="100.16" y="127.701" width="21.511" height="38.247" style="fill:#2c9984;"/><rect x="134.495" y="125.037" width="21.511" height="56.735" style="fill:#fff;"/><rect x="134.495" y="142.664" width="21.511" height="21.85" style="fill:#324a5e;"/><rect x="168.831" y="91.094" width="21.511" height="90.637" style="fill:#fff;"/><rect x="168.831" y="111.017" width="21.511" height="48.905" style="fill:#ffd05b;"/><rect x="203.167" y="78.058" width="21.511" height="103.714" style="fill:#fff;"/><rect x="203.167" y="107.573" width="21.511" height="37.673" style="fill:#ff7058;"/><g><g opacity="0.8"><g><path d="M246.353,197.344c0,-19.881 -15.794,-37.96 -35.277,-37.96c-19.484,0 -35.277,18.075 -35.277,37.96l9.13,0c0,-14.742 11.699,-28.639 26.142,-28.639c14.44,0 26.142,13.897 26.142,28.639l9.14,0Z" style="fill:#f4e028;fill-rule:nonzero;"/><path d="M246.377,241.843c0,4.162 -3.449,7.541 -7.71,7.541l-55.241,0c-4.244,0 -7.702,-3.379 -7.702,-7.541l0,-44.631c0,-4.166 70.658,-4.166 70.658,0l0,44.631l-0.005,0Z" style="fill:#f4e028;fill-rule:nonzero;"/><path d="M219.217,215.291c0,-4.348 -3.532,-7.872 -7.872,-7.872c-4.348,0 -7.876,3.524 -7.876,7.872c0,3.321 2.054,6.149 4.952,7.309l0,7.263c0,1.541 1.251,2.791 2.791,2.791c1.541,0 2.791,-1.25 2.791,-2.791l0,-7.164c3.031,-1.093 5.214,-3.992 5.214,-7.408Z" style="fill:#dac425;fill-rule:nonzero;"/><path d="M203.171,215.291c0,-4.348 3.532,-7.872 7.876,-7.872c0,0 -5.487,3.657 -5.487,8.009c0,4.431 4.141,7.06 4.141,7.06l0,7.458c0,1.54 1.474,2.708 1.474,2.708c-1.536,0 -2.787,-1.25 -2.787,-2.791l0,-7.164c-3.039,-1.093 -5.217,-3.992 -5.217,-7.408Z" style="fill:#d0b82b;fill-rule:nonzero;"/></g><path d="M233.52,249.384l-9.839,0l0,-55.117l9.839,0.489l0,54.628Z" style="fill:#f8e349;fill-rule:nonzero;"/><path d="M223.681,162.022l0,10.447c4.058,2.576 7.458,6.307 9.839,10.663l0,-14.721c-2.916,-2.663 -6.241,-4.841 -9.839,-6.389Z" style="fill:#f8e349;fill-rule:nonzero;"/></g></g></g></svg>