<?xml version="1.0" encoding="UTF-8" standalone="no"?><!DOCTYPE svg PUBLIC "-//W3C//DTD SVG 1.1//EN" "http://www.w3.org/Graphics/SVG/1.1/DTD/svg11.dtd"><svg width="100%" height="100%" viewBox="0 0 300 300" version="1.1" xmlns="http://www.w3.org/2000/svg" xmlns:xlink="http://www.w3.org/1999/xlink" xml:space="preserve" style="fill-rule:evenodd;clip-rule:evenodd;stroke-linejoin:round;stroke-miterlimit:1.41421;"><g id="Layer2"><rect x="0.239" y="0.058" width="299.596" height="299.87" style="fill:#8c2da8;fill-opacity:0.9;"/></g><g id="Layer1"><rect x="76.166" y="84.289" width="9.825" height="5.616" style="fill:#fff;"/><rect x="76.166" y="101.875" width="9.825" height="5.616" style="fill:#fff;"/><rect x="76.166" y="119.421" width="9.825" height="5.616" style="fill:#fff;"/><rect x="76.166" y="137.007" width="9.825" height="5.575" style="fill:#fff;"/><rect x="76.166" y="154.593" width="9.825" height="5.616" style="fill:#fff;"/><rect x="76.166" y="172.179" width="9.825" height="5.616" style="fill:#fff;"/><path d="M70.53,199.317l0,-127.408l8.687,0l0,120.521l152.028,0l0,6.887l-160.715,0Z" style="fill:#fff;fill-rule:nonzero;"/><rect x="100.16" y="104.663" width="21.511" height="77.109" style="fill:#fff;"/><rect x="100.16" y="127.701" width="21.511" height="38.247" style="fill:#2c9984;"/><rect x="134.495" y="125.037" width="21.511" height="56.735" style="fill:#fff;"/><rect x="134.495" y="142.664" width="21.511" height="21.85" style="fill:#324a5e;"/><rect x="168.831" y="91.094" width="21.511" height="90.637" style="fill:#fff;"/><rect x="168.831" y="111.017" width="21.511" height="48.905" style="fill:#ffd05b;"/><rect x="203.167" y="78.058" width="21.511" height="103.714" style="fill:#fff;"/><rect x="203.167" y="107.573" width="21.511" height="37.673" style="fill:#ff7058;"/><g><g opacity="0.8"><g><path d="M189.841,180.494l3.401,-3.902l-1.101,-5.069l5.101,1.795c6.777,-4.637 15.284,-6.395 23.047,-3.512c13.435,4.983 19.519,21.951 14.434,35.657l8.485,3.146c6.864,-18.487 -1.589,-40.745 -19.699,-47.469c-15.612,-5.792 -33.286,1.856 -42.269,15.908c0,0 -0.871,3.335 2.637,4.888c3.511,1.548 5.964,-1.442 5.964,-1.442Z" style="fill:#f4e028;fill-rule:nonzero;"/><path d="M246.696,241.707c0,4.128 -3.422,7.48 -7.648,7.48l-54.794,0c-4.21,0 -7.639,-3.352 -7.639,-7.48l0,-44.27c0,-4.132 70.085,-4.132 70.085,0l0,44.27l-0.004,0Z" style="fill:#f4e028;fill-rule:nonzero;"/><path d="M219.755,215.37c0,-4.313 -3.504,-7.808 -7.808,-7.808c-4.313,0 -7.813,3.495 -7.813,7.808c0,3.294 2.038,6.1 4.913,7.25l0,7.204c0,1.528 1.24,2.769 2.768,2.769c1.528,0 2.769,-1.241 2.769,-2.769l0,-7.106c3.006,-1.08 5.171,-3.959 5.171,-7.348Z" style="fill:#dac425;fill-rule:nonzero;"/><path d="M203.839,215.37c0,-4.313 3.503,-7.808 7.812,-7.808c0,0 -5.442,3.627 -5.442,7.944c0,4.395 4.107,7.003 4.107,7.003l0,7.397c0,1.528 1.462,2.687 1.462,2.687c-1.523,0 -2.764,-1.241 -2.764,-2.769l0,-7.106c-3.011,-1.08 -5.175,-3.959 -5.175,-7.348Z" style="fill:#d0b82b;fill-rule:nonzero;"/></g><path d="M233.946,249.191l-9.759,0l0,-54.674l9.759,0.489l0,54.185Z" style="fill:#f8e349;fill-rule:nonzero;"/><path d="M224.187,161.366l0,10.363c4.025,2.555 7.397,6.945 9.759,11.266l0,-15.509c-2.896,-2.637 -6.19,-4.584 -9.759,-6.12Z" style="fill:#f8e349;fill-rule:nonzero;"/></g></g></g></svg>