<?xml version="1.0" encoding="UTF-8" standalone="no"?><!DOCTYPE svg PUBLIC "-//W3C//DTD SVG 1.1//EN" "http://www.w3.org/Graphics/SVG/1.1/DTD/svg11.dtd"><svg width="100%" height="100%" viewBox="0 0 300 300" version="1.1" xmlns="http://www.w3.org/2000/svg" xmlns:xlink="http://www.w3.org/1999/xlink" xml:space="preserve" style="fill-rule:evenodd;clip-rule:evenodd;stroke-linejoin:round;stroke-miterlimit:1.41421;"><g id="Layer2"><rect x="0.239" y="0.058" width="299.596" height="299.87" style="fill:#afb339;fill-opacity:0.9;"/></g><g id="Layer1"><rect x="76.166" y="84.289" width="9.825" height="5.616" style="fill:#fff;"/><rect x="76.166" y="101.875" width="9.825" height="5.616" style="fill:#fff;"/><rect x="76.166" y="119.421" width="9.825" height="5.616" style="fill:#fff;"/><rect x="76.166" y="137.007" width="9.825" height="5.575" style="fill:#fff;"/><rect x="76.166" y="154.593" width="9.825" height="5.616" style="fill:#fff;"/><rect x="76.166" y="172.179" width="9.825" height="5.616" style="fill:#fff;"/><path d="M70.53,199.317l0,-127.408l8.687,0l0,120.521l152.028,0l0,6.887l-160.715,0Z" style="fill:#fff;fill-rule:nonzero;"/><rect x="100.16" y="104.663" width="21.511" height="77.109" style="fill:#fff;"/><rect x="100.16" y="127.701" width="21.511" height="38.247" style="fill:#2c9984;"/><rect x="134.495" y="125.037" width="21.511" height="56.735" style="fill:#fff;"/><rect x="134.495" y="142.664" width="21.511" height="21.85" style="fill:#324a5e;"/><rect x="168.831" y="91.094" width="21.511" height="90.637" style="fill:#fff;"/><rect x="168.831" y="111.017" width="21.511" height="48.905" style="fill:#ffd05b;"/><rect x="203.167" y="78.058" width="21.511" height="103.714" style="fill:#fff;"/><rect x="203.167" y="107.573" width="21.511" height="37.673" style="fill:#ff7058;"/><g><g opacity="0.8"><circle cx="204.596" cy="210.444" r="36.489" style="fill:#acc337;"/><path d="M175.152,182.069c-15.616,15.62 -15.616,40.95 0,56.563c15.636,15.628 40.947,15.628 56.563,0.004c15.621,-15.617 15.621,-40.947 0,-56.567c-15.616,-15.621 -40.927,-15.621 -56.563,0Zm49.437,49.44c-11.673,11.674 -30.614,11.681 -42.303,0c-11.685,-11.685 -11.685,-30.629 0,-42.31c11.689,-11.685 30.63,-11.685 42.303,-0.004c11.689,11.685 11.685,30.633 0,42.314Z" style="fill:#ebedef;fill-rule:nonzero;"/><path d="M184.787,206.533c-0.736,1.632 -0.027,3.576 1.606,4.324c1.628,0.764 3.576,0.035 4.328,-1.585c0,0 0.028,-0.078 0.183,-0.367c1.134,-2.069 6.589,-10.867 18.122,-11.934c1.395,-0.136 2.498,-1.13 2.837,-2.416c0.089,-0.358 0.136,-0.748 0.089,-1.145c-0.171,-1.793 -1.765,-3.11 -3.553,-2.93c-16.996,1.741 -23.44,15.717 -23.612,16.053Z" style="fill:#f4f5f5;fill-opacity:0.694118;fill-rule:nonzero;"/></g></g></g></svg>