<?xml version="1.0" encoding="UTF-8" standalone="no"?><!DOCTYPE svg PUBLIC "-//W3C//DTD SVG 1.1//EN" "http://www.w3.org/Graphics/SVG/1.1/DTD/svg11.dtd"><svg width="100%" height="100%" viewBox="0 0 300 300" version="1.1" xmlns="http://www.w3.org/2000/svg" xmlns:xlink="http://www.w3.org/1999/xlink" xml:space="preserve" style="fill-rule:evenodd;clip-rule:evenodd;stroke-linejoin:round;stroke-miterlimit:1.41421;"><g id="Layer2"><rect x="0.239" y="0.058" width="299.596" height="299.87" style="fill:#f98b25;fill-opacity:0.9;"/></g><g id="Layer1"><rect x="76.166" y="84.289" width="9.825" height="5.616" style="fill:#fff;"/><rect x="76.166" y="101.875" width="9.825" height="5.616" style="fill:#fff;"/><rect x="76.166" y="119.421" width="9.825" height="5.616" style="fill:#fff;"/><rect x="76.166" y="137.007" width="9.825" height="5.575" style="fill:#fff;"/><rect x="76.166" y="154.593" width="9.825" height="5.616" style="fill:#fff;"/><rect x="76.166" y="172.179" width="9.825" height="5.616" style="fill:#fff;"/><path d="M70.53,199.317l0,-127.408l8.687,0l0,120.521l152.028,0l0,6.887l-160.715,0Z" style="fill:#fff;fill-rule:nonzero;"/><rect x="100.16" y="104.663" width="21.511" height="77.109" style="fill:#fff;"/><rect x="100.16" y="127.701" width="21.511" height="38.247" style="fill:#2c9984;"/><rect x="134.495" y="125.037" width="21.511" height="56.735" style="fill:#fff;"/><rect x="134.495" y="142.664" width="21.511" height="21.85" style="fill:#324a5e;"/><rect x="168.831" y="91.094" width="21.511" height="90.637" style="fill:#fff;"/><rect x="168.831" y="111.017" width="21.511" height="48.905" style="fill:#ffd05b;"/><rect x="203.167" y="78.058" width="21.511" height="103.714" style="fill:#fff;"/><rect x="203.167" y="107.573" width="21.511" height="37.673" style="fill:#ff7058;"/><g><g opacity="0.8"><path d="M236.256,178.985c4.141,4.14 4.141,10.851 -0.004,14.996l-48.794,48.794c-4.136,4.136 -10.852,4.14 -14.992,0c-4.141,-4.14 -4.136,-10.851 0,-14.992l48.794,-48.794c4.145,-4.145 10.856,-4.145 14.996,-0.004Z" style="fill:#fff;fill-rule:nonzero;stroke:#ffa100;stroke-width:0.5px;"/><path d="M236.256,242.775c-4.136,4.14 -10.847,4.14 -14.992,-0.004l-48.798,-48.795c-4.136,-4.136 -4.141,-10.851 0,-14.991c4.14,-4.141 10.856,-4.136 14.992,0l48.794,48.794c4.145,4.145 4.145,10.856 0.004,14.996Z" style="fill:#fff;fill-rule:nonzero;stroke:#ffa100;stroke-width:0.5px;"/></g></g></g></svg>