<?xml version="1.0" encoding="UTF-8" standalone="no"?><!DOCTYPE svg PUBLIC "-//W3C//DTD SVG 1.1//EN" "http://www.w3.org/Graphics/SVG/1.1/DTD/svg11.dtd"><svg width="100%" height="100%" viewBox="0 0 300 300" version="1.1" xmlns="http://www.w3.org/2000/svg" xmlns:xlink="http://www.w3.org/1999/xlink" xml:space="preserve" style="fill-rule:evenodd;clip-rule:evenodd;stroke-linejoin:round;stroke-miterlimit:1.41421;"><g id="Layer2"><rect x="0.239" y="0.058" width="299.596" height="299.87" style="fill:#fabf40;fill-opacity:0.9;"/></g><g id="Layer1"><rect x="76.166" y="84.289" width="9.825" height="5.616" style="fill:#fff;"/><rect x="76.166" y="101.875" width="9.825" height="5.616" style="fill:#fff;"/><rect x="76.166" y="119.421" width="9.825" height="5.616" style="fill:#fff;"/><rect x="76.166" y="137.007" width="9.825" height="5.575" style="fill:#fff;"/><rect x="76.166" y="154.593" width="9.825" height="5.616" style="fill:#fff;"/><rect x="76.166" y="172.179" width="9.825" height="5.616" style="fill:#fff;"/><path d="M70.53,199.317l0,-127.408l8.687,0l0,120.521l152.028,0l0,6.887l-160.715,0Z" style="fill:#fff;fill-rule:nonzero;"/><rect x="100.16" y="104.663" width="21.511" height="77.109" style="fill:#fff;"/><rect x="100.16" y="127.701" width="21.511" height="38.247" style="fill:#2c9984;"/><rect x="134.495" y="125.037" width="21.511" height="56.735" style="fill:#fff;"/><rect x="134.495" y="142.664" width="21.511" height="21.85" style="fill:#324a5e;"/><rect x="168.831" y="91.094" width="21.511" height="90.637" style="fill:#fff;"/><rect x="168.831" y="111.017" width="21.511" height="48.905" style="fill:#ffd05b;"/><rect x="203.167" y="78.058" width="21.511" height="103.714" style="fill:#fff;"/><rect x="203.167" y="107.573" width="21.511" height="37.673" style="fill:#ff7058;"/><g><g opacity="0.8"><circle cx="211.705" cy="217.63" r="40" style="fill:#fff;stroke:#00daff;stroke-width:0.5px;"/><rect x="210.199" y="183.006" width="2.796" height="5.806" style="fill:#e6e9ee;"/><rect x="210.199" y="246.447" width="2.796" height="5.806" style="fill:#e6e9ee;"/><rect x="240.522" y="216.339" width="5.806" height="2.796" style="fill:#e6e9ee;"/><rect x="176.866" y="216.339" width="5.806" height="2.796" style="fill:#e6e9ee;"/><path d="M237.22,194.178l-1.977,-1.977l-4.106,4.106l1.977,1.977l4.106,-4.106Z" style="fill:#e6e9ee;"/><path d="M192.218,239.076l-1.977,-1.977l-4.105,4.106l1.976,1.977l4.106,-4.106Z" style="fill:#e6e9ee;"/><path d="M235.006,243.142l1.977,-1.976l-4.106,-4.106l-1.977,1.977l4.106,4.105Z" style="fill:#e6e9ee;"/><path d="M190.173,198.239l1.977,-1.977l-4.106,-4.106l-1.977,1.977l4.106,4.106Z" style="fill:#e6e9ee;"/><path d="M211.705,218.974c-0.753,0 -1.345,-0.591 -1.345,-1.344l0,-20.86c0,-0.753 0.592,-1.344 1.345,-1.344c0.752,0 1.344,0.591 1.344,1.344l0,20.86c0,0.753 -0.592,1.344 -1.344,1.344Z" style="fill:#324a5e;fill-rule:nonzero;"/><path d="M222.027,229.296c-0.322,0 -0.699,-0.107 -0.968,-0.376l-10.322,-10.322c-0.538,-0.538 -0.538,-1.398 0,-1.882c0.537,-0.538 1.398,-0.538 1.881,0l10.323,10.322c0.538,0.538 0.538,1.398 0,1.882c-0.215,0.269 -0.591,0.376 -0.914,0.376Z" style="fill:#324a5e;fill-rule:nonzero;"/><circle cx="211.705" cy="217.63" r="4.516" style="fill:#ff7058;"/></g></g></g></svg>