<?xml version="1.0" encoding="UTF-8" standalone="no"?><!DOCTYPE svg PUBLIC "-//W3C//DTD SVG 1.1//EN" "http://www.w3.org/Graphics/SVG/1.1/DTD/svg11.dtd"><svg width="100%" height="100%" viewBox="0 0 300 300" version="1.1" xmlns="http://www.w3.org/2000/svg" xmlns:xlink="http://www.w3.org/1999/xlink" xml:space="preserve" style="fill-rule:evenodd;clip-rule:evenodd;stroke-linejoin:round;stroke-miterlimit:1.41421;"><g id="Layer2"><rect x="0.239" y="0.058" width="299.596" height="300.822" style="fill:#4054b2;fill-opacity:0.9;"/></g><g id="Layer1"><g><path d="M119.925,82.92l0,27.088l-27.089,0l0,117.595l122.529,0l0,-144.683l-95.44,0Z" style="fill:#acb3ba;fill-rule:nonzero;"/><path d="M109.815,216.429l0,-27.089l-27.089,0l0,-117.595l122.529,0l0,144.684l-95.44,0Z" style="fill:#fff;fill-rule:nonzero;"/><path d="M109.815,216.429l-27.089,-27.089l27.089,0l0,27.089Z" style="fill:#ced5e0;fill-rule:nonzero;"/><rect x="100.721" y="128.922" width="86.491" height="5.176" style="fill:#ced5e0;"/><rect x="100.721" y="142.612" width="86.491" height="5.176" style="fill:#ced5e0;"/><rect x="100.721" y="156.35" width="86.491" height="5.176" style="fill:#ced5e0;"/><rect x="100.721" y="170.088" width="51.566" height="5.176" style="fill:#ced5e0;"/><path d="M112.185,96.512c0,2.419 -0.967,3.967 -2.854,4.693l3.822,5.369l-4.112,0l-3.338,-4.789l-2.322,0l0,4.789l-3.337,0l0,-15.044l5.708,0c2.321,0 4.015,0.387 4.982,1.161c0.919,0.774 1.451,2.08 1.451,3.821Zm-4.063,1.79c0.435,-0.387 0.629,-0.967 0.629,-1.79c0,-0.822 -0.194,-1.354 -0.629,-1.644c-0.436,-0.291 -1.161,-0.436 -2.274,-0.436l-2.515,0l0,4.451l2.467,0c1.113,-0.049 1.935,-0.242 2.322,-0.581Z" style="fill:#54c0eb;fill-rule:nonzero;"/><path d="M126.455,91.53l0,2.999l-7.498,0l0,3.096l6.724,0l0,2.854l-6.724,0l0,3.096l7.74,0l0,2.951l-11.077,0l0,-15.044l10.835,0l0,0.048Z" style="fill:#54c0eb;fill-rule:nonzero;"/><path d="M140.048,92.836c1.064,0.919 1.596,2.274 1.596,4.112c0,1.838 -0.532,3.192 -1.644,4.063c-1.064,0.871 -2.758,1.306 -4.983,1.306l-1.983,0l0,4.209l-3.338,0l0,-15.044l5.321,0c2.274,0.048 3.967,0.483 5.031,1.354Zm-2.467,5.95c0.387,-0.435 0.581,-1.113 0.581,-1.983c0,-0.871 -0.242,-1.5 -0.774,-1.839c-0.533,-0.387 -1.355,-0.532 -2.419,-0.532l-1.935,0l0,5.079l2.274,0c1.112,-0.048 1.886,-0.29 2.273,-0.725Z" style="fill:#54c0eb;fill-rule:nonzero;"/><path d="M156.882,104.494c-1.5,1.499 -3.386,2.225 -5.611,2.225c-2.225,0 -4.112,-0.726 -5.612,-2.225c-1.499,-1.5 -2.273,-3.338 -2.273,-5.563c0,-2.225 0.774,-4.063 2.273,-5.563c1.5,-1.499 3.387,-2.225 5.612,-2.225c2.225,0 4.111,0.726 5.611,2.225c1.5,1.5 2.273,3.338 2.273,5.563c0,2.225 -0.725,4.063 -2.273,5.563Zm-1.113,-5.563c0,-1.354 -0.435,-2.467 -1.306,-3.434c-0.87,-0.968 -1.935,-1.403 -3.192,-1.403c-1.258,0 -2.322,0.483 -3.193,1.403c-0.871,0.967 -1.306,2.08 -1.306,3.434c0,1.354 0.435,2.467 1.306,3.435c0.871,0.919 1.935,1.402 3.193,1.402c1.257,0 2.322,-0.483 3.192,-1.402c0.871,-0.92 1.306,-2.081 1.306,-3.435Z" style="fill:#54c0eb;fill-rule:nonzero;"/><path d="M174.2,96.512c0,2.419 -0.968,3.967 -2.854,4.693l3.821,5.369l-4.112,0l-3.337,-4.789l-2.322,0l0,4.789l-3.338,0l0,-15.044l5.708,0c2.322,0 4.015,0.387 4.982,1.161c0.968,0.774 1.452,2.08 1.452,3.821Zm-4.015,1.79c0.435,-0.387 0.628,-0.967 0.628,-1.79c0,-0.822 -0.193,-1.354 -0.628,-1.644c-0.436,-0.291 -1.161,-0.436 -2.274,-0.436l-2.515,0l0,4.451l2.467,0c1.112,-0.049 1.886,-0.242 2.322,-0.581Z" style="fill:#54c0eb;fill-rule:nonzero;"/><path d="M183.729,94.432l0,12.142l-3.338,0l0,-12.142l-4.257,0l0,-2.902l11.852,0l0,2.902l-4.257,0Z" style="fill:#54c0eb;fill-rule:nonzero;"/></g><g><g opacity="0.8"><path d="M234.457,162.902l-57.4,31.82l-2.939,2.748l28.312,26.954l2.024,-2.293l30.003,-59.229Z" style="fill:#f7d98b;fill-rule:nonzero;"/><path d="M234.632,162.569l-25.048,13.926l11.987,11.987l13.061,-25.913Z" style="fill:#f5f8f6;fill-rule:nonzero;"/><g><path d="M204.974,217.944l-8.54,0.492l-29.864,29.836c2.443,1.618 5.02,3.024 7.69,4.297l28.17,-28.145l2.544,-6.48Z" style="fill:#e84849;fill-rule:nonzero;"/><path d="M156.485,239.89l30.722,-30.693l0.378,-8.646l-8.313,0.715l-29.913,29.893c2.098,3.126 4.5,6.04 7.126,8.731Z" style="fill:#e84849;fill-rule:nonzero;"/><path d="M179.272,201.266l1.171,-7.861l-5.674,3.349l-28.763,28.739c1.024,1.947 2.13,3.841 3.353,5.662l29.913,-29.889Z" style="fill:#f06668;fill-rule:nonzero;"/><path d="M166.574,248.272l29.864,-29.836l-0.105,-9.138l-9.122,-0.101l-30.722,30.693c3.053,3.126 6.43,5.947 10.085,8.382Z" style="fill:#f06668;fill-rule:nonzero;"/></g></g></g></g></svg>