<?xml version="1.0" encoding="UTF-8" standalone="no"?><!DOCTYPE svg PUBLIC "-//W3C//DTD SVG 1.1//EN" "http://www.w3.org/Graphics/SVG/1.1/DTD/svg11.dtd"><svg width="100%" height="100%" viewBox="0 0 300 300" version="1.1" xmlns="http://www.w3.org/2000/svg" xmlns:xlink="http://www.w3.org/1999/xlink" xml:space="preserve" style="fill-rule:evenodd;clip-rule:evenodd;stroke-linejoin:round;stroke-miterlimit:1.41421;"><g id="Layer2"><rect x="0.239" y="0.058" width="299.596" height="300.45" style="fill:#1fbcd3;fill-opacity:0.9;"/></g><g id="Layer1"><g><path d="M119.925,82.92l0,27.088l-27.089,0l0,117.595l122.529,0l0,-144.683l-95.44,0Z" style="fill:#acb3ba;fill-rule:nonzero;"/><path d="M109.815,216.429l0,-27.089l-27.089,0l0,-117.595l122.529,0l0,144.684l-95.44,0Z" style="fill:#fff;fill-rule:nonzero;"/><path d="M109.815,216.429l-27.089,-27.089l27.089,0l0,27.089Z" style="fill:#ced5e0;fill-rule:nonzero;"/><rect x="100.721" y="128.922" width="86.491" height="5.176" style="fill:#ced5e0;"/><rect x="100.721" y="142.612" width="86.491" height="5.176" style="fill:#ced5e0;"/><rect x="100.721" y="156.35" width="86.491" height="5.176" style="fill:#ced5e0;"/><rect x="100.721" y="170.088" width="51.566" height="5.176" style="fill:#ced5e0;"/><path d="M112.185,96.512c0,2.419 -0.967,3.967 -2.854,4.693l3.822,5.369l-4.112,0l-3.338,-4.789l-2.322,0l0,4.789l-3.337,0l0,-15.044l5.708,0c2.321,0 4.015,0.387 4.982,1.161c0.919,0.774 1.451,2.08 1.451,3.821Zm-4.063,1.79c0.435,-0.387 0.629,-0.967 0.629,-1.79c0,-0.822 -0.194,-1.354 -0.629,-1.644c-0.436,-0.291 -1.161,-0.436 -2.274,-0.436l-2.515,0l0,4.451l2.467,0c1.113,-0.049 1.935,-0.242 2.322,-0.581Z" style="fill:#54c0eb;fill-rule:nonzero;"/><path d="M126.455,91.53l0,2.999l-7.498,0l0,3.096l6.724,0l0,2.854l-6.724,0l0,3.096l7.74,0l0,2.951l-11.077,0l0,-15.044l10.835,0l0,0.048Z" style="fill:#54c0eb;fill-rule:nonzero;"/><path d="M140.048,92.836c1.064,0.919 1.596,2.274 1.596,4.112c0,1.838 -0.532,3.192 -1.644,4.063c-1.064,0.871 -2.758,1.306 -4.983,1.306l-1.983,0l0,4.209l-3.338,0l0,-15.044l5.321,0c2.274,0.048 3.967,0.483 5.031,1.354Zm-2.467,5.95c0.387,-0.435 0.581,-1.113 0.581,-1.983c0,-0.871 -0.242,-1.5 -0.774,-1.839c-0.533,-0.387 -1.355,-0.532 -2.419,-0.532l-1.935,0l0,5.079l2.274,0c1.112,-0.048 1.886,-0.29 2.273,-0.725Z" style="fill:#54c0eb;fill-rule:nonzero;"/><path d="M156.882,104.494c-1.5,1.499 -3.386,2.225 -5.611,2.225c-2.225,0 -4.112,-0.726 -5.612,-2.225c-1.499,-1.5 -2.273,-3.338 -2.273,-5.563c0,-2.225 0.774,-4.063 2.273,-5.563c1.5,-1.499 3.387,-2.225 5.612,-2.225c2.225,0 4.111,0.726 5.611,2.225c1.5,1.5 2.273,3.338 2.273,5.563c0,2.225 -0.725,4.063 -2.273,5.563Zm-1.113,-5.563c0,-1.354 -0.435,-2.467 -1.306,-3.434c-0.87,-0.968 -1.935,-1.403 -3.192,-1.403c-1.258,0 -2.322,0.483 -3.193,1.403c-0.871,0.967 -1.306,2.08 -1.306,3.434c0,1.354 0.435,2.467 1.306,3.435c0.871,0.919 1.935,1.402 3.193,1.402c1.257,0 2.322,-0.483 3.192,-1.402c0.871,-0.92 1.306,-2.081 1.306,-3.435Z" style="fill:#54c0eb;fill-rule:nonzero;"/><path d="M174.2,96.512c0,2.419 -0.968,3.967 -2.854,4.693l3.821,5.369l-4.112,0l-3.337,-4.789l-2.322,0l0,4.789l-3.338,0l0,-15.044l5.708,0c2.322,0 4.015,0.387 4.982,1.161c0.968,0.774 1.452,2.08 1.452,3.821Zm-4.015,1.79c0.435,-0.387 0.628,-0.967 0.628,-1.79c0,-0.822 -0.193,-1.354 -0.628,-1.644c-0.436,-0.291 -1.161,-0.436 -2.274,-0.436l-2.515,0l0,4.451l2.467,0c1.112,-0.049 1.886,-0.242 2.322,-0.581Z" style="fill:#54c0eb;fill-rule:nonzero;"/><path d="M183.729,94.432l0,12.142l-3.338,0l0,-12.142l-4.257,0l0,-2.902l11.852,0l0,2.902l-4.257,0Z" style="fill:#54c0eb;fill-rule:nonzero;"/></g><g><g opacity="0.8"><g><path d="M246.353,197.344c0,-19.881 -15.794,-37.96 -35.277,-37.96c-19.484,0 -35.277,18.075 -35.277,37.96l9.13,0c0,-14.742 11.699,-28.639 26.142,-28.639c14.44,0 26.142,13.897 26.142,28.639l9.14,0Z" style="fill:#f4e028;fill-rule:nonzero;"/><path d="M246.377,241.843c0,4.162 -3.449,7.541 -7.71,7.541l-55.241,0c-4.244,0 -7.702,-3.379 -7.702,-7.541l0,-44.631c0,-4.166 70.658,-4.166 70.658,0l0,44.631l-0.005,0Z" style="fill:#f4e028;fill-rule:nonzero;"/><path d="M219.217,215.291c0,-4.348 -3.532,-7.872 -7.872,-7.872c-4.348,0 -7.876,3.524 -7.876,7.872c0,3.321 2.054,6.149 4.952,7.309l0,7.263c0,1.541 1.251,2.791 2.791,2.791c1.541,0 2.791,-1.25 2.791,-2.791l0,-7.164c3.031,-1.093 5.214,-3.992 5.214,-7.408Z" style="fill:#dac425;fill-rule:nonzero;"/><path d="M203.171,215.291c0,-4.348 3.532,-7.872 7.876,-7.872c0,0 -5.487,3.657 -5.487,8.009c0,4.431 4.141,7.06 4.141,7.06l0,7.458c0,1.54 1.474,2.708 1.474,2.708c-1.536,0 -2.787,-1.25 -2.787,-2.791l0,-7.164c-3.039,-1.093 -5.217,-3.992 -5.217,-7.408Z" style="fill:#d0b82b;fill-rule:nonzero;"/></g><path d="M233.52,249.384l-9.839,0l0,-55.117l9.839,0.489l0,54.628Z" style="fill:#f8e349;fill-rule:nonzero;"/><path d="M223.681,162.022l0,10.447c4.058,2.576 7.458,6.307 9.839,10.663l0,-14.721c-2.916,-2.663 -6.241,-4.841 -9.839,-6.389Z" style="fill:#f8e349;fill-rule:nonzero;"/></g></g></g></svg>