<?xml version="1.0" encoding="UTF-8" standalone="no"?><!DOCTYPE svg PUBLIC "-//W3C//DTD SVG 1.1//EN" "http://www.w3.org/Graphics/SVG/1.1/DTD/svg11.dtd"><svg width="100%" height="100%" viewBox="0 0 300 300" version="1.1" xmlns="http://www.w3.org/2000/svg" xmlns:xlink="http://www.w3.org/1999/xlink" xml:space="preserve" style="fill-rule:evenodd;clip-rule:evenodd;stroke-linejoin:round;stroke-miterlimit:1.41421;"><g id="Layer2"><rect x="0.239" y="0.058" width="299.596" height="299.87" style="fill:#afb339;fill-opacity:0.9;"/></g><g id="Layer1"><g><path d="M119.925,82.92l0,27.088l-27.089,0l0,117.595l122.529,0l0,-144.683l-95.44,0Z" style="fill:#acb3ba;fill-rule:nonzero;"/><path d="M109.815,216.429l0,-27.089l-27.089,0l0,-117.595l122.529,0l0,144.684l-95.44,0Z" style="fill:#fff;fill-rule:nonzero;"/><path d="M109.815,216.429l-27.089,-27.089l27.089,0l0,27.089Z" style="fill:#ced5e0;fill-rule:nonzero;"/><rect x="100.721" y="128.922" width="86.491" height="5.176" style="fill:#ced5e0;"/><rect x="100.721" y="142.612" width="86.491" height="5.176" style="fill:#ced5e0;"/><rect x="100.721" y="156.35" width="86.491" height="5.176" style="fill:#ced5e0;"/><rect x="100.721" y="170.088" width="51.566" height="5.176" style="fill:#ced5e0;"/><path d="M112.185,96.512c0,2.419 -0.967,3.967 -2.854,4.693l3.822,5.369l-4.112,0l-3.338,-4.789l-2.322,0l0,4.789l-3.337,0l0,-15.044l5.708,0c2.321,0 4.015,0.387 4.982,1.161c0.919,0.774 1.451,2.08 1.451,3.821Zm-4.063,1.79c0.435,-0.387 0.629,-0.967 0.629,-1.79c0,-0.822 -0.194,-1.354 -0.629,-1.644c-0.436,-0.291 -1.161,-0.436 -2.274,-0.436l-2.515,0l0,4.451l2.467,0c1.113,-0.049 1.935,-0.242 2.322,-0.581Z" style="fill:#54c0eb;fill-rule:nonzero;"/><path d="M126.455,91.53l0,2.999l-7.498,0l0,3.096l6.724,0l0,2.854l-6.724,0l0,3.096l7.74,0l0,2.951l-11.077,0l0,-15.044l10.835,0l0,0.048Z" style="fill:#54c0eb;fill-rule:nonzero;"/><path d="M140.048,92.836c1.064,0.919 1.596,2.274 1.596,4.112c0,1.838 -0.532,3.192 -1.644,4.063c-1.064,0.871 -2.758,1.306 -4.983,1.306l-1.983,0l0,4.209l-3.338,0l0,-15.044l5.321,0c2.274,0.048 3.967,0.483 5.031,1.354Zm-2.467,5.95c0.387,-0.435 0.581,-1.113 0.581,-1.983c0,-0.871 -0.242,-1.5 -0.774,-1.839c-0.533,-0.387 -1.355,-0.532 -2.419,-0.532l-1.935,0l0,5.079l2.274,0c1.112,-0.048 1.886,-0.29 2.273,-0.725Z" style="fill:#54c0eb;fill-rule:nonzero;"/><path d="M156.882,104.494c-1.5,1.499 -3.386,2.225 -5.611,2.225c-2.225,0 -4.112,-0.726 -5.612,-2.225c-1.499,-1.5 -2.273,-3.338 -2.273,-5.563c0,-2.225 0.774,-4.063 2.273,-5.563c1.5,-1.499 3.387,-2.225 5.612,-2.225c2.225,0 4.111,0.726 5.611,2.225c1.5,1.5 2.273,3.338 2.273,5.563c0,2.225 -0.725,4.063 -2.273,5.563Zm-1.113,-5.563c0,-1.354 -0.435,-2.467 -1.306,-3.434c-0.87,-0.968 -1.935,-1.403 -3.192,-1.403c-1.258,0 -2.322,0.483 -3.193,1.403c-0.871,0.967 -1.306,2.08 -1.306,3.434c0,1.354 0.435,2.467 1.306,3.435c0.871,0.919 1.935,1.402 3.193,1.402c1.257,0 2.322,-0.483 3.192,-1.402c0.871,-0.92 1.306,-2.081 1.306,-3.435Z" style="fill:#54c0eb;fill-rule:nonzero;"/><path d="M174.2,96.512c0,2.419 -0.968,3.967 -2.854,4.693l3.821,5.369l-4.112,0l-3.337,-4.789l-2.322,0l0,4.789l-3.338,0l0,-15.044l5.708,0c2.322,0 4.015,0.387 4.982,1.161c0.968,0.774 1.452,2.08 1.452,3.821Zm-4.015,1.79c0.435,-0.387 0.628,-0.967 0.628,-1.79c0,-0.822 -0.193,-1.354 -0.628,-1.644c-0.436,-0.291 -1.161,-0.436 -2.274,-0.436l-2.515,0l0,4.451l2.467,0c1.112,-0.049 1.886,-0.242 2.322,-0.581Z" style="fill:#54c0eb;fill-rule:nonzero;"/><path d="M183.729,94.432l0,12.142l-3.338,0l0,-12.142l-4.257,0l0,-2.902l11.852,0l0,2.902l-4.257,0Z" style="fill:#54c0eb;fill-rule:nonzero;"/></g><g><g opacity="0.8"><circle cx="204.596" cy="210.444" r="36.489" style="fill:#acc337;"/><path d="M175.152,182.069c-15.616,15.62 -15.616,40.95 0,56.563c15.636,15.628 40.947,15.628 56.563,0.004c15.621,-15.617 15.621,-40.947 0,-56.567c-15.616,-15.621 -40.927,-15.621 -56.563,0Zm49.437,49.44c-11.673,11.674 -30.614,11.681 -42.303,0c-11.685,-11.685 -11.685,-30.629 0,-42.31c11.689,-11.685 30.63,-11.685 42.303,-0.004c11.689,11.685 11.685,30.633 0,42.314Z" style="fill:#ebedef;fill-rule:nonzero;"/><path d="M184.787,206.533c-0.736,1.632 -0.027,3.576 1.606,4.324c1.628,0.764 3.576,0.035 4.328,-1.585c0,0 0.028,-0.078 0.183,-0.367c1.134,-2.069 6.589,-10.867 18.122,-11.934c1.395,-0.136 2.498,-1.13 2.837,-2.416c0.089,-0.358 0.136,-0.748 0.089,-1.145c-0.171,-1.793 -1.765,-3.11 -3.553,-2.93c-16.996,1.741 -23.44,15.717 -23.612,16.053Z" style="fill:#f4f5f5;fill-opacity:0.694118;fill-rule:nonzero;"/></g></g></g></svg>