<?xml version="1.0" encoding="UTF-8" standalone="no"?><!DOCTYPE svg PUBLIC "-//W3C//DTD SVG 1.1//EN" "http://www.w3.org/Graphics/SVG/1.1/DTD/svg11.dtd"><svg width="100%" height="100%" viewBox="0 0 300 300" version="1.1" xmlns="http://www.w3.org/2000/svg" xmlns:xlink="http://www.w3.org/1999/xlink" xml:space="preserve" style="fill-rule:evenodd;clip-rule:evenodd;stroke-linejoin:round;stroke-miterlimit:1.41421;"><g id="Layer2"><rect x="0.239" y="0.058" width="299.596" height="299.87" style="fill:#f98b25;fill-opacity:0.9;"/></g><g id="Layer1"><g><path d="M94.855,180.398l17.95,18.063l75.321,-75.794l-17.951,-18.063l-75.32,75.794Z" style="fill:#e6e9ee;"/><path d="M191.412,128.465c-14.923,0 -27.102,-12.255 -27.102,-27.272c0,-15.017 12.179,-27.272 27.102,-27.272c9.263,0 17.325,4.661 22.299,11.738l-19.383,0l-7.376,15.707l7.376,15.707l19.555,0c-4.975,6.732 -13.208,11.392 -22.471,11.392Z" style="fill:#fff;fill-rule:nonzero;"/><path d="M90.895,170.237c14.923,0 27.102,12.255 27.102,27.272c0,15.017 -12.179,27.272 -27.102,27.272c-9.263,0 -17.325,-4.66 -22.3,-11.737l19.555,0l7.376,-15.708l-7.376,-15.707l-19.555,0c4.803,-6.732 13.037,-11.392 22.3,-11.392Z" style="fill:#fff;fill-rule:nonzero;"/><path d="M125.029,175.415c-0.857,-0.863 -0.857,-2.417 0,-3.28l39.967,-40.217c0.858,-0.863 2.402,-0.863 3.259,0c0.858,0.863 0.858,2.416 0,3.279l-39.967,40.218c-1.029,0.863 -2.401,0.863 -3.259,0Z" style="fill:#ced5e0;fill-rule:nonzero;"/><path d="M117.654,168.165c-0.858,-0.863 -0.858,-2.416 0,-3.279l39.966,-40.218c0.858,-0.863 2.402,-0.863 3.259,0c0.858,0.863 0.858,2.417 0,3.28l-39.966,40.217c-0.858,0.863 -2.402,0.863 -3.259,0Z" style="fill:#ced5e0;fill-rule:nonzero;"/><path d="M230.693,163.85l-14.58,-14.672c-0.172,-0.172 -0.515,-0.345 -0.686,-0.345l-20.413,0c-0.343,0 -0.514,0.173 -0.686,0.345l-14.58,14.672c-0.172,0.173 -0.343,0.518 -0.343,0.691l0,20.713c0,0.345 0.171,0.517 0.343,0.69l14.58,14.672c0.172,0.172 0.515,0.345 0.686,0.345l20.584,0c0.343,0 0.515,-0.173 0.686,-0.345l14.58,-14.672c0.172,-0.173 0.343,-0.518 0.343,-0.69l0,-20.713c-0.171,-0.173 -0.343,-0.518 -0.514,-0.691Z" style="fill:#fff;fill-rule:nonzero;"/><ellipse cx="205.135" cy="174.897" rx="13.551" ry="13.636" style="fill:#f98b25;"/><path d="M124,109.306l-14.58,-14.672c-0.172,-0.172 -0.515,-0.345 -0.686,-0.345l-20.584,0c-0.343,0 -0.515,0.173 -0.686,0.345l-14.58,14.672c-0.172,0.173 -0.343,0.518 -0.343,0.69l0,20.713c0,0.346 0.171,0.518 0.343,0.691l14.58,14.672c0.171,0.172 0.515,0.345 0.686,0.345l20.584,0c0.343,0 0.514,-0.173 0.686,-0.345l14.58,-14.672c0.172,-0.173 0.343,-0.518 0.343,-0.691l0,-20.713c0,-0.172 -0.171,-0.517 -0.343,-0.69Z" style="fill:#fff;fill-rule:nonzero;"/><ellipse cx="98.442" cy="120.353" rx="13.551" ry="13.636" style="fill:#f98b25;"/></g></g></svg>