<?xml version="1.0" encoding="UTF-8" standalone="no"?><!DOCTYPE svg PUBLIC "-//W3C//DTD SVG 1.1//EN" "http://www.w3.org/Graphics/SVG/1.1/DTD/svg11.dtd"><svg width="100%" height="100%" viewBox="0 0 300 300" version="1.1" xmlns="http://www.w3.org/2000/svg" xmlns:xlink="http://www.w3.org/1999/xlink" xml:space="preserve" style="fill-rule:evenodd;clip-rule:evenodd;stroke-linejoin:round;stroke-miterlimit:1.41421;"><g id="Layer2"><rect x="0.239" y="0.058" width="299.596" height="300.822" style="fill:#4054b2;fill-opacity:0.9;"/></g><g id="Layer1"><g><path d="M210.814,240.106l-122.261,0c-5.228,0 -9.25,-4.223 -9.25,-9.25l0,-160.869c0,-5.229 4.223,-9.25 9.25,-9.25l122.06,0c5.228,0 9.25,4.222 9.25,9.25l0,160.869c0.201,5.027 -4.022,9.25 -9.049,9.25Z" style="fill:#84dbff;fill-rule:nonzero;"/><path d="M87.749,76.823l0,141.364l100.945,0l0,-22.924l22.924,0l0,-118.44l-123.869,0Z" style="fill:#fff;fill-rule:nonzero;"/><path d="M188.694,218.187l22.924,-22.924l-22.924,0l0,22.924Z" style="fill:#e6e9ee;fill-rule:nonzero;"/><rect x="117.309" y="60.737" width="64.75" height="16.087" style="fill:#e6e9ee;"/><path d="M186.08,66.568l-36.195,0l-36.397,0c-2.011,0 -3.62,1.609 -3.62,3.62l0,12.065c0,2.011 1.609,3.619 3.62,3.619l16.69,0c5.832,0 8.245,0.805 10.658,1.408c2.212,0.603 4.424,1.408 8.847,1.408c4.424,0 6.636,-0.604 8.848,-1.408c2.413,-0.804 4.826,-1.408 10.658,-1.408l16.69,0c2.011,0 3.62,-1.608 3.62,-3.619l0,-12.065c0.402,-2.011 -1.408,-3.62 -3.419,-3.62Zm1.81,15.685c0,1.005 -0.805,1.609 -1.609,1.609l-16.69,0c-6.234,0 -8.848,0.804 -11.261,1.608c-2.011,0.603 -4.022,1.207 -8.244,1.207c-4.223,0 -6.234,-0.604 -8.245,-1.207c-2.614,-0.804 -5.228,-1.608 -11.261,-1.608l-17.092,0c-1.006,0 -1.609,-0.805 -1.609,-1.609l0,-12.065c0,-1.006 0.805,-1.609 1.609,-1.609l72.793,0c1.006,0 1.609,0.804 1.609,1.609l0,12.065Z" style="fill:#324a5e;fill-rule:nonzero;"/><rect x="123.14" y="64.155" width="52.886" height="6.636" style="fill:#fff;"/><path d="M182.863,127.296l-29.56,0l0,-14.277l-30.967,0l0,4.022l26.945,0l0,33.38l-28.956,0l0,42.228l4.022,0l0,-22.119l58.516,0l0,-43.234Zm-4.022,39.212l-54.494,0l0,-12.266l28.956,0l0,-23.125l25.538,0l0,35.391Z" style="fill:#e6e9ee;fill-rule:nonzero;"/><circle cx="122.336" cy="114.829" r="7.239" style="fill:#ff7058;"/><circle cx="151.493" cy="129.106" r="7.239" style="fill:#ff7058;"/><circle cx="180.852" cy="149.818" r="7.239" style="fill:#ff7058;"/><circle cx="151.493" cy="152.231" r="7.239" style="fill:#ff7058;"/><circle cx="122.336" cy="168.519" r="7.239" style="fill:#ff7058;"/><circle cx="122.336" cy="192.448" r="7.239" style="fill:#ff7058;"/></g><g><g opacity="0.8"><path d="M234.457,162.902l-57.4,31.82l-2.939,2.748l28.312,26.954l2.024,-2.293l30.003,-59.229Z" style="fill:#f7d98b;fill-rule:nonzero;"/><path d="M234.632,162.569l-25.048,13.926l11.987,11.987l13.061,-25.913Z" style="fill:#f5f8f6;fill-rule:nonzero;"/><g><path d="M204.974,217.944l-8.54,0.492l-29.864,29.836c2.443,1.618 5.02,3.024 7.69,4.297l28.17,-28.145l2.544,-6.48Z" style="fill:#e84849;fill-rule:nonzero;"/><path d="M156.485,239.89l30.722,-30.693l0.378,-8.646l-8.313,0.715l-29.913,29.893c2.098,3.126 4.5,6.04 7.126,8.731Z" style="fill:#e84849;fill-rule:nonzero;"/><path d="M179.272,201.266l1.171,-7.861l-5.674,3.349l-28.763,28.739c1.024,1.947 2.13,3.841 3.353,5.662l29.913,-29.889Z" style="fill:#f06668;fill-rule:nonzero;"/><path d="M166.574,248.272l29.864,-29.836l-0.105,-9.138l-9.122,-0.101l-30.722,30.693c3.053,3.126 6.43,5.947 10.085,8.382Z" style="fill:#f06668;fill-rule:nonzero;"/></g></g></g></g></svg>