<?xml version="1.0" encoding="UTF-8" standalone="no"?><!DOCTYPE svg PUBLIC "-//W3C//DTD SVG 1.1//EN" "http://www.w3.org/Graphics/SVG/1.1/DTD/svg11.dtd"><svg width="100%" height="100%" viewBox="0 0 300 300" version="1.1" xmlns="http://www.w3.org/2000/svg" xmlns:xlink="http://www.w3.org/1999/xlink" xml:space="preserve" style="fill-rule:evenodd;clip-rule:evenodd;stroke-linejoin:round;stroke-miterlimit:1.41421;"><g id="Layer2"><rect x="0.239" y="0.058" width="299.596" height="300.45" style="fill:#1fbcd3;fill-opacity:0.9;"/></g><g id="Layer1"><g><path d="M210.814,240.106l-122.261,0c-5.228,0 -9.25,-4.223 -9.25,-9.25l0,-160.869c0,-5.229 4.223,-9.25 9.25,-9.25l122.06,0c5.228,0 9.25,4.222 9.25,9.25l0,160.869c0.201,5.027 -4.022,9.25 -9.049,9.25Z" style="fill:#84dbff;fill-rule:nonzero;"/><path d="M87.749,76.823l0,141.364l100.945,0l0,-22.924l22.924,0l0,-118.44l-123.869,0Z" style="fill:#fff;fill-rule:nonzero;"/><path d="M188.694,218.187l22.924,-22.924l-22.924,0l0,22.924Z" style="fill:#e6e9ee;fill-rule:nonzero;"/><rect x="117.309" y="60.737" width="64.75" height="16.087" style="fill:#e6e9ee;"/><path d="M186.08,66.568l-36.195,0l-36.397,0c-2.011,0 -3.62,1.609 -3.62,3.62l0,12.065c0,2.011 1.609,3.619 3.62,3.619l16.69,0c5.832,0 8.245,0.805 10.658,1.408c2.212,0.603 4.424,1.408 8.847,1.408c4.424,0 6.636,-0.604 8.848,-1.408c2.413,-0.804 4.826,-1.408 10.658,-1.408l16.69,0c2.011,0 3.62,-1.608 3.62,-3.619l0,-12.065c0.402,-2.011 -1.408,-3.62 -3.419,-3.62Zm1.81,15.685c0,1.005 -0.805,1.609 -1.609,1.609l-16.69,0c-6.234,0 -8.848,0.804 -11.261,1.608c-2.011,0.603 -4.022,1.207 -8.244,1.207c-4.223,0 -6.234,-0.604 -8.245,-1.207c-2.614,-0.804 -5.228,-1.608 -11.261,-1.608l-17.092,0c-1.006,0 -1.609,-0.805 -1.609,-1.609l0,-12.065c0,-1.006 0.805,-1.609 1.609,-1.609l72.793,0c1.006,0 1.609,0.804 1.609,1.609l0,12.065Z" style="fill:#324a5e;fill-rule:nonzero;"/><rect x="123.14" y="64.155" width="52.886" height="6.636" style="fill:#fff;"/><path d="M182.863,127.296l-29.56,0l0,-14.277l-30.967,0l0,4.022l26.945,0l0,33.38l-28.956,0l0,42.228l4.022,0l0,-22.119l58.516,0l0,-43.234Zm-4.022,39.212l-54.494,0l0,-12.266l28.956,0l0,-23.125l25.538,0l0,35.391Z" style="fill:#e6e9ee;fill-rule:nonzero;"/><circle cx="122.336" cy="114.829" r="7.239" style="fill:#ff7058;"/><circle cx="151.493" cy="129.106" r="7.239" style="fill:#ff7058;"/><circle cx="180.852" cy="149.818" r="7.239" style="fill:#ff7058;"/><circle cx="151.493" cy="152.231" r="7.239" style="fill:#ff7058;"/><circle cx="122.336" cy="168.519" r="7.239" style="fill:#ff7058;"/><circle cx="122.336" cy="192.448" r="7.239" style="fill:#ff7058;"/></g><g><g opacity="0.8"><g><path d="M246.353,197.344c0,-19.881 -15.794,-37.96 -35.277,-37.96c-19.484,0 -35.277,18.075 -35.277,37.96l9.13,0c0,-14.742 11.699,-28.639 26.142,-28.639c14.44,0 26.142,13.897 26.142,28.639l9.14,0Z" style="fill:#f4e028;fill-rule:nonzero;"/><path d="M246.377,241.843c0,4.162 -3.449,7.541 -7.71,7.541l-55.241,0c-4.244,0 -7.702,-3.379 -7.702,-7.541l0,-44.631c0,-4.166 70.658,-4.166 70.658,0l0,44.631l-0.005,0Z" style="fill:#f4e028;fill-rule:nonzero;"/><path d="M219.217,215.291c0,-4.348 -3.532,-7.872 -7.872,-7.872c-4.348,0 -7.876,3.524 -7.876,7.872c0,3.321 2.054,6.149 4.952,7.309l0,7.263c0,1.541 1.251,2.791 2.791,2.791c1.541,0 2.791,-1.25 2.791,-2.791l0,-7.164c3.031,-1.093 5.214,-3.992 5.214,-7.408Z" style="fill:#dac425;fill-rule:nonzero;"/><path d="M203.171,215.291c0,-4.348 3.532,-7.872 7.876,-7.872c0,0 -5.487,3.657 -5.487,8.009c0,4.431 4.141,7.06 4.141,7.06l0,7.458c0,1.54 1.474,2.708 1.474,2.708c-1.536,0 -2.787,-1.25 -2.787,-2.791l0,-7.164c-3.039,-1.093 -5.217,-3.992 -5.217,-7.408Z" style="fill:#d0b82b;fill-rule:nonzero;"/></g><path d="M233.52,249.384l-9.839,0l0,-55.117l9.839,0.489l0,54.628Z" style="fill:#f8e349;fill-rule:nonzero;"/><path d="M223.681,162.022l0,10.447c4.058,2.576 7.458,6.307 9.839,10.663l0,-14.721c-2.916,-2.663 -6.241,-4.841 -9.839,-6.389Z" style="fill:#f8e349;fill-rule:nonzero;"/></g></g></g></svg>