<?xml version="1.0" encoding="UTF-8" standalone="no"?><!DOCTYPE svg PUBLIC "-//W3C//DTD SVG 1.1//EN" "http://www.w3.org/Graphics/SVG/1.1/DTD/svg11.dtd"><svg width="100%" height="100%" viewBox="0 0 300 300" version="1.1" xmlns="http://www.w3.org/2000/svg" xmlns:xlink="http://www.w3.org/1999/xlink" xml:space="preserve" style="fill-rule:evenodd;clip-rule:evenodd;stroke-linejoin:round;stroke-miterlimit:1.41421;"><g id="Layer2"><rect x="0.239" y="0.058" width="299.596" height="299.87" style="fill:#8c2da8;fill-opacity:0.9;"/></g><g id="Layer1"><g><path d="M210.814,240.106l-122.261,0c-5.228,0 -9.25,-4.223 -9.25,-9.25l0,-160.869c0,-5.229 4.223,-9.25 9.25,-9.25l122.06,0c5.228,0 9.25,4.222 9.25,9.25l0,160.869c0.201,5.027 -4.022,9.25 -9.049,9.25Z" style="fill:#84dbff;fill-rule:nonzero;"/><path d="M87.749,76.823l0,141.364l100.945,0l0,-22.924l22.924,0l0,-118.44l-123.869,0Z" style="fill:#fff;fill-rule:nonzero;"/><path d="M188.694,218.187l22.924,-22.924l-22.924,0l0,22.924Z" style="fill:#e6e9ee;fill-rule:nonzero;"/><rect x="117.309" y="60.737" width="64.75" height="16.087" style="fill:#e6e9ee;"/><path d="M186.08,66.568l-36.195,0l-36.397,0c-2.011,0 -3.62,1.609 -3.62,3.62l0,12.065c0,2.011 1.609,3.619 3.62,3.619l16.69,0c5.832,0 8.245,0.805 10.658,1.408c2.212,0.603 4.424,1.408 8.847,1.408c4.424,0 6.636,-0.604 8.848,-1.408c2.413,-0.804 4.826,-1.408 10.658,-1.408l16.69,0c2.011,0 3.62,-1.608 3.62,-3.619l0,-12.065c0.402,-2.011 -1.408,-3.62 -3.419,-3.62Zm1.81,15.685c0,1.005 -0.805,1.609 -1.609,1.609l-16.69,0c-6.234,0 -8.848,0.804 -11.261,1.608c-2.011,0.603 -4.022,1.207 -8.244,1.207c-4.223,0 -6.234,-0.604 -8.245,-1.207c-2.614,-0.804 -5.228,-1.608 -11.261,-1.608l-17.092,0c-1.006,0 -1.609,-0.805 -1.609,-1.609l0,-12.065c0,-1.006 0.805,-1.609 1.609,-1.609l72.793,0c1.006,0 1.609,0.804 1.609,1.609l0,12.065Z" style="fill:#324a5e;fill-rule:nonzero;"/><rect x="123.14" y="64.155" width="52.886" height="6.636" style="fill:#fff;"/><path d="M182.863,127.296l-29.56,0l0,-14.277l-30.967,0l0,4.022l26.945,0l0,33.38l-28.956,0l0,42.228l4.022,0l0,-22.119l58.516,0l0,-43.234Zm-4.022,39.212l-54.494,0l0,-12.266l28.956,0l0,-23.125l25.538,0l0,35.391Z" style="fill:#e6e9ee;fill-rule:nonzero;"/><circle cx="122.336" cy="114.829" r="7.239" style="fill:#ff7058;"/><circle cx="151.493" cy="129.106" r="7.239" style="fill:#ff7058;"/><circle cx="180.852" cy="149.818" r="7.239" style="fill:#ff7058;"/><circle cx="151.493" cy="152.231" r="7.239" style="fill:#ff7058;"/><circle cx="122.336" cy="168.519" r="7.239" style="fill:#ff7058;"/><circle cx="122.336" cy="192.448" r="7.239" style="fill:#ff7058;"/></g><g><g opacity="0.8"><g><path d="M189.841,180.494l3.401,-3.902l-1.101,-5.069l5.101,1.795c6.777,-4.637 15.284,-6.395 23.047,-3.512c13.435,4.983 19.519,21.951 14.434,35.657l8.485,3.146c6.864,-18.487 -1.589,-40.745 -19.699,-47.469c-15.612,-5.792 -33.286,1.856 -42.269,15.908c0,0 -0.871,3.335 2.637,4.888c3.511,1.548 5.964,-1.442 5.964,-1.442Z" style="fill:#f4e028;fill-rule:nonzero;"/><path d="M246.696,241.707c0,4.128 -3.422,7.48 -7.648,7.48l-54.794,0c-4.21,0 -7.639,-3.352 -7.639,-7.48l0,-44.27c0,-4.132 70.085,-4.132 70.085,0l0,44.27l-0.004,0Z" style="fill:#f4e028;fill-rule:nonzero;"/><path d="M219.755,215.37c0,-4.313 -3.504,-7.808 -7.808,-7.808c-4.313,0 -7.813,3.495 -7.813,7.808c0,3.294 2.038,6.1 4.913,7.25l0,7.204c0,1.528 1.24,2.769 2.768,2.769c1.528,0 2.769,-1.241 2.769,-2.769l0,-7.106c3.006,-1.08 5.171,-3.959 5.171,-7.348Z" style="fill:#dac425;fill-rule:nonzero;"/><path d="M203.839,215.37c0,-4.313 3.503,-7.808 7.812,-7.808c0,0 -5.442,3.627 -5.442,7.944c0,4.395 4.107,7.003 4.107,7.003l0,7.397c0,1.528 1.462,2.687 1.462,2.687c-1.523,0 -2.764,-1.241 -2.764,-2.769l0,-7.106c-3.011,-1.08 -5.175,-3.959 -5.175,-7.348Z" style="fill:#d0b82b;fill-rule:nonzero;"/></g><path d="M233.946,249.191l-9.759,0l0,-54.674l9.759,0.489l0,54.185Z" style="fill:#f8e349;fill-rule:nonzero;"/><path d="M224.187,161.366l0,10.363c4.025,2.555 7.397,6.945 9.759,11.266l0,-15.509c-2.896,-2.637 -6.19,-4.584 -9.759,-6.12Z" style="fill:#f8e349;fill-rule:nonzero;"/></g></g></g></svg>