<?xml version="1.0" encoding="UTF-8" standalone="no"?><!DOCTYPE svg PUBLIC "-//W3C//DTD SVG 1.1//EN" "http://www.w3.org/Graphics/SVG/1.1/DTD/svg11.dtd"><svg width="100%" height="100%" viewBox="0 0 300 300" version="1.1" xmlns="http://www.w3.org/2000/svg" xmlns:xlink="http://www.w3.org/1999/xlink" xml:space="preserve" style="fill-rule:evenodd;clip-rule:evenodd;stroke-linejoin:round;stroke-miterlimit:1.41421;"><g id="Layer2"><rect x="0.239" y="0.058" width="299.596" height="299.87" style="fill:#e72564;fill-opacity:0.9;"/></g><g id="Layer1"><g><path d="M210.814,240.106l-122.261,0c-5.228,0 -9.25,-4.223 -9.25,-9.25l0,-160.869c0,-5.229 4.223,-9.25 9.25,-9.25l122.06,0c5.228,0 9.25,4.222 9.25,9.25l0,160.869c0.201,5.027 -4.022,9.25 -9.049,9.25Z" style="fill:#84dbff;fill-rule:nonzero;"/><path d="M87.749,76.823l0,141.364l100.945,0l0,-22.924l22.924,0l0,-118.44l-123.869,0Z" style="fill:#fff;fill-rule:nonzero;"/><path d="M188.694,218.187l22.924,-22.924l-22.924,0l0,22.924Z" style="fill:#e6e9ee;fill-rule:nonzero;"/><rect x="117.309" y="60.737" width="64.75" height="16.087" style="fill:#e6e9ee;"/><path d="M186.08,66.568l-36.195,0l-36.397,0c-2.011,0 -3.62,1.609 -3.62,3.62l0,12.065c0,2.011 1.609,3.619 3.62,3.619l16.69,0c5.832,0 8.245,0.805 10.658,1.408c2.212,0.603 4.424,1.408 8.847,1.408c4.424,0 6.636,-0.604 8.848,-1.408c2.413,-0.804 4.826,-1.408 10.658,-1.408l16.69,0c2.011,0 3.62,-1.608 3.62,-3.619l0,-12.065c0.402,-2.011 -1.408,-3.62 -3.419,-3.62Zm1.81,15.685c0,1.005 -0.805,1.609 -1.609,1.609l-16.69,0c-6.234,0 -8.848,0.804 -11.261,1.608c-2.011,0.603 -4.022,1.207 -8.244,1.207c-4.223,0 -6.234,-0.604 -8.245,-1.207c-2.614,-0.804 -5.228,-1.608 -11.261,-1.608l-17.092,0c-1.006,0 -1.609,-0.805 -1.609,-1.609l0,-12.065c0,-1.006 0.805,-1.609 1.609,-1.609l72.793,0c1.006,0 1.609,0.804 1.609,1.609l0,12.065Z" style="fill:#324a5e;fill-rule:nonzero;"/><rect x="123.14" y="64.155" width="52.886" height="6.636" style="fill:#fff;"/><path d="M182.863,127.296l-29.56,0l0,-14.277l-30.967,0l0,4.022l26.945,0l0,33.38l-28.956,0l0,42.228l4.022,0l0,-22.119l58.516,0l0,-43.234Zm-4.022,39.212l-54.494,0l0,-12.266l28.956,0l0,-23.125l25.538,0l0,35.391Z" style="fill:#e6e9ee;fill-rule:nonzero;"/><circle cx="122.336" cy="114.829" r="7.239" style="fill:#ff7058;"/><circle cx="151.493" cy="129.106" r="7.239" style="fill:#ff7058;"/><circle cx="180.852" cy="149.818" r="7.239" style="fill:#ff7058;"/><circle cx="151.493" cy="152.231" r="7.239" style="fill:#ff7058;"/><circle cx="122.336" cy="168.519" r="7.239" style="fill:#ff7058;"/><circle cx="122.336" cy="192.448" r="7.239" style="fill:#ff7058;"/></g><g><circle cx="204.602" cy="211.212" r="36.489" style="fill:#da1f26;fill-opacity:0.8;"/><path d="M175.719,182.636c-15.616,15.621 -15.616,40.951 0,56.563c15.636,15.628 40.947,15.628 56.564,0.004c15.62,-15.616 15.62,-40.946 0,-56.567c-15.617,-15.62 -40.928,-15.62 -56.564,0Zm49.437,49.441c-11.673,11.673 -30.613,11.681 -42.302,0c-11.685,-11.685 -11.685,-30.629 0,-42.311c11.689,-11.685 30.629,-11.685 42.302,-0.003c11.689,11.685 11.685,30.632 0,42.314Z" style="fill:#ebedef;fill-rule:nonzero;"/><path d="M184.793,207.3c-0.736,1.632 -0.027,3.577 1.605,4.325c1.629,0.763 3.577,0.035 4.329,-1.586c0,0 0.027,-0.078 0.183,-0.366c1.134,-2.069 6.589,-10.867 18.122,-11.935c1.395,-0.136 2.498,-1.13 2.837,-2.416c0.089,-0.358 0.136,-0.748 0.089,-1.145c-0.171,-1.792 -1.765,-3.109 -3.553,-2.93c-16.996,1.741 -23.441,15.718 -23.612,16.053Z" style="fill:#f4f5f5;fill-opacity:0.694118;fill-rule:nonzero;"/></g></g></svg>