<?xml version="1.0" encoding="UTF-8" standalone="no"?><!DOCTYPE svg PUBLIC "-//W3C//DTD SVG 1.1//EN" "http://www.w3.org/Graphics/SVG/1.1/DTD/svg11.dtd"><svg width="100%" height="100%" viewBox="0 0 300 300" version="1.1" xmlns="http://www.w3.org/2000/svg" xmlns:xlink="http://www.w3.org/1999/xlink" xml:space="preserve" style="fill-rule:evenodd;clip-rule:evenodd;stroke-linejoin:round;stroke-miterlimit:1.41421;"><g id="Layer2"><rect x="0.239" y="0.058" width="299.596" height="299.87" style="fill:#fabf40;fill-opacity:0.9;"/></g><g id="Layer1"><g><path d="M210.814,240.106l-122.261,0c-5.228,0 -9.25,-4.223 -9.25,-9.25l0,-160.869c0,-5.229 4.223,-9.25 9.25,-9.25l122.06,0c5.228,0 9.25,4.222 9.25,9.25l0,160.869c0.201,5.027 -4.022,9.25 -9.049,9.25Z" style="fill:#84dbff;fill-rule:nonzero;"/><path d="M87.749,76.823l0,141.364l100.945,0l0,-22.924l22.924,0l0,-118.44l-123.869,0Z" style="fill:#fff;fill-rule:nonzero;"/><path d="M188.694,218.187l22.924,-22.924l-22.924,0l0,22.924Z" style="fill:#e6e9ee;fill-rule:nonzero;"/><rect x="117.309" y="60.737" width="64.75" height="16.087" style="fill:#e6e9ee;"/><path d="M186.08,66.568l-36.195,0l-36.397,0c-2.011,0 -3.62,1.609 -3.62,3.62l0,12.065c0,2.011 1.609,3.619 3.62,3.619l16.69,0c5.832,0 8.245,0.805 10.658,1.408c2.212,0.603 4.424,1.408 8.847,1.408c4.424,0 6.636,-0.604 8.848,-1.408c2.413,-0.804 4.826,-1.408 10.658,-1.408l16.69,0c2.011,0 3.62,-1.608 3.62,-3.619l0,-12.065c0.402,-2.011 -1.408,-3.62 -3.419,-3.62Zm1.81,15.685c0,1.005 -0.805,1.609 -1.609,1.609l-16.69,0c-6.234,0 -8.848,0.804 -11.261,1.608c-2.011,0.603 -4.022,1.207 -8.244,1.207c-4.223,0 -6.234,-0.604 -8.245,-1.207c-2.614,-0.804 -5.228,-1.608 -11.261,-1.608l-17.092,0c-1.006,0 -1.609,-0.805 -1.609,-1.609l0,-12.065c0,-1.006 0.805,-1.609 1.609,-1.609l72.793,0c1.006,0 1.609,0.804 1.609,1.609l0,12.065Z" style="fill:#324a5e;fill-rule:nonzero;"/><rect x="123.14" y="64.155" width="52.886" height="6.636" style="fill:#fff;"/><path d="M182.863,127.296l-29.56,0l0,-14.277l-30.967,0l0,4.022l26.945,0l0,33.38l-28.956,0l0,42.228l4.022,0l0,-22.119l58.516,0l0,-43.234Zm-4.022,39.212l-54.494,0l0,-12.266l28.956,0l0,-23.125l25.538,0l0,35.391Z" style="fill:#e6e9ee;fill-rule:nonzero;"/><circle cx="122.336" cy="114.829" r="7.239" style="fill:#ff7058;"/><circle cx="151.493" cy="129.106" r="7.239" style="fill:#ff7058;"/><circle cx="180.852" cy="149.818" r="7.239" style="fill:#ff7058;"/><circle cx="151.493" cy="152.231" r="7.239" style="fill:#ff7058;"/><circle cx="122.336" cy="168.519" r="7.239" style="fill:#ff7058;"/><circle cx="122.336" cy="192.448" r="7.239" style="fill:#ff7058;"/></g><g><g opacity="0.8"><circle cx="211.705" cy="217.63" r="40" style="fill:#fff;stroke:#00daff;stroke-width:0.5px;"/><rect x="210.199" y="183.006" width="2.796" height="5.806" style="fill:#e6e9ee;"/><rect x="210.199" y="246.447" width="2.796" height="5.806" style="fill:#e6e9ee;"/><rect x="240.522" y="216.339" width="5.806" height="2.796" style="fill:#e6e9ee;"/><rect x="176.866" y="216.339" width="5.806" height="2.796" style="fill:#e6e9ee;"/><path d="M237.22,194.178l-1.977,-1.977l-4.106,4.106l1.977,1.977l4.106,-4.106Z" style="fill:#e6e9ee;"/><path d="M192.218,239.076l-1.977,-1.977l-4.105,4.106l1.976,1.977l4.106,-4.106Z" style="fill:#e6e9ee;"/><path d="M235.006,243.142l1.977,-1.976l-4.106,-4.106l-1.977,1.977l4.106,4.105Z" style="fill:#e6e9ee;"/><path d="M190.173,198.239l1.977,-1.977l-4.106,-4.106l-1.977,1.977l4.106,4.106Z" style="fill:#e6e9ee;"/><path d="M211.705,218.974c-0.753,0 -1.345,-0.591 -1.345,-1.344l0,-20.86c0,-0.753 0.592,-1.344 1.345,-1.344c0.752,0 1.344,0.591 1.344,1.344l0,20.86c0,0.753 -0.592,1.344 -1.344,1.344Z" style="fill:#324a5e;fill-rule:nonzero;"/><path d="M222.027,229.296c-0.322,0 -0.699,-0.107 -0.968,-0.376l-10.322,-10.322c-0.538,-0.538 -0.538,-1.398 0,-1.882c0.537,-0.538 1.398,-0.538 1.881,0l10.323,10.322c0.538,0.538 0.538,1.398 0,1.882c-0.215,0.269 -0.591,0.376 -0.914,0.376Z" style="fill:#324a5e;fill-rule:nonzero;"/><circle cx="211.705" cy="217.63" r="4.516" style="fill:#ff7058;"/></g></g></g></svg>