<?xml version="1.0" encoding="UTF-8" standalone="no"?><!DOCTYPE svg PUBLIC "-//W3C//DTD SVG 1.1//EN" "http://www.w3.org/Graphics/SVG/1.1/DTD/svg11.dtd"><svg width="100%" height="100%" viewBox="0 0 300 300" version="1.1" xmlns="http://www.w3.org/2000/svg" xmlns:xlink="http://www.w3.org/1999/xlink" xml:space="preserve" style="fill-rule:evenodd;clip-rule:evenodd;stroke-linejoin:round;stroke-miterlimit:1.41421;"><g id="Layer2"><rect x="0.239" y="0.058" width="299.596" height="299.87" style="fill:#fabf40;fill-opacity:0.9;"/></g><g id="Layer1"><g><path d="M240.492,106.43c0,-11.517 -9.337,-20.855 -20.856,-20.855l-139.908,0c-11.517,0 -20.854,9.338 -20.854,20.855l0,86.756c0,11.515 9.337,20.854 20.854,20.854l139.908,0c11.519,0 20.856,-9.339 20.856,-20.854l0,-86.756Z" style="fill:#e0e4e3;fill-rule:nonzero;"/><g><path d="M240.354,104.106c-1.158,-10.422 -9.986,-18.531 -20.72,-18.531l-139.906,0c-11.517,0 -20.854,9.338 -20.854,20.855l0,4.217l181.482,0l0,-6.541l-0.002,0Z" style="fill:#d1d3d3;fill-rule:nonzero;"/><circle cx="75.515" cy="97.73" r="4.561" style="fill:#e84849;"/><circle cx="92.799" cy="97.73" r="4.561" style="fill:#efc849;"/><circle cx="110.083" cy="97.73" r="4.561" style="fill:#37b34c;"/></g><path d="M200.952,196.785l-0.365,0c-0.866,-2.643 -1.93,-5.193 -3.17,-7.642l0.261,-0.259c4.621,-4.619 11.204,-17.943 4.538,-24.607l-4.062,-4.062c-6.666,-6.664 -19.621,-0.451 -24.606,4.537l-0.262,0.261c-2.446,-1.241 -5,-2.303 -7.641,-3.169l0,-0.363c0,-6.533 -4.767,-20.606 -14.194,-20.606l-5.742,0c-9.422,0 -14.194,13.552 -14.194,20.606l0,0.365c-2.641,0.864 -5.191,1.928 -7.638,3.167l-0.261,-0.263c-3.881,-3.882 -17.945,-11.2 -24.607,-4.535l-4.061,4.06c-6.666,6.664 0.284,20.357 4.534,24.607l0.263,0.263c-1.241,2.447 -2.303,4.997 -3.169,7.64l-0.363,0c-5.49,0 -20.606,4.768 -20.606,14.194l0,2.652c1.333,0.267 2.71,0.411 4.121,0.411l37.176,0c0,-0.064 -0.009,-0.125 -0.009,-0.192c0,-17.501 14.186,-31.688 31.687,-31.688c17.501,0 31.687,14.187 31.687,31.688c0,0.065 -0.009,0.126 -0.009,0.192l39.374,0c0.65,0 1.291,-0.041 1.925,-0.098l0,-2.965c0,-9.426 -13.551,-14.194 -20.607,-14.194Z" style="fill:#f90;fill-rule:nonzero;"/></g></g></svg>