<?xml version="1.0" encoding="UTF-8" standalone="no"?><!DOCTYPE svg PUBLIC "-//W3C//DTD SVG 1.1//EN" "http://www.w3.org/Graphics/SVG/1.1/DTD/svg11.dtd"><svg width="100%" height="100%" viewBox="0 0 300 300" version="1.1" xmlns="http://www.w3.org/2000/svg" xmlns:xlink="http://www.w3.org/1999/xlink" xml:space="preserve" style="fill-rule:evenodd;clip-rule:evenodd;stroke-linejoin:round;stroke-miterlimit:1.41421;"><g id="Layer2"><rect x="0.239" y="0.058" width="299.596" height="299.532" style="fill:#2b9cd4;fill-opacity:0.9;"/></g><g id="Layer1"><g><path d="M241.074,142.178l0,16.291l-14.739,4.267c-1.94,11.248 -6.207,22.109 -13.189,31.613l7.37,13.382l-11.443,11.443l-13.382,-7.37c-9.697,6.982 -20.364,11.248 -31.613,13.188l-4.266,14.74l-16.292,0l-4.266,-14.74c-11.249,-1.94 -21.916,-6.206 -31.613,-13.188l-13.383,7.37l-11.442,-11.443l7.37,-13.382c-6.788,-9.698 -11.249,-20.365 -13.189,-31.613l-14.739,-4.267l0,-16.291l14.739,-4.267c1.94,-11.249 6.207,-21.916 13.189,-31.613l-7.37,-13.382l11.442,-11.443l13.383,7.37c9.697,-6.788 20.364,-11.249 31.613,-13.188l4.266,-14.74l16.292,0l4.266,14.74c11.249,1.939 22.11,6.206 31.613,13.188l13.382,-7.37l11.443,11.443l-7.37,13.382c6.982,9.697 11.249,20.364 13.189,31.613l14.739,4.267Z" style="fill:#fff;fill-rule:nonzero;"/><circle cx="151.666" cy="150.323" r="48.098" style="fill:#324a5e;"/><path d="M199.764,150.323c0,-15.903 -7.758,-30.061 -19.588,-38.789c0,0.582 0.194,1.164 0.388,1.746c-1.358,0.582 -2.91,0.97 -4.461,0.776c-0.97,1.939 0.582,4.46 -0.776,6.206c-0.582,0.776 -1.551,0.97 -2.133,1.551c-1.164,1.164 -0.97,3.491 0.388,4.461c1.357,0.97 3.685,0.194 4.266,-1.357c0.388,-1.164 0,-2.522 0.388,-3.685c0.776,-1.94 3.685,-3.104 3.297,-5.237c1.164,1.358 0,3.491 0.582,5.043c0.388,0.969 1.358,1.551 1.94,2.327c0.581,0.776 0.775,2.133 0,2.715c-1.164,-0.194 -2.134,0.776 -2.522,1.746c-0.388,0.969 -0.194,2.133 0,3.297c-2.715,0 -5.43,-0.194 -8.145,-0.194c-0.582,0 -1.358,0 -1.94,0.388c-1.745,0.969 -0.776,4.266 -2.521,5.042c-1.164,0.388 -2.715,-0.388 -3.491,0.388c-0.194,0.388 -0.388,0.776 -0.388,1.164c-0.194,1.163 -0.194,2.327 0,3.297c0.388,1.164 1.164,2.133 2.133,2.327c1.552,0.194 2.91,-1.163 3.685,-2.715c0.776,-1.552 1.358,-3.103 2.716,-3.879c0.969,-0.582 2.327,-0.582 3.491,-0.388c4.266,0.776 8.145,3.491 10.473,7.176c0.581,0.97 1.163,2.327 0.581,3.297c-0.581,0.97 -1.939,1.164 -3.297,1.164c-2.133,0 -4.266,0.194 -6.4,-0.582c-1.939,-0.776 -3.685,-2.521 -3.685,-4.849c-2.521,0.388 -4.848,1.552 -6.788,3.297c-1.163,0.97 -1.939,2.328 -3.297,3.104c-0.97,0.581 -1.939,1.163 -2.909,1.745c-2.521,2.133 -2.521,5.818 -2.327,8.922c0,2.327 0.388,5.236 2.327,6.594c1.358,0.969 3.297,0.969 5.043,0.969c2.133,0 4.266,-0.194 6.4,-0.194c0,5.625 0.194,11.055 0.194,16.68c0,2.715 0.582,6.012 3.103,6.788c0.194,0 0.194,0 0.388,0c13.964,-8.34 22.885,-23.274 22.885,-40.341Z" style="fill:#2b9cd4;fill-rule:nonzero;"/><path d="M148.757,172.627c-1.164,-0.776 -3.103,-0.582 -3.879,-1.94c-0.388,-0.581 -0.388,-1.163 -0.582,-1.745c-0.582,-1.164 -1.745,-1.746 -2.909,-2.133c-3.297,-1.746 -6.012,-4.073 -9.503,-5.043c-3.491,-0.97 -7.952,-0.194 -9.504,3.103c-0.581,1.164 -0.581,2.715 -0.581,4.073c0,2.327 0.387,4.655 1.939,6.4c1.164,1.358 3.103,2.327 3.685,4.073c0.388,0.97 0.388,2.133 0.388,3.103c-0.194,3.103 -0.194,6.206 -0.388,9.309c2.133,1.164 4.461,2.328 6.788,3.297c0.194,0 0.582,-0.194 0.776,-0.194c0.776,-0.193 1.745,-0.387 2.327,-0.969c0.582,-0.776 0.776,-1.746 1.164,-2.522c1.163,-2.521 4.654,-3.297 5.818,-5.818c0.97,-2.327 0,-5.43 1.746,-7.176c0.775,-0.776 2.133,-0.97 2.909,-1.745c1.163,-1.164 1.163,-3.103 -0.194,-4.073Z" style="fill:#2b9cd4;fill-rule:nonzero;"/><path d="M135.375,105.134c0.194,0.582 0.388,1.164 0.775,1.746c0.388,0.582 1.164,0.969 1.746,1.357c1.939,1.358 4.073,3.103 4.655,5.431c0.387,1.357 0.194,2.715 0,4.073c0,1.357 0,2.715 0.775,3.878c0.776,1.164 2.328,1.746 3.491,0.776c0.582,-0.388 0.776,-1.163 1.164,-1.551c1.552,-1.94 5.043,-2.328 5.43,-4.849c0.194,-1.164 -0.581,-2.521 0.194,-3.685c0.582,-0.776 1.552,-0.97 2.522,-1.551c2.521,-1.164 3.103,-4.461 2.715,-7.176c0,-0.194 0,-0.582 -0.194,-0.776c-2.327,-0.388 -4.655,-0.582 -7.176,-0.582c-5.43,0 -11.055,0.97 -16.097,2.909Z" style="fill:#2b9cd4;fill-rule:nonzero;"/><path d="M131.496,106.686c-16.292,7.564 -27.734,24.049 -27.734,43.249c2.133,2.328 4.073,4.655 6.012,7.176c1.358,1.94 2.715,4.073 4.655,5.431c1.939,1.357 4.654,2.133 6.788,0.969c1.163,-0.581 1.357,-1.939 1.163,-3.103c-0.388,-1.163 -1.163,-2.133 -1.939,-2.909c-0.97,-1.163 -2.133,-2.327 -3.491,-3.103c-0.776,-0.388 -1.746,-0.776 -2.133,-1.551c-0.582,-1.164 0.581,-2.716 1.745,-3.104c1.358,-0.387 2.715,-0.194 4.073,-0.194c1.357,0 2.909,-0.193 3.685,-1.163c0.388,-0.582 0.582,-1.358 0.97,-1.94c1.551,-2.909 6.012,-3.103 7.951,-5.818c0.776,-1.164 0.97,-2.715 1.358,-4.073c0.388,-1.357 1.357,-2.715 2.909,-2.909c0.97,-0.194 2.327,0.388 3.103,-0.388c0.194,-0.388 0.194,-0.776 0.194,-1.164c0,-2.715 -1.358,-5.43 -3.685,-6.982c-0.582,-0.387 -1.164,-0.775 -1.745,-1.163c-0.388,-0.582 -0.582,-1.358 0,-1.94c0.388,-0.194 0.775,-0.388 1.163,-0.581c1.552,-0.776 1.358,-2.716 1.164,-4.267c-0.194,-1.746 -0.776,-3.685 -2.327,-4.267c-1.358,-0.582 -3.297,0.194 -4.267,-0.97c-0.776,-0.775 -0.388,-2.133 0,-3.103c-0.194,-0.582 0,-1.357 0.388,-2.133Z" style="fill:#2b9cd4;fill-rule:nonzero;"/></g></g></svg>