<?xml version="1.0" encoding="UTF-8" standalone="no"?><!DOCTYPE svg PUBLIC "-//W3C//DTD SVG 1.1//EN" "http://www.w3.org/Graphics/SVG/1.1/DTD/svg11.dtd"><svg width="100%" height="100%" viewBox="0 0 300 300" version="1.1" xmlns="http://www.w3.org/2000/svg" xmlns:xlink="http://www.w3.org/1999/xlink" xml:space="preserve" style="fill-rule:evenodd;clip-rule:evenodd;stroke-linejoin:round;stroke-miterlimit:1.41421;"><g id="Layer2"><rect x="0.239" y="0.058" width="299.596" height="299.532" style="fill:#50ae54;fill-opacity:0.9;"/></g><g id="Layer1"><g><ellipse cx="149.595" cy="182.535" rx="30.676" ry="30.673" style="fill:#324a5e;"/><path d="M60.976,139.203l0,20.935l17.042,4.382c1.947,9.251 5.599,17.771 10.469,25.318l-9.008,15.093l14.851,14.85l15.094,-9.007c7.547,5.112 16.068,8.52 25.32,10.467l4.382,17.041l20.938,0l4.382,-17.041c9.251,-1.947 17.772,-5.599 25.32,-10.467l15.094,9.007l14.851,-14.85l-9.251,-15.093c5.112,-7.547 8.521,-16.067 10.468,-25.318l17.042,-4.382l0,-20.935l-17.042,-4.382c-1.947,-9.251 -5.599,-17.771 -10.468,-25.318l9.008,-15.093l-14.851,-14.85l-14.851,9.251c-7.548,-5.112 -16.069,-8.521 -25.32,-10.468l-4.382,-17.041l-20.938,0l-4.382,17.041c-9.252,1.947 -17.773,5.599 -25.32,10.468l-15.094,-9.007l-14.851,14.849l9.008,15.094c-5.113,7.546 -8.522,16.066 -10.469,25.317l-17.042,4.139Zm88.619,-30.917c22.885,0 41.388,18.501 41.388,41.384c0,22.884 -18.503,41.385 -41.388,41.385c-22.885,0 -41.388,-18.501 -41.388,-41.385c0,-22.883 18.503,-41.384 41.388,-41.384Z" style="fill:#fff;fill-rule:nonzero;"/><ellipse cx="149.595" cy="134.821" rx="13.147" ry="13.146" style="fill:#324a5e;"/></g></g></svg>