<?xml version="1.0" encoding="UTF-8" standalone="no"?><!DOCTYPE svg PUBLIC "-//W3C//DTD SVG 1.1//EN" "http://www.w3.org/Graphics/SVG/1.1/DTD/svg11.dtd"><svg width="100%" height="100%" viewBox="0 0 300 300" version="1.1" xmlns="http://www.w3.org/2000/svg" xmlns:xlink="http://www.w3.org/1999/xlink" xml:space="preserve" style="fill-rule:evenodd;clip-rule:evenodd;stroke-linejoin:round;stroke-miterlimit:1.41421;"><g id="Layer2"><rect x="0.239" y="0.058" width="299.596" height="300.822" style="fill:#4054b2;fill-opacity:0.9;"/></g><g id="Layer1"><g><path d="M234.802,228.056l-169.708,0c-0.848,0 -1.537,-0.689 -1.537,-1.537l0,-152.218c0,-0.848 0.689,-1.537 1.537,-1.537l169.761,0c0.848,0 1.537,0.689 1.537,1.537l0,152.271c-0.053,0.795 -0.742,1.484 -1.59,1.484Z" style="fill:#324a5e;fill-rule:nonzero;"/><rect x="75.164" y="114.105" width="149.515" height="102.344" style="fill:#fff;"/><path d="M217.524,99.635c-3.445,0 -6.254,-2.809 -6.254,-6.254c0,-3.445 2.809,-6.254 6.254,-6.254c3.445,0 6.254,2.809 6.254,6.254c0,3.498 -2.809,6.254 -6.254,6.254Z" style="fill:#84dbff;fill-rule:nonzero;"/><path d="M197.118,99.635c-3.445,0 -6.254,-2.809 -6.254,-6.254c0,-3.445 2.809,-6.254 6.254,-6.254c3.445,0 6.254,2.809 6.254,6.254c-0.053,3.498 -2.809,6.254 -6.254,6.254Z" style="fill:#84dbff;fill-rule:nonzero;"/><path d="M176.66,99.635c-3.445,0 -6.254,-2.809 -6.254,-6.254c0,-3.445 2.809,-6.254 6.254,-6.254c3.445,0 6.254,2.809 6.254,6.254c0,3.498 -2.809,6.254 -6.254,6.254Z" style="fill:#84dbff;fill-rule:nonzero;"/><path d="M133.889,99.635l-52.471,0c-3.445,0 -6.254,-2.809 -6.254,-6.254c0,-3.445 2.809,-6.254 6.254,-6.254l52.471,0c3.445,0 6.254,2.809 6.254,6.254c-0.053,3.498 -2.809,6.254 -6.254,6.254Z" style="fill:#fff;fill-rule:nonzero;"/><rect x="97.848" y="144.262" width="104.199" height="5.035" style="fill:#e6e9ee;"/><rect x="97.848" y="162.759" width="104.199" height="5.035" style="fill:#e6e9ee;"/><rect x="97.848" y="181.203" width="52.842" height="5.035" style="fill:#e6e9ee;"/></g></g></svg>