<?xml version="1.0" encoding="UTF-8" standalone="no"?><!DOCTYPE svg PUBLIC "-//W3C//DTD SVG 1.1//EN" "http://www.w3.org/Graphics/SVG/1.1/DTD/svg11.dtd"><svg width="100%" height="100%" viewBox="0 0 300 300" version="1.1" xmlns="http://www.w3.org/2000/svg" xmlns:xlink="http://www.w3.org/1999/xlink" xml:space="preserve" style="fill-rule:evenodd;clip-rule:evenodd;stroke-linejoin:round;stroke-miterlimit:1.41421;"><g id="Layer2"><rect x="0.239" y="0.058" width="299.596" height="299.87" style="fill:#f98b25;fill-opacity:0.9;"/></g><g id="Layer1"><g><path d="M222.449,150.314c0.245,-1.712 0.538,-3.374 0.538,-5.135c0,-18.874 -15.305,-34.179 -34.18,-34.179c-6.796,0 -13.153,2.054 -18.483,5.476c-8.508,-17.798 -26.503,-30.169 -47.529,-30.169c-29.143,0 -52.809,23.617 -52.809,52.809c0,4.401 0.684,8.655 1.711,12.762c-11.589,4.401 -19.999,16.186 -19.999,30.219c0,17.75 13.349,32.175 29.779,32.175l137.402,0c16.479,0 29.779,-14.376 29.779,-32.175c0,-16.429 -11.491,-29.827 -26.209,-31.783Z" style="fill:#fff;fill-rule:nonzero;"/><text x="85.963px" y="173.922px" style="font-family:'Arial-BoldMT', 'Arial', sans-serif;font-weight:700;font-size:37.608px;fill:#ffd05b;">T<tspan x="111.12px 140.862px 166.02px 191.177px " y="173.922px 173.922px 173.922px 173.922px ">Code</tspan></text></g></g></svg>