<?xml version="1.0" encoding="UTF-8" standalone="no"?><!DOCTYPE svg PUBLIC "-//W3C//DTD SVG 1.1//EN" "http://www.w3.org/Graphics/SVG/1.1/DTD/svg11.dtd"><svg width="100%" height="100%" viewBox="0 0 300 200" version="1.1" xmlns="http://www.w3.org/2000/svg" xmlns:xlink="http://www.w3.org/1999/xlink" xml:space="preserve" style="fill-rule:evenodd;clip-rule:evenodd;stroke-linejoin:round;stroke-miterlimit:1.41421;"><g id="Layer1"><rect x="-0.191" y="0.113" width="300.234" height="200.199" style="fill:#acc337;"/><g><rect x="118.717" y="101.716" width="94.778" height="47.836" style="fill:#e6e9ee;"/><path d="M121.793,104.792l0,41.782l88.724,0l0,-41.782l-88.724,0l0,0Zm2.978,32.652l0,-23.521c3.374,0 6.053,-2.68 6.053,-6.054l25.605,0c-5.359,3.672 -9.031,10.321 -9.031,17.864c0,7.542 3.573,14.192 9.031,17.864l-25.605,0c0,-3.474 -2.679,-6.153 -6.053,-6.153Zm82.67,0c-3.374,0 -6.054,2.679 -6.054,6.053l-25.506,0c5.359,-3.672 9.031,-10.321 9.031,-17.864c0,-7.542 -3.572,-14.191 -9.031,-17.863l25.506,0c0,3.374 2.68,6.053 6.054,6.053l0,23.621Z" style="fill:#2c9984;fill-rule:nonzero;"/><circle cx="196.524" cy="125.633" r="6.451" style="fill:#2c9984;"/><circle cx="135.687" cy="125.633" r="6.451" style="fill:#2c9984;"/><path d="M166.155,123.549c-1.687,0 -3.076,-1.389 -3.076,-3.076c0,-1.687 1.389,-3.077 3.076,-3.077c0.894,0 1.687,0.397 2.283,0.993c0.794,0.794 2.084,0.893 2.977,0.099c0.794,-0.794 0.893,-2.084 0.1,-2.977c-0.894,-0.894 -1.985,-1.588 -3.176,-1.985l0,-1.489c0,-1.191 -0.893,-2.084 -2.084,-2.084c-1.191,0 -2.085,0.893 -2.085,2.084l0,1.489c-2.977,0.893 -5.16,3.672 -5.16,6.947c0,3.97 3.275,7.245 7.245,7.245c1.687,0 3.076,1.389 3.076,3.076c0,1.687 -1.389,3.077 -3.076,3.077c-0.894,0 -1.688,-0.397 -2.283,-0.993c-0.794,-0.794 -2.084,-0.893 -2.977,-0.099c-0.794,0.794 -0.894,2.084 -0.1,2.977c0.894,0.894 1.985,1.588 3.176,1.985l0,1.489c0,1.191 0.893,2.084 2.084,2.084c1.191,0 2.084,-0.893 2.084,-2.084l0,-1.489c2.978,-0.893 5.161,-3.672 5.161,-6.947c0,-3.97 -3.275,-7.245 -7.245,-7.245Z" style="fill:#e6e9ee;fill-rule:nonzero;"/><path d="M87.401,114.532l32.51,35.092l69.53,-64.412l-32.51,-35.092l-69.53,64.412Z" style="fill:#fff;"/><path d="M91.722,114.617l28.384,30.667l65.104,-60.241l-28.384,-30.667l-65.104,60.241Zm24.414,21.933l-15.978,-17.268c2.481,-2.283 2.58,-6.153 0.298,-8.535l18.757,-17.368c-1.489,6.352 0.397,13.696 5.558,19.253c5.16,5.558 12.306,7.94 18.757,6.948l-18.857,17.268c-2.183,-2.382 -6.054,-2.58 -8.535,-0.298Zm60.638,-56.172c-2.481,2.283 -2.58,6.153 -0.297,8.535l-18.757,17.368c1.488,-6.352 -0.397,-13.696 -5.558,-19.253c-5.161,-5.558 -12.306,-7.94 -18.757,-6.948l18.757,-17.367c2.283,2.481 6.153,2.58 8.535,0.297l16.077,17.368Z" style="fill:#4cdbc4;fill-rule:nonzero;"/><circle cx="160.796" cy="79.187" r="6.451" style="fill:#4cdbc4;"/><circle cx="116.136" cy="120.473" r="6.451" style="fill:#4cdbc4;"/><path d="M137.077,98.341c-1.29,1.191 -3.275,1.092 -4.367,-0.198c-1.191,-1.29 -1.092,-3.275 0.199,-4.367c0.595,-0.595 1.488,-0.893 2.282,-0.794c1.191,0.099 2.184,-0.794 2.184,-1.885c0.099,-1.191 -0.794,-2.184 -1.886,-2.184c-1.29,-0.099 -2.58,0.199 -3.672,0.695l-0.993,-1.092c-0.794,-0.794 -2.084,-0.893 -2.977,-0.099c-0.794,0.794 -0.893,2.084 -0.099,2.977l0.992,1.092c-1.588,2.68 -1.29,6.252 0.894,8.634c2.679,2.977 7.344,3.077 10.222,0.397c1.29,-1.191 3.275,-1.092 4.366,0.199c1.191,1.29 1.092,3.275 -0.198,4.366c-0.596,0.596 -1.489,0.894 -2.283,0.794c-1.191,-0.099 -2.183,0.794 -2.183,1.886c-0.099,1.191 0.794,2.183 1.886,2.183c1.29,0.1 2.58,-0.198 3.672,-0.694l0.992,1.091c0.794,0.794 2.084,0.894 2.977,0.1c0.794,-0.794 0.894,-2.085 0.1,-2.978l-0.993,-1.091c1.588,-2.68 1.29,-6.253 -0.893,-8.635c-2.68,-2.977 -7.344,-3.175 -10.222,-0.397Z" style="fill:#fff;fill-rule:nonzero;"/></g></g></svg>