<?xml version="1.0" encoding="UTF-8" standalone="no"?><!DOCTYPE svg PUBLIC "-//W3C//DTD SVG 1.1//EN" "http://www.w3.org/Graphics/SVG/1.1/DTD/svg11.dtd"><svg width="100%" height="100%" viewBox="0 0 300 200" version="1.1" xmlns="http://www.w3.org/2000/svg" xmlns:xlink="http://www.w3.org/1999/xlink" xml:space="preserve" style="fill-rule:evenodd;clip-rule:evenodd;stroke-linejoin:round;stroke-miterlimit:1.41421;"><g id="Layer1"><rect x="-0.191" y="-0.277" width="300.234" height="200.481" style="fill:#afb339;"/><g><path d="M166.359,126.616c-0.733,4.64 -1.587,9.769 -2.931,15.143c-1.343,5.495 -2.931,11.235 -5.007,17.219c-2.686,0.244 -5.251,0.366 -8.06,0.366c-2.686,0 -5.373,-0.122 -8.06,-0.366c-4.152,-11.968 -6.594,-23.081 -7.938,-32.362c3.664,-11.602 15.876,-12.457 15.876,-12.457c0,0 12.579,0.977 16.12,12.457Z" style="fill:#e6e9ee;fill-rule:nonzero;"/><g><path d="M225.955,99.993c-1.71,7.205 -4.397,14.044 -8.06,20.272c-3.542,6.229 -8.06,11.968 -13.19,16.975l-0.244,-0.61l-0.122,0c0,0 0,-0.122 0.122,-0.245l-6.716,-20.76l-27.112,-12.945l18.685,-9.037c-1.465,6.35 1.343,16.608 1.343,16.364c2.443,-7.571 10.503,-8.182 10.503,-8.182c0,0 8.06,0.611 10.502,8.182c0.123,0.244 2.809,-10.136 1.344,-16.364l12.945,6.35Z" style="fill:#2b3b4e;fill-rule:nonzero;"/><path d="M201.164,101.825c-10.869,-5.251 -9.648,-12.09 -9.648,-12.09c0,-0.122 0,-0.244 0.122,-0.366c2.687,3.297 5.984,5.373 9.648,5.373c3.664,0 6.961,-2.076 9.648,-5.373c0,0.122 0,0.244 0,0.244c-0.122,0.244 1.099,6.961 -9.77,12.212Z" style="fill:#f9b54c;fill-rule:nonzero;"/><path d="M210.812,89.857c0,0 1.221,6.839 -9.648,12.09c0,0 8.06,0.611 10.502,8.182c0,0.245 4.397,-16.242 -0.854,-20.272Z" style="fill:#fff;fill-rule:nonzero;"/><path d="M191.516,89.857c0,0 -1.221,6.839 9.648,12.09c0,0 -8.06,0.611 -10.503,8.182c0,0.245 -4.518,-16.242 0.855,-20.272Z" style="fill:#fff;fill-rule:nonzero;"/><path d="M75.012,99.993c1.71,7.205 4.396,14.044 8.06,20.272c3.542,6.229 8.06,11.968 13.189,16.975l0.244,-0.61l0.123,0c0,0 0,-0.122 -0.123,-0.245l6.717,-20.76l26.989,-12.945l-18.685,-9.037c1.466,6.35 -1.343,16.608 -1.343,16.364c-2.442,-7.571 -10.502,-8.182 -10.502,-8.182c0,0 -8.06,0.611 -10.503,8.182c-0.122,0.244 -2.809,-10.136 -1.343,-16.364l-12.823,6.35Z" style="fill:#2b3b4e;fill-rule:nonzero;"/><path d="M99.803,101.825c10.869,-5.251 9.647,-12.09 9.647,-12.09c0,-0.122 0,-0.244 -0.122,-0.366c-2.686,3.297 -5.984,5.373 -9.647,5.373c-3.542,0 -6.961,-2.076 -9.648,-5.373c0,0.122 0,0.244 0,0.244c0.122,0.244 -1.099,6.961 9.77,12.212Z" style="fill:#f9b54c;fill-rule:nonzero;"/><path d="M90.155,89.857c0,0 -1.221,6.839 9.648,12.09c0,0 -8.06,0.611 -10.503,8.182c0,0.245 -4.518,-16.242 0.855,-20.272Z" style="fill:#fff;fill-rule:nonzero;"/><path d="M109.45,89.857c0,0 1.222,6.839 -9.647,12.09c0,0 8.06,0.611 10.502,8.182c0,0.245 4.397,-16.242 -0.855,-20.272Z" style="fill:#fff;fill-rule:nonzero;"/><path d="M213.376,82.163c-1.221,3.908 -1.71,5.984 -1.832,6.351c-2.808,3.785 -6.472,6.472 -10.502,6.472c-3.786,0 -7.205,-2.32 -9.892,-5.862l0.122,0c-5.862,-7.205 -1.832,-20.638 -1.832,-20.638c2.931,3.297 12.457,3.541 12.457,3.541c-3.908,-0.61 -4.763,-3.663 -4.885,-4.03c0.733,1.954 9.892,3.175 9.892,3.175c9.647,1.588 6.472,10.991 6.472,10.991Z" style="fill:#ffd05b;fill-rule:nonzero;"/><path d="M195.546,54.564c0,0 12.945,-5.129 19.662,6.594c7.083,12.579 -1.832,26.257 -3.664,27.356c0,0 0.489,-2.199 1.832,-6.351c0,0 3.175,-9.281 -6.35,-10.746c0,0 -9.281,-1.222 -9.892,-3.298c0,0 0.733,3.42 4.885,4.03c0,0 -9.526,-0.244 -12.457,-3.541c0,0 -4.03,13.433 1.832,20.638c0,0 -10.258,-8.182 -9.037,-20.76c0,-0.122 -0.61,-17.464 13.189,-13.922Z" style="fill:#2b3b4e;fill-rule:nonzero;"/><path d="M115.923,71.417c0,10.502 -7.205,23.569 -16.12,23.569c-8.915,0 -15.998,-13.067 -15.998,-23.569c0,-10.503 7.205,-14.655 16.12,-14.655c8.915,0 15.998,4.03 15.998,14.655Z" style="fill:#ffd05b;fill-rule:nonzero;"/><path d="M94.307,54.564c0,0 12.945,-5.129 19.662,6.594c7.083,12.579 -1.832,26.257 -3.664,27.356c0,0 0.489,-2.199 1.832,-6.351c0,0 3.175,-9.281 -6.35,-10.746c0,0 -9.282,-1.222 -9.892,-3.298c0,0 0.61,3.42 4.885,4.03c0,0 -9.526,-0.244 -12.457,-3.541c0,0 -4.03,13.433 1.832,20.638c0,0 -10.258,-8.182 -9.037,-20.76c-0.122,-0.122 -0.733,-17.464 13.189,-13.922Z" style="fill:#2b3b4e;fill-rule:nonzero;"/><path d="M150.605,114.037l-0.122,0c-16.486,-7.938 -14.654,-18.318 -14.654,-18.318c0,-0.122 0,-0.366 0.122,-0.489c4.03,4.885 9.159,8.183 14.654,8.183c5.496,0 10.503,-3.298 14.655,-8.183c0,0.123 0.122,0.367 0.122,0.489c-0.244,0 1.588,10.38 -14.777,18.318Z" style="fill:#f9b54c;fill-rule:nonzero;"/><path d="M150.605,114.037c-0.122,0.122 -0.122,0.122 0,0l-0.122,0l0.122,0Z" style="fill:#f1543f;fill-rule:nonzero;"/><path d="M156.345,115.747l-1.954,5.617l-7.816,0l-1.954,-5.617c3.176,-1.343 5.862,-1.588 5.862,-1.588c0,0 2.687,0.122 5.862,1.588Z" style="fill:#f1543f;fill-rule:nonzero;"/><path d="M204.583,136.752l-0.122,0c0,0 0,-0.122 0.122,-0.244l0,0.244Z" style="fill:#324a5e;fill-rule:nonzero;"/><path d="M165.138,95.719c0,0 1.832,10.38 -14.655,18.44c0,0 12.335,0.977 15.876,12.457c0.244,0.488 6.961,-24.791 -1.221,-30.897Z" style="fill:#fff;fill-rule:nonzero;"/><path d="M167.58,121.975c0.123,-0.611 0.245,-1.221 0.367,-1.954c-0.122,0.733 -0.244,1.343 -0.367,1.954Z" style="fill:#fff;fill-rule:nonzero;"/><path d="M135.829,95.719c0,0 -1.832,10.38 14.654,18.44c0,0 -12.334,0.977 -15.876,12.457c-0.244,0.488 -6.96,-24.791 1.222,-30.897Z" style="fill:#fff;fill-rule:nonzero;"/><path d="M133.02,120.143c0.122,0.733 0.244,1.344 0.366,1.954c-0.122,-0.733 -0.244,-1.343 -0.366,-1.954Z" style="fill:#fff;fill-rule:nonzero;"/><path d="M169.168,83.995c-1.954,5.984 -2.687,9.281 -2.809,9.648c-4.274,5.862 -9.77,9.77 -15.876,9.77c-5.739,0 -10.991,-3.542 -15.143,-8.915l0.122,0.122c-8.915,-11.113 -2.808,-31.386 -2.808,-31.386c4.518,5.13 19.051,5.496 19.051,5.496c-6.351,-0.977 -7.328,-6.106 -7.328,-6.106c0.977,3.053 15.143,5.007 15.143,5.007c14.411,2.076 9.648,16.364 9.648,16.364Z" style="fill:#ffd05b;fill-rule:nonzero;"/><path d="M171.855,51.999c-10.136,-17.952 -29.92,-10.014 -29.92,-10.014c-21.127,-5.373 -20.272,21.127 -20.272,21.127c-1.832,19.296 13.677,31.752 13.677,31.752c-9.037,-10.991 -2.809,-31.385 -2.809,-31.385c4.519,5.129 19.051,5.495 19.051,5.495c-6.35,-0.977 -7.327,-6.106 -7.327,-6.106c0.977,3.053 15.143,5.007 15.143,5.007c14.533,2.198 9.77,16.364 9.77,16.364c-2.076,6.351 -2.809,9.648 -2.809,9.648c2.809,-1.954 16.365,-22.715 5.496,-41.888Z" style="fill:#324a5e;fill-rule:nonzero;"/></g><path d="M141.324,158.856c3.053,0.366 6.106,0.611 9.159,0.611c3.053,0 6.229,-0.245 9.159,-0.611l-5.251,-37.492l-7.816,0l-5.251,37.492Z" style="fill:#ff7058;fill-rule:nonzero;"/><path d="M204.705,137.362c-12.212,11.968 -28.332,19.906 -46.284,21.738c4.152,-11.968 6.595,-23.081 7.938,-32.362c0.122,0.366 4.274,-15.388 2.076,-25.035l29.31,14.166l6.96,21.493Z" style="fill:#324a5e;fill-rule:nonzero;"/><path d="M142.423,159.1c-17.952,-1.832 -34.072,-9.77 -46.284,-21.738l6.961,-21.493l29.309,-14.166c-2.198,9.647 1.954,25.279 2.076,25.035c1.466,9.281 3.786,20.272 7.938,32.362Z" style="fill:#324a5e;fill-rule:nonzero;"/></g></g></svg>