<?xml version="1.0" encoding="UTF-8" standalone="no"?><!DOCTYPE svg PUBLIC "-//W3C//DTD SVG 1.1//EN" "http://www.w3.org/Graphics/SVG/1.1/DTD/svg11.dtd"><svg width="100%" height="100%" viewBox="0 0 300 300" version="1.1" xmlns="http://www.w3.org/2000/svg" xmlns:xlink="http://www.w3.org/1999/xlink" xml:space="preserve" style="fill-rule:evenodd;clip-rule:evenodd;stroke-linejoin:round;stroke-miterlimit:1.41421;"><g id="Layer2"><rect x="0.239" y="0.058" width="299.596" height="300.425" style="fill:#50ae54;fill-opacity:0.9;"/></g><g id="Layer1"><g><g><path d="M189.073,59.536l0,28.968l28.967,0l0,151.173l-137.095,0l0,-180.141l108.128,0Z" style="fill:#fff;fill-rule:nonzero;"/><path d="M189.073,59.536l28.967,28.968l-28.967,0l0,-28.968Z" style="fill:#e6e9ee;fill-rule:nonzero;"/><rect x="97.134" y="167.394" width="104.771" height="5.848" style="fill:#db4c4c;"/><rect x="97.134" y="183.366" width="104.771" height="5.848" style="fill:#db4c4c;"/><rect x="97.134" y="199.285" width="104.771" height="5.848" style="fill:#db4c4c;"/><rect x="97.134" y="215.258" width="65.787" height="5.848" style="fill:#db4c4c;"/><text x="107.61px" y="153.334px" style="font-family:'Arial-BoldMT', 'Arial', sans-serif;font-weight:700;font-size:21.066px;fill:#db4c4c;">ADJUST</text></g><g><path d="M178.241,71.157l-37.222,20.634l-1.906,1.782l18.36,17.479l1.312,-1.486l19.456,-38.409Z" style="fill:#f7d98b;fill-rule:nonzero;"/><path d="M178.355,70.941l-16.243,9.031l7.773,7.773l8.47,-16.804Z" style="fill:#626463;fill-rule:nonzero;"/><g><path d="M159.123,106.851l-5.538,0.319l-19.367,19.348c1.584,1.049 3.256,1.961 4.988,2.786l18.267,-18.252l1.65,-4.201Z" style="fill:#e84849;fill-rule:nonzero;"/><path d="M127.678,121.082l19.923,-19.904l0.245,-5.607l-5.39,0.464l-19.398,19.385c1.36,2.027 2.918,3.917 4.62,5.662Z" style="fill:#e84849;fill-rule:nonzero;"/><path d="M142.456,96.035l0.759,-5.098l-3.68,2.172l-18.652,18.637c0.664,1.262 1.381,2.491 2.175,3.672l19.398,-19.383Z" style="fill:#f06668;fill-rule:nonzero;"/><path d="M134.221,126.518l19.366,-19.348l-0.068,-5.926l-5.915,-0.066l-19.923,19.904c1.98,2.027 4.17,3.857 6.54,5.436Z" style="fill:#f06668;fill-rule:nonzero;"/></g></g></g></g></svg>