<?xml version="1.0" encoding="UTF-8" standalone="no"?><!DOCTYPE svg PUBLIC "-//W3C//DTD SVG 1.1//EN" "http://www.w3.org/Graphics/SVG/1.1/DTD/svg11.dtd"><svg width="100%" height="100%" viewBox="0 0 300 200" version="1.1" xmlns="http://www.w3.org/2000/svg" xmlns:xlink="http://www.w3.org/1999/xlink" xml:space="preserve" style="fill-rule:evenodd;clip-rule:evenodd;stroke-linejoin:round;stroke-miterlimit:1.41421;"><g id="Layer1"><rect x="-0.191" y="0.113" width="300.234" height="200.236" style="fill:#1fbcd3;"/><g><g><g><path d="M171.644,50.059l0,16.135l16.135,0l0,84.203l-76.362,0l0,-100.338l60.227,0Z" style="fill:#fff;fill-rule:nonzero;"/><path d="M171.644,50.059l16.135,16.135l-16.135,0l0,-16.135Z" style="fill:#e6e9ee;fill-rule:nonzero;"/><text x="116.108px" y="64.37px" style="font-family:'Arial-BoldMT', 'Arial', sans-serif;font-weight:700;font-size:8.355px;fill:#db4c4c;">INVOICE</text></g><g><path d="M182.316,131.672l-65.617,0c-0.347,0 -0.579,-0.231 -0.579,-0.579l0,-39.185c0,-0.348 0.232,-0.58 0.579,-0.58l65.501,0c0.348,0 0.58,0.232 0.58,0.58l0,39.185c0.116,0.348 -0.232,0.579 -0.464,0.579Zm-65.037,-1.159l64.342,0l0,-38.025l-64.342,0l0,38.025Z" style="fill:#ced5e0;fill-rule:nonzero;"/><rect x="116.699" y="97.705" width="65.501" height="1.159" style="fill:#ced5e0;"/><rect x="151.247" y="91.908" width="1.159" height="39.185" style="fill:#ced5e0;"/><rect x="167.129" y="91.908" width="1.159" height="39.185" style="fill:#ced5e0;"/><rect x="116.699" y="104.313" width="65.501" height="1.159" style="fill:#ced5e0;"/><rect x="116.699" y="110.921" width="65.501" height="1.159" style="fill:#ced5e0;"/><rect x="116.699" y="117.529" width="65.501" height="1.159" style="fill:#ced5e0;"/><rect x="116.699" y="124.137" width="65.501" height="1.159" style="fill:#ced5e0;"/></g><g><rect x="116.869" y="72.57" width="66.246" height="1.938" style="fill:#4054b2;"/><rect x="116.869" y="77.718" width="65.974" height="2.093" style="fill:#84dbff;"/><rect x="116.869" y="82.531" width="65.47" height="2.093" style="fill:#e6e9ee;"/></g><path d="M174.555,85.68l0,-1.28c-1.626,-0.16 -3.09,-0.8 -4.391,-1.92l1.301,-1.532c1.003,0.853 2.033,1.359 3.09,1.532l0,-3.412c-1.342,-0.32 -2.331,-0.733 -2.954,-1.253c-0.624,-0.52 -0.935,-1.279 -0.935,-2.293c0,-1.013 0.366,-1.839 1.084,-2.479c0.718,-0.64 1.653,-1 2.818,-1.053l0,-0.88l1.139,0l0,0.893c1.314,0.094 2.547,0.534 3.713,1.32l-1.166,1.613c-0.786,-0.547 -1.639,-0.893 -2.547,-1.013l0,3.306l0.054,0c1.369,0.32 2.371,0.746 3.022,1.279c0.637,0.533 0.962,1.32 0.962,2.346c0,1.027 -0.366,1.853 -1.111,2.506c-0.732,0.64 -1.721,1 -2.927,1.053l0,1.267l-1.152,0Zm-1.26,-11.331c-0.298,0.267 -0.461,0.587 -0.461,0.987c0,0.386 0.122,0.706 0.352,0.933c0.244,0.227 0.691,0.453 1.355,0.653l0,-3.039c-0.515,0.04 -0.935,0.2 -1.246,0.466Zm3.767,7.705c0.339,-0.267 0.501,-0.613 0.501,-1.013c0,-0.413 -0.135,-0.733 -0.393,-0.973c-0.257,-0.24 -0.745,-0.467 -1.463,-0.68l0,3.159c0.569,-0.067 1.016,-0.227 1.355,-0.493Z" style="fill:#db4c4c;fill-rule:nonzero;"/></g></g></g></svg>