<?xml version="1.0" encoding="UTF-8" standalone="no"?>
<!DOCTYPE svg PUBLIC "-//W3C//DTD SVG 1.1//EN" "http://www.w3.org/Graphics/SVG/1.1/DTD/svg11.dtd">
<svg width="100%" height="100%" viewBox="0 0 137 136" version="1.1" xmlns="http://www.w3.org/2000/svg" xmlns:xlink="http://www.w3.org/1999/xlink" xml:space="preserve" style="fill-rule:evenodd;clip-rule:evenodd;stroke-linejoin:round;stroke-miterlimit:1.41421;">
    <g>
        <circle cx="68.457" cy="68.457" r="63.333" style="fill:rgb(52,78,93);"/>
        <path d="M68.416,131.75C89.404,131.75 108,121.535 119.523,105.811C117.382,102.743 108.96,93.778 80.613,86.957C80.613,80.521 79.972,76.666 79.972,76.666C79.972,76.666 88.334,65.084 88.976,49.002C88.976,46.445 90.232,28.307 68.393,27.486C68.393,27.478 68.393,27.465 68.393,27.459C68.339,27.459 68.291,27.471 68.232,27.471C68.176,27.471 68.129,27.459 68.073,27.459C68.073,27.465 68.073,27.479 68.073,27.486C46.238,28.306 47.49,46.445 47.49,49.001C48.131,65.083 56.494,76.665 56.494,76.665C56.494,76.665 55.848,80.52 55.848,86.956C28.251,93.597 19.543,102.269 17.128,105.552C28.636,121.421 47.315,131.75 68.416,131.75Z" style="fill:rgb(68,138,150);fill-rule:nonzero;"/>
        <g>
            <circle cx="92.805" cy="100.77" r="15.25" style="fill:rgb(204,32,39);"/>
            <g>
                <path d="M100.055,93.492C100.994,94.431 100.994,95.953 100.054,96.893L88.988,107.959C88.05,108.897 86.527,108.898 85.588,107.959C84.649,107.02 84.65,105.498 85.588,104.559L96.654,93.493C97.594,92.553 99.116,92.553 100.055,93.492Z" style="fill:white;fill-rule:nonzero;"/>
                <path d="M100.055,107.959C99.117,108.898 97.595,108.898 96.655,107.958L85.588,96.892C84.65,95.954 84.649,94.431 85.588,93.492C86.527,92.553 88.05,92.554 88.988,93.492L100.054,104.558C100.994,105.498 100.994,107.02 100.055,107.959Z" style="fill:white;fill-rule:nonzero;"/>
            </g>
        </g>
    </g>
</svg>
