<?xml version="1.0" encoding="UTF-8" standalone="no"?>
<!DOCTYPE svg PUBLIC "-//W3C//DTD SVG 1.1//EN" "http://www.w3.org/Graphics/SVG/1.1/DTD/svg11.dtd">
<svg width="100%" height="100%" viewBox="0 0 137 136" version="1.1" xmlns="http://www.w3.org/2000/svg" xmlns:xlink="http://www.w3.org/1999/xlink" xml:space="preserve" style="fill-rule:evenodd;clip-rule:evenodd;stroke-linejoin:round;stroke-miterlimit:1.41421;">
    <g>
        <circle cx="68.416" cy="68.417" r="63.333" style="fill:rgb(110,64,149);"/>
        <path d="M68.416,131.75C89.404,131.75 108,121.535 119.523,105.811C117.382,102.743 108.96,93.778 80.613,86.957C80.613,80.521 79.972,76.666 79.972,76.666C79.972,76.666 88.334,65.084 88.976,49.002C88.976,46.445 90.232,28.307 68.393,27.486C68.393,27.478 68.393,27.465 68.393,27.459C68.339,27.459 68.291,27.471 68.232,27.471C68.176,27.471 68.129,27.459 68.073,27.459C68.073,27.465 68.073,27.479 68.073,27.486C46.238,28.306 47.49,46.445 47.49,49.001C48.131,65.083 56.494,76.665 56.494,76.665C56.494,76.665 55.848,80.52 55.848,86.956C28.251,93.597 19.543,102.269 17.128,105.552C28.636,121.421 47.315,131.75 68.416,131.75Z" style="fill:rgb(68,138,150);fill-rule:nonzero;"/>
        <g>
            <circle cx="92.805" cy="100.77" r="15.25" style="fill:rgb(158,176,39);"/>
            <g>
                <g>
                    <path d="M87.781,93.952L88.609,93.002L88.341,91.768L89.583,92.205C91.233,91.076 93.304,90.648 95.194,91.35C98.465,92.563 99.946,96.694 98.708,100.031L100.774,100.797C102.445,96.296 100.387,90.877 95.978,89.24C92.177,87.83 87.874,89.692 85.687,93.113C85.687,93.113 85.475,93.925 86.329,94.303C87.184,94.68 87.781,93.952 87.781,93.952Z" style="fill:rgb(244,224,40);fill-rule:nonzero;"/>
                    <path d="M101.623,108.855C101.623,109.86 100.79,110.676 99.761,110.676L86.421,110.676C85.396,110.676 84.561,109.86 84.561,108.855L84.561,98.077C84.561,97.071 101.624,97.071 101.624,98.077L101.624,108.855L101.623,108.855Z" style="fill:rgb(244,224,40);fill-rule:nonzero;"/>
                    <path d="M95.064,102.443C95.064,101.393 94.211,100.542 93.163,100.542C92.113,100.542 91.261,101.393 91.261,102.443C91.261,103.245 91.757,103.928 92.457,104.208L92.457,105.962C92.457,106.334 92.759,106.636 93.131,106.636C93.503,106.636 93.805,106.334 93.805,105.962L93.805,104.232C94.537,103.969 95.064,103.268 95.064,102.443Z" style="fill:rgb(218,196,37);fill-rule:nonzero;"/>
                    <path d="M91.189,102.443C91.189,101.393 92.042,100.542 93.091,100.542C93.091,100.542 91.766,101.425 91.766,102.476C91.766,103.546 92.766,104.181 92.766,104.181L92.766,105.982C92.766,106.354 93.122,106.636 93.122,106.636C92.751,106.636 92.449,106.334 92.449,105.962L92.449,104.232C91.716,103.969 91.189,103.268 91.189,102.443Z" style="fill:rgb(208,184,43);fill-rule:nonzero;"/>
                </g>
                <path d="M98.519,110.677L96.143,110.677L96.143,97.366L98.519,97.485L98.519,110.677Z" style="fill:rgb(248,227,73);fill-rule:nonzero;"/>
                <path d="M96.143,89.295L96.143,91.818C97.123,92.44 97.944,93.509 98.519,94.561L98.519,90.785C97.814,90.143 97.012,89.669 96.143,89.295Z" style="fill:rgb(248,227,73);fill-rule:nonzero;"/>
            </g>
        </g>
    </g>
</svg>
