<?xml version="1.0" encoding="UTF-8" standalone="no"?>
<!DOCTYPE svg PUBLIC "-//W3C//DTD SVG 1.1//EN" "http://www.w3.org/Graphics/SVG/1.1/DTD/svg11.dtd">
<svg width="100%" height="100%" viewBox="0 0 137 136" version="1.1" xmlns="http://www.w3.org/2000/svg" xmlns:xlink="http://www.w3.org/1999/xlink" xml:space="preserve" style="fill-rule:evenodd;clip-rule:evenodd;stroke-linejoin:round;stroke-miterlimit:1.41421;">
    <g>
        <circle cx="68.417" cy="68.417" r="63.333" style="fill:rgb(143,131,118);"/>
        <g>
            <path d="M25.992,115.435C25.699,106.119 25.41,95.888 25.128,95.497C26.787,93.241 31.971,87.972 46.411,83.065C43.946,82.213 41.101,81.374 37.813,80.583C37.813,76.663 37.422,74.313 37.422,74.313C37.422,74.313 42.518,67.257 42.908,57.456C42.908,55.897 43.674,44.845 30.366,44.345C30.366,44.345 30.366,44.333 30.366,44.329C30.333,44.329 30.303,44.335 30.267,44.335C30.233,44.335 30.204,44.329 30.17,44.329C30.17,44.333 30.17,44.341 30.17,44.341C16.864,44.845 17.627,55.898 17.627,57.456C18.018,67.257 23.114,74.313 23.114,74.313C23.114,74.313 22.72,76.663 22.72,80.583C15.951,82.214 11.05,84.042 7.511,85.776C10.807,97.355 17.298,107.585 25.992,115.435Z" style="fill:rgb(249,134,70);fill-rule:nonzero;"/>
            <path d="M114.922,74.314C114.922,74.314 120.018,67.258 120.408,57.457C120.408,55.898 121.174,44.846 107.866,44.346C107.866,44.346 107.866,44.334 107.866,44.33C107.833,44.33 107.803,44.336 107.767,44.336C107.733,44.336 107.704,44.33 107.67,44.33C107.67,44.334 107.67,44.342 107.67,44.342C94.364,44.846 95.127,55.899 95.127,57.457C95.518,67.258 100.614,74.314 100.614,74.314C100.614,74.314 100.22,76.664 100.22,80.584C96.587,81.459 93.492,82.391 90.857,83.336C105.173,88.328 110.067,93.633 111.521,95.715C111.375,95.916 110.954,106.285 110.803,115.436C119.504,107.502 126.241,96.956 129.46,85.276C126.019,83.694 121.43,82.057 115.311,80.585C115.313,76.664 114.922,74.314 114.922,74.314Z" style="fill:rgb(249,134,70);fill-rule:nonzero;"/>
            <path d="M111.669,95.498C110.321,88.91 104.826,87.973 90.386,83.066C87.094,81.947 83.323,80.847 79,79.808C79,74.378 78.454,71.124 78.454,71.124C78.454,71.124 85.511,61.353 86.051,47.783C86.051,45.627 85.433,29.623 68.308,29.623C51.183,29.623 50.745,45.627 50.745,47.783C51.285,61.353 58.342,71.124 58.342,71.124C58.342,71.124 57.796,74.378 57.796,79.808C53.474,80.847 49.702,81.947 46.41,83.066C31.97,87.972 26.474,88.91 25.127,95.498C24.774,97.223 25.698,106.119 25.991,115.436C26.034,115.475 26.08,115.51 26.123,115.549C37.329,125.612 52.138,131.742 68.381,131.75L68.416,131.75C84.659,131.742 99.468,125.611 110.674,115.549C110.717,115.51 110.763,115.475 110.806,115.436C111.098,106.119 112.022,97.222 111.669,95.498Z" style="fill:rgb(246,150,86);fill-rule:nonzero;"/>
        </g>
        <g>
            <circle cx="92.805" cy="100.77" r="15.25" style="fill:rgb(218,31,38);"/>
            <g>
                <g>
                    <path d="M101.26,98.127C101.26,93.326 97.446,88.96 92.741,88.96C88.036,88.96 84.222,93.325 84.222,98.127L86.427,98.127C86.427,94.567 89.252,91.211 92.74,91.211C96.227,91.211 99.053,94.567 99.053,98.127L101.26,98.127Z" style="fill:rgb(244,224,40);fill-rule:nonzero;"/>
                    <path d="M101.266,108.873C101.266,109.878 100.433,110.694 99.404,110.694L86.064,110.694C85.039,110.694 84.204,109.878 84.204,108.873L84.204,98.095C84.204,97.089 101.267,97.089 101.267,98.095L101.267,108.873L101.266,108.873Z" style="fill:rgb(244,224,40);fill-rule:nonzero;"/>
                    <path d="M94.707,102.461C94.707,101.411 93.854,100.56 92.806,100.56C91.756,100.56 90.904,101.411 90.904,102.461C90.904,103.263 91.4,103.946 92.1,104.226L92.1,105.98C92.1,106.352 92.402,106.654 92.774,106.654C93.146,106.654 93.448,106.352 93.448,105.98L93.448,104.25C94.18,103.986 94.707,103.286 94.707,102.461Z" style="fill:rgb(218,196,37);fill-rule:nonzero;"/>
                    <path d="M90.832,102.461C90.832,101.411 91.685,100.56 92.734,100.56C92.734,100.56 91.409,101.443 91.409,102.494C91.409,103.564 92.409,104.199 92.409,104.199L92.409,106C92.409,106.372 92.765,106.654 92.765,106.654C92.394,106.654 92.092,106.352 92.092,105.98L92.092,104.25C91.358,103.986 90.832,103.286 90.832,102.461Z" style="fill:rgb(208,184,43);fill-rule:nonzero;"/>
                </g>
                <path d="M98.161,110.694L95.785,110.694L95.785,97.384L98.161,97.502L98.161,110.694Z" style="fill:rgb(248,227,73);fill-rule:nonzero;"/>
                <path d="M95.785,89.597L95.785,92.12C96.765,92.742 97.586,93.643 98.161,94.695L98.161,91.14C97.457,90.497 96.654,89.971 95.785,89.597Z" style="fill:rgb(248,227,73);fill-rule:nonzero;"/>
            </g>
        </g>
    </g>
</svg>
