<?xml version="1.0" encoding="UTF-8" standalone="no"?>
<!DOCTYPE svg PUBLIC "-//W3C//DTD SVG 1.1//EN" "http://www.w3.org/Graphics/SVG/1.1/DTD/svg11.dtd">
<svg width="100%" height="100%" viewBox="0 0 137 136" version="1.1" xmlns="http://www.w3.org/2000/svg" xmlns:xlink="http://www.w3.org/1999/xlink" xml:space="preserve" style="fill-rule:evenodd;clip-rule:evenodd;stroke-linejoin:round;stroke-miterlimit:1.41421;">
    <g>
        <circle cx="68.416" cy="68.417" r="63.333" style="fill:rgb(110,64,149);"/>
        <g>
            <path d="M25.992,115.435C25.699,106.119 25.41,95.888 25.128,95.497C26.787,93.241 31.971,87.972 46.411,83.065C43.946,82.213 41.101,81.374 37.813,80.583C37.813,76.663 37.422,74.313 37.422,74.313C37.422,74.313 42.518,67.257 42.908,57.456C42.908,55.897 43.674,44.845 30.366,44.345C30.366,44.345 30.366,44.333 30.366,44.329C30.333,44.329 30.303,44.335 30.267,44.335C30.233,44.335 30.204,44.329 30.17,44.329C30.17,44.333 30.17,44.341 30.17,44.341C16.864,44.845 17.627,55.898 17.627,57.456C18.018,67.257 23.114,74.313 23.114,74.313C23.114,74.313 22.72,76.663 22.72,80.583C15.951,82.214 11.05,84.042 7.511,85.776C10.807,97.355 17.298,107.585 25.992,115.435Z" style="fill:rgb(249,134,70);fill-rule:nonzero;"/>
            <path d="M114.922,74.314C114.922,74.314 120.018,67.258 120.408,57.457C120.408,55.898 121.174,44.846 107.866,44.346C107.866,44.346 107.866,44.334 107.866,44.33C107.833,44.33 107.803,44.336 107.767,44.336C107.733,44.336 107.704,44.33 107.67,44.33C107.67,44.334 107.67,44.342 107.67,44.342C94.364,44.846 95.127,55.899 95.127,57.457C95.518,67.258 100.614,74.314 100.614,74.314C100.614,74.314 100.22,76.664 100.22,80.584C96.587,81.459 93.492,82.391 90.857,83.336C105.173,88.328 110.067,93.633 111.521,95.715C111.375,95.916 110.954,106.285 110.803,115.436C119.504,107.502 126.241,96.956 129.46,85.276C126.019,83.694 121.43,82.057 115.311,80.585C115.313,76.664 114.922,74.314 114.922,74.314Z" style="fill:rgb(249,134,70);fill-rule:nonzero;"/>
            <path d="M111.669,95.498C110.321,88.91 104.826,87.973 90.386,83.066C87.094,81.947 83.323,80.847 79,79.808C79,74.378 78.454,71.124 78.454,71.124C78.454,71.124 85.511,61.353 86.051,47.783C86.051,45.627 85.433,29.623 68.308,29.623C51.183,29.623 50.745,45.627 50.745,47.783C51.285,61.353 58.342,71.124 58.342,71.124C58.342,71.124 57.796,74.378 57.796,79.808C53.474,80.847 49.702,81.947 46.41,83.066C31.97,87.972 26.474,88.91 25.127,95.498C24.774,97.223 25.698,106.119 25.991,115.436C26.034,115.475 26.08,115.51 26.123,115.549C37.329,125.612 52.138,131.742 68.381,131.75L68.416,131.75C84.659,131.742 99.468,125.611 110.674,115.549C110.717,115.51 110.763,115.475 110.806,115.436C111.098,106.119 112.022,97.222 111.669,95.498Z" style="fill:rgb(246,150,86);fill-rule:nonzero;"/>
        </g>
        <g>
            <circle cx="92.805" cy="100.77" r="15.25" style="fill:rgb(158,176,39);"/>
            <g>
                <g>
                    <path d="M87.781,93.952L88.609,93.002L88.341,91.768L89.583,92.205C91.233,91.076 93.304,90.648 95.194,91.35C98.465,92.563 99.946,96.694 98.708,100.031L100.774,100.797C102.445,96.296 100.387,90.877 95.978,89.24C92.177,87.83 87.874,89.692 85.687,93.113C85.687,93.113 85.475,93.925 86.329,94.303C87.184,94.68 87.781,93.952 87.781,93.952Z" style="fill:rgb(244,224,40);fill-rule:nonzero;"/>
                    <path d="M101.623,108.855C101.623,109.86 100.79,110.676 99.761,110.676L86.421,110.676C85.396,110.676 84.561,109.86 84.561,108.855L84.561,98.077C84.561,97.071 101.624,97.071 101.624,98.077L101.624,108.855L101.623,108.855Z" style="fill:rgb(244,224,40);fill-rule:nonzero;"/>
                    <path d="M95.064,102.443C95.064,101.393 94.211,100.542 93.163,100.542C92.113,100.542 91.261,101.393 91.261,102.443C91.261,103.245 91.757,103.928 92.457,104.208L92.457,105.962C92.457,106.334 92.759,106.636 93.131,106.636C93.503,106.636 93.805,106.334 93.805,105.962L93.805,104.232C94.537,103.969 95.064,103.268 95.064,102.443Z" style="fill:rgb(218,196,37);fill-rule:nonzero;"/>
                    <path d="M91.189,102.443C91.189,101.393 92.042,100.542 93.091,100.542C93.091,100.542 91.766,101.425 91.766,102.476C91.766,103.546 92.766,104.181 92.766,104.181L92.766,105.982C92.766,106.354 93.122,106.636 93.122,106.636C92.751,106.636 92.449,106.334 92.449,105.962L92.449,104.232C91.716,103.969 91.189,103.268 91.189,102.443Z" style="fill:rgb(208,184,43);fill-rule:nonzero;"/>
                </g>
                <path d="M98.519,110.677L96.143,110.677L96.143,97.366L98.519,97.485L98.519,110.677Z" style="fill:rgb(248,227,73);fill-rule:nonzero;"/>
                <path d="M96.143,89.295L96.143,91.818C97.123,92.44 97.944,93.509 98.519,94.561L98.519,90.785C97.814,90.143 97.012,89.669 96.143,89.295Z" style="fill:rgb(248,227,73);fill-rule:nonzero;"/>
            </g>
        </g>
    </g>
</svg>
