<?xml version="1.0" encoding="UTF-8" standalone="no"?>
<!DOCTYPE svg PUBLIC "-//W3C//DTD SVG 1.1//EN" "http://www.w3.org/Graphics/SVG/1.1/DTD/svg11.dtd">
<svg width="100%" height="100%" viewBox="0 0 137 136" version="1.1" xmlns="http://www.w3.org/2000/svg" xmlns:xlink="http://www.w3.org/1999/xlink" xml:space="preserve" style="fill-rule:evenodd;clip-rule:evenodd;stroke-linejoin:round;stroke-miterlimit:1.41421;">
    <g>
        <circle cx="68.301" cy="67.849" r="63.333" style="fill:rgb(44,157,216);"/>
        <g>
            <path d="M25.992,115.435C25.699,106.119 25.41,95.888 25.128,95.497C26.787,93.241 31.971,87.972 46.411,83.065C43.946,82.213 41.101,81.374 37.813,80.583C37.813,76.663 37.422,74.313 37.422,74.313C37.422,74.313 42.518,67.257 42.908,57.456C42.908,55.897 43.674,44.845 30.366,44.345C30.366,44.345 30.366,44.333 30.366,44.329C30.333,44.329 30.303,44.335 30.267,44.335C30.233,44.335 30.204,44.329 30.17,44.329C30.17,44.333 30.17,44.341 30.17,44.341C16.864,44.845 17.627,55.898 17.627,57.456C18.018,67.257 23.114,74.313 23.114,74.313C23.114,74.313 22.72,76.663 22.72,80.583C15.951,82.214 11.05,84.042 7.511,85.776C10.807,97.355 17.298,107.585 25.992,115.435Z" style="fill:rgb(249,134,70);fill-rule:nonzero;"/>
            <path d="M114.922,74.314C114.922,74.314 120.018,67.258 120.408,57.457C120.408,55.898 121.174,44.846 107.866,44.346C107.866,44.346 107.866,44.334 107.866,44.33C107.833,44.33 107.803,44.336 107.767,44.336C107.733,44.336 107.704,44.33 107.67,44.33C107.67,44.334 107.67,44.342 107.67,44.342C94.364,44.846 95.127,55.899 95.127,57.457C95.518,67.258 100.614,74.314 100.614,74.314C100.614,74.314 100.22,76.664 100.22,80.584C96.587,81.459 93.492,82.391 90.857,83.336C105.173,88.328 110.067,93.633 111.521,95.715C111.375,95.916 110.954,106.285 110.803,115.436C119.504,107.502 126.241,96.956 129.46,85.276C126.019,83.694 121.43,82.057 115.311,80.585C115.313,76.664 114.922,74.314 114.922,74.314Z" style="fill:rgb(249,134,70);fill-rule:nonzero;"/>
            <path d="M25.992,115.435C25.992,115.462 25.994,115.492 25.994,115.519C26.038,115.529 26.081,115.539 26.124,115.548C26.081,115.509 26.035,115.474 25.992,115.435Z" style="fill:rgb(80,155,163);fill-rule:nonzero;"/>
            <path d="M111.669,95.498C110.321,88.91 104.826,87.973 90.386,83.066C87.094,81.947 83.323,80.847 79,79.808C79,74.378 78.454,71.124 78.454,71.124C78.454,71.124 85.511,61.353 86.051,47.783C86.051,45.627 85.433,29.623 68.308,29.623C51.183,29.623 50.745,45.627 50.745,47.783C51.285,61.353 58.342,71.124 58.342,71.124C58.342,71.124 57.796,74.378 57.796,79.808C53.474,80.847 49.702,81.947 46.41,83.066C31.97,87.972 26.474,88.91 25.127,95.498C24.774,97.223 25.698,106.119 25.991,115.436C26.034,115.475 26.08,115.51 26.123,115.549C37.329,125.612 52.138,131.742 68.381,131.75L68.416,131.75C84.659,131.742 99.468,125.611 110.674,115.549C110.717,115.51 110.763,115.475 110.806,115.436C111.098,106.119 112.022,97.222 111.669,95.498Z" style="fill:rgb(246,150,86);fill-rule:nonzero;"/>
        </g>
        <g>
            <circle cx="92.805" cy="100.77" r="15.25" style="fill:rgb(14,162,74);"/>
            <g>
                <path d="M102.666,99.172C99.889,96.395 97.113,93.619 94.336,90.841C93.499,90.004 92.106,90.027 91.275,90.858C88.498,93.634 85.718,96.412 82.944,99.189C80.971,101.162 84.044,104.21 86.019,102.234C88.795,99.457 91.574,96.679 94.352,93.902C93.333,93.907 92.311,93.913 91.289,93.919C94.066,96.695 96.844,99.473 99.621,102.251C101.593,104.221 104.642,101.15 102.666,99.172Z" style="fill:white;fill-rule:nonzero;"/>
                <g>
                    <path d="M92.812,92.826L92.812,110.02" style="fill:white;fill-rule:nonzero;"/>
                    <path d="M90.648,92.811C90.648,99.383 90.648,103.432 90.648,110.004C90.648,112.799 94.977,112.824 94.977,110.036C94.977,103.462 94.977,99.415 94.977,92.842C94.977,90.046 90.648,90.022 90.648,92.811Z" style="fill:white;fill-rule:nonzero;"/>
                </g>
            </g>
        </g>
    </g>
</svg>
