<?xml version="1.0" encoding="UTF-8" standalone="no"?>
<!DOCTYPE svg PUBLIC "-//W3C//DTD SVG 1.1//EN" "http://www.w3.org/Graphics/SVG/1.1/DTD/svg11.dtd">
<svg width="100%" height="100%" viewBox="0 0 137 136" version="1.1" xmlns="http://www.w3.org/2000/svg" xmlns:xlink="http://www.w3.org/1999/xlink" xml:space="preserve" style="fill-rule:evenodd;clip-rule:evenodd;stroke-linejoin:round;stroke-miterlimit:1.41421;">
    <g>
        <circle cx="68.457" cy="68.457" r="63.333" style="fill:rgb(52,78,93);"/>
        <g>
            <circle cx="92.805" cy="100.77" r="15.25" style="fill:rgb(204,32,39);"/>
            <g>
                <path d="M100.055,93.492C100.994,94.431 100.994,95.953 100.054,96.893L88.988,107.959C88.05,108.897 86.527,108.898 85.588,107.959C84.649,107.02 84.65,105.498 85.588,104.559L96.654,93.493C97.594,92.553 99.116,92.553 100.055,93.492Z" style="fill:white;fill-rule:nonzero;"/>
                <path d="M100.055,107.959C99.117,108.898 97.595,108.898 96.655,107.958L85.588,96.892C84.65,95.954 84.649,94.431 85.588,93.492C86.527,92.553 88.05,92.554 88.988,93.492L100.054,104.558C100.994,105.498 100.994,107.02 100.055,107.959Z" style="fill:white;fill-rule:nonzero;"/>
            </g>
        </g>
    </g>
</svg>
