<?xml version="1.0" encoding="UTF-8" standalone="no"?>
<!DOCTYPE svg PUBLIC "-//W3C//DTD SVG 1.1//EN" "http://www.w3.org/Graphics/SVG/1.1/DTD/svg11.dtd">
<svg width="100%" height="100%" viewBox="0 0 137 136" version="1.1" xmlns="http://www.w3.org/2000/svg" xmlns:xlink="http://www.w3.org/1999/xlink" xml:space="preserve" style="fill-rule:evenodd;clip-rule:evenodd;stroke-linejoin:round;stroke-miterlimit:1.41421;">
    <g>
        <circle cx="68.417" cy="68.417" r="63.333" style="fill:rgb(172,195,55);"/>
        <g transform="matrix(3.27869,0,0,3.27869,-235.595,-262.128)">
            <circle cx="92.805" cy="100.77" r="15.25" style="fill:rgb(73,160,174);"/>
            <path d="M82.94,103.166C85.717,105.943 88.493,108.719 91.27,111.497C92.107,112.334 93.5,112.311 94.331,111.48C97.108,108.704 99.888,105.926 102.662,103.149C104.635,101.176 101.562,98.128 99.587,100.104C96.811,102.881 94.032,105.659 91.254,108.436C92.273,108.431 93.295,108.425 94.317,108.419C91.54,105.643 88.762,102.865 85.985,100.087C84.013,98.117 80.964,101.188 82.94,103.166Z" style="fill:white;fill-rule:nonzero;"/>
            <g>
                <path d="M92.794,109.512L92.794,92.318" style="fill:white;fill-rule:nonzero;"/>
                <path d="M94.958,109.527C94.958,102.955 94.958,98.906 94.958,92.334C94.958,89.539 90.629,89.514 90.629,92.302C90.629,98.876 90.629,102.923 90.629,109.496C90.629,112.292 94.958,112.316 94.958,109.527Z" style="fill:white;fill-rule:nonzero;"/>
            </g>
        </g>
    </g>
</svg>
