<?xml version="1.0" encoding="UTF-8" standalone="no"?>
<!DOCTYPE svg PUBLIC "-//W3C//DTD SVG 1.1//EN" "http://www.w3.org/Graphics/SVG/1.1/DTD/svg11.dtd">
<svg width="100%" height="100%" viewBox="0 0 137 136" version="1.1" xmlns="http://www.w3.org/2000/svg" xmlns:xlink="http://www.w3.org/1999/xlink" xml:space="preserve" style="fill-rule:evenodd;clip-rule:evenodd;stroke-linejoin:round;stroke-miterlimit:1.41421;">
    <g>
        <circle cx="68.416" cy="68.417" r="63.333" style="fill:rgb(136,160,210);"/>
        <g>
            <circle cx="92.805" cy="100.77" r="15.25" style="fill:rgb(158,176,39);"/>
            <g transform="matrix(1,0,0,1,-0.29583,-0.0236998)">
                <path d="M85.919,93.319C81.911,97.328 81.911,103.829 85.919,107.836C89.932,111.847 96.428,111.847 100.436,107.837C104.445,103.829 104.445,97.328 100.436,93.319C96.428,89.31 89.932,89.31 85.919,93.319ZM98.607,106.008C95.611,109.004 90.75,109.006 87.75,106.008C84.751,103.009 84.751,98.147 87.75,95.149C90.75,92.15 95.611,92.15 98.607,95.148C101.607,98.147 101.606,103.01 98.607,106.008Z" style="fill:rgb(235,237,239);fill-rule:nonzero;"/>
            </g>
            <path d="M88.096,99.574C87.907,99.993 88.089,100.492 88.508,100.684C88.926,100.88 89.426,100.693 89.619,100.277C89.619,100.277 89.626,100.257 89.666,100.183C89.957,99.652 91.357,97.394 94.317,97.12C94.675,97.085 94.958,96.83 95.045,96.5C95.068,96.408 95.08,96.308 95.068,96.206C95.024,95.746 94.615,95.408 94.156,95.454C89.794,95.901 88.14,99.488 88.096,99.574Z" style="fill:rgb(244,245,245);fill-opacity:0.694118;fill-rule:nonzero;"/>
        </g>
    </g>
</svg>
