<?xml version="1.0" encoding="UTF-8" standalone="no"?><!DOCTYPE svg PUBLIC "-//W3C//DTD SVG 1.1//EN" "http://www.w3.org/Graphics/SVG/1.1/DTD/svg11.dtd"><svg width="100%" height="100%" viewBox="0 0 300 300" version="1.1" xmlns="http://www.w3.org/2000/svg" xmlns:xlink="http://www.w3.org/1999/xlink" xml:space="preserve" style="fill-rule:evenodd;clip-rule:evenodd;stroke-linejoin:round;stroke-miterlimit:1.41421;"><g id="Layer2"><rect x="0.239" y="0.058" width="299.596" height="300.822" style="fill:#4054b2;fill-opacity:0.9;"/></g><g><path d="M215.943,228.712l-130.901,0c-6.901,0 -12.42,-5.52 -12.42,-12.419l0,-145.293l130.901,0l0,145.293l12.42,12.419Z" style="fill:#f9f9f9;fill-rule:nonzero;"/><path d="M215.943,228.712c-6.9,0 -12.42,-5.52 -12.42,-12.419l0,-89.305l24.84,0l0,89.304c0,6.9 -5.717,12.42 -12.42,12.42Z" style="fill:#ced5e0;fill-rule:nonzero;"/><rect x="83.268" y="81.054" width="107.639" height="39.231" style="fill:#84dbff;"/><rect x="144.184" y="175.09" width="51.257" height="3.154" style="fill:#acb3ba;"/><rect x="144.184" y="164.642" width="51.257" height="3.154" style="fill:#acb3ba;"/><rect x="144.184" y="154.193" width="51.257" height="3.154" style="fill:#acb3ba;"/><rect x="144.184" y="143.745" width="51.257" height="3.154" style="fill:#acb3ba;"/><rect x="144.184" y="133.297" width="51.257" height="3.154" style="fill:#acb3ba;"/><rect x="144.184" y="185.539" width="51.257" height="3.154" style="fill:#acb3ba;"/><rect x="144.184" y="195.987" width="51.257" height="3.154" style="fill:#acb3ba;"/><rect x="144.184" y="206.435" width="51.257" height="3.154" style="fill:#acb3ba;"/><rect x="84.844" y="195.987" width="51.257" height="3.154" style="fill:#acb3ba;"/><rect x="84.844" y="206.435" width="51.257" height="3.154" style="fill:#acb3ba;"/><rect x="125.85" y="133.297" width="10.251" height="55.594" style="fill:#4cdbc4;"/><rect x="112.247" y="156.559" width="10.251" height="32.331" style="fill:#ffd05b;"/><rect x="98.645" y="148.87" width="10.251" height="40.02" style="fill:#ff7058;"/><rect x="84.844" y="168.19" width="10.251" height="20.7" style="fill:#324a5e;"/><path d="M106.727,90.122l3.548,0l0,21.489l-3.942,0l-12.223,-15.772l0,15.772l-3.548,0l0,-21.489l3.548,0l12.42,16.166l0,-16.166l0.197,0Z" style="fill:#324a5e;fill-rule:nonzero;"/><path d="M131.567,90.122l0,3.352l-11.434,0l0,5.717l10.251,0l0,3.154l-10.251,0l0,5.718l11.828,0l0,3.351l-15.574,0l0,-21.291l15.18,0l0,-0.001Z" style="fill:#324a5e;fill-rule:nonzero;"/><path d="M143.198,105.499l4.731,-15.574l3.352,0l4.731,15.574l5.323,-15.574l3.943,0l-7.492,21.488l-3.548,0l-4.534,-14.785l-0.197,0l-4.534,14.785l-3.549,0l-7.491,-21.291l3.943,0l5.322,15.377Z" style="fill:#324a5e;fill-rule:nonzero;"/><path d="M175.332,92.882c-0.985,0 -1.971,0.198 -2.563,0.592c-0.591,0.395 -0.985,0.986 -0.985,1.971c0,0.789 0.394,1.577 0.985,1.971c0.592,0.395 2.169,0.986 4.338,1.578c2.168,0.591 3.943,1.38 4.928,2.168c1.183,0.986 1.775,2.366 1.775,4.337c0,1.972 -0.789,3.352 -2.169,4.534c-1.38,1.183 -3.351,1.775 -5.52,1.775c-3.351,0 -6.308,-1.183 -8.871,-3.549l2.365,-2.76c2.169,1.972 4.338,2.76 6.703,2.76c1.183,0 2.169,-0.197 2.76,-0.788c0.592,-0.592 0.986,-1.183 0.986,-1.971c0,-0.789 -0.395,-1.38 -0.986,-1.971c-0.591,-0.395 -1.774,-0.789 -3.351,-1.183c-1.577,-0.395 -2.76,-0.789 -3.548,-0.986c-0.789,-0.394 -1.578,-0.788 -2.169,-1.183c-1.182,-0.985 -1.971,-2.365 -1.971,-4.337c0,-1.971 0.789,-3.548 2.169,-4.534c1.38,-0.985 3.154,-1.577 5.322,-1.577c1.38,0 2.76,0.197 4.14,0.592c1.381,0.394 2.563,1.182 3.549,1.971l-1.971,2.76c-0.592,-0.592 -1.578,-0.986 -2.563,-1.38c-1.184,-0.592 -2.367,-0.79 -3.353,-0.79Z" style="fill:#324a5e;fill-rule:nonzero;"/></g></svg>