<?xml version="1.0" encoding="UTF-8" standalone="no"?><!DOCTYPE svg PUBLIC "-//W3C//DTD SVG 1.1//EN" "http://www.w3.org/Graphics/SVG/1.1/DTD/svg11.dtd"><svg width="100%" height="100%" viewBox="0 0 300 300" version="1.1" xmlns="http://www.w3.org/2000/svg" xmlns:xlink="http://www.w3.org/1999/xlink" xml:space="preserve" style="fill-rule:evenodd;clip-rule:evenodd;stroke-linejoin:round;stroke-miterlimit:1.41421;"><g id="Layer2"><rect x="0.239" y="0.058" width="299.596" height="299.87" style="fill:#f98b25;fill-opacity:0.9;"/></g><g id="Layer1"><g><g><path d="M183.786,240.448l-119.817,0c-2.477,0 -4.504,-2.027 -4.504,-4.504l0,-151.798c0,-2.477 2.027,-4.504 4.504,-4.504l119.817,0c2.477,0 4.504,2.027 4.504,4.504l0,152.023c0,2.252 -2.027,4.279 -4.504,4.279Z" style="fill:#324a5e;fill-rule:nonzero;"/><rect x="71.175" y="91.127" width="105.625" height="137.832" style="fill:#fff;"/><path d="M145.949,69.056l-13.964,0c0,-4.729 -3.603,-8.558 -8.107,-8.558c-4.505,0 -8.108,3.829 -8.108,8.558l-13.964,0l-6.306,26.351l56.53,0l-6.081,-26.351Z" style="fill:#2b3b4e;fill-rule:nonzero;"/><rect x="78.157" y="138.647" width="20.27" height="20.27" style="fill:#ced5e0;"/><rect x="107.213" y="145.407" width="62.611" height="6.757" style="fill:#f1543f;"/><rect x="78.157" y="170.179" width="20.27" height="20.27" style="fill:#2c9984;"/><rect x="107.213" y="176.938" width="62.611" height="6.757" style="fill:#ced5e0;"/><rect x="78.157" y="201.933" width="20.27" height="20.27" style="fill:#54c0eb;"/><rect x="107.213" y="208.692" width="62.611" height="6.757" style="fill:#f1543f;"/><circle cx="199.548" cy="200.361" r="40.092" style="fill:#f9b54c;"/><circle cx="199.548" cy="200.361" r="31.305" style="fill:#fff;"/><path d="M211.106,196.446c-5.305,0 -10.61,0 -15.915,0c1.352,-1.352 2.704,-2.703 4.055,-4.055c3.118,-3.118 -1.739,-7.94 -4.865,-4.814c-3.295,3.295 -6.589,6.59 -9.884,9.885c-1.323,1.323 -1.287,3.527 0.026,4.84c3.295,3.294 6.589,6.589 9.884,9.884c3.118,3.118 7.94,-1.74 4.813,-4.865c-1.343,-1.344 -2.687,-2.687 -4.03,-4.03c5.289,0 10.578,0 15.866,0c4.419,0 4.458,-6.845 0.05,-6.845Z" style="fill:#54c0eb;fill-rule:nonzero;"/></g><text x="79.623px" y="120.126px" style="font-family:'ArialMT', 'Arial', sans-serif;font-size:13px;fill:#2c9984;">Receiving Note</text></g></g></svg>