<?xml version="1.0" encoding="UTF-8" standalone="no"?>
<!DOCTYPE svg PUBLIC "-//W3C//DTD SVG 1.1//EN" "http://www.w3.org/Graphics/SVG/1.1/DTD/svg11.dtd">
<svg width="100%" height="100%" viewBox="0 0 137 136" version="1.1" xmlns="http://www.w3.org/2000/svg" xmlns:xlink="http://www.w3.org/1999/xlink" xml:space="preserve" style="fill-rule:evenodd;clip-rule:evenodd;stroke-linejoin:round;stroke-miterlimit:1.41421;">
    <circle cx="68.301" cy="67.849" r="63.333" style="fill:rgb(44,157,216);"/>
    <g>
        <g transform="matrix(0.257123,0,0,0.257123,2.90147,3.40688)">
            <path d="M412.6,399L92.4,399C90.8,399 89.5,397.7 89.5,396.1L89.5,108.9C89.5,107.3 90.8,106 92.4,106L412.7,106C414.3,106 415.6,107.3 415.6,108.9L415.6,396.2C415.5,397.7 414.2,399 412.6,399Z" style="fill:rgb(50,74,94);fill-rule:nonzero;"/>
        </g>
        <g transform="matrix(0.257123,0,0,0.257123,2.90147,3.40688)">
            <rect x="111.4" y="184" width="282.1" height="193.1" style="fill:white;"/>
        </g>
        <g transform="matrix(0.257123,0,0,0.257123,2.90147,3.40688)">
            <path d="M380,156.7C373.5,156.7 368.2,151.4 368.2,144.9C368.2,138.4 373.5,133.1 380,133.1C386.5,133.1 391.8,138.4 391.8,144.9C391.8,151.5 386.5,156.7 380,156.7Z" style="fill:rgb(132,219,255);fill-rule:nonzero;"/>
        </g>
        <g transform="matrix(0.257123,0,0,0.257123,2.90147,3.40688)">
            <path d="M341.5,156.7C335,156.7 329.7,151.4 329.7,144.9C329.7,138.4 335,133.1 341.5,133.1C348,133.1 353.3,138.4 353.3,144.9C353.2,151.5 348,156.7 341.5,156.7Z" style="fill:rgb(132,219,255);fill-rule:nonzero;"/>
        </g>
        <g transform="matrix(0.257123,0,0,0.257123,2.90147,3.40688)">
            <path d="M302.9,156.7C296.4,156.7 291.1,151.4 291.1,144.9C291.1,138.4 296.4,133.1 302.9,133.1C309.4,133.1 314.7,138.4 314.7,144.9C314.7,151.5 309.4,156.7 302.9,156.7Z" style="fill:rgb(132,219,255);fill-rule:nonzero;"/>
        </g>
        <g transform="matrix(0.257123,0,0,0.257123,2.90147,3.40688)">
            <path d="M222.2,156.7L123.2,156.7C116.7,156.7 111.4,151.4 111.4,144.9C111.4,138.4 116.7,133.1 123.2,133.1L222.2,133.1C228.7,133.1 234,138.4 234,144.9C233.9,151.5 228.7,156.7 222.2,156.7Z" style="fill:white;fill-rule:nonzero;"/>
        </g>
        <g transform="matrix(0.257123,0,0,0.257123,2.90147,3.40688)">
            <rect x="154.2" y="240.9" width="196.6" height="9.5" style="fill:rgb(230,233,238);"/>
        </g>
        <g transform="matrix(0.257123,0,0,0.257123,2.90147,3.40688)">
            <rect x="154.2" y="275.8" width="196.6" height="9.5" style="fill:rgb(230,233,238);"/>
        </g>
        <g transform="matrix(0.257123,0,0,0.257123,2.90147,3.40688)">
            <rect x="154.2" y="310.6" width="99.7" height="9.5" style="fill:rgb(230,233,238);"/>
        </g>
    </g>
    <g>
        <circle cx="92.805" cy="100.769" r="15.25" style="fill:rgb(73,160,174);"/>
        <g>
            <path d="M104.58,95.769C103.913,95.773 103.246,95.773 102.58,95.775C101.078,92.414 98.137,89.984 94.419,89.402C90.277,88.754 86.313,90.677 83.947,94.062C82.898,95.564 85.366,96.972 86.407,95.482C89.649,90.839 96.572,91.259 99.417,95.783C98.801,95.785 98.186,95.787 97.569,95.787C97.397,95.787 97.273,95.865 97.198,95.973C97.074,96.106 97.028,96.299 97.159,96.5C98.332,98.32 99.505,100.141 100.678,101.961C100.874,102.268 101.3,102.264 101.494,101.959C102.659,100.133 103.821,98.307 104.987,96.48C105.179,96.179 104.923,95.769 104.58,95.769Z" style="fill:white;fill-rule:nonzero;"/>
            <path d="M99.561,105.763C96.319,110.404 89.396,109.984 86.551,105.46C87.167,105.458 87.782,105.456 88.399,105.456C88.571,105.456 88.695,105.378 88.77,105.27C88.894,105.137 88.94,104.944 88.811,104.741C87.637,102.921 86.465,101.102 85.29,99.282C85.094,98.977 84.668,98.979 84.475,99.284C83.31,101.11 82.147,102.936 80.981,104.763C80.789,105.064 81.044,105.474 81.388,105.472C82.055,105.47 82.722,105.47 83.388,105.468C84.89,108.829 87.831,111.259 91.549,111.841C95.691,112.489 99.655,110.566 102.021,107.183C103.07,105.679 100.602,104.271 99.561,105.763Z" style="fill:white;fill-rule:nonzero;"/>
        </g>
    </g>
</svg>
