<?xml version="1.0" encoding="UTF-8" standalone="no"?>
<!DOCTYPE svg PUBLIC "-//W3C//DTD SVG 1.1//EN" "http://www.w3.org/Graphics/SVG/1.1/DTD/svg11.dtd">
<svg width="100%" height="100%" viewBox="0 0 137 136" version="1.1" xmlns="http://www.w3.org/2000/svg" xmlns:xlink="http://www.w3.org/1999/xlink" xml:space="preserve" style="fill-rule:evenodd;clip-rule:evenodd;stroke-linejoin:round;stroke-miterlimit:1.41421;">
    <circle cx="68.417" cy="68.417" r="63.333" style="fill:rgb(247,152,29);"/>
    <path d="M68.416,131.75C89.404,131.75 108,121.535 119.523,105.811C117.382,102.743 108.96,93.778 80.613,86.957C80.613,80.521 79.972,76.666 79.972,76.666C79.972,76.666 88.334,65.084 88.976,49.002C88.976,46.445 90.232,28.307 68.393,27.486C68.393,27.478 68.393,27.465 68.393,27.459C68.339,27.459 68.291,27.471 68.232,27.471C68.176,27.471 68.129,27.459 68.073,27.459C68.073,27.465 68.073,27.479 68.073,27.486C46.238,28.306 47.49,46.445 47.49,49.001C48.131,65.083 56.494,76.665 56.494,76.665C56.494,76.665 55.848,80.52 55.848,86.956C28.251,93.597 19.543,102.269 17.128,105.552C28.636,121.421 47.315,131.75 68.416,131.75Z" style="fill:rgb(118,202,217);fill-rule:nonzero;"/>
    <g>
        <circle cx="92.805" cy="100.769" r="15.25" style="fill:rgb(73,160,174);"/>
        <g>
            <path d="M104.58,95.769C103.913,95.773 103.246,95.773 102.58,95.775C101.078,92.414 98.137,89.984 94.419,89.402C90.277,88.754 86.313,90.677 83.947,94.062C82.898,95.564 85.366,96.972 86.407,95.482C89.649,90.839 96.572,91.259 99.417,95.783C98.801,95.785 98.186,95.787 97.569,95.787C97.397,95.787 97.273,95.865 97.198,95.973C97.074,96.106 97.028,96.299 97.159,96.5C98.332,98.32 99.505,100.141 100.678,101.961C100.874,102.268 101.3,102.264 101.494,101.959C102.659,100.133 103.821,98.307 104.987,96.48C105.179,96.179 104.923,95.769 104.58,95.769Z" style="fill:white;fill-rule:nonzero;"/>
            <path d="M99.561,105.763C96.319,110.404 89.396,109.984 86.551,105.46C87.167,105.458 87.782,105.456 88.399,105.456C88.571,105.456 88.695,105.378 88.77,105.27C88.894,105.137 88.94,104.944 88.811,104.741C87.637,102.921 86.465,101.102 85.29,99.282C85.094,98.977 84.668,98.979 84.475,99.284C83.31,101.11 82.147,102.936 80.981,104.763C80.789,105.064 81.044,105.474 81.388,105.472C82.055,105.47 82.722,105.47 83.388,105.468C84.89,108.829 87.831,111.259 91.549,111.841C95.691,112.489 99.655,110.566 102.021,107.183C103.07,105.679 100.602,104.271 99.561,105.763Z" style="fill:white;fill-rule:nonzero;"/>
        </g>
    </g>
</svg>
