<?xml version="1.0" encoding="UTF-8" standalone="no"?><!DOCTYPE svg PUBLIC "-//W3C//DTD SVG 1.1//EN" "http://www.w3.org/Graphics/SVG/1.1/DTD/svg11.dtd"><svg width="100%" height="100%" viewBox="0 0 300 300" version="1.1" xmlns="http://www.w3.org/2000/svg" xmlns:xlink="http://www.w3.org/1999/xlink" xml:space="preserve" style="fill-rule:evenodd;clip-rule:evenodd;stroke-linejoin:round;stroke-miterlimit:1.41421;"><g id="Layer2"><rect x="0.239" y="0.058" width="299.596" height="299.87" style="fill:#e72564;fill-opacity:0.9;"/></g><g id="Layer1"><g><g><path d="M189.073,59.536l0,28.968l28.967,0l0,151.173l-137.095,0l0,-180.141l108.128,0Z" style="fill:#fff;fill-rule:nonzero;"/><path d="M189.073,59.536l28.967,28.968l-28.967,0l0,-28.968Z" style="fill:#e6e9ee;fill-rule:nonzero;"/><rect x="97.134" y="167.394" width="104.771" height="5.848" style="fill:#c0dd19;"/><rect x="97.134" y="183.366" width="104.771" height="5.848" style="fill:#c0dd19;"/><rect x="97.134" y="199.285" width="104.771" height="5.848" style="fill:#c0dd19;"/><rect x="97.134" y="215.258" width="65.787" height="5.848" style="fill:#c0dd19;"/><text x="100.61px" y="153.334px" style="font-family:'Arial-BoldMT', 'Arial', sans-serif;font-weight:700;font-size:21.066px;fill:#c0dd19;">FINISHED</text></g></g><path d="M178.713,76.598c-1.269,-4.132 -3.855,-3.479 -6.657,-2.778c-1.674,0.44 -9.118,3.19 -20.896,18.871c-4.887,6.507 -8.112,11.695 -10.234,15.652c-1.297,-2.011 -2.783,-4.162 -4.343,-6.132c-4.798,-6.056 -10.149,-10.216 -10.374,-10.39c-2.245,-1.733 -5.177,-0.841 -6.553,1.991c-1.375,2.833 -0.671,6.54 1.571,8.28c0.046,0.036 4.641,3.624 8.61,8.636c4.048,5.112 7.716,12.025 7.752,12.092c0.893,1.695 2.392,2.685 3.969,2.685c0.271,0 0.544,-0.029 0.816,-0.089c1.862,-0.408 3.357,-2.165 3.813,-4.481c0.012,-0.055 1.903,-6.655 11.894,-19.956c8.048,-10.715 13.414,-14.121 15.274,-15.066c0.018,-0.004 0.031,-0.005 0.055,-0.012c-0.009,0.003 0.06,-0.038 0.172,-0.1c0.319,-0.152 0.49,-0.21 0.5,-0.213c-0.092,0.029 -0.139,0.036 -0.139,0.036l-0.004,-0.021c0.861,-0.473 2.472,-1.348 2.507,-1.367c2.426,-1.258 3.215,-4.553 2.267,-7.638Z" style="fill:#c0dd19;fill-rule:nonzero;"/></g></svg>