<?xml version="1.0" encoding="UTF-8" standalone="no"?><!DOCTYPE svg PUBLIC "-//W3C//DTD SVG 1.1//EN" "http://www.w3.org/Graphics/SVG/1.1/DTD/svg11.dtd"><svg width="100%" height="100%" viewBox="0 0 300 300" version="1.1" xmlns="http://www.w3.org/2000/svg" xmlns:xlink="http://www.w3.org/1999/xlink" xml:space="preserve" style="fill-rule:evenodd;clip-rule:evenodd;stroke-linejoin:round;stroke-miterlimit:1.41421;"><g id="Layer2"><rect x="0.239" y="0.058" width="299.596" height="300.45" style="fill:#1fbcd3;fill-opacity:0.9;"/></g><g id="Layer1"><g><g><path d="M189.073,59.536l0,28.968l28.967,0l0,151.173l-137.095,0l0,-180.141l108.128,0Z" style="fill:#fff;fill-rule:nonzero;"/><path d="M189.073,59.536l28.967,28.968l-28.967,0l0,-28.968Z" style="fill:#e6e9ee;fill-rule:nonzero;"/><rect x="97.134" y="167.394" width="104.771" height="5.848" style="fill:#db4c4c;"/><rect x="97.134" y="183.366" width="104.771" height="5.848" style="fill:#db4c4c;"/><rect x="97.134" y="199.285" width="104.771" height="5.848" style="fill:#db4c4c;"/><rect x="97.134" y="215.258" width="65.787" height="5.848" style="fill:#db4c4c;"/><text x="97.61px" y="153.334px" style="font-family:'Arial-BoldMT', 'Arial', sans-serif;font-weight:700;font-size:15px;fill:#db4c4c;">IN PROGRESS</text></g></g><g><path d="M169.393,94.559l-11.195,-8.59l0,2.758l-11.047,0l0,11.676l11.047,0l0,2.757l11.195,-8.601Z" style="fill:#e6e9ee;fill-rule:nonzero;"/><rect x="137.973" y="88.727" width="5.694" height="11.688" style="fill:#e6e9ee;"/><rect x="129.15" y="88.727" width="5.694" height="11.688" style="fill:#e6e9ee;"/><path d="M129.15,114.244l11.195,8.59l0,-2.757l11.047,0l0,-11.677l-11.047,0l0,-2.757l-11.195,8.601Z" style="fill:#ff7058;fill-rule:nonzero;"/><rect x="154.877" y="108.4" width="5.694" height="11.688" style="fill:#ff7058;"/><rect x="163.699" y="108.4" width="5.694" height="11.688" style="fill:#ff7058;"/></g></g></svg>