<?xml version="1.0" encoding="UTF-8" standalone="no"?><!DOCTYPE svg PUBLIC "-//W3C//DTD SVG 1.1//EN" "http://www.w3.org/Graphics/SVG/1.1/DTD/svg11.dtd"><svg width="100%" height="100%" viewBox="0 0 300 300" version="1.1" xmlns="http://www.w3.org/2000/svg" xmlns:xlink="http://www.w3.org/1999/xlink" xml:space="preserve" style="fill-rule:evenodd;clip-rule:evenodd;stroke-linejoin:round;stroke-miterlimit:1.41421;"><g id="Layer2"><rect x="0.239" y="0.058" width="299.596" height="300.425" style="fill:#50ae54;fill-opacity:0.9;"/></g><g id="Layer1"><g><path d="M219.696,98.507l-138.209,0l-19.462,48.026l44.014,0l0,30.6l89.105,0l0,-30.6l44.014,0l-19.462,-48.026Z" style="fill:#2c9984;fill-rule:nonzero;"/><rect x="98.853" y="86.051" width="103.478" height="109.047" style="fill:#fff;"/><path d="M182.988,146.533c0,10.659 -8.683,19.342 -19.342,19.342l-26.049,0c-10.659,0 -19.342,-8.683 -19.342,-19.342l-56.23,0l0,68.625l177.193,0l0,-68.625l-56.23,0Z" style="fill:#4cdbc4;fill-rule:nonzero;"/><rect x="114.063" y="101.501" width="73.057" height="4.851" style="fill:#e6e9ee;"/><rect x="114.063" y="116.412" width="73.057" height="4.851" style="fill:#e6e9ee;"/><rect x="114.063" y="131.382" width="45.391" height="4.851" style="fill:#e6e9ee;"/></g><text x="86.544px" y="199.868px" style="font-family:'ArialMT', 'Arial', sans-serif;font-size:30px;fill:#f1ebeb;">OUTBOX</text></g></svg>