<?xml version="1.0" encoding="UTF-8" standalone="no"?><!DOCTYPE svg PUBLIC "-//W3C//DTD SVG 1.1//EN" "http://www.w3.org/Graphics/SVG/1.1/DTD/svg11.dtd"><svg width="100%" height="100%" viewBox="0 0 385 252" version="1.1" xmlns="http://www.w3.org/2000/svg" xmlns:xlink="http://www.w3.org/1999/xlink" xml:space="preserve" style="fill-rule:evenodd;clip-rule:evenodd;stroke-linejoin:round;stroke-miterlimit:1.41421;"><g><path d="M377.379,251.587l-370.758,0c-3.656,0 -6.621,-2.965 -6.621,-6.621l0,-238.345c0,-3.656 2.965,-6.621 6.621,-6.621l370.759,0c3.656,0 6.621,2.965 6.621,6.621l0,238.345c-0.001,3.657 -2.966,6.621 -6.622,6.621Z" style="fill:#ff4b55;fill-rule:nonzero;"/><path d="M63.755,39.343l6.312,18.925l19.95,0.155c2.583,0.019 3.654,3.316 1.576,4.85l-16.049,11.851l6.018,19.021c0.778,2.463 -2.025,4.499 -4.127,2.998l-16.23,-11.602l-16.23,11.601c-2.101,1.503 -4.905,-0.535 -4.126,-2.997l6.017,-19.022l-16.049,-11.85c-2.078,-1.534 -1.007,-4.831 1.576,-4.85l19.95,-0.155l6.312,-18.925c0.818,-2.451 4.283,-2.451 5.1,0Z" style="fill:#ffe15a;fill-rule:nonzero;"/><path d="M136.199,44.006l4.526,6.173l7.305,-2.285c0.945,-0.295 1.723,0.783 1.144,1.587l-4.471,6.21l4.429,6.241c0.574,0.808 -0.211,1.881 -1.155,1.579l-7.289,-2.334l-4.567,6.142c-0.591,0.795 -1.855,0.38 -1.858,-0.61l-0.034,-7.654l-7.252,-2.446c-0.939,-0.317 -0.935,-1.646 0.006,-1.957l7.268,-2.397l0.085,-7.653c0.011,-0.989 1.277,-1.395 1.863,-0.596Z" style="fill:#ffe15a;fill-rule:nonzero;"/><path d="M108.643,25.609l7.609,0.826l3.246,-6.93c0.42,-0.897 1.74,-0.744 1.943,0.226l1.564,7.491l7.595,0.945c0.983,0.122 1.245,1.426 0.385,1.919l-6.642,3.802l1.449,7.515c0.187,0.974 -0.972,1.625 -1.706,0.959l-5.669,-5.141l-6.699,3.699c-0.867,0.479 -1.846,-0.422 -1.439,-1.326l3.137,-6.981l-5.589,-5.229c-0.723,-0.673 -0.169,-1.882 0.816,-1.775Z" style="fill:#ffe15a;fill-rule:nonzero;"/><path d="M120.671,99.779l-4.526,6.172l-7.304,-2.285c-0.946,-0.295 -1.724,0.784 -1.145,1.587l4.472,6.211l-4.43,6.24c-0.573,0.808 0.212,1.881 1.155,1.579l7.289,-2.333l4.567,6.142c0.591,0.795 1.855,0.379 1.859,-0.611l0.033,-7.654l7.253,-2.445c0.939,-0.318 0.934,-1.647 -0.007,-1.957l-7.267,-2.397l-0.086,-7.653c-0.012,-0.989 -1.277,-1.396 -1.863,-0.596Z" style="fill:#ffe15a;fill-rule:nonzero;"/><path d="M148.226,82.49l-7.609,0.827l-3.246,-6.931c-0.42,-0.897 -1.74,-0.743 -1.943,0.227l-1.565,7.491l-7.594,0.945c-0.984,0.122 -1.245,1.425 -0.385,1.918l6.641,3.802l-1.448,7.516c-0.188,0.973 0.971,1.624 1.705,0.959l5.669,-5.141l6.699,3.698c0.867,0.48 1.846,-0.422 1.44,-1.325l-3.138,-6.981l5.589,-5.23c0.726,-0.673 0.171,-1.881 -0.815,-1.775Z" style="fill:#ffe15a;fill-rule:nonzero;"/></g></svg>