<?xml version="1.0" encoding="UTF-8" standalone="no"?><!DOCTYPE svg PUBLIC "-//W3C//DTD SVG 1.1//EN" "http://www.w3.org/Graphics/SVG/1.1/DTD/svg11.dtd"><svg width="100%" height="100%" viewBox="0 0 385 252" version="1.1" xmlns="http://www.w3.org/2000/svg" xmlns:xlink="http://www.w3.org/1999/xlink" xml:space="preserve" style="fill-rule:evenodd;clip-rule:evenodd;stroke-linejoin:round;stroke-miterlimit:1.41421;"><g><path d="M377.379,251.587l-370.758,0c-3.656,0 -6.621,-2.965 -6.621,-6.621l0,-238.345c0,-3.656 2.965,-6.621 6.621,-6.621l370.759,0c3.656,0 6.621,2.965 6.621,6.621l0,238.345c-0.001,3.656 -2.966,6.621 -6.622,6.621Z" style="fill:#41479b;fill-rule:nonzero;"/><path d="M384,6.621c0,-3.656 -2.965,-6.621 -6.621,-6.621l-29.621,0l-122.655,80.36l0,-80.36l-66.207,0l0,80.36l-122.655,-80.36l-29.62,0c-3.656,0 -6.621,2.965 -6.621,6.621l0,17.123l105.232,68.946l-105.232,0l0,66.207l105.232,0l-105.232,68.945l0,17.124c0,3.656 2.965,6.621 6.621,6.621l29.621,0l122.655,-80.361l0,80.361l66.207,0l0,-80.361l122.655,80.361l29.621,0c3.657,0 6.621,-2.965 6.621,-6.621l0,-17.124l-105.231,-68.945l105.23,0l0,-66.207l-105.232,0l105.232,-68.946l0,-17.123Z" style="fill:#f5f5f5;fill-rule:nonzero;"/><path d="M384,105.932l-172.138,-0.001l0,-105.931l-39.724,0l0,105.932l-172.138,-0.001l0,39.724l172.138,0l0,105.932l39.724,0l0,-105.932l172.138,0l0,-39.723Z" style="fill:#ff4b55;fill-rule:nonzero;"/><path d="M134.211,158.897l-134.024,86.997c0.469,3.197 3.105,5.693 6.433,5.693l9.119,0l142.793,-92.69l-24.321,0l0,-0.001l0,0Z" style="fill:#ff4b55;fill-rule:nonzero;"/><path d="M259.791,158.897l-24.321,0l142.585,92.553c3.323,-0.354 5.946,-3.068 5.946,-6.485l0,-5.443l-124.21,-80.625Z" style="fill:#ff4b55;fill-rule:nonzero;"/><path d="M0,13.93l121.334,78.76l24.321,0l-141.798,-92.044c-2.265,1.052 -3.857,3.313 -3.857,5.975l0,7.309Z" style="fill:#ff4b55;fill-rule:nonzero;"/><path d="M249.424,92.69l134.346,-87.208c-0.558,-3.091 -3.138,-5.481 -6.391,-5.481l-9.485,0l-142.79,92.689l24.321,0Z" style="fill:#ff4b55;fill-rule:nonzero;"/></g></svg>