<?xml version="1.0" encoding="UTF-8" standalone="no"?><!DOCTYPE svg PUBLIC "-//W3C//DTD SVG 1.1//EN" "http://www.w3.org/Graphics/SVG/1.1/DTD/svg11.dtd"><svg width="100%" height="100%" viewBox="0 0 385 252" version="1.1" xmlns="http://www.w3.org/2000/svg" xmlns:xlink="http://www.w3.org/1999/xlink" xml:space="preserve" style="fill-rule:evenodd;clip-rule:evenodd;stroke-linejoin:round;stroke-miterlimit:1.41421;"><g><path d="M377.379,251.587l-370.758,0c-3.656,0 -6.621,-2.965 -6.621,-6.621l0,-238.345c0,-3.656 2.965,-6.621 6.621,-6.621l370.759,0c3.656,0 6.621,2.965 6.621,6.621l0,238.345c-0.001,3.657 -2.966,6.621 -6.622,6.621Z" style="fill:#f5f5f5;fill-rule:nonzero;"/><path d="M228.757,70.693c-30.422,-20.281 -71.513,-11.99 -91.781,18.379c-10.166,15.159 -6.033,35.756 9.177,45.897c15.198,10.14 35.73,6.022 45.87,-9.19c10.141,-15.21 30.686,-19.278 45.884,-9.19c15.223,10.141 19.318,30.738 9.163,45.896c20.281,-30.42 12.083,-71.511 -18.313,-91.792" style="fill:#ff4b55;fill-rule:nonzero;"/><path d="M136.975,89.073c-10.166,15.158 -6.033,35.756 9.177,45.896c15.198,10.141 35.73,6.023 45.87,-9.189c10.141,-15.21 30.686,-19.278 45.884,-9.19c15.223,10.141 19.318,30.738 9.163,45.896c-20.255,30.474 -61.332,38.662 -91.754,18.38c-30.394,-20.28 -38.62,-61.371 -18.34,-91.793" style="fill:#41479b;fill-rule:nonzero;"/><path d="M262.44,45.686l12.026,18.077c1.01,1.519 0.602,3.569 -0.914,4.584l-3.049,2.042c-1.522,1.019 -3.582,0.609 -4.597,-0.915l-12.042,-18.072c-1.013,-1.52 -0.602,-3.574 0.918,-4.589l3.064,-2.046c1.523,-1.016 3.58,-0.605 4.594,0.919Z" style="fill:#464655;fill-rule:nonzero;"/><path d="M280.995,73.557l12.065,18.065c1.019,1.526 0.603,3.59 -0.928,4.601l-3.063,2.024c-1.519,1.005 -3.565,0.592 -4.577,-0.922l-12.058,-18.047c-1.016,-1.52 -0.608,-3.575 0.912,-4.591l3.056,-2.043c1.52,-1.017 3.577,-0.608 4.593,0.913Z" style="fill:#464655;fill-rule:nonzero;"/><path d="M275.317,37.093l30.621,45.955c1.014,1.52 0.603,3.576 -0.918,4.59l-3.077,2.05c-1.521,1.015 -3.577,0.603 -4.59,-0.918l-30.633,-45.952c-1.014,-1.521 -0.602,-3.578 0.92,-4.591l3.087,-2.054c1.521,-1.012 3.576,-0.601 4.59,0.92Z" style="fill:#464655;fill-rule:nonzero;"/><path d="M288.158,28.513l12.053,18.112c1.015,1.525 0.598,3.585 -0.931,4.595l-3.065,2.025c-1.521,1.005 -3.567,0.592 -4.578,-0.926l-12.062,-18.087c-1.015,-1.521 -0.603,-3.577 0.918,-4.591l3.074,-2.049c1.521,-1.015 3.577,-0.603 4.591,0.921Z" style="fill:#464655;fill-rule:nonzero;"/><path d="M306.725,56.442l12.034,18.074c1.012,1.52 0.602,3.572 -0.915,4.587l-3.056,2.042c-1.522,1.018 -3.582,0.607 -4.596,-0.917l-12.033,-18.074c-1.012,-1.52 -0.603,-3.572 0.915,-4.586l3.056,-2.043c1.521,-1.018 3.58,-0.608 4.595,0.917Z" style="fill:#464655;fill-rule:nonzero;"/><path d="M99.541,154.28l30.618,45.905c1.014,1.521 0.604,3.576 -0.917,4.591l-3.066,2.047c-1.521,1.016 -3.576,0.605 -4.592,-0.916l-30.618,-45.906c-1.014,-1.52 -0.604,-3.575 0.917,-4.59l3.066,-2.047c1.521,-1.016 3.577,-0.605 4.592,0.916Z" style="fill:#464655;fill-rule:nonzero;"/><path d="M86.687,162.867l12.02,18.031c1.014,1.519 0.605,3.571 -0.912,4.587l-3.05,2.041c-1.52,1.018 -3.578,0.609 -4.594,-0.912l-12.036,-18.027c-1.015,-1.52 -0.606,-3.576 0.915,-4.591l3.065,-2.046c1.52,-1.015 3.577,-0.605 4.591,0.917Z" style="fill:#464655;fill-rule:nonzero;"/><path d="M105.263,190.748l12.035,18.076c1.012,1.52 0.602,3.572 -0.917,4.586l-3.058,2.045c-1.522,1.017 -3.579,0.607 -4.595,-0.916l-12.042,-18.073c-1.013,-1.52 -0.602,-3.574 0.917,-4.589l3.066,-2.048c1.522,-1.016 3.579,-0.605 4.594,0.919Z" style="fill:#464655;fill-rule:nonzero;"/><path d="M73.831,171.451l30.599,45.907c1.013,1.52 0.603,3.573 -0.914,4.589l-3.058,2.044c-1.521,1.017 -3.578,0.608 -4.594,-0.915l-30.616,-45.901c-1.015,-1.521 -0.603,-3.577 0.918,-4.592l3.076,-2.05c1.52,-1.014 3.575,-0.603 4.589,0.918Z" style="fill:#464655;fill-rule:nonzero;"/><path d="M90.971,91.625l30.613,-45.942c1.015,-1.523 3.071,-1.934 4.593,-0.918l3.065,2.046c1.52,1.015 1.93,3.07 0.917,4.59l-30.626,45.918c-1.012,1.517 -3.061,1.929 -4.581,0.923l-3.053,-2.021c-1.529,-1.011 -1.944,-3.072 -0.929,-4.596Z" style="fill:#464655;fill-rule:nonzero;"/><path d="M78.11,83.051l30.619,-45.952c1.015,-1.523 3.073,-1.934 4.595,-0.917l3.057,2.045c1.518,1.014 1.928,3.066 0.915,4.587l-30.61,45.954c-1.015,1.522 -3.071,1.934 -4.593,0.918l-3.066,-2.047c-1.52,-1.014 -1.93,-3.068 -0.917,-4.589Z" style="fill:#464655;fill-rule:nonzero;"/><path d="M65.242,74.513l30.622,-45.998c1.015,-1.523 3.074,-1.935 4.595,-0.918l3.058,2.044c1.518,1.015 1.928,3.066 0.917,4.586l-30.603,46.004c-1.014,1.523 -3.071,1.936 -4.593,0.921l-3.076,-2.05c-1.52,-1.014 -1.931,-3.069 -0.92,-4.59Z" style="fill:#464655;fill-rule:nonzero;"/><path d="M253.87,200.186l12.035,-18.027c1.016,-1.522 3.074,-1.93 4.594,-0.912l3.05,2.042c1.517,1.015 1.925,3.067 0.913,4.587l-12.021,18.03c-1.015,1.522 -3.072,1.933 -4.593,0.917l-3.064,-2.046c-1.52,-1.015 -1.93,-3.07 -0.914,-4.591Z" style="fill:#464655;fill-rule:nonzero;"/><path d="M272.432,172.4l12.055,-18.116c1.014,-1.522 3.07,-1.935 4.592,-0.92l3.072,2.047c1.522,1.015 1.933,3.072 0.917,4.593l-12.08,18.087c-1.013,1.518 -3.061,1.929 -4.582,0.921l-3.046,-2.019c-1.526,-1.012 -1.942,-3.07 -0.928,-4.593Z" style="fill:#464655;fill-rule:nonzero;"/><path d="M266.72,208.817l12.042,-18.073c1.014,-1.522 3.07,-1.934 4.592,-0.919l3.078,2.053c1.52,1.014 1.931,3.067 0.919,4.589l-12.036,18.075c-1.013,1.522 -3.067,1.934 -4.59,0.921l-3.086,-2.054c-1.521,-1.013 -1.933,-3.07 -0.919,-4.592Z" style="fill:#464655;fill-rule:nonzero;"/><path d="M285.302,180.891l12.05,-18.031c1.015,-1.519 3.069,-1.929 4.589,-0.915l3.076,2.05c1.522,1.015 1.933,3.072 0.916,4.593l-12.049,18.031c-1.014,1.519 -3.069,1.929 -4.588,0.916l-3.077,-2.051c-1.524,-1.013 -1.934,-3.071 -0.917,-4.593Z" style="fill:#464655;fill-rule:nonzero;"/><path d="M279.578,217.355l12.056,-18.043c1.013,-1.514 3.058,-1.926 4.578,-0.922l3.064,2.025c1.529,1.011 1.947,3.073 0.93,4.598l-12.048,18.066c-1.014,1.521 -3.07,1.931 -4.591,0.918l-3.074,-2.049c-1.522,-1.015 -1.932,-3.073 -0.915,-4.594Z" style="fill:#464655;fill-rule:nonzero;"/><path d="M298.165,189.521l12.027,-18.064c1.014,-1.523 3.073,-1.935 4.595,-0.917l3.054,2.041c1.519,1.015 1.928,3.07 0.913,4.589l-12.036,18.04c-1.012,1.518 -3.063,1.93 -4.583,0.922l-3.045,-2.018c-1.524,-1.011 -1.939,-3.069 -0.925,-4.593Z" style="fill:#464655;fill-rule:nonzero;"/></g></svg>