<?xml version="1.0" encoding="UTF-8" standalone="no"?><!DOCTYPE svg PUBLIC "-//W3C//DTD SVG 1.1//EN" "http://www.w3.org/Graphics/SVG/1.1/DTD/svg11.dtd"><svg width="100%" height="100%" viewBox="0 0 385 252" version="1.1" xmlns="http://www.w3.org/2000/svg" xmlns:xlink="http://www.w3.org/1999/xlink" xml:space="preserve" style="fill-rule:evenodd;clip-rule:evenodd;stroke-linejoin:round;stroke-miterlimit:1.41421;"><g><path d="M377.379,251.587l-370.758,0c-3.656,0 -6.621,-2.965 -6.621,-6.621l0,-238.345c0,-3.656 2.965,-6.621 6.621,-6.621l370.759,0c3.656,0 6.621,2.965 6.621,6.621l0,238.345c-0.001,3.657 -2.966,6.621 -6.622,6.621Z" style="fill:#ff4b55;fill-rule:nonzero;"/><path d="M195.089,50.771l17.707,53.092l55.966,0.434c3.129,0.024 4.426,4.017 1.909,5.877l-45.022,33.246l16.882,53.36c0.945,2.984 -2.453,5.453 -4.999,3.633l-45.532,-32.545l-45.533,32.545c-2.545,1.819 -5.942,-0.649 -4.999,-3.632l16.882,-53.361l-45.022,-33.246c-2.518,-1.859 -1.22,-5.853 1.909,-5.877l55.966,-0.434l17.707,-53.092c0.991,-2.969 5.189,-2.969 6.179,-0.001Z" style="fill:#ffe15a;fill-rule:nonzero;"/></g></svg>