<?xml version="1.0" encoding="UTF-8" standalone="no"?><!DOCTYPE svg PUBLIC "-//W3C//DTD SVG 1.1//EN" "http://www.w3.org/Graphics/SVG/1.1/DTD/svg11.dtd"><svg width="100%" height="100%" viewBox="0 0 300 300" version="1.1" xmlns="http://www.w3.org/2000/svg" xmlns:xlink="http://www.w3.org/1999/xlink" xml:space="preserve" style="fill-rule:evenodd;clip-rule:evenodd;stroke-linejoin:round;stroke-miterlimit:1.41421;"><g id="Layer2"><rect x="0.239" y="0.058" width="299.596" height="299.87" style="fill:#8c2da8;fill-opacity:0.9;"/></g><g id="Layer1"><g><g><path d="M92.455,59.725c-5.519,0 -9.997,4.478 -9.997,10l0,159.996c0,5.522 4.478,10 9.997,10l114.999,0c5.522,0 9.998,-4.478 9.998,-10l0,-123.688l-48.2,-46.308l-76.797,0Z" style="fill:#f5f5f5;fill-rule:nonzero;"/><path d="M217.454,106.033l-38.202,0c-5.522,0 -9.997,-4.478 -9.997,-10l0,-36.308l48.199,46.308Z" style="fill:#e1e1e1;fill-rule:nonzero;"/><path d="M203.386,119.687c0,1.723 -1.398,3.12 -3.123,3.12l-99.872,0c-1.723,0 -3.121,-1.397 -3.121,-3.12c0,-1.723 1.398,-3.12 3.121,-3.12l99.872,0c1.725,0 3.123,1.397 3.123,3.12Z" style="fill:#c9c9c8;fill-rule:nonzero;"/><path d="M203.386,136.072c0,1.723 -1.398,3.121 -3.123,3.121l-99.872,0c-1.723,0 -3.121,-1.398 -3.121,-3.121c0,-1.722 1.398,-3.12 3.121,-3.12l99.872,0c1.725,0 3.123,1.398 3.123,3.12Z" style="fill:#c9c9c8;fill-rule:nonzero;"/><path d="M203.386,151.678c0,1.723 -1.398,3.121 -3.123,3.121l-99.872,0c-1.723,0 -3.121,-1.398 -3.121,-3.121c0,-1.722 1.398,-3.12 3.121,-3.12l99.872,0c1.725,-0.002 3.123,1.398 3.123,3.12Z" style="fill:#c9c9c8;fill-rule:nonzero;"/><path d="M203.386,168.064c0,1.723 -1.398,3.12 -3.123,3.12l-99.872,0c-1.723,0 -3.121,-1.397 -3.121,-3.12c0,-1.723 1.398,-3.12 3.121,-3.12l99.872,0c1.725,-0.003 3.123,1.397 3.123,3.12Z" style="fill:#c9c9c8;fill-rule:nonzero;"/><path d="M152.67,181.327l-52.279,0c-1.723,0 -3.121,1.397 -3.121,3.12c0,1.723 1.398,3.121 3.121,3.121l52.279,0c1.725,0 3.123,-1.398 3.123,-3.121c0,-1.723 -1.398,-3.12 -3.123,-3.12Z" style="fill:#c9c9c8;fill-rule:nonzero;"/></g></g></g></svg>