<?xml version="1.0" encoding="UTF-8" standalone="no"?><!DOCTYPE svg PUBLIC "-//W3C//DTD SVG 1.1//EN" "http://www.w3.org/Graphics/SVG/1.1/DTD/svg11.dtd"><svg width="100%" height="100%" viewBox="0 0 300 300" version="1.1" xmlns="http://www.w3.org/2000/svg" xmlns:xlink="http://www.w3.org/1999/xlink" xml:space="preserve" style="fill-rule:evenodd;clip-rule:evenodd;stroke-linejoin:round;stroke-miterlimit:1.41421;"><g id="Layer2"><rect x="0.239" y="0.058" width="299.596" height="299.87" style="fill:#e72564;fill-opacity:0.9;"/></g><g id="Layer1"><g><path d="M79.154,66.724l0,166.046c0,3.824 3.019,6.843 6.844,6.843l104.256,0l0,-23.749c0,-3.825 3.019,-6.844 6.843,-6.844l23.75,0l0,-142.296c0,-3.824 -3.019,-6.843 -6.843,-6.843l-128.006,0c-3.825,0.202 -6.844,3.221 -6.844,6.843Z" style="fill:#fff;fill-rule:nonzero;"/><path d="M190.254,239.613l23.75,0c3.824,0 6.843,-3.019 6.843,-6.843l0,-23.548l-23.75,0c-3.824,0 -6.843,3.019 -6.843,6.843l0,23.548Z" style="fill:#e6e9ee;fill-rule:nonzero;"/><path d="M190.254,239.613l23.75,0c3.824,0 6.843,-3.019 6.843,-6.843l0,-23.548l-30.593,30.391Z" style="fill:#ced5e0;fill-rule:nonzero;"/><path d="M206.959,190.101l-113.917,0c-0.604,0 -1.006,-0.402 -1.006,-1.006l0,-68.028c0,-0.604 0.402,-1.007 1.006,-1.007l113.716,0c0.604,0 1.006,0.403 1.006,1.007l0,68.028c0.202,0.604 -0.402,1.006 -0.805,1.006Zm-112.911,-2.012l111.704,0l0,-66.016l-111.704,0l0,66.016Z" style="fill:#ced5e0;fill-rule:nonzero;"/><rect x="93.042" y="131.13" width="113.716" height="2.013" style="fill:#ced5e0;"/><rect x="153.02" y="121.067" width="2.013" height="68.028" style="fill:#ced5e0;"/><rect x="180.593" y="121.067" width="2.013" height="68.028" style="fill:#ced5e0;"/><rect x="93.042" y="142.602" width="113.716" height="2.013" style="fill:#ced5e0;"/><rect x="93.042" y="154.074" width="113.716" height="2.013" style="fill:#ced5e0;"/><rect x="93.042" y="165.547" width="113.716" height="2.013" style="fill:#ced5e0;"/><rect x="93.042" y="177.019" width="113.716" height="2.013" style="fill:#ced5e0;"/><rect x="93.042" y="83.933" width="59.887" height="4.01" style="fill:#ff7058;"/><rect x="93.042" y="96.311" width="113.716" height="5.032" style="fill:#84dbff;"/><rect x="93.042" y="107.884" width="61.789" height="5.032" style="fill:#e6e9ee;"/><text x="160.53px" y="87.983px" style="font-family:'Arial-BoldMT', 'Arial', sans-serif;font-weight:700;font-size:12.076px;fill:#ff7058;">INVOICE</text></g></g></svg>