<?xml version="1.0" encoding="UTF-8" standalone="no"?><!DOCTYPE svg PUBLIC "-//W3C//DTD SVG 1.1//EN" "http://www.w3.org/Graphics/SVG/1.1/DTD/svg11.dtd"><svg width="100%" height="100%" viewBox="0 0 300 200" version="1.1" xmlns="http://www.w3.org/2000/svg" xmlns:xlink="http://www.w3.org/1999/xlink" xml:space="preserve" style="fill-rule:evenodd;clip-rule:evenodd;stroke-linejoin:round;stroke-miterlimit:1.41421;"><g id="Layer1"><rect x="-0.191" y="0.113" width="300.234" height="200.26" style="fill:#fabf40;"/><g><path d="M191.266,150.546l-83.072,0c-4.379,0 -7.882,-3.503 -7.882,-7.882l0,-92.205l83.072,0l0,92.205l7.882,7.882Z" style="fill:#f9f9f9;fill-rule:nonzero;"/><path d="M191.266,150.546c-4.379,0 -7.882,-3.503 -7.882,-7.882l0,-56.674l15.764,0l0,56.674c0,4.379 -3.628,7.882 -7.882,7.882Z" style="fill:#ced5e0;fill-rule:nonzero;"/><rect x="107.068" y="56.84" width="68.309" height="24.896" style="fill:#84dbff;"/><rect x="145.726" y="116.516" width="32.528" height="2.002" style="fill:#acb3ba;"/><rect x="145.726" y="109.886" width="32.528" height="2.002" style="fill:#acb3ba;"/><rect x="145.726" y="103.255" width="32.528" height="2.002" style="fill:#acb3ba;"/><rect x="145.726" y="96.624" width="32.528" height="2.002" style="fill:#acb3ba;"/><rect x="145.726" y="89.993" width="32.528" height="2.002" style="fill:#acb3ba;"/><rect x="145.726" y="123.147" width="32.528" height="2.002" style="fill:#acb3ba;"/><rect x="145.726" y="129.778" width="32.528" height="2.002" style="fill:#acb3ba;"/><rect x="145.726" y="136.408" width="32.528" height="2.002" style="fill:#acb3ba;"/><rect x="108.069" y="129.778" width="32.528" height="2.002" style="fill:#acb3ba;"/><rect x="108.069" y="136.408" width="32.528" height="2.002" style="fill:#acb3ba;"/><rect x="134.091" y="89.993" width="6.506" height="35.281" style="fill:#4cdbc4;"/><rect x="125.459" y="104.756" width="6.506" height="20.518" style="fill:#ffd05b;"/><rect x="116.826" y="99.877" width="6.506" height="25.397" style="fill:#ff7058;"/><rect x="108.069" y="112.137" width="6.506" height="13.136" style="fill:#324a5e;"/><path d="M121.956,62.595l2.252,0l0,13.636l-2.503,0l-7.756,-10.008l0,10.008l-2.252,0l0,-13.636l2.252,0l7.882,10.258l0,-10.258l0.125,0Z" style="fill:#324a5e;fill-rule:nonzero;"/><path d="M137.719,62.595l0,2.126l-7.256,0l0,3.629l6.506,0l0,2.001l-6.506,0l0,3.629l7.507,0l0,2.126l-9.884,0l0,-13.511l9.633,0l0,0Z" style="fill:#324a5e;fill-rule:nonzero;"/><path d="M145.101,72.353l3.002,-9.884l2.127,0l3.003,9.884l3.378,-9.884l2.502,0l-4.754,13.637l-2.252,0l-2.877,-9.383l-0.126,0l-2.877,9.383l-2.252,0l-4.754,-13.511l2.502,0l3.378,9.758Z" style="fill:#324a5e;fill-rule:nonzero;"/><path d="M165.494,64.346c-0.626,0 -1.251,0.125 -1.627,0.376c-0.375,0.25 -0.625,0.625 -0.625,1.251c0,0.5 0.25,1 0.625,1.25c0.376,0.251 1.376,0.626 2.753,1.001c1.376,0.376 2.502,0.876 3.127,1.376c0.751,0.626 1.126,1.502 1.126,2.753c0,1.251 -0.5,2.127 -1.376,2.877c-0.875,0.751 -2.126,1.126 -3.503,1.126c-2.127,0 -4.003,-0.75 -5.63,-2.251l1.502,-1.752c1.376,1.251 2.752,1.752 4.253,1.752c0.751,0 1.376,-0.126 1.752,-0.501c0.375,-0.375 0.625,-0.75 0.625,-1.251c0,-0.5 -0.25,-0.875 -0.625,-1.251c-0.376,-0.25 -1.126,-0.5 -2.127,-0.75c-1.001,-0.251 -1.751,-0.501 -2.252,-0.626c-0.5,-0.25 -1.001,-0.5 -1.376,-0.75c-0.75,-0.626 -1.251,-1.502 -1.251,-2.753c0,-1.251 0.501,-2.252 1.376,-2.877c0.876,-0.626 2.002,-1.001 3.378,-1.001c0.876,0 1.752,0.125 2.628,0.375c0.876,0.251 1.626,0.751 2.252,1.251l-1.251,1.752c-0.376,-0.376 -1.001,-0.626 -1.627,-0.876c-0.751,-0.376 -1.502,-0.501 -2.127,-0.501Z" style="fill:#324a5e;fill-rule:nonzero;"/></g></g></svg>