<?xml version="1.0" encoding="UTF-8" standalone="no"?><!DOCTYPE svg PUBLIC "-//W3C//DTD SVG 1.1//EN" "http://www.w3.org/Graphics/SVG/1.1/DTD/svg11.dtd"><svg width="100%" height="100%" viewBox="0 0 300 300" version="1.1" xmlns="http://www.w3.org/2000/svg" xmlns:xlink="http://www.w3.org/1999/xlink" xml:space="preserve" style="fill-rule:evenodd;clip-rule:evenodd;stroke-linejoin:round;stroke-miterlimit:1.41421;"><g id="Layer2"><rect x="0.239" y="0.058" width="299.596" height="299.87" style="fill:#afb339;fill-opacity:0.9;"/></g><g id="Layer1"><g><g><g><path d="M189.073,59.536l0,28.968l28.967,0l0,151.173l-137.095,0l0,-180.141l108.128,0Z" style="fill:#fff;fill-rule:nonzero;"/><path d="M189.073,59.536l28.967,28.968l-28.967,0l0,-28.968Z" style="fill:#e6e9ee;fill-rule:nonzero;"/><text x="89.367px" y="85.229px" style="font-family:'Arial-BoldMT', 'Arial', sans-serif;font-weight:700;font-size:15px;fill:#db4c4c;">INVOICE</text></g><g><path d="M208.233,206.06l-117.805,0c-0.624,0 -1.04,-0.416 -1.04,-1.04l0,-70.35c0,-0.625 0.416,-1.041 1.04,-1.041l117.597,0c0.624,0 1.041,0.416 1.041,1.041l0,70.35c0.208,0.624 -0.417,1.04 -0.833,1.04Zm-116.764,-2.081l115.515,0l0,-68.269l-115.515,0l0,68.269Z" style="fill:#ced5e0;fill-rule:nonzero;"/><rect x="90.428" y="145.077" width="117.597" height="2.081" style="fill:#ced5e0;"/><rect x="152.453" y="134.67" width="2.081" height="70.35" style="fill:#ced5e0;"/><rect x="180.967" y="134.67" width="2.081" height="70.35" style="fill:#ced5e0;"/><rect x="90.428" y="156.94" width="117.597" height="2.081" style="fill:#ced5e0;"/><rect x="90.428" y="168.804" width="117.597" height="2.081" style="fill:#ced5e0;"/><rect x="90.428" y="180.668" width="117.597" height="2.081" style="fill:#ced5e0;"/><rect x="90.428" y="192.532" width="117.597" height="2.081" style="fill:#ced5e0;"/></g><g><rect x="90.733" y="99.952" width="118.934" height="3.48" style="fill:#4054b2;"/><rect x="90.733" y="109.194" width="118.446" height="3.757" style="fill:#84dbff;"/><rect x="90.733" y="117.834" width="117.541" height="3.757" style="fill:#e6e9ee;"/></g><path d="M194.299,123.487l0,-2.297c-2.92,-0.287 -5.547,-1.436 -7.883,-3.446l2.336,-2.752c1.8,1.531 3.649,2.441 5.547,2.752l0,-6.126c-2.409,-0.575 -4.185,-1.317 -5.304,-2.25c-1.119,-0.933 -1.679,-2.297 -1.679,-4.116c0,-1.819 0.657,-3.302 1.947,-4.451c1.289,-1.149 2.968,-1.795 5.06,-1.891l0,-1.579l2.044,0l0,1.603c2.36,0.168 4.573,0.957 6.666,2.369l-2.093,2.896c-1.411,-0.981 -2.943,-1.603 -4.573,-1.819l0,5.935l0.097,0c2.457,0.574 4.257,1.34 5.425,2.298c1.144,0.957 1.728,2.369 1.728,4.211c0,1.843 -0.657,3.327 -1.995,4.499c-1.314,1.149 -3.09,1.795 -5.255,1.891l0,2.273l-2.068,0Zm-2.263,-20.341c-0.535,0.479 -0.827,1.053 -0.827,1.771c0,0.694 0.219,1.268 0.633,1.675c0.437,0.407 1.24,0.814 2.432,1.173l0,-5.457c-0.924,0.072 -1.678,0.359 -2.238,0.838Zm6.764,13.832c0.608,-0.478 0.9,-1.101 0.9,-1.819c0,-0.741 -0.244,-1.316 -0.706,-1.747c-0.462,-0.43 -1.338,-0.837 -2.627,-1.22l0,5.672c1.021,-0.12 1.824,-0.407 2.433,-0.886Z" style="fill:#db4c4c;fill-rule:nonzero;"/></g></g></g></svg>