<?xml version="1.0" encoding="UTF-8" standalone="no"?><!DOCTYPE svg PUBLIC "-//W3C//DTD SVG 1.1//EN" "http://www.w3.org/Graphics/SVG/1.1/DTD/svg11.dtd"><svg width="100%" height="100%" viewBox="0 0 300 200" version="1.1" xmlns="http://www.w3.org/2000/svg" xmlns:xlink="http://www.w3.org/1999/xlink" xml:space="preserve" style="fill-rule:evenodd;clip-rule:evenodd;stroke-linejoin:round;stroke-miterlimit:1.41421;"><g id="Layer1"><rect x="-0.191" y="0.113" width="300.234" height="200.605" style="fill:#8c2da8;"/><g><g><path d="M171.732,50.103l0,16.165l16.166,0l0,84.362l-76.506,0l0,-100.527l60.34,0Z" style="fill:#fff;fill-rule:nonzero;"/><path d="M171.732,50.103l16.166,16.165l-16.166,0l0,-16.165Z" style="fill:#e6e9ee;fill-rule:nonzero;"/><rect x="120.426" y="110.292" width="58.467" height="3.263" style="fill:#8c2da8;fill-opacity:0.896886;"/><rect x="120.426" y="119.206" width="58.467" height="3.263" style="fill:#8c2da8;fill-opacity:0.896886;"/><rect x="120.426" y="128.089" width="58.467" height="3.263" style="fill:#8c2da8;fill-opacity:0.896886;"/><rect x="120.426" y="137.003" width="36.712" height="3.263" style="fill:#8c2da8;fill-opacity:0.896886;"/><text x="119.771px" y="102.327px" style="font-family:'Arial-BoldMT', 'Arial', sans-serif;font-weight:700;font-size:8px;fill:#8c2da8;fill-opacity:0.896886;">DOCUMENTING</text><g><path d="M165.298,55.4l-21.011,11.647l-1.076,1.006l10.364,9.867l0.741,-0.84l10.982,-21.68Z" style="fill:#f7d98b;fill-rule:nonzero;"/><path d="M165.362,55.278l-9.169,5.098l4.388,4.387l4.781,-9.485Z" style="fill:#626463;fill-rule:nonzero;"/><g><path d="M154.506,75.548l-3.126,0.18l-10.932,10.921c0.894,0.592 1.838,1.107 2.815,1.573l10.312,-10.302l0.931,-2.372Z" style="fill:#e84849;fill-rule:nonzero;"/><path d="M136.757,83.581l11.245,-11.235l0.139,-3.165l-3.043,0.262l-10.95,10.942c0.768,1.144 1.648,2.211 2.609,3.196Z" style="fill:#e84849;fill-rule:nonzero;"/><path d="M145.098,69.443l0.428,-2.878l-2.077,1.226l-10.528,10.52c0.375,0.713 0.78,1.406 1.227,2.073l10.95,-10.941Z" style="fill:#f06668;fill-rule:nonzero;"/><path d="M140.45,86.649l10.931,-10.921l-0.038,-3.345l-3.339,-0.037l-11.246,11.235c1.118,1.144 2.354,2.177 3.692,3.068Z" style="fill:#f06668;fill-rule:nonzero;"/></g></g></g></g></g></svg>