<?xml version="1.0" encoding="UTF-8" standalone="no"?><!DOCTYPE svg PUBLIC "-//W3C//DTD SVG 1.1//EN" "http://www.w3.org/Graphics/SVG/1.1/DTD/svg11.dtd"><svg width="100%" height="100%" viewBox="0 0 300 200" version="1.1" xmlns="http://www.w3.org/2000/svg" xmlns:xlink="http://www.w3.org/1999/xlink" xml:space="preserve" style="fill-rule:evenodd;clip-rule:evenodd;stroke-linejoin:round;stroke-miterlimit:1.41421;"><g id="Layer1"><rect x="-0.191" y="0.113" width="300.234" height="200.481" style="fill:#e72564;"/><g><g><path d="M171.732,50.103l0,16.165l16.166,0l0,84.362l-76.506,0l0,-100.527l60.34,0Z" style="fill:#fff;fill-rule:nonzero;"/><path d="M171.732,50.103l16.166,16.165l-16.166,0l0,-16.165Z" style="fill:#e6e9ee;fill-rule:nonzero;"/><rect x="120.426" y="110.292" width="58.467" height="3.263" style="fill:#c0dd19;"/><rect x="120.426" y="119.206" width="58.467" height="3.263" style="fill:#c0dd19;"/><rect x="120.426" y="128.089" width="58.467" height="3.263" style="fill:#c0dd19;"/><rect x="120.426" y="137.003" width="36.712" height="3.263" style="fill:#c0dd19;"/><text x="122.273px" y="102.446px" style="font-family:'Arial-BoldMT', 'Arial', sans-serif;font-weight:700;font-size:11.756px;fill:#c0dd19;">FINISHED</text></g></g><path d="M166.099,59.41c-0.72,-2.344 -2.187,-1.973 -3.776,-1.576c-0.95,0.25 -5.172,1.81 -11.853,10.705c-2.773,3.691 -4.602,6.634 -5.806,8.879c-0.735,-1.141 -1.578,-2.361 -2.463,-3.478c-2.722,-3.436 -5.757,-5.795 -5.885,-5.894c-1.274,-0.983 -2.937,-0.477 -3.717,1.129c-0.78,1.607 -0.381,3.71 0.891,4.697c0.026,0.021 2.632,2.056 4.884,4.899c2.296,2.9 4.377,6.821 4.397,6.859c0.507,0.961 1.357,1.523 2.252,1.523c0.154,0 0.308,-0.016 0.463,-0.05c1.056,-0.232 1.904,-1.228 2.163,-2.542c0.006,-0.031 1.079,-3.775 6.747,-11.32c4.565,-6.078 7.609,-8.01 8.664,-8.546c0.01,-0.003 0.017,-0.004 0.031,-0.007c-0.005,0.001 0.034,-0.022 0.098,-0.057c0.181,-0.086 0.278,-0.119 0.283,-0.121c-0.052,0.017 -0.079,0.021 -0.079,0.021l-0.002,-0.012c0.488,-0.269 1.402,-0.765 1.422,-0.776c1.377,-0.714 1.824,-2.582 1.286,-4.333Z" style="fill:#c0dd19;fill-rule:nonzero;"/></g></svg>