<?xml version="1.0" encoding="UTF-8" standalone="no"?><!DOCTYPE svg PUBLIC "-//W3C//DTD SVG 1.1//EN" "http://www.w3.org/Graphics/SVG/1.1/DTD/svg11.dtd"><svg width="100%" height="100%" viewBox="0 0 300 200" version="1.1" xmlns="http://www.w3.org/2000/svg" xmlns:xlink="http://www.w3.org/1999/xlink" xml:space="preserve" style="fill-rule:evenodd;clip-rule:evenodd;stroke-linejoin:round;stroke-miterlimit:1.41421;"><g id="Layer1"><rect x="-0.191" y="0.113" width="300.234" height="200.236" style="fill:#1fbcd3;"/><g><g><path d="M171.732,50.103l0,16.165l16.166,0l0,84.362l-76.506,0l0,-100.527l60.34,0Z" style="fill:#fff;fill-rule:nonzero;"/><path d="M171.732,50.103l16.166,16.165l-16.166,0l0,-16.165Z" style="fill:#e6e9ee;fill-rule:nonzero;"/><rect x="120.426" y="110.292" width="58.467" height="3.263" style="fill:#db4c4c;"/><rect x="120.426" y="119.206" width="58.467" height="3.263" style="fill:#db4c4c;"/><rect x="120.426" y="128.089" width="58.467" height="3.263" style="fill:#db4c4c;"/><rect x="120.426" y="137.003" width="36.712" height="3.263" style="fill:#db4c4c;"/><text x="122.223px" y="102.257px" style="font-family:'Arial-BoldMT', 'Arial', sans-serif;font-weight:700;font-size:8px;fill:#db4c4c;">IN PROGRESS</text></g></g><g><path d="M163.532,66.482l-7.73,-5.931l0,1.904l-7.628,0l0,8.063l7.628,0l0,1.903l7.73,-5.939Z" style="fill:#e6e9ee;fill-rule:nonzero;"/><rect x="141.837" y="62.455" width="3.932" height="8.07" style="fill:#e6e9ee;"/><rect x="135.745" y="62.455" width="3.932" height="8.07" style="fill:#e6e9ee;"/><path d="M135.745,80.075l7.73,5.931l0,-1.904l7.628,0l0,-8.063l-7.628,0l0,-1.903l-7.73,5.939Z" style="fill:#ff7058;fill-rule:nonzero;"/><rect x="153.509" y="76.039" width="3.932" height="8.07" style="fill:#ff7058;"/><rect x="159.601" y="76.039" width="3.932" height="8.07" style="fill:#ff7058;"/></g></g></svg>