<?xml version="1.0" encoding="UTF-8" standalone="no"?><!DOCTYPE svg PUBLIC "-//W3C//DTD SVG 1.1//EN" "http://www.w3.org/Graphics/SVG/1.1/DTD/svg11.dtd"><svg width="100%" height="100%" viewBox="0 0 300 200" version="1.1" xmlns="http://www.w3.org/2000/svg" xmlns:xlink="http://www.w3.org/1999/xlink" xml:space="preserve" style="fill-rule:evenodd;clip-rule:evenodd;stroke-linejoin:round;stroke-miterlimit:1.41421;"><g id="Layer1"><rect x="-0.191" y="0.113" width="300.234" height="200.199" style="fill:#acc337;"/><g><path d="M193.719,67.841l-86.803,0l-12.223,30.163l27.643,0l0,19.218l55.963,0l0,-19.218l27.643,0l-12.223,-30.163Z" style="fill:#2c9984;fill-rule:nonzero;"/><rect x="117.823" y="60.018" width="64.989" height="68.487" style="fill:#fff;"/><path d="M170.664,98.004c0,6.694 -5.453,12.148 -12.147,12.148l-16.361,0c-6.694,0 -12.147,-5.454 -12.147,-12.148l-35.316,0l0,43.1l111.287,0l0,-43.1l-35.316,0Z" style="fill:#4cdbc4;fill-rule:nonzero;"/><rect x="127.376" y="69.721" width="45.883" height="3.046" style="fill:#e6e9ee;"/><rect x="127.376" y="79.086" width="45.883" height="3.046" style="fill:#e6e9ee;"/><rect x="127.376" y="88.489" width="28.508" height="3.046" style="fill:#e6e9ee;"/></g><text x="108.225px" y="131.213px" style="font-family:'ArialMT', 'Arial', sans-serif;font-size:20px;fill:#fff;">OUTBOX</text></g></svg>