<?xml version="1.0" encoding="UTF-8" standalone="no"?><!DOCTYPE svg PUBLIC "-//W3C//DTD SVG 1.1//EN" "http://www.w3.org/Graphics/SVG/1.1/DTD/svg11.dtd"><svg width="100%" height="100%" viewBox="0 0 300 200" version="1.1" xmlns="http://www.w3.org/2000/svg" xmlns:xlink="http://www.w3.org/1999/xlink" xml:space="preserve" style="fill-rule:evenodd;clip-rule:evenodd;stroke-linejoin:round;stroke-miterlimit:1.41421;"><g id="Layer1"><rect x="-0.191" y="0.113" width="300.234" height="200.297" style="fill:#4054b2;"/><g><path d="M171.588,50.489l0,16.076l16.046,0l0,83.709l-75.941,0l0,-99.785l59.895,0Z" style="fill:#fff;fill-rule:nonzero;"/><path d="M171.588,50.489l16.046,16.076l-16.046,0l0,-16.076Z" style="fill:#e6e9ee;fill-rule:nonzero;"/><path d="M148.703,117.023l0,-4.799c-6.029,-0.6 -11.428,-2.999 -16.226,-7.168l4.798,-5.729c3.689,3.21 7.499,5.129 11.398,5.729l0,-12.777c-4.979,-1.2 -8.608,-2.759 -10.918,-4.679c-2.309,-1.919 -3.449,-4.799 -3.449,-8.608c0,-3.809 1.32,-6.898 3.989,-9.327c2.669,-2.43 6.119,-3.719 10.378,-3.959l0,-3.3l4.229,0l0,3.36c4.828,0.36 9.387,2.009 13.706,4.948l-4.259,6.029c-2.909,-2.07 -6.028,-3.329 -9.417,-3.809l0,12.387l0.209,0c5.039,1.2 8.758,2.789 11.128,4.799c2.369,2.009 3.569,4.948 3.569,8.787c0,3.84 -1.35,6.989 -4.079,9.388c-2.729,2.43 -6.329,3.749 -10.797,3.959l0,4.739l-4.259,0l0,0.03Zm-4.649,-42.53c-1.11,0.99 -1.68,2.22 -1.68,3.69c0,1.469 0.45,2.639 1.32,3.479c0.87,0.869 2.549,1.679 5.009,2.459l0,-11.397c-1.98,0.18 -3.54,0.78 -4.649,1.769Zm13.856,28.883c1.23,-1.019 1.83,-2.279 1.83,-3.809c0,-1.529 -0.48,-2.759 -1.44,-3.659c-0.96,-0.9 -2.759,-1.739 -5.398,-2.549l0,11.877c2.129,-0.24 3.779,-0.84 5.008,-1.86Z" style="fill:#1dbaf7;fill-rule:nonzero;"/><text x="116.065px" y="132.141px" style="font-family:'Arial-BoldMT', 'Arial', sans-serif;font-weight:700;font-size:9.904px;fill:#1dbaf7;">CREDIT NOTE</text></g></g></svg>