<?xml version="1.0" encoding="UTF-8" standalone="no"?><!DOCTYPE svg PUBLIC "-//W3C//DTD SVG 1.1//EN" "http://www.w3.org/Graphics/SVG/1.1/DTD/svg11.dtd"><svg width="100%" height="100%" viewBox="0 0 300 200" version="1.1" xmlns="http://www.w3.org/2000/svg" xmlns:xlink="http://www.w3.org/1999/xlink" xml:space="preserve" style="fill-rule:evenodd;clip-rule:evenodd;stroke-linejoin:round;stroke-miterlimit:1.41421;"><g id="Layer1"><rect x="-0.191" y="0.113" width="300.234" height="200.481" style="fill:#e72564;"/><g><g><path d="M169.086,150.525l-66.773,0c-1.381,0 -2.511,-1.129 -2.511,-2.51l0,-84.597c0,-1.381 1.13,-2.51 2.511,-2.51l66.773,0c1.381,0 2.511,1.129 2.511,2.51l0,84.722c0,1.255 -1.13,2.385 -2.511,2.385Z" style="fill:#324a5e;fill-rule:nonzero;"/><rect x="106.328" y="67.308" width="58.865" height="76.814" style="fill:#fff;"/><path d="M148,55.009l-7.782,0c0,-2.636 -2.008,-4.77 -4.519,-4.77c-2.51,0 -4.518,2.134 -4.518,4.77l-7.782,0l-3.514,14.685l31.504,0l-3.389,-14.685Z" style="fill:#2b3b4e;fill-rule:nonzero;"/><rect x="110.219" y="93.792" width="11.296" height="11.296" style="fill:#ced5e0;"/><rect x="126.412" y="97.559" width="34.893" height="3.765" style="fill:#f1543f;"/><rect x="110.219" y="111.364" width="11.296" height="11.296" style="fill:#2c9984;"/><rect x="126.412" y="115.131" width="34.893" height="3.765" style="fill:#ced5e0;"/><rect x="110.219" y="129.061" width="11.296" height="11.296" style="fill:#54c0eb;"/><rect x="126.412" y="132.828" width="34.893" height="3.765" style="fill:#f1543f;"/><circle cx="177.871" cy="128.184" r="22.343" style="fill:#f9b54c;"/><circle cx="177.871" cy="128.184" r="17.446" style="fill:#fff;"/><path d="M184.312,126.003c-2.957,0 -5.913,0 -8.869,0c0.753,-0.753 1.506,-1.507 2.259,-2.26c1.738,-1.738 -0.969,-4.425 -2.711,-2.683c-1.836,1.837 -3.672,3.673 -5.509,5.509c-0.737,0.737 -0.717,1.966 0.015,2.697c1.836,1.836 3.672,3.673 5.509,5.509c1.737,1.737 4.424,-0.97 2.682,-2.712c-0.749,-0.748 -1.497,-1.497 -2.246,-2.246c2.947,0 5.895,0 8.842,0c2.463,0 2.485,-3.814 0.028,-3.814Z" style="fill:#54c0eb;fill-rule:nonzero;"/></g><text x="111.036px" y="83.47px" style="font-family:'ArialMT', 'Arial', sans-serif;font-size:7.245px;fill:#2c9984;">Receiving Note</text></g></g></svg>