<?xml version="1.0" encoding="UTF-8" standalone="no"?><!DOCTYPE svg PUBLIC "-//W3C//DTD SVG 1.1//EN" "http://www.w3.org/Graphics/SVG/1.1/DTD/svg11.dtd"><svg width="100%" height="100%" viewBox="0 0 300 300" version="1.1" xmlns="http://www.w3.org/2000/svg" xmlns:xlink="http://www.w3.org/1999/xlink" xml:space="preserve" style="fill-rule:evenodd;clip-rule:evenodd;stroke-linejoin:round;stroke-miterlimit:1.41421;"><g id="Layer2"><rect x="0.239" y="0.058" width="299.596" height="300.822" style="fill:#4054b2;fill-opacity:0.9;"/></g><g id="Layer1"><g><rect x="103.622" y="152.317" width="139.122" height="70.217" style="fill:#e6e9ee;"/><path d="M108.138,156.833l0,61.33l130.235,0l0,-61.33l-130.235,0l0,0Zm4.37,47.928l0,-34.526c4.953,0 8.886,-3.933 8.886,-8.886l37.585,0c-7.867,5.39 -13.257,15.15 -13.257,26.222c0,11.071 5.245,20.832 13.257,26.222l-37.585,0c0,-5.099 -3.933,-9.032 -8.886,-9.032Zm121.349,0c-4.953,0 -8.886,3.933 -8.886,8.886l-37.439,0c7.866,-5.39 13.257,-15.15 13.257,-26.222c0,-11.071 -5.245,-20.832 -13.257,-26.222l37.439,0c0,4.953 3.933,8.887 8.886,8.887l0,34.671Z" style="fill:#2c9984;fill-rule:nonzero;"/><circle cx="217.833" cy="187.425" r="9.469" style="fill:#2c9984;"/><circle cx="128.532" cy="187.425" r="9.469" style="fill:#2c9984;"/><path d="M173.255,184.366c-2.476,0 -4.516,-2.04 -4.516,-4.516c0,-2.477 2.04,-4.516 4.516,-4.516c1.312,0 2.477,0.583 3.351,1.457c1.165,1.165 3.059,1.311 4.37,0.145c1.166,-1.165 1.311,-3.059 0.146,-4.37c-1.311,-1.311 -2.914,-2.331 -4.662,-2.914l0,-2.185c0,-1.748 -1.311,-3.059 -3.059,-3.059c-1.748,0 -3.059,1.311 -3.059,3.059l0,2.185c-4.37,1.312 -7.575,5.391 -7.575,10.198c0,5.827 4.807,10.634 10.634,10.634c2.477,0 4.516,2.04 4.516,4.516c0,2.477 -2.039,4.516 -4.516,4.516c-1.311,0 -2.476,-0.582 -3.35,-1.456c-1.166,-1.166 -3.06,-1.312 -4.371,-0.146c-1.165,1.165 -1.311,3.059 -0.145,4.37c1.311,1.311 2.913,2.331 4.661,2.914l0,2.185c0,1.748 1.311,3.059 3.059,3.059c1.749,0 3.06,-1.311 3.06,-3.059l0,-2.185c4.37,-1.311 7.575,-5.39 7.575,-10.198c0,-5.827 -4.807,-10.634 -10.635,-10.634Z" style="fill:#e6e9ee;fill-rule:nonzero;"/><path d="M57.655,171.129l47.719,51.511l102.062,-94.548l-47.72,-51.512l-102.061,94.549Z" style="fill:#fff;"/><path d="M63.997,171.255l41.664,45.014l95.565,-88.426l-41.664,-45.014l-95.565,88.426Zm35.837,32.195l-23.454,-25.348c3.642,-3.351 3.788,-9.032 0.437,-12.528l27.533,-25.494c-2.185,9.323 0.583,20.103 8.158,28.261c7.575,8.158 18.064,11.655 27.533,10.198l-27.679,25.348c-3.205,-3.497 -8.886,-3.788 -12.528,-0.437Zm89.009,-82.454c-3.642,3.351 -3.788,9.032 -0.437,12.528l-27.533,25.494c2.185,-9.323 -0.583,-20.103 -8.158,-28.261c-7.575,-8.158 -18.064,-11.655 -27.533,-10.198l27.533,-25.493c3.351,3.642 9.032,3.787 12.528,0.437l23.6,25.493Z" style="fill:#4cdbc4;fill-rule:nonzero;"/><circle cx="165.389" cy="119.248" r="9.469" style="fill:#4cdbc4;"/><circle cx="99.834" cy="179.85" r="9.469" style="fill:#4cdbc4;"/><path d="M130.572,147.364c-1.894,1.748 -4.807,1.602 -6.41,-0.292c-1.748,-1.893 -1.602,-4.807 0.291,-6.409c0.875,-0.874 2.186,-1.311 3.351,-1.166c1.748,0.146 3.205,-1.165 3.205,-2.768c0.146,-1.748 -1.165,-3.205 -2.768,-3.205c-1.894,-0.145 -3.788,0.292 -5.39,1.02l-1.457,-1.602c-1.165,-1.166 -3.059,-1.311 -4.37,-0.146c-1.165,1.165 -1.311,3.059 -0.146,4.37l1.457,1.603c-2.331,3.933 -1.894,9.178 1.311,12.674c3.933,4.37 10.78,4.516 15.005,0.582c1.894,-1.748 4.807,-1.602 6.41,0.292c1.748,1.894 1.602,4.807 -0.292,6.41c-0.874,0.874 -2.185,1.311 -3.35,1.165c-1.748,-0.146 -3.205,1.165 -3.205,2.768c-0.146,1.748 1.165,3.205 2.768,3.205c1.894,0.146 3.787,-0.291 5.39,-1.02l1.457,1.603c1.165,1.165 3.059,1.311 4.37,0.145c1.165,-1.165 1.311,-3.059 0.146,-4.37l-1.457,-1.603c2.331,-3.933 1.894,-9.177 -1.311,-12.673c-3.934,-4.371 -10.78,-4.662 -15.005,-0.583Z" style="fill:#fff;fill-rule:nonzero;"/></g></g></svg>