<?xml version="1.0" encoding="UTF-8" standalone="no"?><!DOCTYPE svg PUBLIC "-//W3C//DTD SVG 1.1//EN" "http://www.w3.org/Graphics/SVG/1.1/DTD/svg11.dtd"><svg width="100%" height="100%" viewBox="0 0 300 300" version="1.1" xmlns="http://www.w3.org/2000/svg" xmlns:xlink="http://www.w3.org/1999/xlink" xml:space="preserve" style="fill-rule:evenodd;clip-rule:evenodd;stroke-linejoin:round;stroke-miterlimit:1.41421;"><g id="Layer2"><rect x="0.239" y="0.058" width="299.596" height="300.072" style="fill:#288ae2;fill-opacity:0.9;"/><g><path d="M154.284,60.583c-2.669,-1.941 -6.309,-1.941 -8.735,0l-88.086,69.158l92.454,54.842l92.454,-54.842l-88.087,-69.158Z" style="fill:#fff;fill-rule:nonzero;"/><rect x="86.097" y="94.555" width="127.64" height="67.703" style="fill:#4cdbc4;"/><path d="M197.478,156.434l-95.123,0c0,-5.338 -4.368,-9.706 -9.706,-9.706l0,-36.642c5.338,0 9.706,-4.368 9.706,-9.707l95.366,0c0,5.339 4.368,9.707 9.706,9.707l0,36.642c-5.581,0 -9.949,4.368 -9.949,9.706Z" style="fill:#e6e9ee;fill-rule:nonzero;"/><ellipse cx="151.13" cy="128.285" rx="13.832" ry="18.928" style="fill:#2c9984;"/><ellipse cx="111.091" cy="128.285" rx="6.309" ry="8.25" style="fill:#2c9984;"/><ellipse cx="188.742" cy="128.285" rx="6.309" ry="8.25" style="fill:#2c9984;"/><path d="M149.917,184.583l92.454,55.084l0,-109.926l-92.454,54.842Z" style="fill:#ffd05b;fill-rule:nonzero;"/><path d="M57.463,129.741l0,109.926l92.454,-55.084l-92.454,-54.842Z" style="fill:#ffd05b;fill-rule:nonzero;"/><path d="M154.77,175.847c-2.912,-2.184 -6.795,-2.184 -9.707,0l-87.6,63.82l184.908,0l-87.601,-63.82Z" style="fill:#f9b54c;fill-rule:nonzero;"/></g></g></svg>