<?xml version="1.0" encoding="UTF-8" standalone="no"?><!DOCTYPE svg PUBLIC "-//W3C//DTD SVG 1.1//EN" "http://www.w3.org/Graphics/SVG/1.1/DTD/svg11.dtd"><svg width="100%" height="100%" viewBox="0 0 300 200" version="1.1" xmlns="http://www.w3.org/2000/svg" xmlns:xlink="http://www.w3.org/1999/xlink" xml:space="preserve" style="fill-rule:evenodd;clip-rule:evenodd;stroke-linejoin:round;stroke-miterlimit:1.41421;"><g id="Layer1"><rect x="-0.191" y="0.113" width="300.234" height="200.105" style="fill:#288ae2;"/><g><path d="M134.64,146.672l-44.709,0l0,-83.487c0,-3.026 2.452,-5.476 5.475,-5.476l33.759,0c3.024,0 5.475,2.45 5.475,5.476l0,83.487Z" style="fill:#6d6868;fill-rule:nonzero;"/><path d="M89.931,63.185c0,-3.026 2.452,-5.476 5.475,-5.476l33.759,0c3.024,0 5.475,2.45 5.475,5.476l-44.709,0Z" style="fill:#5f5e5e;fill-rule:nonzero;"/><path d="M97.812,144.713c-0.368,0 -0.665,-0.296 -0.665,-0.664l0,-4.109c0,-0.364 0.297,-0.664 0.665,-0.664l9.491,0c0.367,0 0.667,0.3 0.667,0.664l0,4.109c0,0.368 -0.3,0.664 -0.667,0.664l-9.491,0Z" style="fill:#e1e0e0;fill-rule:nonzero;"/><path d="M117.268,144.713c-0.367,0 -0.666,-0.296 -0.666,-0.664l0,-4.109c0,-0.364 0.299,-0.664 0.666,-0.664l9.494,0c0.365,0 0.662,0.3 0.662,0.664l0,4.109c0,0.368 -0.299,0.664 -0.662,0.664l-9.494,0Z" style="fill:#e1e0e0;fill-rule:nonzero;"/><path d="M117.268,133.765c-0.367,0 -0.666,-0.297 -0.666,-0.664l0,-4.109c0,-0.367 0.299,-0.667 0.666,-0.667l2.419,0c0.366,0 0.667,0.3 0.667,0.667l0,4.109c0,0.367 -0.301,0.664 -0.667,0.664l-2.419,0Z" style="fill:#e1e0e0;fill-rule:nonzero;"/><path d="M124.339,133.765c-0.366,0 -0.666,-0.297 -0.666,-0.664l0,-4.109c0,-0.367 0.3,-0.667 0.666,-0.667l2.423,0c0.365,0 0.662,0.3 0.662,0.667l0,4.109c0,0.367 -0.299,0.664 -0.662,0.664l-2.423,0Z" style="fill:#e1e0e0;fill-rule:nonzero;"/><path d="M97.803,133.765c-0.367,0 -0.665,-0.297 -0.665,-0.664l0,-4.109c0,-0.367 0.298,-0.667 0.665,-0.667l2.42,0c0.367,0 0.665,0.3 0.665,0.667l0,4.109c0,0.367 -0.298,0.664 -0.665,0.664l-2.42,0Z" style="fill:#e1e0e0;fill-rule:nonzero;"/><path d="M104.873,133.765c-0.364,0 -0.666,-0.297 -0.666,-0.664l0,-4.109c0,-0.367 0.302,-0.667 0.666,-0.667l2.419,0c0.369,0 0.667,0.3 0.667,0.667l0,4.109c0,0.367 -0.298,0.664 -0.667,0.664l-2.419,0Z" style="fill:#e1e0e0;fill-rule:nonzero;"/><path d="M117.268,119.62c-0.367,0 -0.666,-0.297 -0.666,-0.664l0,-4.108c0,-0.365 0.299,-0.665 0.666,-0.665l2.419,0c0.366,0 0.667,0.3 0.667,0.665l0,4.108c0,0.367 -0.301,0.664 -0.667,0.664l-2.419,0Z" style="fill:#e1e0e0;fill-rule:nonzero;"/><path d="M124.339,119.62c-0.366,0 -0.666,-0.297 -0.666,-0.664l0,-4.108c0,-0.365 0.3,-0.665 0.666,-0.665l2.423,0c0.365,0 0.662,0.3 0.662,0.665l0,4.108c0,0.367 -0.299,0.664 -0.662,0.664l-2.423,0Z" style="fill:#e1e0e0;fill-rule:nonzero;"/><path d="M97.803,119.62c-0.367,0 -0.665,-0.297 -0.665,-0.664l0,-4.108c0,-0.365 0.298,-0.665 0.665,-0.665l2.42,0c0.367,0 0.665,0.3 0.665,0.665l0,4.108c0,0.367 -0.298,0.664 -0.665,0.664l-2.42,0Z" style="fill:#e1e0e0;fill-rule:nonzero;"/><path d="M104.873,119.62c-0.364,0 -0.666,-0.297 -0.666,-0.664l0,-4.108c0,-0.365 0.302,-0.665 0.666,-0.665l2.419,0c0.369,0 0.667,0.3 0.667,0.665l0,4.108c0,0.367 -0.298,0.664 -0.667,0.664l-2.419,0Z" style="fill:#e1e0e0;fill-rule:nonzero;"/><path d="M117.268,105.48c-0.367,0 -0.666,-0.3 -0.666,-0.664l0,-4.11c0,-0.365 0.299,-0.666 0.666,-0.666l2.419,0c0.366,0 0.667,0.301 0.667,0.666l0,4.11c0,0.364 -0.301,0.664 -0.667,0.664l-2.419,0Z" style="fill:#e1e0e0;fill-rule:nonzero;"/><path d="M124.339,105.48c-0.366,0 -0.666,-0.3 -0.666,-0.664l0,-4.11c0,-0.365 0.3,-0.666 0.666,-0.666l2.423,0c0.365,0 0.662,0.301 0.662,0.666l0,4.11c0,0.364 -0.299,0.664 -0.662,0.664l-2.423,0Z" style="fill:#e1e0e0;fill-rule:nonzero;"/><path d="M97.803,105.48c-0.367,0 -0.665,-0.3 -0.665,-0.664l0,-4.11c0,-0.365 0.298,-0.666 0.665,-0.666l2.42,0c0.367,0 0.665,0.301 0.665,0.666l0,4.11c0,0.364 -0.298,0.664 -0.665,0.664l-2.42,0Z" style="fill:#e1e0e0;fill-rule:nonzero;"/><path d="M104.873,105.48c-0.364,0 -0.666,-0.3 -0.666,-0.664l0,-4.11c0,-0.365 0.302,-0.666 0.666,-0.666l2.419,0c0.369,0 0.667,0.301 0.667,0.666l0,4.11c0,0.364 -0.298,0.664 -0.667,0.664l-2.419,0Z" style="fill:#e1e0e0;fill-rule:nonzero;"/><path d="M117.268,91.335c-0.367,0 -0.666,-0.298 -0.666,-0.661l0,-4.113c0,-0.364 0.299,-0.661 0.666,-0.661l2.419,0c0.366,0 0.667,0.298 0.667,0.661l0,4.113c0,0.364 -0.301,0.661 -0.667,0.661l-2.419,0Z" style="fill:#e1e0e0;fill-rule:nonzero;"/><path d="M124.339,91.335c-0.366,0 -0.666,-0.298 -0.666,-0.661l0,-4.113c0,-0.364 0.3,-0.661 0.666,-0.661l2.423,0c0.365,0 0.662,0.298 0.662,0.661l0,4.113c0,0.364 -0.299,0.661 -0.662,0.661l-2.423,0Z" style="fill:#e1e0e0;fill-rule:nonzero;"/><path d="M97.803,91.335c-0.367,0 -0.665,-0.298 -0.665,-0.661l0,-4.113c0,-0.364 0.298,-0.661 0.665,-0.661l2.42,0c0.367,0 0.665,0.298 0.665,0.661l0,4.113c0,0.364 -0.298,0.661 -0.665,0.661l-2.42,0Z" style="fill:#e1e0e0;fill-rule:nonzero;"/><path d="M104.873,91.335c-0.364,0 -0.666,-0.298 -0.666,-0.661l0,-4.113c0,-0.364 0.302,-0.661 0.666,-0.661l2.419,0c0.369,0 0.667,0.298 0.667,0.661l0,4.113c0,0.364 -0.298,0.661 -0.667,0.661l-2.419,0Z" style="fill:#e1e0e0;fill-rule:nonzero;"/><path d="M117.268,77.195c-0.367,0 -0.666,-0.297 -0.666,-0.665l0,-4.108c0,-0.367 0.299,-0.667 0.666,-0.667l2.419,0c0.366,0 0.667,0.3 0.667,0.667l0,4.108c0,0.368 -0.301,0.665 -0.667,0.665l-2.419,0Z" style="fill:#e1e0e0;fill-rule:nonzero;"/><path d="M124.339,77.195c-0.366,0 -0.666,-0.297 -0.666,-0.665l0,-4.108c0,-0.367 0.3,-0.667 0.666,-0.667l2.423,0c0.365,0 0.662,0.3 0.662,0.667l0,4.108c0,0.368 -0.299,0.665 -0.662,0.665l-2.423,0Z" style="fill:#e1e0e0;fill-rule:nonzero;"/><path d="M97.803,77.195c-0.367,0 -0.665,-0.297 -0.665,-0.665l0,-4.108c0,-0.367 0.298,-0.667 0.665,-0.667l2.42,0c0.367,0 0.665,0.3 0.665,0.667l0,4.108c0,0.368 -0.298,0.665 -0.665,0.665l-2.42,0Z" style="fill:#e1e0e0;fill-rule:nonzero;"/><path d="M104.873,77.195c-0.364,0 -0.666,-0.297 -0.666,-0.665l0,-4.108c0,-0.367 0.302,-0.667 0.666,-0.667l2.419,0c0.369,0 0.667,0.3 0.667,0.667l0,4.108c0,0.368 -0.298,0.665 -0.667,0.665l-2.419,0Z" style="fill:#e1e0e0;fill-rule:nonzero;"/><path d="M110.131,139.786c0,-0.292 0.237,-0.529 0.527,-0.529l3.247,0c0.29,0 0.527,0.237 0.527,0.529l0,6.886l-4.299,0l0,-6.886l-0.002,0Z" style="fill:#4d4c4c;fill-rule:nonzero;"/><circle cx="110.804" cy="142.986" r="0.266" style="fill:#cdcccb;"/><path d="M208.889,146.672l-44.708,0l0,-83.487c0,-3.026 2.452,-5.476 5.472,-5.476l33.761,0c3.023,0 5.474,2.45 5.474,5.476l0,83.487l0.001,0Z" style="fill:#6d6868;fill-rule:nonzero;"/><path d="M164.181,63.185c0,-3.026 2.452,-5.476 5.472,-5.476l33.761,0c3.023,0 5.474,2.45 5.474,5.476l-44.707,0Z" style="fill:#5f5e5e;fill-rule:nonzero;"/><path d="M172.059,144.713c-0.364,0 -0.662,-0.296 -0.662,-0.664l0,-4.109c0,-0.364 0.298,-0.664 0.662,-0.664l9.492,0c0.368,0 0.668,0.3 0.668,0.664l0,4.109c0,0.368 -0.3,0.664 -0.668,0.664l-9.492,0Z" style="fill:#e1e0e0;fill-rule:nonzero;"/><path d="M191.517,144.713c-0.367,0 -0.666,-0.296 -0.666,-0.664l0,-4.109c0,-0.364 0.299,-0.664 0.666,-0.664l9.493,0c0.367,0 0.663,0.3 0.663,0.664l0,4.109c0,0.368 -0.296,0.664 -0.663,0.664l-9.493,0Z" style="fill:#e1e0e0;fill-rule:nonzero;"/><path d="M191.517,133.765c-0.367,0 -0.666,-0.297 -0.666,-0.664l0,-4.109c0,-0.367 0.299,-0.667 0.666,-0.667l2.42,0c0.366,0 0.667,0.3 0.667,0.667l0,4.109c0,0.367 -0.301,0.664 -0.667,0.664l-2.42,0Z" style="fill:#e1e0e0;fill-rule:nonzero;"/><path d="M198.589,133.765c-0.366,0 -0.668,-0.297 -0.668,-0.664l0,-4.109c0,-0.367 0.302,-0.667 0.668,-0.667l2.421,0c0.367,0 0.663,0.3 0.663,0.667l0,4.109c0,0.367 -0.296,0.664 -0.663,0.664l-2.421,0Z" style="fill:#e1e0e0;fill-rule:nonzero;"/><path d="M172.051,133.765c-0.366,0 -0.664,-0.297 -0.664,-0.664l0,-4.109c0,-0.367 0.298,-0.667 0.664,-0.667l2.423,0c0.365,0 0.666,0.3 0.666,0.667l0,4.109c0,0.367 -0.301,0.664 -0.666,0.664l-2.423,0Z" style="fill:#e1e0e0;fill-rule:nonzero;"/><path d="M179.122,133.765c-0.365,0 -0.662,-0.297 -0.662,-0.664l0,-4.109c0,-0.367 0.297,-0.667 0.662,-0.667l2.42,0c0.368,0 0.667,0.3 0.667,0.667l0,4.109c0,0.367 -0.299,0.664 -0.667,0.664l-2.42,0Z" style="fill:#e1e0e0;fill-rule:nonzero;"/><path d="M191.517,119.62c-0.367,0 -0.666,-0.297 -0.666,-0.664l0,-4.108c0,-0.365 0.299,-0.665 0.666,-0.665l2.42,0c0.366,0 0.667,0.3 0.667,0.665l0,4.108c0,0.367 -0.301,0.664 -0.667,0.664l-2.42,0Z" style="fill:#e1e0e0;fill-rule:nonzero;"/><path d="M198.589,119.62c-0.366,0 -0.668,-0.297 -0.668,-0.664l0,-4.108c0,-0.365 0.302,-0.665 0.668,-0.665l2.421,0c0.367,0 0.663,0.3 0.663,0.665l0,4.108c0,0.367 -0.296,0.664 -0.663,0.664l-2.421,0Z" style="fill:#e1e0e0;fill-rule:nonzero;"/><path d="M172.051,119.62c-0.366,0 -0.664,-0.297 -0.664,-0.664l0,-4.108c0,-0.365 0.298,-0.665 0.664,-0.665l2.423,0c0.365,0 0.666,0.3 0.666,0.665l0,4.108c0,0.367 -0.301,0.664 -0.666,0.664l-2.423,0Z" style="fill:#e1e0e0;fill-rule:nonzero;"/><path d="M179.122,119.62c-0.365,0 -0.662,-0.297 -0.662,-0.664l0,-4.108c0,-0.365 0.297,-0.665 0.662,-0.665l2.42,0c0.368,0 0.667,0.3 0.667,0.665l0,4.108c0,0.367 -0.299,0.664 -0.667,0.664l-2.42,0Z" style="fill:#e1e0e0;fill-rule:nonzero;"/><path d="M191.517,105.48c-0.367,0 -0.666,-0.3 -0.666,-0.664l0,-4.11c0,-0.365 0.299,-0.666 0.666,-0.666l2.42,0c0.366,0 0.667,0.301 0.667,0.666l0,4.11c0,0.364 -0.301,0.664 -0.667,0.664l-2.42,0Z" style="fill:#e1e0e0;fill-rule:nonzero;"/><path d="M198.589,105.48c-0.366,0 -0.668,-0.3 -0.668,-0.664l0,-4.11c0,-0.365 0.302,-0.666 0.668,-0.666l2.421,0c0.367,0 0.663,0.301 0.663,0.666l0,4.11c0,0.364 -0.296,0.664 -0.663,0.664l-2.421,0Z" style="fill:#e1e0e0;fill-rule:nonzero;"/><path d="M172.051,105.48c-0.366,0 -0.664,-0.3 -0.664,-0.664l0,-4.11c0,-0.365 0.298,-0.666 0.664,-0.666l2.423,0c0.365,0 0.666,0.301 0.666,0.666l0,4.11c0,0.364 -0.301,0.664 -0.666,0.664l-2.423,0Z" style="fill:#e1e0e0;fill-rule:nonzero;"/><path d="M179.122,105.48c-0.365,0 -0.662,-0.3 -0.662,-0.664l0,-4.11c0,-0.365 0.297,-0.666 0.662,-0.666l2.42,0c0.368,0 0.667,0.301 0.667,0.666l0,4.11c0,0.364 -0.299,0.664 -0.667,0.664l-2.42,0Z" style="fill:#e1e0e0;fill-rule:nonzero;"/><path d="M191.517,91.335c-0.367,0 -0.666,-0.298 -0.666,-0.661l0,-4.113c0,-0.364 0.299,-0.661 0.666,-0.661l2.42,0c0.366,0 0.667,0.298 0.667,0.661l0,4.113c0,0.364 -0.301,0.661 -0.667,0.661l-2.42,0Z" style="fill:#e1e0e0;fill-rule:nonzero;"/><path d="M198.589,91.335c-0.366,0 -0.668,-0.298 -0.668,-0.661l0,-4.113c0,-0.364 0.302,-0.661 0.668,-0.661l2.421,0c0.367,0 0.663,0.298 0.663,0.661l0,4.113c0,0.364 -0.296,0.661 -0.663,0.661l-2.421,0Z" style="fill:#e1e0e0;fill-rule:nonzero;"/><path d="M172.051,91.335c-0.366,0 -0.664,-0.298 -0.664,-0.661l0,-4.113c0,-0.364 0.298,-0.661 0.664,-0.661l2.423,0c0.365,0 0.666,0.298 0.666,0.661l0,4.113c0,0.364 -0.301,0.661 -0.666,0.661l-2.423,0Z" style="fill:#e1e0e0;fill-rule:nonzero;"/><path d="M179.122,91.335c-0.365,0 -0.662,-0.298 -0.662,-0.661l0,-4.113c0,-0.364 0.297,-0.661 0.662,-0.661l2.42,0c0.368,0 0.667,0.298 0.667,0.661l0,4.113c0,0.364 -0.299,0.661 -0.667,0.661l-2.42,0Z" style="fill:#e1e0e0;fill-rule:nonzero;"/><path d="M191.517,77.195c-0.367,0 -0.666,-0.297 -0.666,-0.665l0,-4.108c0,-0.367 0.299,-0.667 0.666,-0.667l2.42,0c0.366,0 0.667,0.3 0.667,0.667l0,4.108c0,0.368 -0.301,0.665 -0.667,0.665l-2.42,0Z" style="fill:#e1e0e0;fill-rule:nonzero;"/><path d="M198.589,77.195c-0.366,0 -0.668,-0.297 -0.668,-0.665l0,-4.108c0,-0.367 0.302,-0.667 0.668,-0.667l2.421,0c0.367,0 0.663,0.3 0.663,0.667l0,4.108c0,0.368 -0.296,0.665 -0.663,0.665l-2.421,0Z" style="fill:#e1e0e0;fill-rule:nonzero;"/><path d="M172.051,77.195c-0.366,0 -0.664,-0.297 -0.664,-0.665l0,-4.108c0,-0.367 0.298,-0.667 0.664,-0.667l2.423,0c0.365,0 0.666,0.3 0.666,0.667l0,4.108c0,0.368 -0.301,0.665 -0.666,0.665l-2.423,0Z" style="fill:#e1e0e0;fill-rule:nonzero;"/><path d="M179.122,77.195c-0.365,0 -0.662,-0.297 -0.662,-0.665l0,-4.108c0,-0.367 0.297,-0.667 0.662,-0.667l2.42,0c0.368,0 0.667,0.3 0.667,0.667l0,4.108c0,0.368 -0.299,0.665 -0.667,0.665l-2.42,0Z" style="fill:#e1e0e0;fill-rule:nonzero;"/><path d="M184.379,139.786c0,-0.292 0.236,-0.529 0.529,-0.529l3.244,0c0.291,0 0.529,0.237 0.529,0.529l0,6.886l-4.302,0l0,-6.886Z" style="fill:#4d4c4c;fill-rule:nonzero;"/><circle cx="185.052" cy="142.986" r="0.268" style="fill:#cdcccb;"/><path d="M180.23,159.9l-60.068,0l0,-112.168c0,-4.063 3.293,-7.355 7.356,-7.355l45.357,0c4.063,0 7.356,3.291 7.356,7.355l0,112.168l-0.001,0Z" style="fill:#868787;fill-rule:nonzero;"/><path d="M120.162,47.732c0,-4.063 3.293,-7.355 7.356,-7.355l45.357,0c4.063,0 7.356,3.291 7.356,7.355l-60.069,0Z" style="fill:#787878;fill-rule:nonzero;"/><path d="M130.751,157.269c-0.494,0 -0.894,-0.399 -0.894,-0.893l0,-5.519c0,-0.493 0.4,-0.895 0.894,-0.895l12.75,0c0.493,0 0.896,0.402 0.896,0.895l0,5.519c0,0.494 -0.403,0.893 -0.896,0.893l-12.75,0Z" style="fill:#e1e0e0;fill-rule:nonzero;"/><path d="M156.888,157.269c-0.493,0 -0.894,-0.399 -0.894,-0.893l0,-5.519c0,-0.493 0.401,-0.895 0.894,-0.895l12.752,0c0.493,0 0.894,0.402 0.894,0.895l0,5.519c0,0.494 -0.401,0.893 -0.894,0.893l-12.752,0Z" style="fill:#e1e0e0;fill-rule:nonzero;"/><path d="M156.888,142.56c-0.493,0 -0.894,-0.401 -0.894,-0.894l0,-5.519c0,-0.494 0.401,-0.896 0.894,-0.896l3.252,0c0.494,0 0.894,0.402 0.894,0.896l0,5.519c0,0.493 -0.4,0.894 -0.894,0.894l-3.252,0Z" style="fill:#e1e0e0;fill-rule:nonzero;"/><path d="M166.391,142.56c-0.494,0 -0.896,-0.401 -0.896,-0.894l0,-5.519c0,-0.494 0.402,-0.896 0.896,-0.896l3.25,0c0.494,0 0.894,0.402 0.894,0.896l0,5.519c0,0.493 -0.4,0.894 -0.894,0.894l-3.25,0Z" style="fill:#e1e0e0;fill-rule:nonzero;"/><path d="M130.738,142.56c-0.494,0 -0.895,-0.401 -0.895,-0.894l0,-5.519c0,-0.494 0.401,-0.896 0.895,-0.896l3.25,0c0.493,0 0.896,0.402 0.896,0.896l0,5.519c0,0.493 -0.403,0.894 -0.896,0.894l-3.25,0Z" style="fill:#e1e0e0;fill-rule:nonzero;"/><path d="M140.238,142.56c-0.493,0 -0.895,-0.401 -0.895,-0.894l0,-5.519c0,-0.494 0.402,-0.896 0.895,-0.896l3.249,0c0.494,0 0.896,0.402 0.896,0.896l0,5.519c0,0.493 -0.402,0.894 -0.896,0.894l-3.249,0Z" style="fill:#e1e0e0;fill-rule:nonzero;"/><path d="M156.888,123.558c-0.493,0 -0.894,-0.399 -0.894,-0.893l0,-5.519c0,-0.494 0.401,-0.896 0.894,-0.896l3.252,0c0.494,0 0.894,0.402 0.894,0.896l0,5.519c0,0.494 -0.4,0.893 -0.894,0.893l-3.252,0Z" style="fill:#e1e0e0;fill-rule:nonzero;"/><path d="M166.391,123.558c-0.494,0 -0.896,-0.399 -0.896,-0.893l0,-5.519c0,-0.494 0.402,-0.896 0.896,-0.896l3.25,0c0.494,0 0.894,0.402 0.894,0.896l0,5.519c0,0.494 -0.4,0.893 -0.894,0.893l-3.25,0Z" style="fill:#e1e0e0;fill-rule:nonzero;"/><path d="M130.738,123.558c-0.494,0 -0.895,-0.399 -0.895,-0.893l0,-5.519c0,-0.494 0.401,-0.896 0.895,-0.896l3.25,0c0.493,0 0.896,0.402 0.896,0.896l0,5.519c0,0.494 -0.403,0.893 -0.896,0.893l-3.25,0Z" style="fill:#e1e0e0;fill-rule:nonzero;"/><path d="M140.238,123.558c-0.493,0 -0.895,-0.399 -0.895,-0.893l0,-5.519c0,-0.494 0.402,-0.896 0.895,-0.896l3.249,0c0.494,0 0.896,0.402 0.896,0.896l0,5.519c0,0.494 -0.402,0.893 -0.896,0.893l-3.249,0Z" style="fill:#e1e0e0;fill-rule:nonzero;"/><path d="M156.888,104.557c-0.493,0 -0.894,-0.4 -0.894,-0.894l0,-5.518c0,-0.495 0.401,-0.895 0.894,-0.895l3.252,0c0.494,0 0.894,0.4 0.894,0.895l0,5.518c0,0.494 -0.4,0.894 -0.894,0.894l-3.252,0Z" style="fill:#e1e0e0;fill-rule:nonzero;"/><path d="M166.391,104.557c-0.494,0 -0.896,-0.4 -0.896,-0.894l0,-5.518c0,-0.495 0.402,-0.895 0.896,-0.895l3.25,0c0.494,0 0.894,0.4 0.894,0.895l0,5.518c0,0.494 -0.4,0.894 -0.894,0.894l-3.25,0Z" style="fill:#e1e0e0;fill-rule:nonzero;"/><path d="M130.738,104.557c-0.494,0 -0.895,-0.4 -0.895,-0.894l0,-5.518c0,-0.495 0.401,-0.895 0.895,-0.895l3.25,0c0.493,0 0.896,0.4 0.896,0.895l0,5.518c0,0.494 -0.403,0.894 -0.896,0.894l-3.25,0Z" style="fill:#e1e0e0;fill-rule:nonzero;"/><path d="M140.238,104.557c-0.493,0 -0.895,-0.4 -0.895,-0.894l0,-5.518c0,-0.495 0.402,-0.895 0.895,-0.895l3.249,0c0.494,0 0.896,0.4 0.896,0.895l0,5.518c0,0.494 -0.402,0.894 -0.896,0.894l-3.249,0Z" style="fill:#e1e0e0;fill-rule:nonzero;"/><path d="M156.888,85.557c-0.493,0 -0.894,-0.402 -0.894,-0.896l0,-5.519c0,-0.493 0.401,-0.893 0.894,-0.893l3.252,0c0.494,0 0.894,0.4 0.894,0.893l0,5.519c0,0.494 -0.4,0.896 -0.894,0.896l-3.252,0Z" style="fill:#e1e0e0;fill-rule:nonzero;"/><path d="M166.391,85.557c-0.494,0 -0.896,-0.402 -0.896,-0.896l0,-5.519c0,-0.493 0.402,-0.893 0.896,-0.893l3.25,0c0.494,0 0.894,0.4 0.894,0.893l0,5.519c0,0.494 -0.4,0.896 -0.894,0.896l-3.25,0Z" style="fill:#e1e0e0;fill-rule:nonzero;"/><path d="M130.738,85.557c-0.494,0 -0.895,-0.402 -0.895,-0.896l0,-5.519c0,-0.493 0.401,-0.893 0.895,-0.893l3.25,0c0.493,0 0.896,0.4 0.896,0.893l0,5.519c0,0.494 -0.403,0.896 -0.896,0.896l-3.25,0Z" style="fill:#e1e0e0;fill-rule:nonzero;"/><path d="M140.238,85.557c-0.493,0 -0.895,-0.402 -0.895,-0.896l0,-5.519c0,-0.493 0.402,-0.893 0.895,-0.893l3.249,0c0.494,0 0.896,0.4 0.896,0.893l0,5.519c0,0.494 -0.402,0.896 -0.896,0.896l-3.249,0Z" style="fill:#e1e0e0;fill-rule:nonzero;"/><path d="M156.888,66.555c-0.493,0 -0.894,-0.401 -0.894,-0.894l0,-5.52c0,-0.493 0.401,-0.894 0.894,-0.894l3.252,0c0.494,0 0.894,0.401 0.894,0.894l0,5.52c0,0.493 -0.4,0.894 -0.894,0.894l-3.252,0Z" style="fill:#e1e0e0;fill-rule:nonzero;"/><path d="M166.391,66.555c-0.494,0 -0.896,-0.401 -0.896,-0.894l0,-5.52c0,-0.493 0.402,-0.894 0.896,-0.894l3.25,0c0.494,0 0.894,0.401 0.894,0.894l0,5.52c0,0.493 -0.4,0.894 -0.894,0.894l-3.25,0Z" style="fill:#e1e0e0;fill-rule:nonzero;"/><path d="M130.738,66.555c-0.494,0 -0.895,-0.401 -0.895,-0.894l0,-5.52c0,-0.493 0.401,-0.894 0.895,-0.894l3.25,0c0.493,0 0.896,0.401 0.896,0.894l0,5.52c0,0.493 -0.403,0.894 -0.896,0.894l-3.25,0Z" style="fill:#e1e0e0;fill-rule:nonzero;"/><path d="M140.238,66.555c-0.493,0 -0.895,-0.401 -0.895,-0.894l0,-5.52c0,-0.493 0.402,-0.894 0.895,-0.894l3.249,0c0.494,0 0.896,0.401 0.896,0.894l0,5.52c0,0.493 -0.402,0.894 -0.896,0.894l-3.249,0Z" style="fill:#e1e0e0;fill-rule:nonzero;"/><path d="M147.3,150.646c0,-0.389 0.316,-0.706 0.707,-0.706l4.36,0c0.392,0 0.708,0.317 0.708,0.706l0,9.254l-5.776,0l0,-9.254l0.001,0Z" style="fill:#4d4c4c;fill-rule:nonzero;"/><circle cx="148.204" cy="154.945" r="0.358" style="fill:#cdcccb;"/></g></g></svg>