<?xml version="1.0" encoding="UTF-8" standalone="no"?><!DOCTYPE svg PUBLIC "-//W3C//DTD SVG 1.1//EN" "http://www.w3.org/Graphics/SVG/1.1/DTD/svg11.dtd"><svg width="100%" height="100%" viewBox="0 0 300 200" version="1.1" xmlns="http://www.w3.org/2000/svg" xmlns:xlink="http://www.w3.org/1999/xlink" xml:space="preserve" style="fill-rule:evenodd;clip-rule:evenodd;stroke-linejoin:round;stroke-miterlimit:1.41421;"><g id="Layer1"><rect x="-0.191" y="0.113" width="300.234" height="200.07" style="fill:#50ae54;"/><g><path d="M215.2,159.795l-130.815,0c-0.654,0 -1.185,-0.531 -1.185,-1.185l0,-117.333c0,-0.654 0.531,-1.185 1.185,-1.185l130.856,0c0.653,0 1.185,0.531 1.185,1.185l0,117.374c-0.041,0.613 -0.572,1.144 -1.226,1.144Z" style="fill:#324a5e;fill-rule:nonzero;"/><rect x="92.147" y="71.958" width="115.25" height="78.89" style="fill:#fff;"/><path d="M201.881,60.805c-2.655,0 -4.82,-2.165 -4.82,-4.821c0,-2.655 2.165,-4.82 4.82,-4.82c2.656,0 4.821,2.165 4.821,4.82c0,2.697 -2.165,4.821 -4.821,4.821Z" style="fill:#84dbff;fill-rule:nonzero;"/><path d="M186.153,60.805c-2.656,0 -4.821,-2.165 -4.821,-4.821c0,-2.655 2.165,-4.82 4.821,-4.82c2.655,0 4.82,2.165 4.82,4.82c-0.041,2.697 -2.165,4.821 -4.82,4.821Z" style="fill:#84dbff;fill-rule:nonzero;"/><path d="M170.383,60.805c-2.656,0 -4.821,-2.165 -4.821,-4.821c0,-2.655 2.165,-4.82 4.821,-4.82c2.655,0 4.821,2.165 4.821,4.82c0,2.697 -2.166,4.821 -4.821,4.821Z" style="fill:#84dbff;fill-rule:nonzero;"/><path d="M137.413,60.805l-40.445,0c-2.656,0 -4.821,-2.165 -4.821,-4.821c0,-2.655 2.165,-4.82 4.821,-4.82l40.445,0c2.656,0 4.821,2.165 4.821,4.82c-0.041,2.697 -2.165,4.821 -4.821,4.821Z" style="fill:#fff;fill-rule:nonzero;"/><rect x="109.633" y="95.204" width="80.319" height="3.881" style="fill:#e6e9ee;"/><rect x="109.633" y="109.463" width="80.319" height="3.881" style="fill:#e6e9ee;"/><rect x="109.633" y="123.68" width="40.732" height="3.881" style="fill:#e6e9ee;"/></g></g></svg>