<?xml version="1.0" encoding="UTF-8" standalone="no"?><!DOCTYPE svg PUBLIC "-//W3C//DTD SVG 1.1//EN" "http://www.w3.org/Graphics/SVG/1.1/DTD/svg11.dtd"><svg width="100%" height="100%" viewBox="0 0 300 200" version="1.1" xmlns="http://www.w3.org/2000/svg" xmlns:xlink="http://www.w3.org/1999/xlink" xml:space="preserve" style="fill-rule:evenodd;clip-rule:evenodd;stroke-linejoin:round;stroke-miterlimit:1.41421;"><g id="Layer1"><rect x="-0.191" y="0.113" width="300.234" height="200.605" style="fill:#8c2da8;"/><g><g><path d="M168.934,150.724l-66.794,0c-1.381,0 -2.511,-1.13 -2.511,-2.511l0,-84.623c0,-1.381 1.13,-2.511 2.511,-2.511l66.794,0c1.381,0 2.511,1.13 2.511,2.511l0,84.748c0,1.255 -1.13,2.386 -2.511,2.386Z" style="fill:#ced5e0;fill-rule:nonzero;"/><rect x="106.157" y="67.482" width="58.883" height="76.837" style="fill:#fff;"/><path d="M147.841,55.178l-7.784,0c0,-2.637 -2.009,-4.771 -4.52,-4.771c-2.511,0 -4.52,2.134 -4.52,4.771l-7.784,0l-3.516,14.69l31.514,0l-3.39,-14.69Z" style="fill:#2b3b4e;fill-rule:nonzero;"/><rect x="110.049" y="93.973" width="11.3" height="11.3" style="fill:#54c0eb;"/><rect x="126.246" y="97.741" width="34.904" height="3.767" style="fill:#ced5e0;"/><rect x="110.049" y="111.551" width="11.3" height="11.3" style="fill:#2c9984;"/><rect x="126.246" y="115.319" width="34.904" height="3.767" style="fill:#f1543f;"/><rect x="110.049" y="129.253" width="11.3" height="11.3" style="fill:#ced5e0;"/><rect x="126.246" y="133.021" width="34.904" height="3.767" style="fill:#ced5e0;"/><circle cx="177.721" cy="128.376" r="22.35" style="fill:#324a5e;"/><circle cx="177.721" cy="128.376" r="17.452" style="fill:#fff;"/></g><path d="M185.726,126.599c-1.708,-1.882 -3.415,-3.764 -5.123,-5.646c-1.616,-1.78 -4.115,0.994 -2.495,2.779c0.696,0.767 1.392,1.534 2.088,2.301c-2.741,0 -5.482,0 -8.223,0c-2.29,0 -2.31,3.909 -0.025,3.909c2.75,0 5.499,0 8.249,0c-0.701,0.772 -1.402,1.544 -2.102,2.316c-1.617,1.781 0.901,4.534 2.521,2.749c1.708,-1.882 3.416,-3.763 5.123,-5.645c0.686,-0.755 0.667,-2.014 -0.013,-2.763Z" style="fill:#f1543f;fill-rule:nonzero;"/><text x="112.187px" y="83.366px" style="font-family:'ArialMT', 'Arial', sans-serif;font-size:8px;fill:#f1543f;">Delivery Note</text></g></g></svg>