<?xml version="1.0" encoding="UTF-8" standalone="no"?><!DOCTYPE svg PUBLIC "-//W3C//DTD SVG 1.1//EN" "http://www.w3.org/Graphics/SVG/1.1/DTD/svg11.dtd"><svg width="100%" height="100%" viewBox="0 0 300 300" version="1.1" xmlns="http://www.w3.org/2000/svg" xmlns:xlink="http://www.w3.org/1999/xlink" xml:space="preserve" style="fill-rule:evenodd;clip-rule:evenodd;stroke-linejoin:round;stroke-miterlimit:1.41421;"><g id="Layer2"><rect x="0.239" y="0.058" width="299.596" height="300.822" style="fill:#4054b2;fill-opacity:0.9;"/><g><path d="M190.448,61.958l0,28.62l28.567,0l0,149.029l-135.2,0l0,-177.649l106.633,0Z" style="fill:#fff;fill-rule:nonzero;"/><path d="M190.448,61.958l28.567,28.62l-28.567,0l0,-28.62Z" style="fill:#e6e9ee;fill-rule:nonzero;"/><path d="M149.705,180.409l0,-8.543c-10.733,-1.068 -20.344,-5.34 -28.888,-12.762l8.544,-10.199c6.568,5.714 13.349,9.131 20.29,10.199l0,-22.747c-8.863,-2.136 -15.324,-4.912 -19.436,-8.329c-4.111,-3.418 -6.14,-8.544 -6.14,-15.325c0,-6.782 2.349,-12.281 7.101,-16.606c4.753,-4.326 10.893,-6.622 18.475,-7.049l0,-5.873l7.529,0l0,5.98c8.597,0.641 16.713,3.578 24.402,8.81l-7.582,10.733c-5.179,-3.684 -10.733,-5.927 -16.766,-6.781l0,22.052l0.373,0c8.971,2.136 15.592,4.966 19.81,8.544c4.219,3.577 6.355,8.81 6.355,15.645c0,6.835 -2.403,12.441 -7.262,16.713c-4.859,4.325 -11.267,6.674 -19.223,7.048l0,8.437l-7.582,0l0,0.053Zm-8.277,-75.716c-1.975,1.762 -2.99,3.952 -2.99,6.568c0,2.617 0.801,4.699 2.35,6.194c1.548,1.549 4.538,2.99 8.917,4.379l0,-20.291c-3.524,0.32 -6.301,1.388 -8.277,3.15Zm24.669,51.421c2.19,-1.816 3.258,-4.058 3.258,-6.781c0,-2.724 -0.855,-4.913 -2.563,-6.515c-1.709,-1.602 -4.913,-3.097 -9.612,-4.538l0,21.144c3.791,-0.427 6.728,-1.495 8.917,-3.31Z" style="fill:#1dbaf7;fill-rule:nonzero;"/><text x="91.6px" y="207.323px" style="font-family:'Arial-BoldMT', 'Arial', sans-serif;font-weight:700;font-size:17.633px;fill:#1dbaf7;">CREDIT NOTE</text></g></g></svg>