<?xml version="1.0" encoding="UTF-8" standalone="no"?><!DOCTYPE svg PUBLIC "-//W3C//DTD SVG 1.1//EN" "http://www.w3.org/Graphics/SVG/1.1/DTD/svg11.dtd"><svg width="100%" height="100%" viewBox="0 0 300 300" version="1.1" xmlns="http://www.w3.org/2000/svg" xmlns:xlink="http://www.w3.org/1999/xlink" xml:space="preserve" style="fill-rule:evenodd;clip-rule:evenodd;stroke-linejoin:round;stroke-miterlimit:1.41421;"><g id="Layer2"><rect x="0.239" y="0.058" width="299.596" height="300.822" style="fill:#4054b2;fill-opacity:0.9;"/></g><g id="Layer1"><g><path d="M240.277,232.004l-178.76,0l0,-149.485c0,-6.65 5.391,-12.039 12.041,-12.039l154.68,0c6.65,0 12.041,5.387 12.041,12.039l0,149.485l-0.002,0Z" style="fill:#868787;fill-rule:nonzero;"/><g><g><path d="M205.464,203.621c-0.808,0 -1.464,-0.656 -1.464,-1.464l0,-9.034c0,-0.808 0.656,-1.466 1.464,-1.466l5.323,0c0.807,0 1.463,0.658 1.463,1.466l0,9.034c0,0.808 -0.656,1.464 -1.463,1.464l-5.323,0Z" style="fill:#e1e0e0;fill-rule:nonzero;"/><path d="M221.018,203.621c-0.808,0 -1.466,-0.656 -1.466,-1.464l0,-9.034c0,-0.808 0.658,-1.466 1.466,-1.466l5.32,0c0.808,0 1.464,0.658 1.464,1.466l0,9.034c0,0.808 -0.656,1.464 -1.464,1.464l-5.32,0Z" style="fill:#e1e0e0;fill-rule:nonzero;"/><path d="M205.464,172.517c-0.808,0 -1.464,-0.653 -1.464,-1.461l0,-9.032c0,-0.808 0.656,-1.466 1.464,-1.466l5.323,0c0.807,0 1.463,0.658 1.463,1.466l0,9.034c0,0.808 -0.656,1.462 -1.463,1.462l-5.323,0l0,-0.003Z" style="fill:#e1e0e0;fill-rule:nonzero;"/><path d="M221.018,172.517c-0.808,0 -1.466,-0.653 -1.466,-1.461l0,-9.032c0,-0.808 0.658,-1.466 1.466,-1.466l5.32,0c0.808,0 1.464,0.658 1.464,1.466l0,9.034c0,0.808 -0.656,1.462 -1.464,1.462l-5.32,0l0,-0.003Z" style="fill:#e1e0e0;fill-rule:nonzero;"/><path d="M205.464,141.416c-0.808,0 -1.464,-0.656 -1.464,-1.464l0,-9.032c0,-0.81 0.656,-1.466 1.464,-1.466l5.323,0c0.807,0 1.463,0.656 1.463,1.466l0,9.032c0,0.808 -0.656,1.464 -1.463,1.464l-5.323,0Z" style="fill:#e1e0e0;fill-rule:nonzero;"/><path d="M221.018,141.416c-0.808,0 -1.466,-0.656 -1.466,-1.464l0,-9.032c0,-0.81 0.658,-1.466 1.466,-1.466l5.32,0c0.808,0 1.464,0.656 1.464,1.466l0,9.032c0,0.808 -0.656,1.464 -1.464,1.464l-5.32,0Z" style="fill:#e1e0e0;fill-rule:nonzero;"/><path d="M205.464,110.314c-0.808,0 -1.464,-0.658 -1.464,-1.466l0,-9.032c0,-0.808 0.656,-1.461 1.464,-1.461l5.323,0c0.807,0 1.463,0.653 1.463,1.461l0,9.034c0,0.808 -0.656,1.466 -1.463,1.466l-5.323,0l0,-0.002Z" style="fill:#e1e0e0;fill-rule:nonzero;"/><path d="M221.018,110.314c-0.808,0 -1.466,-0.658 -1.466,-1.466l0,-9.032c0,-0.808 0.658,-1.461 1.466,-1.461l5.32,0c0.808,0 1.464,0.653 1.464,1.461l0,9.034c0,0.808 -0.656,1.466 -1.464,1.466l-5.32,0l0,-0.002Z" style="fill:#e1e0e0;fill-rule:nonzero;"/></g><g><path d="M161.897,110.314c-0.808,0 -1.464,-0.658 -1.464,-1.466l0,-9.032c0,-0.808 0.656,-1.461 1.464,-1.461l5.322,0c0.808,0 1.464,0.653 1.464,1.461l0,9.034c0,0.808 -0.656,1.466 -1.464,1.466l-5.322,0l0,-0.002Z" style="fill:#e1e0e0;fill-rule:nonzero;"/><path d="M177.451,110.314c-0.808,0 -1.466,-0.658 -1.466,-1.466l0,-9.032c0,-0.808 0.658,-1.461 1.466,-1.461l5.32,0c0.808,0 1.464,0.653 1.464,1.461l0,9.034c0,0.808 -0.656,1.466 -1.464,1.466l-5.32,0l0,-0.002Z" style="fill:#e1e0e0;fill-rule:nonzero;"/><path d="M161.897,203.621c-0.808,0 -1.464,-0.656 -1.464,-1.464l0,-9.034c0,-0.808 0.656,-1.466 1.464,-1.466l5.322,0c0.808,0 1.464,0.658 1.464,1.466l0,9.034c0,0.808 -0.656,1.464 -1.464,1.464l-5.322,0Z" style="fill:#e1e0e0;fill-rule:nonzero;"/><path d="M177.451,203.621c-0.808,0 -1.466,-0.656 -1.466,-1.464l0,-9.034c0,-0.808 0.658,-1.466 1.466,-1.466l5.32,0c0.808,0 1.464,0.658 1.464,1.466l0,9.034c0,0.808 -0.656,1.464 -1.464,1.464l-5.32,0Z" style="fill:#e1e0e0;fill-rule:nonzero;"/><path d="M161.897,172.517c-0.808,0 -1.464,-0.653 -1.464,-1.461l0,-9.032c0,-0.808 0.656,-1.466 1.464,-1.466l5.322,0c0.808,0 1.464,0.658 1.464,1.466l0,9.034c0,0.808 -0.656,1.462 -1.464,1.462l-5.322,0l0,-0.003Z" style="fill:#e1e0e0;fill-rule:nonzero;"/><path d="M177.451,172.517c-0.808,0 -1.466,-0.653 -1.466,-1.461l0,-9.032c0,-0.808 0.658,-1.466 1.466,-1.466l5.32,0c0.808,0 1.464,0.658 1.464,1.466l0,9.034c0,0.808 -0.656,1.462 -1.464,1.462l-5.32,0l0,-0.003Z" style="fill:#e1e0e0;fill-rule:nonzero;"/><path d="M161.897,141.416c-0.808,0 -1.464,-0.656 -1.464,-1.464l0,-9.032c0,-0.81 0.656,-1.466 1.464,-1.466l5.322,0c0.808,0 1.464,0.656 1.464,1.466l0,9.032c0,0.808 -0.656,1.464 -1.464,1.464l-5.322,0Z" style="fill:#e1e0e0;fill-rule:nonzero;"/><path d="M177.451,141.416c-0.808,0 -1.466,-0.656 -1.466,-1.464l0,-9.032c0,-0.81 0.658,-1.466 1.466,-1.466l5.32,0c0.808,0 1.464,0.656 1.464,1.466l0,9.032c0,0.808 -0.656,1.464 -1.464,1.464l-5.32,0Z" style="fill:#e1e0e0;fill-rule:nonzero;"/></g><g><g><path d="M119.091,203.621c-0.808,0 -1.464,-0.656 -1.464,-1.464l0,-9.034c0,-0.808 0.656,-1.466 1.464,-1.466l5.32,0c0.808,0 1.466,0.658 1.466,1.466l0,9.034c0,0.808 -0.658,1.464 -1.466,1.464l-5.32,0Z" style="fill:#e1e0e0;fill-rule:nonzero;"/><path d="M134.643,203.621c-0.808,0 -1.466,-0.656 -1.466,-1.464l0,-9.034c0,-0.808 0.658,-1.466 1.466,-1.466l5.318,0c0.808,0 1.466,0.658 1.466,1.466l0,9.034c0,0.808 -0.658,1.464 -1.466,1.464l-5.318,0Z" style="fill:#e1e0e0;fill-rule:nonzero;"/></g><g><path d="M119.091,172.517c-0.808,0 -1.464,-0.653 -1.464,-1.461l0,-9.032c0,-0.808 0.656,-1.466 1.464,-1.466l5.32,0c0.808,0 1.466,0.658 1.466,1.466l0,9.034c0,0.808 -0.658,1.462 -1.466,1.462l-5.32,0l0,-0.003Z" style="fill:#e1e0e0;fill-rule:nonzero;"/><path d="M134.643,172.517c-0.808,0 -1.466,-0.653 -1.466,-1.461l0,-9.032c0,-0.808 0.658,-1.466 1.466,-1.466l5.318,0c0.808,0 1.466,0.658 1.466,1.466l0,9.034c0,0.808 -0.658,1.462 -1.466,1.462l-5.318,0l0,-0.003Z" style="fill:#e1e0e0;fill-rule:nonzero;"/></g><g><path d="M119.091,141.416c-0.808,0 -1.464,-0.656 -1.464,-1.464l0,-9.032c0,-0.81 0.656,-1.466 1.464,-1.466l5.32,0c0.808,0 1.466,0.656 1.466,1.466l0,9.032c0,0.808 -0.658,1.464 -1.466,1.464l-5.32,0Z" style="fill:#e1e0e0;fill-rule:nonzero;"/><path d="M134.643,141.416c-0.808,0 -1.466,-0.656 -1.466,-1.464l0,-9.032c0,-0.81 0.658,-1.466 1.466,-1.466l5.318,0c0.808,0 1.466,0.656 1.466,1.466l0,9.032c0,0.808 -0.658,1.464 -1.466,1.464l-5.318,0Z" style="fill:#e1e0e0;fill-rule:nonzero;"/></g><g><path d="M119.091,110.314c-0.808,0 -1.464,-0.658 -1.464,-1.466l0,-9.032c0,-0.808 0.656,-1.461 1.464,-1.461l5.32,0c0.808,0 1.466,0.653 1.466,1.461l0,9.034c0,0.808 -0.658,1.466 -1.466,1.466l-5.32,0l0,-0.002Z" style="fill:#e1e0e0;fill-rule:nonzero;"/><path d="M134.643,110.314c-0.808,0 -1.466,-0.658 -1.466,-1.466l0,-9.032c0,-0.808 0.658,-1.461 1.466,-1.461l5.318,0c0.808,0 1.466,0.653 1.466,1.461l0,9.034c0,0.808 -0.658,1.466 -1.466,1.466l-5.318,0l0,-0.002Z" style="fill:#e1e0e0;fill-rule:nonzero;"/></g></g><g><g><path d="M76.322,203.621c-0.807,0 -1.463,-0.656 -1.463,-1.464l0,-9.034c0,-0.808 0.656,-1.466 1.463,-1.466l5.321,0c0.808,0 1.466,0.658 1.466,1.466l0,9.034c0,0.808 -0.658,1.464 -1.466,1.464l-5.321,0Z" style="fill:#e1e0e0;fill-rule:nonzero;"/><path d="M91.877,203.621c-0.808,0 -1.466,-0.656 -1.466,-1.464l0,-9.034c0,-0.808 0.658,-1.466 1.466,-1.466l5.318,0c0.808,0 1.466,0.658 1.466,1.466l0,9.034c0,0.808 -0.658,1.464 -1.466,1.464l-5.318,0Z" style="fill:#e1e0e0;fill-rule:nonzero;"/></g><g><path d="M76.322,172.517c-0.807,0 -1.463,-0.653 -1.463,-1.461l0,-9.032c0,-0.808 0.656,-1.466 1.463,-1.466l5.321,0c0.808,0 1.466,0.658 1.466,1.466l0,9.034c0,0.808 -0.658,1.462 -1.466,1.462l-5.321,0l0,-0.003Z" style="fill:#e1e0e0;fill-rule:nonzero;"/><path d="M91.877,172.517c-0.808,0 -1.466,-0.653 -1.466,-1.461l0,-9.032c0,-0.808 0.658,-1.466 1.466,-1.466l5.318,0c0.808,0 1.466,0.658 1.466,1.466l0,9.034c0,0.808 -0.658,1.462 -1.466,1.462l-5.318,0l0,-0.003Z" style="fill:#e1e0e0;fill-rule:nonzero;"/></g><g><path d="M76.322,141.416c-0.807,0 -1.463,-0.656 -1.463,-1.464l0,-9.032c0,-0.81 0.656,-1.466 1.463,-1.466l5.321,0c0.808,0 1.466,0.656 1.466,1.466l0,9.032c0,0.808 -0.658,1.464 -1.466,1.464l-5.321,0Z" style="fill:#e1e0e0;fill-rule:nonzero;"/><path d="M91.877,141.416c-0.808,0 -1.466,-0.656 -1.466,-1.464l0,-9.032c0,-0.81 0.658,-1.466 1.466,-1.466l5.318,0c0.808,0 1.466,0.656 1.466,1.466l0,9.032c0,0.808 -0.658,1.464 -1.466,1.464l-5.318,0Z" style="fill:#e1e0e0;fill-rule:nonzero;"/></g><g><path d="M76.322,110.314c-0.807,0 -1.463,-0.658 -1.463,-1.466l0,-9.032c0,-0.808 0.656,-1.461 1.463,-1.461l5.321,0c0.808,0 1.466,0.653 1.466,1.461l0,9.034c0,0.808 -0.658,1.466 -1.466,1.466l-5.321,0l0,-0.002Z" style="fill:#e1e0e0;fill-rule:nonzero;"/><path d="M91.877,110.314c-0.808,0 -1.466,-0.658 -1.466,-1.466l0,-9.032c0,-0.808 0.658,-1.461 1.466,-1.461l5.318,0c0.808,0 1.466,0.653 1.466,1.461l0,9.034c0,0.808 -0.658,1.466 -1.466,1.466l-5.318,0l0,-0.002Z" style="fill:#e1e0e0;fill-rule:nonzero;"/></g></g></g><path d="M61.517,82.519c0,-6.65 5.391,-12.039 12.041,-12.039l154.68,0c6.65,0 12.041,5.387 12.041,12.039l-178.762,0Z" style="fill:#787878;fill-rule:nonzero;"/><path d="M119.113,227.699c-0.808,0 -1.464,-0.654 -1.464,-1.462l0,-9.034c0,-0.808 0.656,-1.466 1.464,-1.466l20.87,0c0.808,0 1.466,0.658 1.466,1.466l0,9.034c0,0.808 -0.658,1.462 -1.466,1.462l-20.87,0Z" style="fill:#e1e0e0;fill-rule:nonzero;"/><path d="M161.897,227.699c-0.808,0 -1.464,-0.654 -1.464,-1.462l0,-9.034c0,-0.808 0.656,-1.466 1.464,-1.466l20.872,0c0.808,0 1.464,0.658 1.464,1.466l0,9.034c0,0.808 -0.656,1.462 -1.464,1.462l-20.872,0Z" style="fill:#e1e0e0;fill-rule:nonzero;"/><g><path d="M146.202,216.857c0,-0.636 0.517,-1.155 1.157,-1.155l7.137,0c0.64,0 1.158,0.519 1.158,1.155l0,15.147l-9.455,0l0,-15.147l0.003,0Z" style="fill:#4d4c4c;fill-rule:nonzero;"/><circle cx="147.681" cy="223.895" r="0.586" style="fill:#cdcccb;"/></g></g><g><path d="M256.279,179.648l-43.75,24.253l-2.24,2.094l21.579,20.544l1.543,-1.747l22.868,-45.144Z" style="fill:#f7d98b;fill-rule:nonzero;"/><path d="M256.412,179.394l-19.091,10.615l9.136,9.136l9.955,-19.751Z" style="fill:#f5f8f6;fill-rule:nonzero;"/><g><path d="M233.808,221.601l-6.51,0.374l-22.762,22.741c1.862,1.233 3.826,2.305 5.862,3.275l21.47,-21.452l1.94,-4.938Z" style="fill:#e84849;fill-rule:nonzero;"/><path d="M196.85,238.328l23.416,-23.395l0.288,-6.589l-6.336,0.545l-22.799,22.784c1.598,2.382 3.429,4.604 5.431,6.655Z" style="fill:#e84849;fill-rule:nonzero;"/><path d="M214.218,208.889l0.892,-5.992l-4.325,2.553l-21.922,21.904c0.78,1.484 1.623,2.928 2.556,4.316l22.799,-22.781Z" style="fill:#f06668;fill-rule:nonzero;"/><path d="M204.539,244.716l22.762,-22.741l-0.08,-6.964l-6.952,-0.078l-23.416,23.395c2.326,2.382 4.901,4.532 7.686,6.388Z" style="fill:#f06668;fill-rule:nonzero;"/></g></g></g></svg>