<?xml version="1.0" encoding="UTF-8" standalone="no"?><!DOCTYPE svg PUBLIC "-//W3C//DTD SVG 1.1//EN" "http://www.w3.org/Graphics/SVG/1.1/DTD/svg11.dtd"><svg width="100%" height="100%" viewBox="0 0 300 300" version="1.1" xmlns="http://www.w3.org/2000/svg" xmlns:xlink="http://www.w3.org/1999/xlink" xml:space="preserve" style="fill-rule:evenodd;clip-rule:evenodd;stroke-linejoin:round;stroke-miterlimit:1.41421;"><g id="Layer2"><rect x="0.239" y="0.058" width="299.596" height="299.87" style="fill:#8c2da8;fill-opacity:0.9;"/></g><g id="Layer1"><g><path d="M239.277,231.004l-178.76,0l0,-149.485c0,-6.65 5.391,-12.039 12.041,-12.039l154.68,0c6.65,0 12.041,5.387 12.041,12.039l0,149.485l-0.002,0Z" style="fill:#868787;fill-rule:nonzero;"/><g><g><path d="M204.464,202.621c-0.808,0 -1.464,-0.656 -1.464,-1.464l0,-9.034c0,-0.808 0.656,-1.466 1.464,-1.466l5.323,0c0.807,0 1.463,0.658 1.463,1.466l0,9.034c0,0.808 -0.656,1.464 -1.463,1.464l-5.323,0Z" style="fill:#e1e0e0;fill-rule:nonzero;"/><path d="M220.018,202.621c-0.808,0 -1.466,-0.656 -1.466,-1.464l0,-9.034c0,-0.808 0.658,-1.466 1.466,-1.466l5.32,0c0.808,0 1.464,0.658 1.464,1.466l0,9.034c0,0.808 -0.656,1.464 -1.464,1.464l-5.32,0Z" style="fill:#e1e0e0;fill-rule:nonzero;"/><path d="M204.464,171.517c-0.808,0 -1.464,-0.653 -1.464,-1.461l0,-9.032c0,-0.808 0.656,-1.466 1.464,-1.466l5.323,0c0.807,0 1.463,0.658 1.463,1.466l0,9.034c0,0.808 -0.656,1.462 -1.463,1.462l-5.323,0l0,-0.003Z" style="fill:#e1e0e0;fill-rule:nonzero;"/><path d="M220.018,171.517c-0.808,0 -1.466,-0.653 -1.466,-1.461l0,-9.032c0,-0.808 0.658,-1.466 1.466,-1.466l5.32,0c0.808,0 1.464,0.658 1.464,1.466l0,9.034c0,0.808 -0.656,1.462 -1.464,1.462l-5.32,0l0,-0.003Z" style="fill:#e1e0e0;fill-rule:nonzero;"/><path d="M204.464,140.416c-0.808,0 -1.464,-0.656 -1.464,-1.464l0,-9.032c0,-0.81 0.656,-1.466 1.464,-1.466l5.323,0c0.807,0 1.463,0.656 1.463,1.466l0,9.032c0,0.808 -0.656,1.464 -1.463,1.464l-5.323,0Z" style="fill:#e1e0e0;fill-rule:nonzero;"/><path d="M220.018,140.416c-0.808,0 -1.466,-0.656 -1.466,-1.464l0,-9.032c0,-0.81 0.658,-1.466 1.466,-1.466l5.32,0c0.808,0 1.464,0.656 1.464,1.466l0,9.032c0,0.808 -0.656,1.464 -1.464,1.464l-5.32,0Z" style="fill:#e1e0e0;fill-rule:nonzero;"/><path d="M204.464,109.314c-0.808,0 -1.464,-0.658 -1.464,-1.466l0,-9.032c0,-0.808 0.656,-1.461 1.464,-1.461l5.323,0c0.807,0 1.463,0.653 1.463,1.461l0,9.034c0,0.808 -0.656,1.466 -1.463,1.466l-5.323,0l0,-0.002Z" style="fill:#e1e0e0;fill-rule:nonzero;"/><path d="M220.018,109.314c-0.808,0 -1.466,-0.658 -1.466,-1.466l0,-9.032c0,-0.808 0.658,-1.461 1.466,-1.461l5.32,0c0.808,0 1.464,0.653 1.464,1.461l0,9.034c0,0.808 -0.656,1.466 -1.464,1.466l-5.32,0l0,-0.002Z" style="fill:#e1e0e0;fill-rule:nonzero;"/></g><g><path d="M160.897,109.314c-0.808,0 -1.464,-0.658 -1.464,-1.466l0,-9.032c0,-0.808 0.656,-1.461 1.464,-1.461l5.322,0c0.808,0 1.464,0.653 1.464,1.461l0,9.034c0,0.808 -0.656,1.466 -1.464,1.466l-5.322,0l0,-0.002Z" style="fill:#e1e0e0;fill-rule:nonzero;"/><path d="M176.451,109.314c-0.808,0 -1.466,-0.658 -1.466,-1.466l0,-9.032c0,-0.808 0.658,-1.461 1.466,-1.461l5.32,0c0.808,0 1.464,0.653 1.464,1.461l0,9.034c0,0.808 -0.656,1.466 -1.464,1.466l-5.32,0l0,-0.002Z" style="fill:#e1e0e0;fill-rule:nonzero;"/><path d="M160.897,202.621c-0.808,0 -1.464,-0.656 -1.464,-1.464l0,-9.034c0,-0.808 0.656,-1.466 1.464,-1.466l5.322,0c0.808,0 1.464,0.658 1.464,1.466l0,9.034c0,0.808 -0.656,1.464 -1.464,1.464l-5.322,0Z" style="fill:#e1e0e0;fill-rule:nonzero;"/><path d="M176.451,202.621c-0.808,0 -1.466,-0.656 -1.466,-1.464l0,-9.034c0,-0.808 0.658,-1.466 1.466,-1.466l5.32,0c0.808,0 1.464,0.658 1.464,1.466l0,9.034c0,0.808 -0.656,1.464 -1.464,1.464l-5.32,0Z" style="fill:#e1e0e0;fill-rule:nonzero;"/><path d="M160.897,171.517c-0.808,0 -1.464,-0.653 -1.464,-1.461l0,-9.032c0,-0.808 0.656,-1.466 1.464,-1.466l5.322,0c0.808,0 1.464,0.658 1.464,1.466l0,9.034c0,0.808 -0.656,1.462 -1.464,1.462l-5.322,0l0,-0.003Z" style="fill:#e1e0e0;fill-rule:nonzero;"/><path d="M176.451,171.517c-0.808,0 -1.466,-0.653 -1.466,-1.461l0,-9.032c0,-0.808 0.658,-1.466 1.466,-1.466l5.32,0c0.808,0 1.464,0.658 1.464,1.466l0,9.034c0,0.808 -0.656,1.462 -1.464,1.462l-5.32,0l0,-0.003Z" style="fill:#e1e0e0;fill-rule:nonzero;"/><path d="M160.897,140.416c-0.808,0 -1.464,-0.656 -1.464,-1.464l0,-9.032c0,-0.81 0.656,-1.466 1.464,-1.466l5.322,0c0.808,0 1.464,0.656 1.464,1.466l0,9.032c0,0.808 -0.656,1.464 -1.464,1.464l-5.322,0Z" style="fill:#e1e0e0;fill-rule:nonzero;"/><path d="M176.451,140.416c-0.808,0 -1.466,-0.656 -1.466,-1.464l0,-9.032c0,-0.81 0.658,-1.466 1.466,-1.466l5.32,0c0.808,0 1.464,0.656 1.464,1.466l0,9.032c0,0.808 -0.656,1.464 -1.464,1.464l-5.32,0Z" style="fill:#e1e0e0;fill-rule:nonzero;"/></g><g><g><path d="M118.091,202.621c-0.808,0 -1.464,-0.656 -1.464,-1.464l0,-9.034c0,-0.808 0.656,-1.466 1.464,-1.466l5.32,0c0.808,0 1.466,0.658 1.466,1.466l0,9.034c0,0.808 -0.658,1.464 -1.466,1.464l-5.32,0Z" style="fill:#e1e0e0;fill-rule:nonzero;"/><path d="M133.643,202.621c-0.808,0 -1.466,-0.656 -1.466,-1.464l0,-9.034c0,-0.808 0.658,-1.466 1.466,-1.466l5.318,0c0.808,0 1.466,0.658 1.466,1.466l0,9.034c0,0.808 -0.658,1.464 -1.466,1.464l-5.318,0Z" style="fill:#e1e0e0;fill-rule:nonzero;"/></g><g><path d="M118.091,171.517c-0.808,0 -1.464,-0.653 -1.464,-1.461l0,-9.032c0,-0.808 0.656,-1.466 1.464,-1.466l5.32,0c0.808,0 1.466,0.658 1.466,1.466l0,9.034c0,0.808 -0.658,1.462 -1.466,1.462l-5.32,0l0,-0.003Z" style="fill:#e1e0e0;fill-rule:nonzero;"/><path d="M133.643,171.517c-0.808,0 -1.466,-0.653 -1.466,-1.461l0,-9.032c0,-0.808 0.658,-1.466 1.466,-1.466l5.318,0c0.808,0 1.466,0.658 1.466,1.466l0,9.034c0,0.808 -0.658,1.462 -1.466,1.462l-5.318,0l0,-0.003Z" style="fill:#e1e0e0;fill-rule:nonzero;"/></g><g><path d="M118.091,140.416c-0.808,0 -1.464,-0.656 -1.464,-1.464l0,-9.032c0,-0.81 0.656,-1.466 1.464,-1.466l5.32,0c0.808,0 1.466,0.656 1.466,1.466l0,9.032c0,0.808 -0.658,1.464 -1.466,1.464l-5.32,0Z" style="fill:#e1e0e0;fill-rule:nonzero;"/><path d="M133.643,140.416c-0.808,0 -1.466,-0.656 -1.466,-1.464l0,-9.032c0,-0.81 0.658,-1.466 1.466,-1.466l5.318,0c0.808,0 1.466,0.656 1.466,1.466l0,9.032c0,0.808 -0.658,1.464 -1.466,1.464l-5.318,0Z" style="fill:#e1e0e0;fill-rule:nonzero;"/></g><g><path d="M118.091,109.314c-0.808,0 -1.464,-0.658 -1.464,-1.466l0,-9.032c0,-0.808 0.656,-1.461 1.464,-1.461l5.32,0c0.808,0 1.466,0.653 1.466,1.461l0,9.034c0,0.808 -0.658,1.466 -1.466,1.466l-5.32,0l0,-0.002Z" style="fill:#e1e0e0;fill-rule:nonzero;"/><path d="M133.643,109.314c-0.808,0 -1.466,-0.658 -1.466,-1.466l0,-9.032c0,-0.808 0.658,-1.461 1.466,-1.461l5.318,0c0.808,0 1.466,0.653 1.466,1.461l0,9.034c0,0.808 -0.658,1.466 -1.466,1.466l-5.318,0l0,-0.002Z" style="fill:#e1e0e0;fill-rule:nonzero;"/></g></g><g><g><path d="M75.322,202.621c-0.807,0 -1.463,-0.656 -1.463,-1.464l0,-9.034c0,-0.808 0.656,-1.466 1.463,-1.466l5.321,0c0.808,0 1.466,0.658 1.466,1.466l0,9.034c0,0.808 -0.658,1.464 -1.466,1.464l-5.321,0Z" style="fill:#e1e0e0;fill-rule:nonzero;"/><path d="M90.877,202.621c-0.808,0 -1.466,-0.656 -1.466,-1.464l0,-9.034c0,-0.808 0.658,-1.466 1.466,-1.466l5.318,0c0.808,0 1.466,0.658 1.466,1.466l0,9.034c0,0.808 -0.658,1.464 -1.466,1.464l-5.318,0Z" style="fill:#e1e0e0;fill-rule:nonzero;"/></g><g><path d="M75.322,171.517c-0.807,0 -1.463,-0.653 -1.463,-1.461l0,-9.032c0,-0.808 0.656,-1.466 1.463,-1.466l5.321,0c0.808,0 1.466,0.658 1.466,1.466l0,9.034c0,0.808 -0.658,1.462 -1.466,1.462l-5.321,0l0,-0.003Z" style="fill:#e1e0e0;fill-rule:nonzero;"/><path d="M90.877,171.517c-0.808,0 -1.466,-0.653 -1.466,-1.461l0,-9.032c0,-0.808 0.658,-1.466 1.466,-1.466l5.318,0c0.808,0 1.466,0.658 1.466,1.466l0,9.034c0,0.808 -0.658,1.462 -1.466,1.462l-5.318,0l0,-0.003Z" style="fill:#e1e0e0;fill-rule:nonzero;"/></g><g><path d="M75.322,140.416c-0.807,0 -1.463,-0.656 -1.463,-1.464l0,-9.032c0,-0.81 0.656,-1.466 1.463,-1.466l5.321,0c0.808,0 1.466,0.656 1.466,1.466l0,9.032c0,0.808 -0.658,1.464 -1.466,1.464l-5.321,0Z" style="fill:#e1e0e0;fill-rule:nonzero;"/><path d="M90.877,140.416c-0.808,0 -1.466,-0.656 -1.466,-1.464l0,-9.032c0,-0.81 0.658,-1.466 1.466,-1.466l5.318,0c0.808,0 1.466,0.656 1.466,1.466l0,9.032c0,0.808 -0.658,1.464 -1.466,1.464l-5.318,0Z" style="fill:#e1e0e0;fill-rule:nonzero;"/></g><g><path d="M75.322,109.314c-0.807,0 -1.463,-0.658 -1.463,-1.466l0,-9.032c0,-0.808 0.656,-1.461 1.463,-1.461l5.321,0c0.808,0 1.466,0.653 1.466,1.461l0,9.034c0,0.808 -0.658,1.466 -1.466,1.466l-5.321,0l0,-0.002Z" style="fill:#e1e0e0;fill-rule:nonzero;"/><path d="M90.877,109.314c-0.808,0 -1.466,-0.658 -1.466,-1.466l0,-9.032c0,-0.808 0.658,-1.461 1.466,-1.461l5.318,0c0.808,0 1.466,0.653 1.466,1.461l0,9.034c0,0.808 -0.658,1.466 -1.466,1.466l-5.318,0l0,-0.002Z" style="fill:#e1e0e0;fill-rule:nonzero;"/></g></g></g><path d="M60.517,81.519c0,-6.65 5.391,-12.039 12.041,-12.039l154.68,0c6.65,0 12.041,5.387 12.041,12.039l-178.762,0Z" style="fill:#787878;fill-rule:nonzero;"/><path d="M118.113,226.699c-0.808,0 -1.464,-0.654 -1.464,-1.462l0,-9.034c0,-0.808 0.656,-1.466 1.464,-1.466l20.87,0c0.808,0 1.466,0.658 1.466,1.466l0,9.034c0,0.808 -0.658,1.462 -1.466,1.462l-20.87,0Z" style="fill:#e1e0e0;fill-rule:nonzero;"/><path d="M160.897,226.699c-0.808,0 -1.464,-0.654 -1.464,-1.462l0,-9.034c0,-0.808 0.656,-1.466 1.464,-1.466l20.872,0c0.808,0 1.464,0.658 1.464,1.466l0,9.034c0,0.808 -0.656,1.462 -1.464,1.462l-20.872,0Z" style="fill:#e1e0e0;fill-rule:nonzero;"/><g><path d="M145.202,215.857c0,-0.636 0.517,-1.155 1.157,-1.155l7.137,0c0.64,0 1.158,0.519 1.158,1.155l0,15.147l-9.455,0l0,-15.147l0.003,0Z" style="fill:#4d4c4c;fill-rule:nonzero;"/><circle cx="146.681" cy="222.895" r="0.586" style="fill:#cdcccb;"/></g></g></g></svg>