<?xml version="1.0" encoding="UTF-8" standalone="no"?><!DOCTYPE svg PUBLIC "-//W3C//DTD SVG 1.1//EN" "http://www.w3.org/Graphics/SVG/1.1/DTD/svg11.dtd"><svg width="100%" height="100%" viewBox="0 0 300 200" version="1.1" xmlns="http://www.w3.org/2000/svg" xmlns:xlink="http://www.w3.org/1999/xlink" xml:space="preserve" style="fill-rule:evenodd;clip-rule:evenodd;stroke-linejoin:round;stroke-miterlimit:1.41421;"><g id="Layer1"><rect x="-0.191" y="0.113" width="300.234" height="200.306" style="fill:#4054b2;"/><g><path d="M110.581,54.314l0,91.967c0,2.118 1.672,3.79 3.79,3.79l57.745,0l0,-13.154c0,-2.118 1.672,-3.79 3.79,-3.79l13.154,0l0,-78.813c0,-2.118 -1.672,-3.791 -3.79,-3.791l-70.899,0c-2.118,0.112 -3.79,1.784 -3.79,3.791Z" style="fill:#fff;fill-rule:nonzero;"/><path d="M172.116,150.071l13.154,0c2.118,0 3.79,-1.672 3.79,-3.79l0,-13.043l-13.154,0c-2.118,0 -3.79,1.672 -3.79,3.79l0,13.043Z" style="fill:#e6e9ee;fill-rule:nonzero;"/><path d="M172.116,150.071l13.154,0c2.118,0 3.79,-1.672 3.79,-3.79l0,-13.043l-16.944,16.833Z" style="fill:#ced5e0;fill-rule:nonzero;"/><path d="M181.368,122.648l-63.095,0c-0.334,0 -0.557,-0.223 -0.557,-0.557l0,-37.679c0,-0.335 0.223,-0.557 0.557,-0.557l62.984,0c0.334,0 0.557,0.222 0.557,0.557l0,37.679c0.112,0.334 -0.223,0.557 -0.446,0.557Zm-62.538,-1.115l61.869,0l0,-36.564l-61.869,0l0,36.564Z" style="fill:#ced5e0;fill-rule:nonzero;"/><rect x="118.273" y="89.986" width="62.984" height="1.115" style="fill:#ced5e0;"/><rect x="151.493" y="84.412" width="1.115" height="37.679" style="fill:#ced5e0;"/><rect x="166.765" y="84.412" width="1.115" height="37.679" style="fill:#ced5e0;"/><rect x="118.273" y="96.34" width="62.984" height="1.115" style="fill:#ced5e0;"/><rect x="118.273" y="102.694" width="62.984" height="1.115" style="fill:#ced5e0;"/><rect x="118.273" y="109.048" width="62.984" height="1.115" style="fill:#ced5e0;"/><rect x="118.273" y="115.402" width="62.984" height="1.115" style="fill:#ced5e0;"/><rect x="118.273" y="63.845" width="33.169" height="2.221" style="fill:#ff7058;"/><rect x="118.273" y="70.7" width="62.984" height="2.787" style="fill:#84dbff;"/><rect x="118.273" y="77.11" width="34.223" height="2.787" style="fill:#e6e9ee;"/><text x="155.653px" y="66.088px" style="font-family:'Arial-BoldMT', 'Arial', sans-serif;font-weight:700;font-size:6.689px;fill:#ff7058;">INVOICE</text></g></g></svg>