<?xml version="1.0" encoding="UTF-8" standalone="no"?><!DOCTYPE svg PUBLIC "-//W3C//DTD SVG 1.1//EN" "http://www.w3.org/Graphics/SVG/1.1/DTD/svg11.dtd"><svg width="100%" height="100%" viewBox="0 0 300 300" version="1.1" xmlns="http://www.w3.org/2000/svg" xmlns:xlink="http://www.w3.org/1999/xlink" xml:space="preserve" style="fill-rule:evenodd;clip-rule:evenodd;stroke-linejoin:round;stroke-miterlimit:1.41421;"><g id="Layer2"><rect x="0.239" y="0.058" width="299.596" height="299.87" style="fill:#afb339;fill-opacity:0.9;"/></g><g id="Layer1"><g><g><path d="M184.445,239.512l-119.697,0c-2.475,0 -4.5,-2.025 -4.5,-4.5l0,-151.646c0,-2.475 2.025,-4.5 4.5,-4.5l119.697,0c2.475,0 4.5,2.025 4.5,4.5l0,151.871c0,2.25 -2.025,4.275 -4.5,4.275Z" style="fill:#ced5e0;fill-rule:nonzero;"/><rect x="71.946" y="90.339" width="105.52" height="137.694" style="fill:#fff;"/><path d="M146.646,68.291l-13.95,0c0,-4.725 -3.6,-8.55 -8.1,-8.55c-4.5,0 -8.1,3.825 -8.1,8.55l-13.949,0l-6.3,26.324l56.473,0l-6.074,-26.324Z" style="fill:#2b3b4e;fill-rule:nonzero;"/><rect x="78.921" y="137.812" width="20.25" height="20.25" style="fill:#54c0eb;"/><rect x="107.948" y="144.565" width="62.549" height="6.75" style="fill:#ced5e0;"/><rect x="78.921" y="169.313" width="20.25" height="20.25" style="fill:#2c9984;"/><rect x="107.948" y="176.065" width="62.549" height="6.75" style="fill:#f1543f;"/><rect x="78.921" y="201.035" width="20.25" height="20.25" style="fill:#ced5e0;"/><rect x="107.948" y="207.788" width="62.549" height="6.75" style="fill:#ced5e0;"/><circle cx="200.191" cy="199.464" r="40.052" style="fill:#324a5e;"/><circle cx="200.191" cy="199.464" r="31.274" style="fill:#fff;"/><path d="M214.537,196.279c-3.06,-3.372 -6.12,-6.744 -9.181,-10.116c-2.896,-3.192 -7.374,1.78 -4.471,4.979c1.248,1.374 2.495,2.749 3.743,4.124c-4.912,0 -9.825,0 -14.736,0c-4.105,0 -4.141,7.004 -0.046,7.004c4.928,0 9.856,0 14.783,0c-1.256,1.384 -2.512,2.768 -3.768,4.151c-2.896,3.191 1.616,8.125 4.519,4.926c3.061,-3.371 6.121,-6.743 9.181,-10.115c1.229,-1.354 1.196,-3.61 -0.024,-4.953Z" style="fill:#f1543f;fill-rule:nonzero;"/></g><text x="82.975px" y="118.956px" style="font-family:'ArialMT', 'Arial', sans-serif;font-size:14px;fill:#f1543f;">Delivery Note</text></g></g></svg>