<?xml version="1.0" encoding="UTF-8" standalone="no"?><!DOCTYPE svg PUBLIC "-//W3C//DTD SVG 1.1//EN" "http://www.w3.org/Graphics/SVG/1.1/DTD/svg11.dtd"><svg width="100%" height="100%" viewBox="0 0 300 200" version="1.1" xmlns="http://www.w3.org/2000/svg" xmlns:xlink="http://www.w3.org/1999/xlink" xml:space="preserve" style="fill-rule:evenodd;clip-rule:evenodd;stroke-linejoin:round;stroke-miterlimit:1.41421;"><g id="Layer1"><rect x="-0.191" y="0.113" width="300.234" height="200.105" style="fill:#288ae2;"/><g><path d="M172.747,49.903l0,16.175l16.144,0l0,84.223l-76.407,0l0,-100.398l60.263,0Z" style="fill:#fff;fill-rule:nonzero;"/><path d="M172.747,49.903l16.144,16.175l-16.144,0l0,-16.175Z" style="fill:#e6e9ee;fill-rule:nonzero;"/><path d="M149.239,137.928l0,-4.828c-6.066,-0.604 -11.497,-3.018 -16.326,-7.212l4.829,-5.764c3.711,3.229 7.544,5.16 11.467,5.764l0,-12.856c-5.01,-1.207 -8.661,-2.776 -10.985,-4.707c-2.323,-1.931 -3.47,-4.828 -3.47,-8.661c0,-3.832 1.328,-6.94 4.014,-9.385c2.685,-2.444 6.156,-3.742 10.441,-3.983l0,-3.319l4.255,0l0,3.379c4.858,0.362 9.445,2.022 13.79,4.979l-4.285,6.066c-2.927,-2.082 -6.065,-3.35 -9.475,-3.832l0,12.462l0.211,0c5.07,1.208 8.812,2.807 11.196,4.829c2.384,2.022 3.591,4.979 3.591,8.842c0,3.862 -1.358,7.031 -4.104,9.445c-2.746,2.444 -6.368,3.772 -10.864,3.983l0,4.768l-4.285,0l0,0.03Zm-4.677,-42.79c-1.117,0.996 -1.69,2.233 -1.69,3.711c0,1.479 0.452,2.656 1.327,3.501c0.876,0.875 2.565,1.69 5.04,2.474l0,-11.467c-1.992,0.181 -3.561,0.785 -4.677,1.781Zm13.941,29.06c1.237,-1.026 1.841,-2.294 1.841,-3.833c0,-1.539 -0.483,-2.776 -1.449,-3.681c-0.965,-0.905 -2.776,-1.75 -5.431,-2.565l0,11.95c2.142,-0.242 3.802,-0.845 5.039,-1.871Z" style="fill:#f7981d;fill-rule:nonzero;"/><text x="120.822px" y="76.493px" style="font-family:'Arial-BoldMT', 'Arial', sans-serif;font-weight:700;font-size:9.965px;fill:#f7981d;">DEBIT NOTE</text></g></g></svg>