<?xml version="1.0" encoding="UTF-8" standalone="no"?><!DOCTYPE svg PUBLIC "-//W3C//DTD SVG 1.1//EN" "http://www.w3.org/Graphics/SVG/1.1/DTD/svg11.dtd"><svg width="100%" height="100%" viewBox="0 0 300 300" version="1.1" xmlns="http://www.w3.org/2000/svg" xmlns:xlink="http://www.w3.org/1999/xlink" xml:space="preserve" style="fill-rule:evenodd;clip-rule:evenodd;stroke-linejoin:round;stroke-miterlimit:1.41421;"><g id="Layer2"><rect x="0.239" y="0.058" width="299.596" height="300.072" style="fill:#288ae2;fill-opacity:0.9;"/><g><path d="M128.181,220.361l-67.198,0l0,-125.481c0,-4.548 3.685,-8.231 8.229,-8.231l50.74,0c4.544,0 8.229,3.683 8.229,8.231l0,125.481Z" style="fill:#6d6868;fill-rule:nonzero;"/><path d="M60.983,94.88c0,-4.548 3.685,-8.231 8.229,-8.231l50.74,0c4.544,0 8.229,3.683 8.229,8.231l-67.198,0Z" style="fill:#5f5e5e;fill-rule:nonzero;"/><path d="M72.828,217.416c-0.552,0 -0.999,-0.444 -0.999,-0.998l0,-6.175c0,-0.548 0.447,-0.999 0.999,-0.999l14.265,0c0.552,0 1.003,0.451 1.003,0.999l0,6.175c0,0.554 -0.451,0.998 -1.003,0.998l-14.265,0Z" style="fill:#e1e0e0;fill-rule:nonzero;"/><path d="M102.071,217.416c-0.552,0 -1.001,-0.444 -1.001,-0.998l0,-6.175c0,-0.548 0.449,-0.999 1.001,-0.999l14.269,0c0.548,0 0.995,0.451 0.995,0.999l0,6.175c0,0.554 -0.449,0.998 -0.995,0.998l-14.269,0Z" style="fill:#e1e0e0;fill-rule:nonzero;"/><path d="M102.071,200.961c-0.552,0 -1.001,-0.446 -1.001,-0.998l0,-6.175c0,-0.552 0.449,-1.002 1.001,-1.002l3.636,0c0.55,0 1.002,0.45 1.002,1.002l0,6.175c0,0.552 -0.452,0.998 -1.002,0.998l-3.636,0Z" style="fill:#e1e0e0;fill-rule:nonzero;"/><path d="M112.698,200.961c-0.55,0 -1,-0.446 -1,-0.998l0,-6.175c0,-0.552 0.45,-1.002 1,-1.002l3.642,0c0.548,0 0.995,0.45 0.995,1.002l0,6.175c0,0.552 -0.449,0.998 -0.995,0.998l-3.642,0Z" style="fill:#e1e0e0;fill-rule:nonzero;"/><path d="M72.815,200.961c-0.551,0 -1,-0.446 -1,-0.998l0,-6.175c0,-0.552 0.449,-1.002 1,-1.002l3.637,0c0.551,0 1,0.45 1,1.002l0,6.175c0,0.552 -0.449,0.998 -1,0.998l-3.637,0Z" style="fill:#e1e0e0;fill-rule:nonzero;"/><path d="M83.441,200.961c-0.548,0 -1,-0.446 -1,-0.998l0,-6.175c0,-0.552 0.452,-1.002 1,-1.002l3.636,0c0.554,0 1.003,0.45 1.003,1.002l0,6.175c0,0.552 -0.449,0.998 -1.003,0.998l-3.636,0Z" style="fill:#e1e0e0;fill-rule:nonzero;"/><path d="M102.071,179.702c-0.552,0 -1.001,-0.446 -1.001,-0.998l0,-6.175c0,-0.548 0.449,-0.999 1.001,-0.999l3.636,0c0.55,0 1.002,0.451 1.002,0.999l0,6.175c0,0.552 -0.452,0.998 -1.002,0.998l-3.636,0Z" style="fill:#e1e0e0;fill-rule:nonzero;"/><path d="M112.698,179.702c-0.55,0 -1,-0.446 -1,-0.998l0,-6.175c0,-0.548 0.45,-0.999 1,-0.999l3.642,0c0.548,0 0.995,0.451 0.995,0.999l0,6.175c0,0.552 -0.449,0.998 -0.995,0.998l-3.642,0Z" style="fill:#e1e0e0;fill-rule:nonzero;"/><path d="M72.815,179.702c-0.551,0 -1,-0.446 -1,-0.998l0,-6.175c0,-0.548 0.449,-0.999 1,-0.999l3.637,0c0.551,0 1,0.451 1,0.999l0,6.175c0,0.552 -0.449,0.998 -1,0.998l-3.637,0Z" style="fill:#e1e0e0;fill-rule:nonzero;"/><path d="M83.441,179.702c-0.548,0 -1,-0.446 -1,-0.998l0,-6.175c0,-0.548 0.452,-0.999 1,-0.999l3.636,0c0.554,0 1.003,0.451 1.003,0.999l0,6.175c0,0.552 -0.449,0.998 -1.003,0.998l-3.636,0Z" style="fill:#e1e0e0;fill-rule:nonzero;"/><path d="M102.071,158.449c-0.552,0 -1.001,-0.451 -1.001,-0.998l0,-6.177c0,-0.548 0.449,-1.001 1.001,-1.001l3.636,0c0.55,0 1.002,0.453 1.002,1.001l0,6.177c0,0.547 -0.452,0.998 -1.002,0.998l-3.636,0Z" style="fill:#e1e0e0;fill-rule:nonzero;"/><path d="M112.698,158.449c-0.55,0 -1,-0.451 -1,-0.998l0,-6.177c0,-0.548 0.45,-1.001 1,-1.001l3.642,0c0.548,0 0.995,0.453 0.995,1.001l0,6.177c0,0.547 -0.449,0.998 -0.995,0.998l-3.642,0Z" style="fill:#e1e0e0;fill-rule:nonzero;"/><path d="M72.815,158.449c-0.551,0 -1,-0.451 -1,-0.998l0,-6.177c0,-0.548 0.449,-1.001 1,-1.001l3.637,0c0.551,0 1,0.453 1,1.001l0,6.177c0,0.547 -0.449,0.998 -1,0.998l-3.637,0Z" style="fill:#e1e0e0;fill-rule:nonzero;"/><path d="M83.441,158.449c-0.548,0 -1,-0.451 -1,-0.998l0,-6.177c0,-0.548 0.452,-1.001 1,-1.001l3.636,0c0.554,0 1.003,0.453 1.003,1.001l0,6.177c0,0.547 -0.449,0.998 -1.003,0.998l-3.636,0Z" style="fill:#e1e0e0;fill-rule:nonzero;"/><path d="M102.071,137.19c-0.552,0 -1.001,-0.449 -1.001,-0.995l0,-6.18c0,-0.548 0.449,-0.995 1.001,-0.995l3.636,0c0.55,0 1.002,0.449 1.002,0.995l0,6.18c0,0.548 -0.452,0.995 -1.002,0.995l-3.636,0Z" style="fill:#e1e0e0;fill-rule:nonzero;"/><path d="M112.698,137.19c-0.55,0 -1,-0.449 -1,-0.995l0,-6.18c0,-0.548 0.45,-0.995 1,-0.995l3.642,0c0.548,0 0.995,0.449 0.995,0.995l0,6.18c0,0.548 -0.449,0.995 -0.995,0.995l-3.642,0Z" style="fill:#e1e0e0;fill-rule:nonzero;"/><path d="M72.815,137.19c-0.551,0 -1,-0.449 -1,-0.995l0,-6.18c0,-0.548 0.449,-0.995 1,-0.995l3.637,0c0.551,0 1,0.449 1,0.995l0,6.18c0,0.548 -0.449,0.995 -1,0.995l-3.637,0Z" style="fill:#e1e0e0;fill-rule:nonzero;"/><path d="M83.441,137.19c-0.548,0 -1,-0.449 -1,-0.995l0,-6.18c0,-0.548 0.452,-0.995 1,-0.995l3.636,0c0.554,0 1.003,0.449 1.003,0.995l0,6.18c0,0.548 -0.449,0.995 -1.003,0.995l-3.636,0Z" style="fill:#e1e0e0;fill-rule:nonzero;"/><path d="M102.071,115.937c-0.552,0 -1.001,-0.447 -1.001,-0.999l0,-6.175c0,-0.551 0.449,-1.002 1.001,-1.002l3.636,0c0.55,0 1.002,0.451 1.002,1.002l0,6.175c0,0.552 -0.452,0.999 -1.002,0.999l-3.636,0Z" style="fill:#e1e0e0;fill-rule:nonzero;"/><path d="M112.698,115.937c-0.55,0 -1,-0.447 -1,-0.999l0,-6.175c0,-0.551 0.45,-1.002 1,-1.002l3.642,0c0.548,0 0.995,0.451 0.995,1.002l0,6.175c0,0.552 -0.449,0.999 -0.995,0.999l-3.642,0Z" style="fill:#e1e0e0;fill-rule:nonzero;"/><path d="M72.815,115.937c-0.551,0 -1,-0.447 -1,-0.999l0,-6.175c0,-0.551 0.449,-1.002 1,-1.002l3.637,0c0.551,0 1,0.451 1,1.002l0,6.175c0,0.552 -0.449,0.999 -1,0.999l-3.637,0Z" style="fill:#e1e0e0;fill-rule:nonzero;"/><path d="M83.441,115.937c-0.548,0 -1,-0.447 -1,-0.999l0,-6.175c0,-0.551 0.452,-1.002 1,-1.002l3.636,0c0.554,0 1.003,0.451 1.003,1.002l0,6.175c0,0.552 -0.449,0.999 -1.003,0.999l-3.636,0Z" style="fill:#e1e0e0;fill-rule:nonzero;"/><path d="M91.344,210.011c0,-0.439 0.356,-0.795 0.792,-0.795l4.88,0c0.436,0 0.792,0.356 0.792,0.795l0,10.35l-6.462,0l0,-10.35l-0.002,0Z" style="fill:#4d4c4c;fill-rule:nonzero;"/><circle cx="92.355" cy="214.821" r="0.4" style="fill:#cdcccb;"/><path d="M239.777,220.361l-67.196,0l0,-125.481c0,-4.548 3.685,-8.231 8.224,-8.231l50.743,0c4.544,0 8.226,3.683 8.226,8.231l0,125.481l0.003,0Z" style="fill:#6d6868;fill-rule:nonzero;"/><path d="M172.581,94.88c0,-4.548 3.685,-8.231 8.224,-8.231l50.743,0c4.544,0 8.226,3.683 8.226,8.231l-67.193,0Z" style="fill:#5f5e5e;fill-rule:nonzero;"/><path d="M184.421,217.416c-0.547,0 -0.994,-0.444 -0.994,-0.998l0,-6.175c0,-0.548 0.447,-0.999 0.994,-0.999l14.266,0c0.554,0 1.005,0.451 1.005,0.999l0,6.175c0,0.554 -0.451,0.998 -1.005,0.998l-14.266,0Z" style="fill:#e1e0e0;fill-rule:nonzero;"/><path d="M213.666,217.416c-0.551,0 -1,-0.444 -1,-0.998l0,-6.175c0,-0.548 0.449,-0.999 1,-0.999l14.268,0c0.552,0 0.997,0.451 0.997,0.999l0,6.175c0,0.554 -0.445,0.998 -0.997,0.998l-14.268,0Z" style="fill:#e1e0e0;fill-rule:nonzero;"/><path d="M213.666,200.961c-0.551,0 -1,-0.446 -1,-0.998l0,-6.175c0,-0.552 0.449,-1.002 1,-1.002l3.639,0c0.549,0 1.002,0.45 1.002,1.002l0,6.175c0,0.552 -0.453,0.998 -1.002,0.998l-3.639,0Z" style="fill:#e1e0e0;fill-rule:nonzero;"/><path d="M224.296,200.961c-0.55,0 -1.005,-0.446 -1.005,-0.998l0,-6.175c0,-0.552 0.455,-1.002 1.005,-1.002l3.638,0c0.552,0 0.997,0.45 0.997,1.002l0,6.175c0,0.552 -0.445,0.998 -0.997,0.998l-3.638,0Z" style="fill:#e1e0e0;fill-rule:nonzero;"/><path d="M184.409,200.961c-0.55,0 -0.998,-0.446 -0.998,-0.998l0,-6.175c0,-0.552 0.448,-1.002 0.998,-1.002l3.642,0c0.548,0 1.001,0.45 1.001,1.002l0,6.175c0,0.552 -0.453,0.998 -1.001,0.998l-3.642,0Z" style="fill:#e1e0e0;fill-rule:nonzero;"/><path d="M195.037,200.961c-0.548,0 -0.995,-0.446 -0.995,-0.998l0,-6.175c0,-0.552 0.447,-1.002 0.995,-1.002l3.638,0c0.552,0 1.002,0.45 1.002,1.002l0,6.175c0,0.552 -0.45,0.998 -1.002,0.998l-3.638,0Z" style="fill:#e1e0e0;fill-rule:nonzero;"/><path d="M213.666,179.702c-0.551,0 -1,-0.446 -1,-0.998l0,-6.175c0,-0.548 0.449,-0.999 1,-0.999l3.639,0c0.549,0 1.002,0.451 1.002,0.999l0,6.175c0,0.552 -0.453,0.998 -1.002,0.998l-3.639,0Z" style="fill:#e1e0e0;fill-rule:nonzero;"/><path d="M224.296,179.702c-0.55,0 -1.005,-0.446 -1.005,-0.998l0,-6.175c0,-0.548 0.455,-0.999 1.005,-0.999l3.638,0c0.552,0 0.997,0.451 0.997,0.999l0,6.175c0,0.552 -0.445,0.998 -0.997,0.998l-3.638,0Z" style="fill:#e1e0e0;fill-rule:nonzero;"/><path d="M184.409,179.702c-0.55,0 -0.998,-0.446 -0.998,-0.998l0,-6.175c0,-0.548 0.448,-0.999 0.998,-0.999l3.642,0c0.548,0 1.001,0.451 1.001,0.999l0,6.175c0,0.552 -0.453,0.998 -1.001,0.998l-3.642,0Z" style="fill:#e1e0e0;fill-rule:nonzero;"/><path d="M195.037,179.702c-0.548,0 -0.995,-0.446 -0.995,-0.998l0,-6.175c0,-0.548 0.447,-0.999 0.995,-0.999l3.638,0c0.552,0 1.002,0.451 1.002,0.999l0,6.175c0,0.552 -0.45,0.998 -1.002,0.998l-3.638,0Z" style="fill:#e1e0e0;fill-rule:nonzero;"/><path d="M213.666,158.449c-0.551,0 -1,-0.451 -1,-0.998l0,-6.177c0,-0.548 0.449,-1.001 1,-1.001l3.639,0c0.549,0 1.002,0.453 1.002,1.001l0,6.177c0,0.547 -0.453,0.998 -1.002,0.998l-3.639,0Z" style="fill:#e1e0e0;fill-rule:nonzero;"/><path d="M224.296,158.449c-0.55,0 -1.005,-0.451 -1.005,-0.998l0,-6.177c0,-0.548 0.455,-1.001 1.005,-1.001l3.638,0c0.552,0 0.997,0.453 0.997,1.001l0,6.177c0,0.547 -0.445,0.998 -0.997,0.998l-3.638,0Z" style="fill:#e1e0e0;fill-rule:nonzero;"/><path d="M184.409,158.449c-0.55,0 -0.998,-0.451 -0.998,-0.998l0,-6.177c0,-0.548 0.448,-1.001 0.998,-1.001l3.642,0c0.548,0 1.001,0.453 1.001,1.001l0,6.177c0,0.547 -0.453,0.998 -1.001,0.998l-3.642,0Z" style="fill:#e1e0e0;fill-rule:nonzero;"/><path d="M195.037,158.449c-0.548,0 -0.995,-0.451 -0.995,-0.998l0,-6.177c0,-0.548 0.447,-1.001 0.995,-1.001l3.638,0c0.552,0 1.002,0.453 1.002,1.001l0,6.177c0,0.547 -0.45,0.998 -1.002,0.998l-3.638,0Z" style="fill:#e1e0e0;fill-rule:nonzero;"/><path d="M213.666,137.19c-0.551,0 -1,-0.449 -1,-0.995l0,-6.18c0,-0.548 0.449,-0.995 1,-0.995l3.639,0c0.549,0 1.002,0.449 1.002,0.995l0,6.18c0,0.548 -0.453,0.995 -1.002,0.995l-3.639,0Z" style="fill:#e1e0e0;fill-rule:nonzero;"/><path d="M224.296,137.19c-0.55,0 -1.005,-0.449 -1.005,-0.995l0,-6.18c0,-0.548 0.455,-0.995 1.005,-0.995l3.638,0c0.552,0 0.997,0.449 0.997,0.995l0,6.18c0,0.548 -0.445,0.995 -0.997,0.995l-3.638,0Z" style="fill:#e1e0e0;fill-rule:nonzero;"/><path d="M184.409,137.19c-0.55,0 -0.998,-0.449 -0.998,-0.995l0,-6.18c0,-0.548 0.448,-0.995 0.998,-0.995l3.642,0c0.548,0 1.001,0.449 1.001,0.995l0,6.18c0,0.548 -0.453,0.995 -1.001,0.995l-3.642,0Z" style="fill:#e1e0e0;fill-rule:nonzero;"/><path d="M195.037,137.19c-0.548,0 -0.995,-0.449 -0.995,-0.995l0,-6.18c0,-0.548 0.447,-0.995 0.995,-0.995l3.638,0c0.552,0 1.002,0.449 1.002,0.995l0,6.18c0,0.548 -0.45,0.995 -1.002,0.995l-3.638,0Z" style="fill:#e1e0e0;fill-rule:nonzero;"/><path d="M213.666,115.937c-0.551,0 -1,-0.447 -1,-0.999l0,-6.175c0,-0.551 0.449,-1.002 1,-1.002l3.639,0c0.549,0 1.002,0.451 1.002,1.002l0,6.175c0,0.552 -0.453,0.999 -1.002,0.999l-3.639,0Z" style="fill:#e1e0e0;fill-rule:nonzero;"/><path d="M224.296,115.937c-0.55,0 -1.005,-0.447 -1.005,-0.999l0,-6.175c0,-0.551 0.455,-1.002 1.005,-1.002l3.638,0c0.552,0 0.997,0.451 0.997,1.002l0,6.175c0,0.552 -0.445,0.999 -0.997,0.999l-3.638,0Z" style="fill:#e1e0e0;fill-rule:nonzero;"/><path d="M184.409,115.937c-0.55,0 -0.998,-0.447 -0.998,-0.999l0,-6.175c0,-0.551 0.448,-1.002 0.998,-1.002l3.642,0c0.548,0 1.001,0.451 1.001,1.002l0,6.175c0,0.552 -0.453,0.999 -1.001,0.999l-3.642,0Z" style="fill:#e1e0e0;fill-rule:nonzero;"/><path d="M195.037,115.937c-0.548,0 -0.995,-0.447 -0.995,-0.999l0,-6.175c0,-0.551 0.447,-1.002 0.995,-1.002l3.638,0c0.552,0 1.002,0.451 1.002,1.002l0,6.175c0,0.552 -0.45,0.999 -1.002,0.999l-3.638,0Z" style="fill:#e1e0e0;fill-rule:nonzero;"/><path d="M202.938,210.011c0,-0.439 0.355,-0.795 0.796,-0.795l4.875,0c0.437,0 0.795,0.356 0.795,0.795l0,10.35l-6.466,0l0,-10.35Z" style="fill:#4d4c4c;fill-rule:nonzero;"/><circle cx="203.95" cy="214.821" r="0.402" style="fill:#cdcccb;"/><path d="M196.702,240.242l-90.282,0l0,-168.588c0,-6.106 4.95,-11.054 11.056,-11.054l68.172,0c6.106,0 11.056,4.946 11.056,11.054l0,168.588l-0.002,0Z" style="fill:#868787;fill-rule:nonzero;"/><path d="M106.42,71.654c0,-6.106 4.95,-11.054 11.056,-11.054l68.172,0c6.106,0 11.056,4.946 11.056,11.054l-90.284,0Z" style="fill:#787878;fill-rule:nonzero;"/><path d="M122.335,236.288c-0.741,0 -1.344,-0.6 -1.344,-1.342l0,-8.295c0,-0.742 0.603,-1.346 1.344,-1.346l19.164,0c0.741,0 1.346,0.604 1.346,1.346l0,8.295c0,0.742 -0.605,1.342 -1.346,1.342l-19.164,0Z" style="fill:#e1e0e0;fill-rule:nonzero;"/><path d="M161.62,236.288c-0.742,0 -1.344,-0.6 -1.344,-1.342l0,-8.295c0,-0.742 0.602,-1.346 1.344,-1.346l19.165,0c0.742,0 1.344,0.604 1.344,1.346l0,8.295c0,0.742 -0.602,1.342 -1.344,1.342l-19.165,0Z" style="fill:#e1e0e0;fill-rule:nonzero;"/><path d="M161.62,214.18c-0.742,0 -1.344,-0.602 -1.344,-1.344l0,-8.295c0,-0.742 0.602,-1.346 1.344,-1.346l4.887,0c0.742,0 1.344,0.604 1.344,1.346l0,8.295c0,0.742 -0.602,1.344 -1.344,1.344l-4.887,0Z" style="fill:#e1e0e0;fill-rule:nonzero;"/><path d="M175.902,214.18c-0.742,0 -1.346,-0.602 -1.346,-1.344l0,-8.295c0,-0.742 0.604,-1.346 1.346,-1.346l4.885,0c0.742,0 1.344,0.604 1.344,1.346l0,8.295c0,0.742 -0.602,1.344 -1.344,1.344l-4.885,0Z" style="fill:#e1e0e0;fill-rule:nonzero;"/><path d="M122.315,214.18c-0.742,0 -1.344,-0.602 -1.344,-1.344l0,-8.295c0,-0.742 0.602,-1.346 1.344,-1.346l4.886,0c0.741,0 1.346,0.604 1.346,1.346l0,8.295c0,0.742 -0.605,1.344 -1.346,1.344l-4.886,0Z" style="fill:#e1e0e0;fill-rule:nonzero;"/><path d="M136.595,214.18c-0.742,0 -1.346,-0.602 -1.346,-1.344l0,-8.295c0,-0.742 0.604,-1.346 1.346,-1.346l4.883,0c0.742,0 1.347,0.604 1.347,1.346l0,8.295c0,0.742 -0.605,1.344 -1.347,1.344l-4.883,0Z" style="fill:#e1e0e0;fill-rule:nonzero;"/><path d="M161.62,185.62c-0.742,0 -1.344,-0.6 -1.344,-1.342l0,-8.295c0,-0.742 0.602,-1.346 1.344,-1.346l4.887,0c0.742,0 1.344,0.604 1.344,1.346l0,8.295c0,0.742 -0.602,1.342 -1.344,1.342l-4.887,0Z" style="fill:#e1e0e0;fill-rule:nonzero;"/><path d="M175.902,185.62c-0.742,0 -1.346,-0.6 -1.346,-1.342l0,-8.295c0,-0.742 0.604,-1.346 1.346,-1.346l4.885,0c0.742,0 1.344,0.604 1.344,1.346l0,8.295c0,0.742 -0.602,1.342 -1.344,1.342l-4.885,0Z" style="fill:#e1e0e0;fill-rule:nonzero;"/><path d="M122.315,185.62c-0.742,0 -1.344,-0.6 -1.344,-1.342l0,-8.295c0,-0.742 0.602,-1.346 1.344,-1.346l4.886,0c0.741,0 1.346,0.604 1.346,1.346l0,8.295c0,0.742 -0.605,1.342 -1.346,1.342l-4.886,0Z" style="fill:#e1e0e0;fill-rule:nonzero;"/><path d="M136.595,185.62c-0.742,0 -1.346,-0.6 -1.346,-1.342l0,-8.295c0,-0.742 0.604,-1.346 1.346,-1.346l4.883,0c0.742,0 1.347,0.604 1.347,1.346l0,8.295c0,0.742 -0.605,1.342 -1.347,1.342l-4.883,0Z" style="fill:#e1e0e0;fill-rule:nonzero;"/><path d="M161.62,157.063c-0.742,0 -1.344,-0.603 -1.344,-1.345l0,-8.293c0,-0.743 0.602,-1.346 1.344,-1.346l4.887,0c0.742,0 1.344,0.603 1.344,1.346l0,8.293c0,0.742 -0.602,1.345 -1.344,1.345l-4.887,0Z" style="fill:#e1e0e0;fill-rule:nonzero;"/><path d="M175.902,157.063c-0.742,0 -1.346,-0.603 -1.346,-1.345l0,-8.293c0,-0.743 0.604,-1.346 1.346,-1.346l4.885,0c0.742,0 1.344,0.603 1.344,1.346l0,8.293c0,0.742 -0.602,1.345 -1.344,1.345l-4.885,0Z" style="fill:#e1e0e0;fill-rule:nonzero;"/><path d="M122.315,157.063c-0.742,0 -1.344,-0.603 -1.344,-1.345l0,-8.293c0,-0.743 0.602,-1.346 1.344,-1.346l4.886,0c0.741,0 1.346,0.603 1.346,1.346l0,8.293c0,0.742 -0.605,1.345 -1.346,1.345l-4.886,0Z" style="fill:#e1e0e0;fill-rule:nonzero;"/><path d="M136.595,157.063c-0.742,0 -1.346,-0.603 -1.346,-1.345l0,-8.293c0,-0.743 0.604,-1.346 1.346,-1.346l4.883,0c0.742,0 1.347,0.603 1.347,1.346l0,8.293c0,0.742 -0.605,1.345 -1.347,1.345l-4.883,0Z" style="fill:#e1e0e0;fill-rule:nonzero;"/><path d="M161.62,128.505c-0.742,0 -1.344,-0.605 -1.344,-1.346l0,-8.296c0,-0.741 0.602,-1.342 1.344,-1.342l4.887,0c0.742,0 1.344,0.601 1.344,1.342l0,8.296c0,0.741 -0.602,1.346 -1.344,1.346l-4.887,0Z" style="fill:#e1e0e0;fill-rule:nonzero;"/><path d="M175.902,128.505c-0.742,0 -1.346,-0.605 -1.346,-1.346l0,-8.296c0,-0.741 0.604,-1.342 1.346,-1.342l4.885,0c0.742,0 1.344,0.601 1.344,1.342l0,8.296c0,0.741 -0.602,1.346 -1.344,1.346l-4.885,0Z" style="fill:#e1e0e0;fill-rule:nonzero;"/><path d="M122.315,128.505c-0.742,0 -1.344,-0.605 -1.344,-1.346l0,-8.296c0,-0.741 0.602,-1.342 1.344,-1.342l4.886,0c0.741,0 1.346,0.601 1.346,1.342l0,8.296c0,0.741 -0.605,1.346 -1.346,1.346l-4.886,0Z" style="fill:#e1e0e0;fill-rule:nonzero;"/><path d="M136.595,128.505c-0.742,0 -1.346,-0.605 -1.346,-1.346l0,-8.296c0,-0.741 0.604,-1.342 1.346,-1.342l4.883,0c0.742,0 1.347,0.601 1.347,1.342l0,8.296c0,0.741 -0.605,1.346 -1.347,1.346l-4.883,0Z" style="fill:#e1e0e0;fill-rule:nonzero;"/><path d="M161.62,99.945c-0.742,0 -1.344,-0.602 -1.344,-1.344l0,-8.295c0,-0.742 0.602,-1.344 1.344,-1.344l4.887,0c0.742,0 1.344,0.602 1.344,1.344l0,8.295c0,0.742 -0.602,1.344 -1.344,1.344l-4.887,0Z" style="fill:#e1e0e0;fill-rule:nonzero;"/><path d="M175.902,99.945c-0.742,0 -1.346,-0.602 -1.346,-1.344l0,-8.295c0,-0.742 0.604,-1.344 1.346,-1.344l4.885,0c0.742,0 1.344,0.602 1.344,1.344l0,8.295c0,0.742 -0.602,1.344 -1.344,1.344l-4.885,0Z" style="fill:#e1e0e0;fill-rule:nonzero;"/><path d="M122.315,99.945c-0.742,0 -1.344,-0.602 -1.344,-1.344l0,-8.295c0,-0.742 0.602,-1.344 1.344,-1.344l4.886,0c0.741,0 1.346,0.602 1.346,1.344l0,8.295c0,0.742 -0.605,1.344 -1.346,1.344l-4.886,0Z" style="fill:#e1e0e0;fill-rule:nonzero;"/><path d="M136.595,99.945c-0.742,0 -1.346,-0.602 -1.346,-1.344l0,-8.295c0,-0.742 0.604,-1.344 1.346,-1.344l4.883,0c0.742,0 1.347,0.602 1.347,1.344l0,8.295c0,0.742 -0.605,1.344 -1.347,1.344l-4.883,0Z" style="fill:#e1e0e0;fill-rule:nonzero;"/><path d="M147.209,226.334c0,-0.584 0.475,-1.061 1.063,-1.061l6.553,0c0.588,0 1.063,0.477 1.063,1.061l0,13.908l-8.681,0l0,-13.908l0.002,0Z" style="fill:#4d4c4c;fill-rule:nonzero;"/><circle cx="148.567" cy="232.796" r="0.538" style="fill:#cdcccb;"/></g></g></svg>