<?xml version="1.0" encoding="UTF-8" standalone="no"?><!DOCTYPE svg PUBLIC "-//W3C//DTD SVG 1.1//EN" "http://www.w3.org/Graphics/SVG/1.1/DTD/svg11.dtd"><svg width="100%" height="100%" viewBox="0 0 300 200" version="1.1" xmlns="http://www.w3.org/2000/svg" xmlns:xlink="http://www.w3.org/1999/xlink" xml:space="preserve" style="fill-rule:evenodd;clip-rule:evenodd;stroke-linejoin:round;stroke-miterlimit:1.41421;"><g id="Layer1"><rect x="-0.191" y="-0.285" width="300.234" height="200.497" style="fill:#2c9dd8;"/><g><g><path d="M117.934,50.068c-3.084,0 -5.586,2.502 -5.586,5.587l0,89.396c0,3.085 2.502,5.587 5.586,5.587l64.254,0c3.086,0 5.586,-2.502 5.586,-5.587l0,-69.109l-26.93,-25.874l-42.91,0Z" style="fill:#f5f5f5;fill-rule:nonzero;"/><path d="M187.776,75.942l-21.345,0c-3.085,0 -5.586,-2.502 -5.586,-5.587l0,-20.287l26.931,25.874Z" style="fill:#e1e1e1;fill-rule:nonzero;"/><path d="M179.915,83.571c0,0.963 -0.781,1.743 -1.745,1.743l-55.802,0c-0.963,0 -1.743,-0.78 -1.743,-1.743c0,-0.963 0.78,-1.743 1.743,-1.743l55.802,0c0.964,0 1.745,0.78 1.745,1.743Z" style="fill:#c9c9c8;fill-rule:nonzero;"/><path d="M179.915,92.726c0,0.963 -0.781,1.744 -1.745,1.744l-55.802,0c-0.963,0 -1.743,-0.781 -1.743,-1.744c0,-0.962 0.78,-1.743 1.743,-1.743l55.802,0c0.964,0 1.745,0.781 1.745,1.743Z" style="fill:#c9c9c8;fill-rule:nonzero;"/><path d="M179.915,101.446c0,0.963 -0.781,1.743 -1.745,1.743l-55.802,0c-0.963,0 -1.743,-0.78 -1.743,-1.743c0,-0.963 0.78,-1.743 1.743,-1.743l55.802,0c0.964,-0.002 1.745,0.78 1.745,1.743Z" style="fill:#c9c9c8;fill-rule:nonzero;"/><path d="M179.915,110.601c0,0.963 -0.781,1.744 -1.745,1.744l-55.802,0c-0.963,0 -1.743,-0.781 -1.743,-1.744c0,-0.962 0.78,-1.743 1.743,-1.743l55.802,0c0.964,-0.002 1.745,0.781 1.745,1.743Z" style="fill:#c9c9c8;fill-rule:nonzero;"/><path d="M151.578,118.012l-29.21,0c-0.963,0 -1.743,0.781 -1.743,1.743c0,0.963 0.78,1.744 1.743,1.744l29.21,0c0.964,0 1.745,-0.781 1.745,-1.744c0,-0.962 -0.781,-1.743 -1.745,-1.743Z" style="fill:#c9c9c8;fill-rule:nonzero;"/></g></g></g></svg>